<?xml version="1.0" encoding="utf-8" standalone="no"?>
<!DOCTYPE svg PUBLIC "-//W3C//DTD SVG 1.1//EN"
  "http://www.w3.org/Graphics/SVG/1.1/DTD/svg11.dtd">
<svg xmlns:xlink="http://www.w3.org/1999/xlink" width="864pt" height="504pt" viewBox="0 0 864 504" xmlns="http://www.w3.org/2000/svg" version="1.1">
 <metadata>
  <rdf:RDF xmlns:dc="http://purl.org/dc/elements/1.1/" xmlns:cc="http://creativecommons.org/ns#" xmlns:rdf="http://www.w3.org/1999/02/22-rdf-syntax-ns#">
   <cc:Work>
    <dc:type rdf:resource="http://purl.org/dc/dcmitype/StillImage"/>
    <dc:date>2026-04-26T20:25:02.344952</dc:date>
    <dc:format>image/svg+xml</dc:format>
    <dc:creator>
     <cc:Agent>
      <dc:title>Matplotlib v3.10.8, https://matplotlib.org/</dc:title>
     </cc:Agent>
    </dc:creator>
   </cc:Work>
  </rdf:RDF>
 </metadata>
 <defs>
  <style type="text/css">*{stroke-linejoin: round; stroke-linecap: butt}</style>
 </defs>
 <g id="figure_1">
  <g id="patch_1">
   <path d="M 0 504 
L 864 504 
L 864 0 
L 0 0 
z
" style="fill: #ffffff"/>
  </g>
  <g id="axes_1">
   <g id="patch_2">
    <path d="M 52.52 241.220909 
L 851.115364 241.220909 
L 851.115364 33.741818 
L 52.52 33.741818 
z
" style="fill: #ffffff"/>
   </g>
   <g id="matplotlib.axis_1">
    <g id="xtick_1">
     <g id="line2d_1">
      <path d="M 88.819789 241.220909 
L 88.819789 33.741818 
" clip-path="url(#pd06fda13d9)" style="fill: none; stroke: #b0b0b0; stroke-opacity: 0.3; stroke-width: 0.8; stroke-linecap: square"/>
     </g>
     <g id="line2d_2">
      <defs>
       <path id="m86cfbf169a" d="M 0 0 
L 0 3.5 
" style="stroke: #000000; stroke-width: 0.8"/>
      </defs>
      <g>
       <use xlink:href="#m86cfbf169a" x="88.819789" y="241.220909" style="stroke: #000000; stroke-width: 0.8"/>
      </g>
     </g>
    </g>
    <g id="xtick_2">
     <g id="line2d_3">
      <path d="M 215.01922 241.220909 
L 215.01922 33.741818 
" clip-path="url(#pd06fda13d9)" style="fill: none; stroke: #b0b0b0; stroke-opacity: 0.3; stroke-width: 0.8; stroke-linecap: square"/>
     </g>
     <g id="line2d_4">
      <g>
       <use xlink:href="#m86cfbf169a" x="215.01922" y="241.220909" style="stroke: #000000; stroke-width: 0.8"/>
      </g>
     </g>
    </g>
    <g id="xtick_3">
     <g id="line2d_5">
      <path d="M 341.21865 241.220909 
L 341.21865 33.741818 
" clip-path="url(#pd06fda13d9)" style="fill: none; stroke: #b0b0b0; stroke-opacity: 0.3; stroke-width: 0.8; stroke-linecap: square"/>
     </g>
     <g id="line2d_6">
      <g>
       <use xlink:href="#m86cfbf169a" x="341.21865" y="241.220909" style="stroke: #000000; stroke-width: 0.8"/>
      </g>
     </g>
    </g>
    <g id="xtick_4">
     <g id="line2d_7">
      <path d="M 467.41808 241.220909 
L 467.41808 33.741818 
" clip-path="url(#pd06fda13d9)" style="fill: none; stroke: #b0b0b0; stroke-opacity: 0.3; stroke-width: 0.8; stroke-linecap: square"/>
     </g>
     <g id="line2d_8">
      <g>
       <use xlink:href="#m86cfbf169a" x="467.41808" y="241.220909" style="stroke: #000000; stroke-width: 0.8"/>
      </g>
     </g>
    </g>
    <g id="xtick_5">
     <g id="line2d_9">
      <path d="M 593.61751 241.220909 
L 593.61751 33.741818 
" clip-path="url(#pd06fda13d9)" style="fill: none; stroke: #b0b0b0; stroke-opacity: 0.3; stroke-width: 0.8; stroke-linecap: square"/>
     </g>
     <g id="line2d_10">
      <g>
       <use xlink:href="#m86cfbf169a" x="593.61751" y="241.220909" style="stroke: #000000; stroke-width: 0.8"/>
      </g>
     </g>
    </g>
    <g id="xtick_6">
     <g id="line2d_11">
      <path d="M 719.816941 241.220909 
L 719.816941 33.741818 
" clip-path="url(#pd06fda13d9)" style="fill: none; stroke: #b0b0b0; stroke-opacity: 0.3; stroke-width: 0.8; stroke-linecap: square"/>
     </g>
     <g id="line2d_12">
      <g>
       <use xlink:href="#m86cfbf169a" x="719.816941" y="241.220909" style="stroke: #000000; stroke-width: 0.8"/>
      </g>
     </g>
    </g>
    <g id="xtick_7">
     <g id="line2d_13">
      <path d="M 846.016371 241.220909 
L 846.016371 33.741818 
" clip-path="url(#pd06fda13d9)" style="fill: none; stroke: #b0b0b0; stroke-opacity: 0.3; stroke-width: 0.8; stroke-linecap: square"/>
     </g>
     <g id="line2d_14">
      <g>
       <use xlink:href="#m86cfbf169a" x="846.016371" y="241.220909" style="stroke: #000000; stroke-width: 0.8"/>
      </g>
     </g>
    </g>
   </g>
   <g id="matplotlib.axis_2">
    <g id="ytick_1">
     <g id="line2d_15">
      <path d="M 52.52 231.790041 
L 851.115364 231.790041 
" clip-path="url(#pd06fda13d9)" style="fill: none; stroke: #b0b0b0; stroke-opacity: 0.3; stroke-width: 0.8; stroke-linecap: square"/>
     </g>
     <g id="line2d_16">
      <defs>
       <path id="mebd70ebe15" d="M 0 0 
L -3.5 0 
" style="stroke: #000000; stroke-width: 0.8"/>
      </defs>
      <g>
       <use xlink:href="#mebd70ebe15" x="52.52" y="231.790041" style="stroke: #000000; stroke-width: 0.8"/>
      </g>
     </g>
     <g id="text_1">
      <!-- −10.0 -->
      <g transform="translate(14.874688 235.58926) scale(0.1 -0.1)">
       <defs>
        <path id="DejaVuSans-2212" d="M 678 2272 
L 4684 2272 
L 4684 1741 
L 678 1741 
L 678 2272 
z
" transform="scale(0.015625)"/>
        <path id="DejaVuSans-31" d="M 794 531 
L 1825 531 
L 1825 4091 
L 703 3866 
L 703 4441 
L 1819 4666 
L 2450 4666 
L 2450 531 
L 3481 531 
L 3481 0 
L 794 0 
L 794 531 
z
" transform="scale(0.015625)"/>
        <path id="DejaVuSans-30" d="M 2034 4250 
Q 1547 4250 1301 3770 
Q 1056 3291 1056 2328 
Q 1056 1369 1301 889 
Q 1547 409 2034 409 
Q 2525 409 2770 889 
Q 3016 1369 3016 2328 
Q 3016 3291 2770 3770 
Q 2525 4250 2034 4250 
z
M 2034 4750 
Q 2819 4750 3233 4129 
Q 3647 3509 3647 2328 
Q 3647 1150 3233 529 
Q 2819 -91 2034 -91 
Q 1250 -91 836 529 
Q 422 1150 422 2328 
Q 422 3509 836 4129 
Q 1250 4750 2034 4750 
z
" transform="scale(0.015625)"/>
        <path id="DejaVuSans-2e" d="M 684 794 
L 1344 794 
L 1344 0 
L 684 0 
L 684 794 
z
" transform="scale(0.015625)"/>
       </defs>
       <use xlink:href="#DejaVuSans-2212"/>
       <use xlink:href="#DejaVuSans-31" transform="translate(83.789062 0)"/>
       <use xlink:href="#DejaVuSans-30" transform="translate(147.412109 0)"/>
       <use xlink:href="#DejaVuSans-2e" transform="translate(211.035156 0)"/>
       <use xlink:href="#DejaVuSans-30" transform="translate(242.822266 0)"/>
      </g>
     </g>
    </g>
    <g id="ytick_2">
     <g id="line2d_17">
      <path d="M 52.52 208.212872 
L 851.115364 208.212872 
" clip-path="url(#pd06fda13d9)" style="fill: none; stroke: #b0b0b0; stroke-opacity: 0.3; stroke-width: 0.8; stroke-linecap: square"/>
     </g>
     <g id="line2d_18">
      <g>
       <use xlink:href="#mebd70ebe15" x="52.52" y="208.212872" style="stroke: #000000; stroke-width: 0.8"/>
      </g>
     </g>
     <g id="text_2">
      <!-- −7.5 -->
      <g transform="translate(21.237188 212.012091) scale(0.1 -0.1)">
       <defs>
        <path id="DejaVuSans-37" d="M 525 4666 
L 3525 4666 
L 3525 4397 
L 1831 0 
L 1172 0 
L 2766 4134 
L 525 4134 
L 525 4666 
z
" transform="scale(0.015625)"/>
        <path id="DejaVuSans-35" d="M 691 4666 
L 3169 4666 
L 3169 4134 
L 1269 4134 
L 1269 2991 
Q 1406 3038 1543 3061 
Q 1681 3084 1819 3084 
Q 2600 3084 3056 2656 
Q 3513 2228 3513 1497 
Q 3513 744 3044 326 
Q 2575 -91 1722 -91 
Q 1428 -91 1123 -41 
Q 819 9 494 109 
L 494 744 
Q 775 591 1075 516 
Q 1375 441 1709 441 
Q 2250 441 2565 725 
Q 2881 1009 2881 1497 
Q 2881 1984 2565 2268 
Q 2250 2553 1709 2553 
Q 1456 2553 1204 2497 
Q 953 2441 691 2322 
L 691 4666 
z
" transform="scale(0.015625)"/>
       </defs>
       <use xlink:href="#DejaVuSans-2212"/>
       <use xlink:href="#DejaVuSans-37" transform="translate(83.789062 0)"/>
       <use xlink:href="#DejaVuSans-2e" transform="translate(147.412109 0)"/>
       <use xlink:href="#DejaVuSans-35" transform="translate(179.199219 0)"/>
      </g>
     </g>
    </g>
    <g id="ytick_3">
     <g id="line2d_19">
      <path d="M 52.52 184.635702 
L 851.115364 184.635702 
" clip-path="url(#pd06fda13d9)" style="fill: none; stroke: #b0b0b0; stroke-opacity: 0.3; stroke-width: 0.8; stroke-linecap: square"/>
     </g>
     <g id="line2d_20">
      <g>
       <use xlink:href="#mebd70ebe15" x="52.52" y="184.635702" style="stroke: #000000; stroke-width: 0.8"/>
      </g>
     </g>
     <g id="text_3">
      <!-- −5.0 -->
      <g transform="translate(21.237188 188.434921) scale(0.1 -0.1)">
       <use xlink:href="#DejaVuSans-2212"/>
       <use xlink:href="#DejaVuSans-35" transform="translate(83.789062 0)"/>
       <use xlink:href="#DejaVuSans-2e" transform="translate(147.412109 0)"/>
       <use xlink:href="#DejaVuSans-30" transform="translate(179.199219 0)"/>
      </g>
     </g>
    </g>
    <g id="ytick_4">
     <g id="line2d_21">
      <path d="M 52.52 161.058533 
L 851.115364 161.058533 
" clip-path="url(#pd06fda13d9)" style="fill: none; stroke: #b0b0b0; stroke-opacity: 0.3; stroke-width: 0.8; stroke-linecap: square"/>
     </g>
     <g id="line2d_22">
      <g>
       <use xlink:href="#mebd70ebe15" x="52.52" y="161.058533" style="stroke: #000000; stroke-width: 0.8"/>
      </g>
     </g>
     <g id="text_4">
      <!-- −2.5 -->
      <g transform="translate(21.237188 164.857752) scale(0.1 -0.1)">
       <defs>
        <path id="DejaVuSans-32" d="M 1228 531 
L 3431 531 
L 3431 0 
L 469 0 
L 469 531 
Q 828 903 1448 1529 
Q 2069 2156 2228 2338 
Q 2531 2678 2651 2914 
Q 2772 3150 2772 3378 
Q 2772 3750 2511 3984 
Q 2250 4219 1831 4219 
Q 1534 4219 1204 4116 
Q 875 4013 500 3803 
L 500 4441 
Q 881 4594 1212 4672 
Q 1544 4750 1819 4750 
Q 2544 4750 2975 4387 
Q 3406 4025 3406 3419 
Q 3406 3131 3298 2873 
Q 3191 2616 2906 2266 
Q 2828 2175 2409 1742 
Q 1991 1309 1228 531 
z
" transform="scale(0.015625)"/>
       </defs>
       <use xlink:href="#DejaVuSans-2212"/>
       <use xlink:href="#DejaVuSans-32" transform="translate(83.789062 0)"/>
       <use xlink:href="#DejaVuSans-2e" transform="translate(147.412109 0)"/>
       <use xlink:href="#DejaVuSans-35" transform="translate(179.199219 0)"/>
      </g>
     </g>
    </g>
    <g id="ytick_5">
     <g id="line2d_23">
      <path d="M 52.52 137.481364 
L 851.115364 137.481364 
" clip-path="url(#pd06fda13d9)" style="fill: none; stroke: #b0b0b0; stroke-opacity: 0.3; stroke-width: 0.8; stroke-linecap: square"/>
     </g>
     <g id="line2d_24">
      <g>
       <use xlink:href="#mebd70ebe15" x="52.52" y="137.481364" style="stroke: #000000; stroke-width: 0.8"/>
      </g>
     </g>
     <g id="text_5">
      <!-- 0.0 -->
      <g transform="translate(29.616875 141.280582) scale(0.1 -0.1)">
       <use xlink:href="#DejaVuSans-30"/>
       <use xlink:href="#DejaVuSans-2e" transform="translate(63.623047 0)"/>
       <use xlink:href="#DejaVuSans-30" transform="translate(95.410156 0)"/>
      </g>
     </g>
    </g>
    <g id="ytick_6">
     <g id="line2d_25">
      <path d="M 52.52 113.904194 
L 851.115364 113.904194 
" clip-path="url(#pd06fda13d9)" style="fill: none; stroke: #b0b0b0; stroke-opacity: 0.3; stroke-width: 0.8; stroke-linecap: square"/>
     </g>
     <g id="line2d_26">
      <g>
       <use xlink:href="#mebd70ebe15" x="52.52" y="113.904194" style="stroke: #000000; stroke-width: 0.8"/>
      </g>
     </g>
     <g id="text_6">
      <!-- 2.5 -->
      <g transform="translate(29.616875 117.703413) scale(0.1 -0.1)">
       <use xlink:href="#DejaVuSans-32"/>
       <use xlink:href="#DejaVuSans-2e" transform="translate(63.623047 0)"/>
       <use xlink:href="#DejaVuSans-35" transform="translate(95.410156 0)"/>
      </g>
     </g>
    </g>
    <g id="ytick_7">
     <g id="line2d_27">
      <path d="M 52.52 90.327025 
L 851.115364 90.327025 
" clip-path="url(#pd06fda13d9)" style="fill: none; stroke: #b0b0b0; stroke-opacity: 0.3; stroke-width: 0.8; stroke-linecap: square"/>
     </g>
     <g id="line2d_28">
      <g>
       <use xlink:href="#mebd70ebe15" x="52.52" y="90.327025" style="stroke: #000000; stroke-width: 0.8"/>
      </g>
     </g>
     <g id="text_7">
      <!-- 5.0 -->
      <g transform="translate(29.616875 94.126244) scale(0.1 -0.1)">
       <use xlink:href="#DejaVuSans-35"/>
       <use xlink:href="#DejaVuSans-2e" transform="translate(63.623047 0)"/>
       <use xlink:href="#DejaVuSans-30" transform="translate(95.410156 0)"/>
      </g>
     </g>
    </g>
    <g id="ytick_8">
     <g id="line2d_29">
      <path d="M 52.52 66.749855 
L 851.115364 66.749855 
" clip-path="url(#pd06fda13d9)" style="fill: none; stroke: #b0b0b0; stroke-opacity: 0.3; stroke-width: 0.8; stroke-linecap: square"/>
     </g>
     <g id="line2d_30">
      <g>
       <use xlink:href="#mebd70ebe15" x="52.52" y="66.749855" style="stroke: #000000; stroke-width: 0.8"/>
      </g>
     </g>
     <g id="text_8">
      <!-- 7.5 -->
      <g transform="translate(29.616875 70.549074) scale(0.1 -0.1)">
       <use xlink:href="#DejaVuSans-37"/>
       <use xlink:href="#DejaVuSans-2e" transform="translate(63.623047 0)"/>
       <use xlink:href="#DejaVuSans-35" transform="translate(95.410156 0)"/>
      </g>
     </g>
    </g>
    <g id="ytick_9">
     <g id="line2d_31">
      <path d="M 52.52 43.172686 
L 851.115364 43.172686 
" clip-path="url(#pd06fda13d9)" style="fill: none; stroke: #b0b0b0; stroke-opacity: 0.3; stroke-width: 0.8; stroke-linecap: square"/>
     </g>
     <g id="line2d_32">
      <g>
       <use xlink:href="#mebd70ebe15" x="52.52" y="43.172686" style="stroke: #000000; stroke-width: 0.8"/>
      </g>
     </g>
     <g id="text_9">
      <!-- 10.0 -->
      <g transform="translate(23.254375 46.971905) scale(0.1 -0.1)">
       <use xlink:href="#DejaVuSans-31"/>
       <use xlink:href="#DejaVuSans-30" transform="translate(63.623047 0)"/>
       <use xlink:href="#DejaVuSans-2e" transform="translate(127.246094 0)"/>
       <use xlink:href="#DejaVuSans-30" transform="translate(159.033203 0)"/>
      </g>
     </g>
    </g>
    <g id="text_10">
     <!-- output velocity (deg/s) -->
     <g transform="translate(8.795 194.308707) rotate(-90) scale(0.1 -0.1)">
      <defs>
       <path id="DejaVuSans-6f" d="M 1959 3097 
Q 1497 3097 1228 2736 
Q 959 2375 959 1747 
Q 959 1119 1226 758 
Q 1494 397 1959 397 
Q 2419 397 2687 759 
Q 2956 1122 2956 1747 
Q 2956 2369 2687 2733 
Q 2419 3097 1959 3097 
z
M 1959 3584 
Q 2709 3584 3137 3096 
Q 3566 2609 3566 1747 
Q 3566 888 3137 398 
Q 2709 -91 1959 -91 
Q 1206 -91 779 398 
Q 353 888 353 1747 
Q 353 2609 779 3096 
Q 1206 3584 1959 3584 
z
" transform="scale(0.015625)"/>
       <path id="DejaVuSans-75" d="M 544 1381 
L 544 3500 
L 1119 3500 
L 1119 1403 
Q 1119 906 1312 657 
Q 1506 409 1894 409 
Q 2359 409 2629 706 
Q 2900 1003 2900 1516 
L 2900 3500 
L 3475 3500 
L 3475 0 
L 2900 0 
L 2900 538 
Q 2691 219 2414 64 
Q 2138 -91 1772 -91 
Q 1169 -91 856 284 
Q 544 659 544 1381 
z
M 1991 3584 
L 1991 3584 
z
" transform="scale(0.015625)"/>
       <path id="DejaVuSans-74" d="M 1172 4494 
L 1172 3500 
L 2356 3500 
L 2356 3053 
L 1172 3053 
L 1172 1153 
Q 1172 725 1289 603 
Q 1406 481 1766 481 
L 2356 481 
L 2356 0 
L 1766 0 
Q 1100 0 847 248 
Q 594 497 594 1153 
L 594 3053 
L 172 3053 
L 172 3500 
L 594 3500 
L 594 4494 
L 1172 4494 
z
" transform="scale(0.015625)"/>
       <path id="DejaVuSans-70" d="M 1159 525 
L 1159 -1331 
L 581 -1331 
L 581 3500 
L 1159 3500 
L 1159 2969 
Q 1341 3281 1617 3432 
Q 1894 3584 2278 3584 
Q 2916 3584 3314 3078 
Q 3713 2572 3713 1747 
Q 3713 922 3314 415 
Q 2916 -91 2278 -91 
Q 1894 -91 1617 61 
Q 1341 213 1159 525 
z
M 3116 1747 
Q 3116 2381 2855 2742 
Q 2594 3103 2138 3103 
Q 1681 3103 1420 2742 
Q 1159 2381 1159 1747 
Q 1159 1113 1420 752 
Q 1681 391 2138 391 
Q 2594 391 2855 752 
Q 3116 1113 3116 1747 
z
" transform="scale(0.015625)"/>
       <path id="DejaVuSans-20" transform="scale(0.015625)"/>
       <path id="DejaVuSans-76" d="M 191 3500 
L 800 3500 
L 1894 563 
L 2988 3500 
L 3597 3500 
L 2284 0 
L 1503 0 
L 191 3500 
z
" transform="scale(0.015625)"/>
       <path id="DejaVuSans-65" d="M 3597 1894 
L 3597 1613 
L 953 1613 
Q 991 1019 1311 708 
Q 1631 397 2203 397 
Q 2534 397 2845 478 
Q 3156 559 3463 722 
L 3463 178 
Q 3153 47 2828 -22 
Q 2503 -91 2169 -91 
Q 1331 -91 842 396 
Q 353 884 353 1716 
Q 353 2575 817 3079 
Q 1281 3584 2069 3584 
Q 2775 3584 3186 3129 
Q 3597 2675 3597 1894 
z
M 3022 2063 
Q 3016 2534 2758 2815 
Q 2500 3097 2075 3097 
Q 1594 3097 1305 2825 
Q 1016 2553 972 2059 
L 3022 2063 
z
" transform="scale(0.015625)"/>
       <path id="DejaVuSans-6c" d="M 603 4863 
L 1178 4863 
L 1178 0 
L 603 0 
L 603 4863 
z
" transform="scale(0.015625)"/>
       <path id="DejaVuSans-63" d="M 3122 3366 
L 3122 2828 
Q 2878 2963 2633 3030 
Q 2388 3097 2138 3097 
Q 1578 3097 1268 2742 
Q 959 2388 959 1747 
Q 959 1106 1268 751 
Q 1578 397 2138 397 
Q 2388 397 2633 464 
Q 2878 531 3122 666 
L 3122 134 
Q 2881 22 2623 -34 
Q 2366 -91 2075 -91 
Q 1284 -91 818 406 
Q 353 903 353 1747 
Q 353 2603 823 3093 
Q 1294 3584 2113 3584 
Q 2378 3584 2631 3529 
Q 2884 3475 3122 3366 
z
" transform="scale(0.015625)"/>
       <path id="DejaVuSans-69" d="M 603 3500 
L 1178 3500 
L 1178 0 
L 603 0 
L 603 3500 
z
M 603 4863 
L 1178 4863 
L 1178 4134 
L 603 4134 
L 603 4863 
z
" transform="scale(0.015625)"/>
       <path id="DejaVuSans-79" d="M 2059 -325 
Q 1816 -950 1584 -1140 
Q 1353 -1331 966 -1331 
L 506 -1331 
L 506 -850 
L 844 -850 
Q 1081 -850 1212 -737 
Q 1344 -625 1503 -206 
L 1606 56 
L 191 3500 
L 800 3500 
L 1894 763 
L 2988 3500 
L 3597 3500 
L 2059 -325 
z
" transform="scale(0.015625)"/>
       <path id="DejaVuSans-28" d="M 1984 4856 
Q 1566 4138 1362 3434 
Q 1159 2731 1159 2009 
Q 1159 1288 1364 580 
Q 1569 -128 1984 -844 
L 1484 -844 
Q 1016 -109 783 600 
Q 550 1309 550 2009 
Q 550 2706 781 3412 
Q 1013 4119 1484 4856 
L 1984 4856 
z
" transform="scale(0.015625)"/>
       <path id="DejaVuSans-64" d="M 2906 2969 
L 2906 4863 
L 3481 4863 
L 3481 0 
L 2906 0 
L 2906 525 
Q 2725 213 2448 61 
Q 2172 -91 1784 -91 
Q 1150 -91 751 415 
Q 353 922 353 1747 
Q 353 2572 751 3078 
Q 1150 3584 1784 3584 
Q 2172 3584 2448 3432 
Q 2725 3281 2906 2969 
z
M 947 1747 
Q 947 1113 1208 752 
Q 1469 391 1925 391 
Q 2381 391 2643 752 
Q 2906 1113 2906 1747 
Q 2906 2381 2643 2742 
Q 2381 3103 1925 3103 
Q 1469 3103 1208 2742 
Q 947 2381 947 1747 
z
" transform="scale(0.015625)"/>
       <path id="DejaVuSans-67" d="M 2906 1791 
Q 2906 2416 2648 2759 
Q 2391 3103 1925 3103 
Q 1463 3103 1205 2759 
Q 947 2416 947 1791 
Q 947 1169 1205 825 
Q 1463 481 1925 481 
Q 2391 481 2648 825 
Q 2906 1169 2906 1791 
z
M 3481 434 
Q 3481 -459 3084 -895 
Q 2688 -1331 1869 -1331 
Q 1566 -1331 1297 -1286 
Q 1028 -1241 775 -1147 
L 775 -588 
Q 1028 -725 1275 -790 
Q 1522 -856 1778 -856 
Q 2344 -856 2625 -561 
Q 2906 -266 2906 331 
L 2906 616 
Q 2728 306 2450 153 
Q 2172 0 1784 0 
Q 1141 0 747 490 
Q 353 981 353 1791 
Q 353 2603 747 3093 
Q 1141 3584 1784 3584 
Q 2172 3584 2450 3431 
Q 2728 3278 2906 2969 
L 2906 3500 
L 3481 3500 
L 3481 434 
z
" transform="scale(0.015625)"/>
       <path id="DejaVuSans-2f" d="M 1625 4666 
L 2156 4666 
L 531 -594 
L 0 -594 
L 1625 4666 
z
" transform="scale(0.015625)"/>
       <path id="DejaVuSans-73" d="M 2834 3397 
L 2834 2853 
Q 2591 2978 2328 3040 
Q 2066 3103 1784 3103 
Q 1356 3103 1142 2972 
Q 928 2841 928 2578 
Q 928 2378 1081 2264 
Q 1234 2150 1697 2047 
L 1894 2003 
Q 2506 1872 2764 1633 
Q 3022 1394 3022 966 
Q 3022 478 2636 193 
Q 2250 -91 1575 -91 
Q 1294 -91 989 -36 
Q 684 19 347 128 
L 347 722 
Q 666 556 975 473 
Q 1284 391 1588 391 
Q 1994 391 2212 530 
Q 2431 669 2431 922 
Q 2431 1156 2273 1281 
Q 2116 1406 1581 1522 
L 1381 1569 
Q 847 1681 609 1914 
Q 372 2147 372 2553 
Q 372 3047 722 3315 
Q 1072 3584 1716 3584 
Q 2034 3584 2315 3537 
Q 2597 3491 2834 3397 
z
" transform="scale(0.015625)"/>
       <path id="DejaVuSans-29" d="M 513 4856 
L 1013 4856 
Q 1481 4119 1714 3412 
Q 1947 2706 1947 2009 
Q 1947 1309 1714 600 
Q 1481 -109 1013 -844 
L 513 -844 
Q 928 -128 1133 580 
Q 1338 1288 1338 2009 
Q 1338 2731 1133 3434 
Q 928 4138 513 4856 
z
" transform="scale(0.015625)"/>
      </defs>
      <use xlink:href="#DejaVuSans-6f"/>
      <use xlink:href="#DejaVuSans-75" transform="translate(61.181641 0)"/>
      <use xlink:href="#DejaVuSans-74" transform="translate(124.560547 0)"/>
      <use xlink:href="#DejaVuSans-70" transform="translate(163.769531 0)"/>
      <use xlink:href="#DejaVuSans-75" transform="translate(227.246094 0)"/>
      <use xlink:href="#DejaVuSans-74" transform="translate(290.625 0)"/>
      <use xlink:href="#DejaVuSans-20" transform="translate(329.833984 0)"/>
      <use xlink:href="#DejaVuSans-76" transform="translate(361.621094 0)"/>
      <use xlink:href="#DejaVuSans-65" transform="translate(420.800781 0)"/>
      <use xlink:href="#DejaVuSans-6c" transform="translate(482.324219 0)"/>
      <use xlink:href="#DejaVuSans-6f" transform="translate(510.107422 0)"/>
      <use xlink:href="#DejaVuSans-63" transform="translate(571.289062 0)"/>
      <use xlink:href="#DejaVuSans-69" transform="translate(626.269531 0)"/>
      <use xlink:href="#DejaVuSans-74" transform="translate(654.052734 0)"/>
      <use xlink:href="#DejaVuSans-79" transform="translate(693.261719 0)"/>
      <use xlink:href="#DejaVuSans-20" transform="translate(752.441406 0)"/>
      <use xlink:href="#DejaVuSans-28" transform="translate(784.228516 0)"/>
      <use xlink:href="#DejaVuSans-64" transform="translate(823.242188 0)"/>
      <use xlink:href="#DejaVuSans-65" transform="translate(886.71875 0)"/>
      <use xlink:href="#DejaVuSans-67" transform="translate(948.242188 0)"/>
      <use xlink:href="#DejaVuSans-2f" transform="translate(1011.71875 0)"/>
      <use xlink:href="#DejaVuSans-73" transform="translate(1045.410156 0)"/>
      <use xlink:href="#DejaVuSans-29" transform="translate(1097.509766 0)"/>
     </g>
    </g>
   </g>
   <g id="line2d_33">
    <path d="M 88.819789 136.67974 
L 92.176242 136.67974 
L 92.181908 139.07518 
L 95.199285 139.07518 
L 95.204646 136.689171 
L 98.573415 136.689171 
L 98.578859 135.887547 
L 101.601111 135.887547 
L 101.606407 139.07518 
L 104.627706 139.07518 
L 104.632797 139.876804 
L 108.00396 139.876804 
L 108.005212 134.29373 
L 111.033518 134.29373 
L 111.03898 138.282987 
L 114.330455 138.282987 
L 114.339285 137.481364 
L 117.354171 137.481364 
L 117.359681 135.085923 
L 120.382979 135.085923 
L 120.388029 139.07518 
L 123.721354 139.07518 
L 123.726852 136.689171 
L 126.753246 136.689171 
L 126.758864 139.07518 
L 130.101955 139.07518 
L 130.108077 135.887547 
L 133.124989 135.887547 
L 133.130367 139.876804 
L 199.587548 139.876804 
L 199.588955 137.405917 
L 202.637397 137.405917 
L 202.64646 134.29373 
L 205.691582 134.29373 
L 205.698295 125.523023 
L 209.097459 125.523023 
L 209.103572 130.304473 
L 212.134571 130.304473 
L 212.140993 127.918464 
L 215.201755 127.918464 
L 215.211105 123.137014 
L 218.589264 123.137014 
L 218.59553 125.523023 
L 221.649905 125.523023 
L 221.656234 119.147757 
L 224.678756 119.147757 
L 224.685308 111.980297 
L 227.753043 111.980297 
L 227.760872 105.605031 
L 231.133463 105.605031 
L 231.147225 104.011214 
L 234.187543 104.011214 
L 234.194306 104.803407 
L 237.238656 104.803407 
L 237.243715 99.220333 
L 240.612546 99.220333 
L 240.619047 100.823581 
L 243.643268 100.823581 
L 243.64801 99.229764 
L 246.682981 99.229764 
L 246.687934 100.823581 
L 250.028774 100.823581 
L 250.034688 100.021957 
L 253.075742 100.021957 
L 253.082176 104.011214 
L 256.453483 104.011214 
L 256.459767 98.42814 
L 259.48649 98.42814 
L 259.496466 96.0327 
L 262.524515 96.0327 
L 262.540849 98.42814 
L 265.931109 98.42814 
L 265.93763 99.229764 
L 268.975096 99.229764 
L 268.981038 98.42814 
L 272.034714 98.42814 
L 272.041149 104.803407 
L 275.082741 104.803407 
L 275.087443 106.397223 
L 278.460343 106.397223 
L 278.467258 104.803407 
L 281.521596 104.803407 
L 281.530335 111.178673 
L 284.574361 111.178673 
L 284.579296 112.77249 
L 287.982999 112.77249 
L 287.988367 136.67974 
L 291.049056 136.67974 
L 291.057306 138.282987 
L 294.098685 138.282987 
L 294.109065 135.887547 
L 297.497885 135.887547 
L 297.504003 138.273557 
L 300.54318 138.273557 
L 300.549554 137.481364 
L 303.612656 137.481364 
L 303.619453 136.689171 
L 306.693368 136.689171 
L 306.697933 137.481364 
L 310.086323 137.481364 
L 310.096898 138.273557 
L 316.21064 138.282987 
L 316.215747 136.67974 
L 319.26496 136.67974 
L 319.27151 139.07518 
L 322.665283 139.07518 
L 322.675339 136.689171 
L 325.718159 136.689171 
L 325.728791 135.887547 
L 328.780968 135.887547 
L 328.789132 136.67974 
L 332.174787 136.67974 
L 332.181453 140.668997 
L 335.244717 140.668997 
L 335.249863 138.282987 
L 338.327687 138.282987 
L 338.332334 147.845887 
L 341.380106 147.845887 
L 341.386455 158.20098 
L 344.792725 158.20098 
L 344.79934 155.814971 
L 347.846965 155.814971 
L 347.851868 159.002604 
L 350.915874 159.002604 
L 350.922497 159.794797 
L 353.956851 159.794797 
L 353.965662 160.596421 
L 357.358149 160.596421 
L 357.367946 162.98243 
L 360.366433 162.98243 
L 360.375428 161.388613 
L 363.731393 161.388613 
L 363.737545 159.794797 
L 366.796577 159.794797 
L 366.801511 163.784054 
L 369.830546 163.784054 
L 369.836459 161.388613 
L 372.879804 161.388613 
L 372.88566 166.170063 
L 376.284965 166.170063 
L 376.290051 164.576247 
L 379.328832 164.576247 
L 379.337523 166.170063 
L 382.392893 166.170063 
L 382.402537 168.565504 
L 385.797021 168.565504 
L 385.802062 166.971687 
L 388.849291 166.971687 
L 388.867335 168.565504 
L 394.975142 168.565504 
L 394.983545 165.37787 
L 398.371404 165.37787 
L 398.377613 166.170063 
L 401.423594 166.170063 
L 401.4295 166.971687 
L 404.449108 166.971687 
L 404.455079 160.596421 
L 407.85705 160.596421 
L 407.863022 161.388613 
L 413.943925 161.388613 
L 413.949953 164.576247 
L 417.339105 164.576247 
L 417.348261 156.607163 
L 423.438923 156.607163 
L 423.445253 159.002604 
L 426.509648 159.002604 
L 426.514904 157.408787 
L 432.97306 157.408787 
L 432.979278 151.033521 
L 436.039711 151.033521 
L 436.044054 149.439704 
L 439.417878 149.439704 
L 439.424113 145.450447 
L 442.460095 145.450447 
L 442.465308 141.470621 
L 445.515547 141.470621 
L 445.520493 139.876804 
L 448.893699 139.876804 
L 448.900232 140.668997 
L 451.927414 140.668997 
L 451.938893 135.887547 
L 454.979768 135.887547 
L 454.984721 140.668997 
L 458.353055 140.668997 
L 458.362718 136.67974 
L 461.414062 136.67974 
L 461.420428 140.668997 
L 464.520138 140.668997 
L 464.526334 133.492107 
L 467.563469 133.492107 
L 467.5713 137.481364 
L 470.97147 137.481364 
L 470.978647 138.273557 
L 474.001867 138.273557 
L 474.00789 136.689171 
L 477.079226 136.689171 
L 477.084259 139.07518 
L 480.466784 139.07518 
L 480.473016 135.085923 
L 483.524621 135.085923 
L 483.536153 136.689171 
L 486.584671 136.689171 
L 486.589371 139.07518 
L 489.645441 139.07518 
L 489.652103 136.67974 
L 493.020589 136.67974 
L 493.026375 138.282987 
L 499.1414 138.273557 
L 499.147194 135.085923 
L 502.524178 135.085923 
L 502.529836 139.876804 
L 505.573194 139.876804 
L 505.578429 136.689171 
L 508.633027 136.689171 
L 508.639516 135.887547 
L 512.017193 135.887547 
L 512.022451 139.07518 
L 515.071253 139.07518 
L 515.086062 134.29373 
L 518.130819 134.29373 
L 518.139439 115.16793 
L 521.176372 115.16793 
L 521.184462 112.77249 
L 524.557072 112.77249 
L 524.562804 102.417397 
L 527.627944 102.417397 
L 527.632534 94.438883 
L 530.659236 94.438883 
L 530.665744 82.489974 
L 534.028541 82.489974 
L 534.034695 74.52089 
L 537.093142 74.52089 
L 537.097642 76.9069 
L 540.121416 76.9069 
L 540.127115 70.531633 
L 543.494879 70.531633 
L 543.500241 77.708524 
L 546.539411 77.708524 
L 546.553722 72.927074 
L 549.57125 72.927074 
L 549.579041 71.333257 
L 552.905185 71.333257 
L 552.911151 73.719267 
L 555.928148 73.719267 
L 555.933135 80.094533 
L 559.303509 80.094533 
L 559.309286 84.875983 
L 562.339957 84.875983 
L 562.346393 94.438883 
L 565.390203 94.438883 
L 565.394806 101.615774 
L 568.789124 101.615774 
L 568.795335 111.178673 
L 571.827835 111.178673 
L 571.834658 119.147757 
L 574.888198 119.147757 
L 574.895639 129.51228 
L 578.267244 129.51228 
L 578.281262 133.492107 
L 581.323108 133.492107 
L 581.32928 136.689171 
L 584.372219 136.689171 
L 584.377074 135.887547 
L 587.438466 135.887547 
L 587.444347 138.273557 
L 590.828369 138.273557 
L 590.834429 136.689171 
L 593.883224 136.689171 
L 593.888042 135.887547 
L 596.919652 135.887547 
L 596.925772 135.085923 
L 600.303037 135.085923 
L 600.312347 138.273557 
L 603.35794 138.273557 
L 603.362582 136.689171 
L 606.393324 136.689171 
L 606.399434 139.07518 
L 609.78977 139.07518 
L 609.799179 136.67974 
L 612.849409 136.67974 
L 612.857549 139.876804 
L 615.889346 139.876804 
L 615.897191 135.085923 
L 619.261765 135.085923 
L 619.268229 139.07518 
L 622.329801 139.07518 
L 622.334629 135.887547 
L 625.376815 135.887547 
L 625.383142 138.282987 
L 628.449766 138.282987 
L 628.456168 136.67974 
L 631.841944 136.67974 
L 631.847024 139.07518 
L 634.91525 139.07518 
L 634.921363 135.085923 
L 637.963332 135.085923 
L 637.969648 137.481364 
L 641.066028 137.481364 
L 641.080278 135.887547 
L 644.460985 135.887547 
L 644.465959 139.07518 
L 647.534428 139.07518 
L 647.540913 137.481364 
L 650.594588 137.481364 
L 650.603554 139.07518 
L 653.971865 139.07518 
L 653.979601 135.085923 
L 656.993891 135.085923 
L 657.000392 140.668997 
L 660.032922 140.668997 
L 660.039447 135.085923 
L 663.421039 135.085923 
L 663.425861 139.07518 
L 666.482698 139.07518 
L 666.488954 135.887547 
L 669.534897 135.887547 
L 669.541236 139.07518 
L 672.609953 139.07518 
L 672.624378 137.481364 
L 676.005981 137.481364 
L 676.012275 136.67974 
L 682.095607 136.689171 
L 682.10199 139.876804 
L 685.505221 139.876804 
L 685.511324 134.29373 
L 688.535832 134.29373 
L 688.542256 139.07518 
L 691.618916 139.07518 
L 691.628627 139.876804 
L 695.000762 139.876804 
L 695.005697 139.07518 
L 701.072501 139.07518 
L 701.081202 138.273557 
L 704.15019 138.273557 
L 704.151471 139.07518 
L 710.586135 139.07518 
L 710.591966 137.481364 
L 716.973487 137.481364 
L 716.98303 139.867373 
L 720.017831 139.867373 
L 720.023745 137.481364 
L 723.061938 137.481364 
L 723.067974 141.470621 
L 726.429505 141.470621 
L 726.434989 137.481364 
L 729.45029 137.481364 
L 729.45607 143.85663 
L 732.813162 143.85663 
L 732.82271 141.470621 
L 735.848923 141.470621 
L 735.858931 145.450447 
L 738.876961 145.450447 
L 738.882668 151.825714 
L 742.245264 151.825714 
L 742.249901 162.190237 
L 745.294802 162.190237 
L 745.30097 175.742394 
L 748.315102 175.742394 
L 748.321049 178.128404 
L 751.690591 178.128404 
L 751.695503 185.305294 
L 754.74682 185.305294 
L 754.752707 194.06657 
L 757.79262 194.06657 
L 757.799085 189.28512 
L 761.179829 189.28512 
L 761.184767 191.680561 
L 764.224049 191.680561 
L 764.230606 195.660387 
L 770.682066 195.660387 
L 770.686941 200.441837 
L 773.723786 200.441837 
L 773.73 194.06657 
L 776.770075 194.06657 
L 776.776947 194.868194 
L 780.170922 194.868194 
L 780.175709 186.899111 
L 783.220605 186.899111 
L 783.226517 186.097487 
L 786.290249 186.097487 
L 786.296341 179.72222 
L 789.32912 179.72222 
L 789.336069 178.128404 
L 792.734197 178.128404 
L 792.740379 163.784054 
L 795.800279 163.784054 
L 795.80556 151.825714 
L 798.851072 151.825714 
L 798.861801 147.044264 
L 802.257004 147.044264 
L 802.263402 139.07518 
L 814.810307 139.07518 
L 814.815574 138.273557 
L 120.360624 138.273557 
L 120.369732 132.699914 
L 120.372123 136.67974 
L 122.061573 136.67974 
L 122.063012 135.085923 
L 125.452022 135.085923 
L 125.458869 139.876804 
L 128.484857 139.876804 
L 128.491281 139.07518 
L 131.527257 139.07518 
L 131.534213 134.29373 
L 134.914967 134.29373 
L 134.921336 135.887547 
L 137.939424 135.887547 
L 137.945457 139.876804 
L 140.949443 139.876804 
L 140.961061 138.273557 
L 144.297946 138.273557 
L 144.303989 137.481364 
L 147.292729 137.481364 
L 147.298332 136.689171 
L 150.65244 136.67974 
L 150.65244 136.67974 
" clip-path="url(#pd06fda13d9)" style="fill: none; stroke: #1f77b4; stroke-opacity: 0.85; stroke-width: 1.4; stroke-linecap: square"/>
   </g>
   <g id="line2d_34">
    <path d="M 88.819789 140.668997 
L 91.782952 140.668997 
L 91.786549 135.887547 
L 95.033029 135.887547 
L 95.040412 138.273557 
L 98.289227 138.273557 
L 98.292192 139.07518 
L 101.208535 139.07518 
L 101.21068 135.887547 
L 104.454637 135.887547 
L 104.456467 139.876804 
L 107.695059 139.876804 
L 107.6967 135.085923 
L 110.939394 135.085923 
L 110.941098 138.282987 
L 113.874478 138.282987 
L 113.877885 135.887547 
L 117.109158 135.887547 
L 117.11143 139.07518 
L 120.351474 139.07518 
L 120.353619 137.481364 
L 123.600605 137.481364 
L 123.60275 138.273557 
L 126.56585 138.273557 
L 126.578785 137.481364 
L 129.904708 137.481364 
L 129.914299 135.887547 
L 197.531512 135.887547 
L 197.532332 137.481364 
L 200.804747 137.481364 
L 200.809542 131.106097 
L 203.756425 131.106097 
L 203.759075 127.918464 
L 207.031363 127.918464 
L 207.03414 120.741573 
L 210.295953 120.741573 
L 210.299676 123.137014 
L 213.224033 123.137014 
L 213.22744 118.355564 
L 216.477391 118.355564 
L 216.48042 115.16793 
L 219.756872 115.16793 
L 219.761163 105.605031 
L 222.733538 105.605031 
L 222.73663 102.417397 
L 226.070504 102.417397 
L 226.075236 101.615774 
L 229.047233 101.615774 
L 229.053227 98.42814 
L 232.323748 98.42814 
L 232.327282 95.240507 
L 235.307608 95.240507 
L 235.311394 99.220333 
L 238.655111 99.220333 
L 238.660474 96.0327 
L 241.651211 96.0327 
L 241.655755 97.635947 
L 247.984845 97.626516 
L 247.988884 96.0327 
L 257.692295 96.0327 
L 257.696586 96.834324 
L 260.676154 96.834324 
L 260.683663 98.42814 
L 266.945048 98.42814 
L 266.948644 104.011214 
L 270.224782 104.011214 
L 270.227621 105.605031 
L 273.163966 105.605031 
L 273.167185 104.803407 
L 276.409374 104.803407 
L 276.410825 111.178673 
L 279.702485 111.178673 
L 279.705703 115.960123 
L 282.636369 115.960123 
L 282.63801 117.55394 
L 285.918564 117.55394 
L 285.921214 131.106097 
L 289.203914 131.106097 
L 289.208142 139.876804 
L 292.159442 139.876804 
L 292.167266 137.481364 
L 295.415261 137.481364 
L 295.417469 136.689171 
L 298.698654 136.689171 
L 298.703134 135.085923 
L 301.630835 135.085923 
L 301.63298 141.470621 
L 304.891954 141.470621 
L 304.896308 135.887547 
L 311.143937 135.887547 
L 311.148228 140.668997 
L 314.426637 140.668997 
L 314.42935 133.492107 
L 317.394658 133.492107 
L 317.398823 141.470621 
L 320.660889 141.470621 
L 320.663981 135.085923 
L 323.935953 135.085923 
L 323.943147 136.689171 
L 326.86012 136.689171 
L 326.863843 139.876804 
L 330.12288 139.876804 
L 330.127297 136.689171 
L 333.391319 136.689171 
L 333.394853 135.887547 
L 336.379722 135.887547 
L 336.384454 145.450447 
L 339.662926 145.450447 
L 339.666712 152.627337 
L 342.575672 152.627337 
L 342.578701 159.002604 
L 345.810227 159.002604 
L 345.81395 162.190237 
L 349.078161 162.190237 
L 349.081758 162.98243 
L 352.32767 162.98243 
L 352.330636 160.596421 
L 355.245969 160.596421 
L 355.250891 166.971687 
L 361.751297 166.971687 
L 361.757923 167.76388 
L 364.782986 167.76388 
L 364.789611 166.170063 
L 371.220734 166.170063 
L 371.229631 170.15932 
L 374.2434 170.15932 
L 374.250278 167.76388 
L 377.258494 167.76388 
L 377.264867 171.753137 
L 380.61237 171.753137 
L 380.618806 168.565504 
L 383.627464 168.565504 
L 383.63472 174.94077 
L 387.003298 174.94077 
L 387.012385 172.54533 
L 390.053665 172.54533 
L 390.059217 167.76388 
L 393.074627 167.76388 
L 393.081189 171.753137 
L 399.44265 171.753137 
L 399.449212 170.951513 
L 402.795643 170.951513 
L 402.800817 166.971687 
L 408.827281 166.971687 
L 408.833528 169.357697 
L 412.210625 169.357697 
L 412.216051 162.98243 
L 415.205085 162.98243 
L 415.210827 164.576247 
L 418.543186 164.576247 
L 418.553661 166.170063 
L 421.630024 166.170063 
L 421.63463 159.794797 
L 424.687647 159.794797 
L 424.694146 159.002604 
L 428.023603 159.002604 
L 428.028083 151.825714 
L 431.046773 151.825714 
L 431.050812 147.845887 
L 434.107173 147.845887 
L 434.117836 140.668997 
L 437.494239 140.668997 
L 437.500928 139.876804 
L 440.564924 139.876804 
L 440.569467 142.262814 
L 443.590176 142.262814 
L 443.596739 139.07518 
L 446.908401 139.07518 
L 446.913765 134.29373 
L 449.912515 134.29373 
L 449.923432 139.876804 
L 456.353103 139.876804 
L 456.358467 136.689171 
L 459.413313 136.689171 
L 459.42038 139.876804 
L 462.481916 139.876804 
L 462.488162 133.492107 
L 465.855226 133.492107 
L 465.861726 135.887547 
L 468.841736 135.887547 
L 468.84609 138.273557 
L 472.084304 138.273557 
L 472.08626 137.481364 
L 475.06646 137.481364 
L 475.072643 135.085923 
L 478.381214 135.085923 
L 478.389922 137.481364 
L 481.388925 137.481364 
L 481.389998 139.07518 
L 484.71693 139.07518 
L 484.727909 138.273557 
L 487.716438 138.273557 
L 487.722874 137.481364 
L 491.085332 137.481364 
L 491.095049 136.689171 
L 494.128694 136.689171 
L 494.134941 135.887547 
L 497.163917 135.887547 
L 497.169974 139.876804 
L 500.523598 139.876804 
L 500.529971 138.282987 
L 503.54456 138.282987 
L 503.550428 136.67974 
L 506.918376 136.67974 
L 506.922856 137.481364 
L 512.952917 137.481364 
L 512.954179 135.085923 
L 516.3102 135.085923 
L 516.316321 107.198847 
L 519.342394 107.198847 
L 519.348956 104.011214 
L 522.405317 104.011214 
L 522.411501 88.86524 
L 525.791753 88.86524 
L 525.800271 78.500717 
L 528.747028 78.500717 
L 528.751129 71.333257 
L 531.989785 71.333257 
L 531.991426 69.73944 
L 541.371956 69.73944 
L 541.373786 67.344 
L 544.615597 67.344 
L 544.619887 66.551807 
L 547.882332 66.551807 
L 547.884667 70.531633 
L 550.807445 70.531633 
L 550.810222 77.708524 
L 554.08598 77.708524 
L 554.088378 79.30234 
L 557.368491 79.30234 
L 557.372466 92.845066 
L 560.281552 92.845066 
L 560.283698 99.229764 
L 563.583371 99.229764 
L 563.589365 111.980297 
L 566.55745 111.980297 
L 566.561993 131.106097 
L 569.86621 131.106097 
L 569.869049 132.699914 
L 573.147963 132.699914 
L 573.150865 136.689171 
L 576.072698 136.689171 
L 576.077809 139.07518 
L 579.338991 139.07518 
L 579.340758 137.481364 
L 582.332126 137.481364 
L 582.338247 135.887547 
L 585.593751 135.887547 
L 585.596148 137.481364 
L 588.89456 137.481364 
L 588.899229 138.273557 
L 591.859931 138.273557 
L 591.864032 134.29373 
L 595.166293 134.29373 
L 595.168943 140.668997 
L 598.115132 140.668997 
L 598.118981 135.095354 
L 601.410767 135.095354 
L 601.413165 139.867373 
L 604.699461 139.867373 
L 604.704635 133.492107 
L 607.668239 133.492107 
L 607.675622 138.282987 
L 610.940275 138.282987 
L 610.943051 136.67974 
L 613.892206 136.67974 
L 613.895045 137.481364 
L 617.1585 137.481364 
L 617.161024 139.07518 
L 620.407883 139.07518 
L 620.410911 138.273557 
L 623.339495 138.273557 
L 623.342587 133.492107 
L 626.591718 133.492107 
L 626.594494 138.282987 
L 639.152158 138.273557 
L 639.155565 136.689171 
L 642.44306 136.689171 
L 642.447225 138.273557 
L 645.695535 138.273557 
L 645.697744 136.689171 
L 648.613203 136.689171 
L 648.616421 135.887547 
L 651.866561 135.887547 
L 651.870347 139.876804 
L 655.116764 139.876804 
L 655.119667 136.689171 
L 658.079233 136.689171 
L 658.083271 137.481364 
L 661.38143 137.481364 
L 661.384207 139.07518 
L 664.400878 139.07518 
L 664.405042 136.689171 
L 670.830613 136.689171 
L 670.83932 138.273557 
L 673.907418 138.273557 
L 673.91215 137.481364 
L 677.495078 137.481364 
L 677.5 138.273557 
L 683.570066 138.273557 
L 683.574483 135.095354 
L 686.566356 135.095354 
L 686.572162 138.273557 
L 689.87846 138.273557 
L 689.881048 139.867373 
L 699.270033 139.876804 
L 699.271989 135.887547 
L 702.515819 135.887547 
L 702.518911 143.055006 
L 705.466425 143.055006 
L 705.467876 135.085923 
L 708.713662 135.085923 
L 708.716376 143.064437 
L 714.968989 143.064437 
L 714.974416 144.658254 
L 718.229289 144.658254 
L 718.232065 146.252071 
L 721.168536 146.252071 
L 721.171565 156.607163 
L 724.432054 156.607163 
L 724.43565 166.971687 
L 727.681247 166.971687 
L 727.684402 178.930027 
L 730.616646 178.930027 
L 730.619549 179.72222 
L 733.894676 179.72222 
L 733.901617 183.711477 
L 737.135036 183.711477 
L 737.137434 187.691304 
L 740.385365 187.691304 
L 740.388016 191.680561 
L 743.294578 191.680561 
L 743.296976 187.691304 
L 746.544339 187.691304 
L 746.547053 193.274377 
L 752.715365 193.274377 
L 752.7177 194.06657 
L 755.961972 194.06657 
L 755.965316 182.117661 
L 759.21249 182.117661 
L 759.218674 194.06657 
L 762.454617 194.06657 
L 762.457267 188.492927 
L 765.376008 188.492927 
L 765.382949 186.097487 
L 768.628545 186.097487 
L 768.631448 187.691304 
L 771.629316 187.691304 
L 771.632029 180.523844 
L 774.909049 180.523844 
L 774.911889 170.951513 
L 778.160073 170.951513 
L 778.162092 155.814971 
L 781.388759 155.814971 
L 781.391157 147.845887 
L 784.30567 147.845887 
L 784.308257 141.470621 
L 787.557892 141.470621 
L 787.560732 139.07518 
L 790.823429 139.07518 
L 790.825069 139.876804 
L 793.742106 139.876804 
L 793.744125 137.481364 
L 796.97054 137.481364 
L 796.973947 138.273557 
L 800.103504 138.273557 
L 800.104766 137.481364 
L 803.487289 137.481364 
L 803.49057 135.085923 
L 806.405272 135.085923 
L 806.406976 140.668997 
L 809.626891 140.668997 
L 809.628721 136.67974 
L 812.8935 136.689171 
L 118.420244 136.689171 
L 118.423273 139.876804 
L 118.423652 131.89829 
L 118.426428 139.07518 
L 120.36788 139.07518 
L 120.371603 135.887547 
L 126.50641 135.887547 
L 126.508807 137.481364 
L 132.979368 137.481364 
L 132.981198 136.67974 
L 136.205404 136.67974 
L 136.207297 138.282987 
L 139.154748 138.282987 
L 139.157776 137.481364 
L 142.391826 137.481364 
L 142.39517 141.470621 
L 145.644553 141.470621 
L 145.649033 134.29373 
L 148.873113 134.29373 
L 148.876836 139.07518 
L 148.876836 139.07518 
" clip-path="url(#pd06fda13d9)" style="fill: none; stroke: #ff7f0e; stroke-opacity: 0.9; stroke-width: 1.6; stroke-linecap: square"/>
   </g>
   <g id="LineCollection_1">
    <path d="M 158.229476 90.327025 
L 284.428906 90.327025 
" clip-path="url(#pd06fda13d9)" style="fill: none; stroke-dasharray: 2.96,1.28; stroke-dashoffset: 0; stroke: #000000; stroke-opacity: 0.5; stroke-width: 0.8"/>
   </g>
   <g id="LineCollection_2">
    <path d="M 284.428906 137.481364 
L 334.908678 137.481364 
" clip-path="url(#pd06fda13d9)" style="fill: none; stroke-dasharray: 2.96,1.28; stroke-dashoffset: 0; stroke: #000000; stroke-opacity: 0.5; stroke-width: 0.8"/>
   </g>
   <g id="LineCollection_3">
    <path d="M 334.908678 184.635702 
L 461.108109 184.635702 
" clip-path="url(#pd06fda13d9)" style="fill: none; stroke-dasharray: 2.96,1.28; stroke-dashoffset: 0; stroke: #000000; stroke-opacity: 0.5; stroke-width: 0.8"/>
   </g>
   <g id="LineCollection_4">
    <path d="M 461.108109 137.481364 
L 511.587881 137.481364 
" clip-path="url(#pd06fda13d9)" style="fill: none; stroke-dasharray: 2.96,1.28; stroke-dashoffset: 0; stroke: #000000; stroke-opacity: 0.5; stroke-width: 0.8"/>
   </g>
   <g id="LineCollection_5">
    <path d="M 511.587881 43.172686 
L 637.787311 43.172686 
" clip-path="url(#pd06fda13d9)" style="fill: none; stroke-dasharray: 2.96,1.28; stroke-dashoffset: 0; stroke: #000000; stroke-opacity: 0.5; stroke-width: 0.8"/>
   </g>
   <g id="LineCollection_6">
    <path d="M 637.787311 137.481364 
L 688.267083 137.481364 
" clip-path="url(#pd06fda13d9)" style="fill: none; stroke-dasharray: 2.96,1.28; stroke-dashoffset: 0; stroke: #000000; stroke-opacity: 0.5; stroke-width: 0.8"/>
   </g>
   <g id="LineCollection_7">
    <path d="M 688.267083 231.790041 
L 814.466513 231.790041 
" clip-path="url(#pd06fda13d9)" style="fill: none; stroke-dasharray: 2.96,1.28; stroke-dashoffset: 0; stroke: #000000; stroke-opacity: 0.5; stroke-width: 0.8"/>
   </g>
   <g id="patch_3">
    <path d="M 52.52 241.220909 
L 52.52 33.741818 
" style="fill: none; stroke: #000000; stroke-width: 0.8; stroke-linejoin: miter; stroke-linecap: square"/>
   </g>
   <g id="patch_4">
    <path d="M 851.115364 241.220909 
L 851.115364 33.741818 
" style="fill: none; stroke: #000000; stroke-width: 0.8; stroke-linejoin: miter; stroke-linecap: square"/>
   </g>
   <g id="patch_5">
    <path d="M 52.52 241.220909 
L 851.115364 241.220909 
" style="fill: none; stroke: #000000; stroke-width: 0.8; stroke-linejoin: miter; stroke-linecap: square"/>
   </g>
   <g id="patch_6">
    <path d="M 52.52 33.741818 
L 851.115364 33.741818 
" style="fill: none; stroke: #000000; stroke-width: 0.8; stroke-linejoin: miter; stroke-linecap: square"/>
   </g>
   <g id="text_11">
    <!-- +5 -->
    <g transform="translate(215.432316 88.663275) scale(0.08 -0.08)">
     <defs>
      <path id="DejaVuSans-2b" d="M 2944 4013 
L 2944 2272 
L 4684 2272 
L 4684 1741 
L 2944 1741 
L 2944 0 
L 2419 0 
L 2419 1741 
L 678 1741 
L 678 2272 
L 2419 2272 
L 2419 4013 
L 2944 4013 
z
" transform="scale(0.015625)"/>
     </defs>
     <use xlink:href="#DejaVuSans-2b"/>
     <use xlink:href="#DejaVuSans-35" transform="translate(83.789062 0)"/>
    </g>
   </g>
   <g id="text_12">
    <!-- 0 -->
    <g transform="translate(307.123792 135.817614) scale(0.08 -0.08)">
     <use xlink:href="#DejaVuSans-30"/>
    </g>
   </g>
   <g id="text_13">
    <!-- -5 -->
    <g transform="translate(394.020268 190.714452) scale(0.08 -0.08)">
     <defs>
      <path id="DejaVuSans-2d" d="M 313 2009 
L 1997 2009 
L 1997 1497 
L 313 1497 
L 313 2009 
z
" transform="scale(0.015625)"/>
     </defs>
     <use xlink:href="#DejaVuSans-2d"/>
     <use xlink:href="#DejaVuSans-35" transform="translate(36.083984 0)"/>
    </g>
   </g>
   <g id="text_14">
    <!-- 0 -->
    <g transform="translate(483.802995 135.817614) scale(0.08 -0.08)">
     <use xlink:href="#DejaVuSans-30"/>
    </g>
   </g>
   <g id="text_15">
    <!-- +10 -->
    <g transform="translate(566.245721 41.508936) scale(0.08 -0.08)">
     <use xlink:href="#DejaVuSans-2b"/>
     <use xlink:href="#DejaVuSans-31" transform="translate(83.789062 0)"/>
     <use xlink:href="#DejaVuSans-30" transform="translate(147.412109 0)"/>
    </g>
   </g>
   <g id="text_16">
    <!-- 0 -->
    <g transform="translate(660.482197 135.817614) scale(0.08 -0.08)">
     <use xlink:href="#DejaVuSans-30"/>
    </g>
   </g>
   <g id="text_17">
    <!-- -10 -->
    <g transform="translate(744.833673 237.868791) scale(0.08 -0.08)">
     <use xlink:href="#DejaVuSans-2d"/>
     <use xlink:href="#DejaVuSans-31" transform="translate(36.083984 0)"/>
     <use xlink:href="#DejaVuSans-30" transform="translate(99.707031 0)"/>
    </g>
   </g>
   <g id="legend_1">
    <g id="patch_7">
     <path d="M 707.748176 71.098068 
L 844.115364 71.098068 
Q 846.115364 71.098068 846.115364 69.098068 
L 846.115364 40.741818 
Q 846.115364 38.741818 844.115364 38.741818 
L 707.748176 38.741818 
Q 705.748176 38.741818 705.748176 40.741818 
L 705.748176 69.098068 
Q 705.748176 71.098068 707.748176 71.098068 
z
" style="fill: #ffffff; opacity: 0.8; stroke: #cccccc; stroke-linejoin: miter"/>
    </g>
    <g id="line2d_35">
     <path d="M 709.748176 46.840256 
L 719.748176 46.840256 
L 729.748176 46.840256 
" style="fill: none; stroke: #1f77b4; stroke-opacity: 0.85; stroke-width: 1.4; stroke-linecap: square"/>
    </g>
    <g id="text_18">
     <!-- previous bus voltage -->
     <g transform="translate(737.748176 50.340256) scale(0.1 -0.1)">
      <defs>
       <path id="DejaVuSans-72" d="M 2631 2963 
Q 2534 3019 2420 3045 
Q 2306 3072 2169 3072 
Q 1681 3072 1420 2755 
Q 1159 2438 1159 1844 
L 1159 0 
L 581 0 
L 581 3500 
L 1159 3500 
L 1159 2956 
Q 1341 3275 1631 3429 
Q 1922 3584 2338 3584 
Q 2397 3584 2469 3576 
Q 2541 3569 2628 3553 
L 2631 2963 
z
" transform="scale(0.015625)"/>
       <path id="DejaVuSans-62" d="M 3116 1747 
Q 3116 2381 2855 2742 
Q 2594 3103 2138 3103 
Q 1681 3103 1420 2742 
Q 1159 2381 1159 1747 
Q 1159 1113 1420 752 
Q 1681 391 2138 391 
Q 2594 391 2855 752 
Q 3116 1113 3116 1747 
z
M 1159 2969 
Q 1341 3281 1617 3432 
Q 1894 3584 2278 3584 
Q 2916 3584 3314 3078 
Q 3713 2572 3713 1747 
Q 3713 922 3314 415 
Q 2916 -91 2278 -91 
Q 1894 -91 1617 61 
Q 1341 213 1159 525 
L 1159 0 
L 581 0 
L 581 4863 
L 1159 4863 
L 1159 2969 
z
" transform="scale(0.015625)"/>
       <path id="DejaVuSans-61" d="M 2194 1759 
Q 1497 1759 1228 1600 
Q 959 1441 959 1056 
Q 959 750 1161 570 
Q 1363 391 1709 391 
Q 2188 391 2477 730 
Q 2766 1069 2766 1631 
L 2766 1759 
L 2194 1759 
z
M 3341 1997 
L 3341 0 
L 2766 0 
L 2766 531 
Q 2569 213 2275 61 
Q 1981 -91 1556 -91 
Q 1019 -91 701 211 
Q 384 513 384 1019 
Q 384 1609 779 1909 
Q 1175 2209 1959 2209 
L 2766 2209 
L 2766 2266 
Q 2766 2663 2505 2880 
Q 2244 3097 1772 3097 
Q 1472 3097 1187 3025 
Q 903 2953 641 2809 
L 641 3341 
Q 956 3463 1253 3523 
Q 1550 3584 1831 3584 
Q 2591 3584 2966 3190 
Q 3341 2797 3341 1997 
z
" transform="scale(0.015625)"/>
      </defs>
      <use xlink:href="#DejaVuSans-70"/>
      <use xlink:href="#DejaVuSans-72" transform="translate(63.476562 0)"/>
      <use xlink:href="#DejaVuSans-65" transform="translate(102.339844 0)"/>
      <use xlink:href="#DejaVuSans-76" transform="translate(163.863281 0)"/>
      <use xlink:href="#DejaVuSans-69" transform="translate(223.042969 0)"/>
      <use xlink:href="#DejaVuSans-6f" transform="translate(250.826172 0)"/>
      <use xlink:href="#DejaVuSans-75" transform="translate(312.007812 0)"/>
      <use xlink:href="#DejaVuSans-73" transform="translate(375.386719 0)"/>
      <use xlink:href="#DejaVuSans-20" transform="translate(427.486328 0)"/>
      <use xlink:href="#DejaVuSans-62" transform="translate(459.273438 0)"/>
      <use xlink:href="#DejaVuSans-75" transform="translate(522.75 0)"/>
      <use xlink:href="#DejaVuSans-73" transform="translate(586.128906 0)"/>
      <use xlink:href="#DejaVuSans-20" transform="translate(638.228516 0)"/>
      <use xlink:href="#DejaVuSans-76" transform="translate(670.015625 0)"/>
      <use xlink:href="#DejaVuSans-6f" transform="translate(729.195312 0)"/>
      <use xlink:href="#DejaVuSans-6c" transform="translate(790.376953 0)"/>
      <use xlink:href="#DejaVuSans-74" transform="translate(818.160156 0)"/>
      <use xlink:href="#DejaVuSans-61" transform="translate(857.369141 0)"/>
      <use xlink:href="#DejaVuSans-67" transform="translate(918.648438 0)"/>
      <use xlink:href="#DejaVuSans-65" transform="translate(982.125 0)"/>
     </g>
    </g>
    <g id="line2d_36">
     <path d="M 709.748176 61.518381 
L 719.748176 61.518381 
L 729.748176 61.518381 
" style="fill: none; stroke: #ff7f0e; stroke-opacity: 0.9; stroke-width: 1.6; stroke-linecap: square"/>
    </g>
    <g id="text_19">
     <!-- higher bus voltage -->
     <g transform="translate(737.748176 65.018381) scale(0.1 -0.1)">
      <defs>
       <path id="DejaVuSans-68" d="M 3513 2113 
L 3513 0 
L 2938 0 
L 2938 2094 
Q 2938 2591 2744 2837 
Q 2550 3084 2163 3084 
Q 1697 3084 1428 2787 
Q 1159 2491 1159 1978 
L 1159 0 
L 581 0 
L 581 4863 
L 1159 4863 
L 1159 2956 
Q 1366 3272 1645 3428 
Q 1925 3584 2291 3584 
Q 2894 3584 3203 3211 
Q 3513 2838 3513 2113 
z
" transform="scale(0.015625)"/>
      </defs>
      <use xlink:href="#DejaVuSans-68"/>
      <use xlink:href="#DejaVuSans-69" transform="translate(63.378906 0)"/>
      <use xlink:href="#DejaVuSans-67" transform="translate(91.162109 0)"/>
      <use xlink:href="#DejaVuSans-68" transform="translate(154.638672 0)"/>
      <use xlink:href="#DejaVuSans-65" transform="translate(218.017578 0)"/>
      <use xlink:href="#DejaVuSans-72" transform="translate(279.541016 0)"/>
      <use xlink:href="#DejaVuSans-20" transform="translate(320.654297 0)"/>
      <use xlink:href="#DejaVuSans-62" transform="translate(352.441406 0)"/>
      <use xlink:href="#DejaVuSans-75" transform="translate(415.917969 0)"/>
      <use xlink:href="#DejaVuSans-73" transform="translate(479.296875 0)"/>
      <use xlink:href="#DejaVuSans-20" transform="translate(531.396484 0)"/>
      <use xlink:href="#DejaVuSans-76" transform="translate(563.183594 0)"/>
      <use xlink:href="#DejaVuSans-6f" transform="translate(622.363281 0)"/>
      <use xlink:href="#DejaVuSans-6c" transform="translate(683.544922 0)"/>
      <use xlink:href="#DejaVuSans-74" transform="translate(711.328125 0)"/>
      <use xlink:href="#DejaVuSans-61" transform="translate(750.537109 0)"/>
      <use xlink:href="#DejaVuSans-67" transform="translate(811.816406 0)"/>
      <use xlink:href="#DejaVuSans-65" transform="translate(875.292969 0)"/>
     </g>
    </g>
   </g>
  </g>
  <g id="axes_2">
   <g id="patch_8">
    <path d="M 52.52 463 
L 851.115364 463 
L 851.115364 255.520909 
L 52.52 255.520909 
z
" style="fill: #ffffff"/>
   </g>
   <g id="matplotlib.axis_3">
    <g id="xtick_8">
     <g id="line2d_37">
      <path d="M 88.819789 463 
L 88.819789 255.520909 
" clip-path="url(#p647c5abf11)" style="fill: none; stroke: #b0b0b0; stroke-opacity: 0.3; stroke-width: 0.8; stroke-linecap: square"/>
     </g>
     <g id="line2d_38">
      <g>
       <use xlink:href="#m86cfbf169a" x="88.819789" y="463" style="stroke: #000000; stroke-width: 0.8"/>
      </g>
     </g>
     <g id="text_20">
      <!-- 0 -->
      <g transform="translate(85.638539 477.598438) scale(0.1 -0.1)">
       <use xlink:href="#DejaVuSans-30"/>
      </g>
     </g>
    </g>
    <g id="xtick_9">
     <g id="line2d_39">
      <path d="M 215.01922 463 
L 215.01922 255.520909 
" clip-path="url(#p647c5abf11)" style="fill: none; stroke: #b0b0b0; stroke-opacity: 0.3; stroke-width: 0.8; stroke-linecap: square"/>
     </g>
     <g id="line2d_40">
      <g>
       <use xlink:href="#m86cfbf169a" x="215.01922" y="463" style="stroke: #000000; stroke-width: 0.8"/>
      </g>
     </g>
     <g id="text_21">
      <!-- 2 -->
      <g transform="translate(211.83797 477.598438) scale(0.1 -0.1)">
       <use xlink:href="#DejaVuSans-32"/>
      </g>
     </g>
    </g>
    <g id="xtick_10">
     <g id="line2d_41">
      <path d="M 341.21865 463 
L 341.21865 255.520909 
" clip-path="url(#p647c5abf11)" style="fill: none; stroke: #b0b0b0; stroke-opacity: 0.3; stroke-width: 0.8; stroke-linecap: square"/>
     </g>
     <g id="line2d_42">
      <g>
       <use xlink:href="#m86cfbf169a" x="341.21865" y="463" style="stroke: #000000; stroke-width: 0.8"/>
      </g>
     </g>
     <g id="text_22">
      <!-- 4 -->
      <g transform="translate(338.0374 477.598438) scale(0.1 -0.1)">
       <defs>
        <path id="DejaVuSans-34" d="M 2419 4116 
L 825 1625 
L 2419 1625 
L 2419 4116 
z
M 2253 4666 
L 3047 4666 
L 3047 1625 
L 3713 1625 
L 3713 1100 
L 3047 1100 
L 3047 0 
L 2419 0 
L 2419 1100 
L 313 1100 
L 313 1709 
L 2253 4666 
z
" transform="scale(0.015625)"/>
       </defs>
       <use xlink:href="#DejaVuSans-34"/>
      </g>
     </g>
    </g>
    <g id="xtick_11">
     <g id="line2d_43">
      <path d="M 467.41808 463 
L 467.41808 255.520909 
" clip-path="url(#p647c5abf11)" style="fill: none; stroke: #b0b0b0; stroke-opacity: 0.3; stroke-width: 0.8; stroke-linecap: square"/>
     </g>
     <g id="line2d_44">
      <g>
       <use xlink:href="#m86cfbf169a" x="467.41808" y="463" style="stroke: #000000; stroke-width: 0.8"/>
      </g>
     </g>
     <g id="text_23">
      <!-- 6 -->
      <g transform="translate(464.23683 477.598438) scale(0.1 -0.1)">
       <defs>
        <path id="DejaVuSans-36" d="M 2113 2584 
Q 1688 2584 1439 2293 
Q 1191 2003 1191 1497 
Q 1191 994 1439 701 
Q 1688 409 2113 409 
Q 2538 409 2786 701 
Q 3034 994 3034 1497 
Q 3034 2003 2786 2293 
Q 2538 2584 2113 2584 
z
M 3366 4563 
L 3366 3988 
Q 3128 4100 2886 4159 
Q 2644 4219 2406 4219 
Q 1781 4219 1451 3797 
Q 1122 3375 1075 2522 
Q 1259 2794 1537 2939 
Q 1816 3084 2150 3084 
Q 2853 3084 3261 2657 
Q 3669 2231 3669 1497 
Q 3669 778 3244 343 
Q 2819 -91 2113 -91 
Q 1303 -91 875 529 
Q 447 1150 447 2328 
Q 447 3434 972 4092 
Q 1497 4750 2381 4750 
Q 2619 4750 2861 4703 
Q 3103 4656 3366 4563 
z
" transform="scale(0.015625)"/>
       </defs>
       <use xlink:href="#DejaVuSans-36"/>
      </g>
     </g>
    </g>
    <g id="xtick_12">
     <g id="line2d_45">
      <path d="M 593.61751 463 
L 593.61751 255.520909 
" clip-path="url(#p647c5abf11)" style="fill: none; stroke: #b0b0b0; stroke-opacity: 0.3; stroke-width: 0.8; stroke-linecap: square"/>
     </g>
     <g id="line2d_46">
      <g>
       <use xlink:href="#m86cfbf169a" x="593.61751" y="463" style="stroke: #000000; stroke-width: 0.8"/>
      </g>
     </g>
     <g id="text_24">
      <!-- 8 -->
      <g transform="translate(590.43626 477.598438) scale(0.1 -0.1)">
       <defs>
        <path id="DejaVuSans-38" d="M 2034 2216 
Q 1584 2216 1326 1975 
Q 1069 1734 1069 1313 
Q 1069 891 1326 650 
Q 1584 409 2034 409 
Q 2484 409 2743 651 
Q 3003 894 3003 1313 
Q 3003 1734 2745 1975 
Q 2488 2216 2034 2216 
z
M 1403 2484 
Q 997 2584 770 2862 
Q 544 3141 544 3541 
Q 544 4100 942 4425 
Q 1341 4750 2034 4750 
Q 2731 4750 3128 4425 
Q 3525 4100 3525 3541 
Q 3525 3141 3298 2862 
Q 3072 2584 2669 2484 
Q 3125 2378 3379 2068 
Q 3634 1759 3634 1313 
Q 3634 634 3220 271 
Q 2806 -91 2034 -91 
Q 1263 -91 848 271 
Q 434 634 434 1313 
Q 434 1759 690 2068 
Q 947 2378 1403 2484 
z
M 1172 3481 
Q 1172 3119 1398 2916 
Q 1625 2713 2034 2713 
Q 2441 2713 2670 2916 
Q 2900 3119 2900 3481 
Q 2900 3844 2670 4047 
Q 2441 4250 2034 4250 
Q 1625 4250 1398 4047 
Q 1172 3844 1172 3481 
z
" transform="scale(0.015625)"/>
       </defs>
       <use xlink:href="#DejaVuSans-38"/>
      </g>
     </g>
    </g>
    <g id="xtick_13">
     <g id="line2d_47">
      <path d="M 719.816941 463 
L 719.816941 255.520909 
" clip-path="url(#p647c5abf11)" style="fill: none; stroke: #b0b0b0; stroke-opacity: 0.3; stroke-width: 0.8; stroke-linecap: square"/>
     </g>
     <g id="line2d_48">
      <g>
       <use xlink:href="#m86cfbf169a" x="719.816941" y="463" style="stroke: #000000; stroke-width: 0.8"/>
      </g>
     </g>
     <g id="text_25">
      <!-- 10 -->
      <g transform="translate(713.454441 477.598438) scale(0.1 -0.1)">
       <use xlink:href="#DejaVuSans-31"/>
       <use xlink:href="#DejaVuSans-30" transform="translate(63.623047 0)"/>
      </g>
     </g>
    </g>
    <g id="xtick_14">
     <g id="line2d_49">
      <path d="M 846.016371 463 
L 846.016371 255.520909 
" clip-path="url(#p647c5abf11)" style="fill: none; stroke: #b0b0b0; stroke-opacity: 0.3; stroke-width: 0.8; stroke-linecap: square"/>
     </g>
     <g id="line2d_50">
      <g>
       <use xlink:href="#m86cfbf169a" x="846.016371" y="463" style="stroke: #000000; stroke-width: 0.8"/>
      </g>
     </g>
     <g id="text_26">
      <!-- 12 -->
      <g transform="translate(839.653871 477.598438) scale(0.1 -0.1)">
       <use xlink:href="#DejaVuSans-31"/>
       <use xlink:href="#DejaVuSans-32" transform="translate(63.623047 0)"/>
      </g>
     </g>
    </g>
    <g id="text_27">
     <!-- time (s) -->
     <g transform="translate(432.426276 491.276563) scale(0.1 -0.1)">
      <defs>
       <path id="DejaVuSans-6d" d="M 3328 2828 
Q 3544 3216 3844 3400 
Q 4144 3584 4550 3584 
Q 5097 3584 5394 3201 
Q 5691 2819 5691 2113 
L 5691 0 
L 5113 0 
L 5113 2094 
Q 5113 2597 4934 2840 
Q 4756 3084 4391 3084 
Q 3944 3084 3684 2787 
Q 3425 2491 3425 1978 
L 3425 0 
L 2847 0 
L 2847 2094 
Q 2847 2600 2669 2842 
Q 2491 3084 2119 3084 
Q 1678 3084 1418 2786 
Q 1159 2488 1159 1978 
L 1159 0 
L 581 0 
L 581 3500 
L 1159 3500 
L 1159 2956 
Q 1356 3278 1631 3431 
Q 1906 3584 2284 3584 
Q 2666 3584 2933 3390 
Q 3200 3197 3328 2828 
z
" transform="scale(0.015625)"/>
      </defs>
      <use xlink:href="#DejaVuSans-74"/>
      <use xlink:href="#DejaVuSans-69" transform="translate(39.208984 0)"/>
      <use xlink:href="#DejaVuSans-6d" transform="translate(66.992188 0)"/>
      <use xlink:href="#DejaVuSans-65" transform="translate(164.404297 0)"/>
      <use xlink:href="#DejaVuSans-20" transform="translate(225.927734 0)"/>
      <use xlink:href="#DejaVuSans-28" transform="translate(257.714844 0)"/>
      <use xlink:href="#DejaVuSans-73" transform="translate(296.728516 0)"/>
      <use xlink:href="#DejaVuSans-29" transform="translate(348.828125 0)"/>
     </g>
    </g>
   </g>
   <g id="matplotlib.axis_4">
    <g id="ytick_10">
     <g id="line2d_51">
      <path d="M 52.52 447.449268 
L 851.115364 447.449268 
" clip-path="url(#p647c5abf11)" style="fill: none; stroke: #b0b0b0; stroke-opacity: 0.3; stroke-width: 0.8; stroke-linecap: square"/>
     </g>
     <g id="line2d_52">
      <g>
       <use xlink:href="#mebd70ebe15" x="52.52" y="447.449268" style="stroke: #000000; stroke-width: 0.8"/>
      </g>
     </g>
     <g id="text_28">
      <!-- 0 -->
      <g transform="translate(39.1575 451.248487) scale(0.1 -0.1)">
       <use xlink:href="#DejaVuSans-30"/>
      </g>
     </g>
    </g>
    <g id="ytick_11">
     <g id="line2d_53">
      <path d="M 52.52 408.219369 
L 851.115364 408.219369 
" clip-path="url(#p647c5abf11)" style="fill: none; stroke: #b0b0b0; stroke-opacity: 0.3; stroke-width: 0.8; stroke-linecap: square"/>
     </g>
     <g id="line2d_54">
      <g>
       <use xlink:href="#mebd70ebe15" x="52.52" y="408.219369" style="stroke: #000000; stroke-width: 0.8"/>
      </g>
     </g>
     <g id="text_29">
      <!-- 1 -->
      <g transform="translate(39.1575 412.018588) scale(0.1 -0.1)">
       <use xlink:href="#DejaVuSans-31"/>
      </g>
     </g>
    </g>
    <g id="ytick_12">
     <g id="line2d_55">
      <path d="M 52.52 368.98947 
L 851.115364 368.98947 
" clip-path="url(#p647c5abf11)" style="fill: none; stroke: #b0b0b0; stroke-opacity: 0.3; stroke-width: 0.8; stroke-linecap: square"/>
     </g>
     <g id="line2d_56">
      <g>
       <use xlink:href="#mebd70ebe15" x="52.52" y="368.98947" style="stroke: #000000; stroke-width: 0.8"/>
      </g>
     </g>
     <g id="text_30">
      <!-- 2 -->
      <g transform="translate(39.1575 372.788688) scale(0.1 -0.1)">
       <use xlink:href="#DejaVuSans-32"/>
      </g>
     </g>
    </g>
    <g id="ytick_13">
     <g id="line2d_57">
      <path d="M 52.52 329.75957 
L 851.115364 329.75957 
" clip-path="url(#p647c5abf11)" style="fill: none; stroke: #b0b0b0; stroke-opacity: 0.3; stroke-width: 0.8; stroke-linecap: square"/>
     </g>
     <g id="line2d_58">
      <g>
       <use xlink:href="#mebd70ebe15" x="52.52" y="329.75957" style="stroke: #000000; stroke-width: 0.8"/>
      </g>
     </g>
     <g id="text_31">
      <!-- 3 -->
      <g transform="translate(39.1575 333.558789) scale(0.1 -0.1)">
       <defs>
        <path id="DejaVuSans-33" d="M 2597 2516 
Q 3050 2419 3304 2112 
Q 3559 1806 3559 1356 
Q 3559 666 3084 287 
Q 2609 -91 1734 -91 
Q 1441 -91 1130 -33 
Q 819 25 488 141 
L 488 750 
Q 750 597 1062 519 
Q 1375 441 1716 441 
Q 2309 441 2620 675 
Q 2931 909 2931 1356 
Q 2931 1769 2642 2001 
Q 2353 2234 1838 2234 
L 1294 2234 
L 1294 2753 
L 1863 2753 
Q 2328 2753 2575 2939 
Q 2822 3125 2822 3475 
Q 2822 3834 2567 4026 
Q 2313 4219 1838 4219 
Q 1578 4219 1281 4162 
Q 984 4106 628 3988 
L 628 4550 
Q 988 4650 1302 4700 
Q 1616 4750 1894 4750 
Q 2613 4750 3031 4423 
Q 3450 4097 3450 3541 
Q 3450 3153 3228 2886 
Q 3006 2619 2597 2516 
z
" transform="scale(0.015625)"/>
       </defs>
       <use xlink:href="#DejaVuSans-33"/>
      </g>
     </g>
    </g>
    <g id="ytick_14">
     <g id="line2d_59">
      <path d="M 52.52 290.529671 
L 851.115364 290.529671 
" clip-path="url(#p647c5abf11)" style="fill: none; stroke: #b0b0b0; stroke-opacity: 0.3; stroke-width: 0.8; stroke-linecap: square"/>
     </g>
     <g id="line2d_60">
      <g>
       <use xlink:href="#mebd70ebe15" x="52.52" y="290.529671" style="stroke: #000000; stroke-width: 0.8"/>
      </g>
     </g>
     <g id="text_32">
      <!-- 4 -->
      <g transform="translate(39.1575 294.32889) scale(0.1 -0.1)">
       <use xlink:href="#DejaVuSans-34"/>
      </g>
     </g>
    </g>
    <g id="text_33">
     <!-- output angle (deg) -->
     <g transform="translate(33.077813 406.129205) rotate(-90) scale(0.1 -0.1)">
      <defs>
       <path id="DejaVuSans-6e" d="M 3513 2113 
L 3513 0 
L 2938 0 
L 2938 2094 
Q 2938 2591 2744 2837 
Q 2550 3084 2163 3084 
Q 1697 3084 1428 2787 
Q 1159 2491 1159 1978 
L 1159 0 
L 581 0 
L 581 3500 
L 1159 3500 
L 1159 2956 
Q 1366 3272 1645 3428 
Q 1925 3584 2291 3584 
Q 2894 3584 3203 3211 
Q 3513 2838 3513 2113 
z
" transform="scale(0.015625)"/>
      </defs>
      <use xlink:href="#DejaVuSans-6f"/>
      <use xlink:href="#DejaVuSans-75" transform="translate(61.181641 0)"/>
      <use xlink:href="#DejaVuSans-74" transform="translate(124.560547 0)"/>
      <use xlink:href="#DejaVuSans-70" transform="translate(163.769531 0)"/>
      <use xlink:href="#DejaVuSans-75" transform="translate(227.246094 0)"/>
      <use xlink:href="#DejaVuSans-74" transform="translate(290.625 0)"/>
      <use xlink:href="#DejaVuSans-20" transform="translate(329.833984 0)"/>
      <use xlink:href="#DejaVuSans-61" transform="translate(361.621094 0)"/>
      <use xlink:href="#DejaVuSans-6e" transform="translate(422.900391 0)"/>
      <use xlink:href="#DejaVuSans-67" transform="translate(486.279297 0)"/>
      <use xlink:href="#DejaVuSans-6c" transform="translate(549.755859 0)"/>
      <use xlink:href="#DejaVuSans-65" transform="translate(577.539062 0)"/>
      <use xlink:href="#DejaVuSans-20" transform="translate(639.0625 0)"/>
      <use xlink:href="#DejaVuSans-28" transform="translate(670.849609 0)"/>
      <use xlink:href="#DejaVuSans-64" transform="translate(709.863281 0)"/>
      <use xlink:href="#DejaVuSans-65" transform="translate(773.339844 0)"/>
      <use xlink:href="#DejaVuSans-67" transform="translate(834.863281 0)"/>
      <use xlink:href="#DejaVuSans-29" transform="translate(898.339844 0)"/>
     </g>
    </g>
   </g>
   <g id="line2d_61">
    <path d="M 88.819789 447.292348 
L 92.181908 447.606188 
L 95.204646 447.449268 
L 98.578859 447.135429 
L 101.606407 447.449268 
L 104.632797 447.959257 
L 108.003007 447.959257 
L 108.005212 447.292348 
L 111.03898 447.449268 
L 114.339285 447.449268 
L 117.359681 446.939279 
L 120.388029 447.292348 
L 123.726852 447.135429 
L 126.758864 447.449268 
L 130.108077 447.135429 
L 133.130367 447.606188 
L 199.586735 447.606188 
L 199.588955 447.292348 
L 202.64646 446.62544 
L 205.698295 444.114727 
L 209.103572 442.62399 
L 212.140993 440.662495 
L 215.211105 437.681023 
L 218.59553 435.17031 
L 221.656234 431.365009 
L 224.685308 426.068973 
L 227.760872 419.43912 
L 231.147225 412.456198 
L 234.194306 405.669425 
L 237.243715 397.705756 
L 240.619047 390.095155 
L 243.64801 382.131486 
L 246.687934 374.520885 
L 256.459767 351.649854 
L 259.496466 343.019276 
L 262.540849 334.898687 
L 265.93763 326.935018 
L 268.981038 318.814428 
L 272.041149 312.027656 
L 275.087443 305.554723 
L 278.467258 298.76795 
L 281.530335 293.275764 
L 284.579296 288.136647 
L 287.988367 287.979728 
L 291.057306 288.136647 
L 294.109065 287.822808 
L 297.504003 287.979728 
L 300.549554 287.979728 
L 303.619453 287.822808 
L 306.697933 287.822808 
L 313.150726 288.136647 
L 316.215747 287.979728 
L 319.27151 288.332797 
L 322.675339 288.136647 
L 325.728791 287.822808 
L 328.789132 287.665888 
L 332.181453 288.332797 
L 335.249863 288.489716 
L 338.332334 290.647361 
L 341.386455 294.96265 
L 344.79934 298.76795 
L 350.922497 307.869287 
L 360.375428 322.972798 
L 363.737545 327.601926 
L 366.801511 333.054882 
L 369.836459 338.037079 
L 372.88566 344.000024 
L 376.290051 349.649129 
L 379.337523 355.612074 
L 382.402537 362.085007 
L 385.802062 368.204872 
L 391.908886 381.150738 
L 394.983545 386.956763 
L 398.377613 392.919708 
L 401.4295 399.039572 
L 404.455079 403.86485 
L 407.863022 408.807817 
L 410.905597 413.790014 
L 413.949953 419.43912 
L 417.348261 423.40134 
L 420.389 427.402789 
L 423.445253 431.874998 
L 426.514904 435.994137 
L 429.910693 440.152507 
L 432.979278 442.977059 
L 436.044054 445.448543 
L 439.424113 447.135429 
L 442.465308 447.959257 
L 445.520493 448.430015 
L 448.900232 449.096924 
L 451.938893 448.783085 
L 454.984721 449.449993 
L 458.362718 449.253843 
L 461.420428 449.920752 
L 464.526334 449.096924 
L 467.5713 449.096924 
L 470.978647 449.253843 
L 474.00789 449.096924 
L 477.084259 449.449993 
L 480.473016 448.940004 
L 483.536153 448.783085 
L 486.589371 449.096924 
L 489.652103 448.940004 
L 496.094215 449.253843 
L 499.147194 448.783085 
L 502.529836 449.253843 
L 505.578429 449.096924 
L 508.639516 448.783085 
L 512.022451 449.096924 
L 515.086062 448.430015 
L 518.139439 443.800887 
L 521.184462 438.661771 
L 524.562804 431.365009 
L 527.632534 422.420592 
L 534.034695 397.901905 
L 537.097642 385.269878 
L 540.127115 371.343264 
L 543.500241 358.946615 
L 549.579041 331.760295 
L 555.933135 306.53547 
L 559.309286 295.590328 
L 562.346393 286.645911 
L 565.394806 279.19223 
L 568.795335 273.739274 
L 571.834658 269.894744 
L 574.895639 268.247088 
L 578.281262 267.423261 
L 581.32928 267.266341 
L 584.377074 266.913272 
L 587.444347 267.109421 
L 590.834429 266.913272 
L 593.888042 266.599433 
L 596.925772 266.089444 
L 600.312347 266.285593 
L 603.362582 266.089444 
L 606.399434 266.442513 
L 609.799179 266.285593 
L 612.857549 266.756352 
L 615.897191 266.285593 
L 619.268229 266.599433 
L 622.334629 266.285593 
L 625.383142 266.442513 
L 628.456168 266.285593 
L 631.847024 266.599433 
L 634.921363 266.089444 
L 637.969648 266.089444 
L 641.080278 265.775605 
L 644.465959 266.089444 
L 647.540913 266.089444 
L 650.603554 266.442513 
L 653.979601 265.932524 
L 657.000392 266.599433 
L 660.039447 266.089444 
L 663.425861 266.442513 
L 666.488954 266.089444 
L 669.541236 266.442513 
L 672.624378 266.442513 
L 679.058743 266.089444 
L 682.10199 266.599433 
L 685.511324 265.932524 
L 698.050822 267.423261 
L 701.081202 267.58018 
L 704.146348 267.58018 
L 704.151471 267.933249 
L 707.552616 268.247088 
L 713.612493 268.247088 
L 716.98303 268.757077 
L 720.023745 268.757077 
L 723.067974 269.580905 
L 726.434989 269.580905 
L 729.45607 270.914722 
L 732.82271 271.738549 
L 735.858931 273.386205 
L 738.882668 276.367678 
L 742.249901 281.506794 
L 745.30097 289.470464 
L 748.321049 297.944122 
L 751.695503 307.869287 
L 754.752707 319.638256 
L 757.799085 330.426479 
L 761.184767 341.68546 
L 767.289131 365.890308 
L 776.776947 402.687953 
L 780.175709 412.966187 
L 783.226517 423.087501 
L 789.336069 440.309426 
L 792.740379 445.801612 
L 795.80556 448.783085 
L 798.861801 450.783809 
L 808.377509 451.764557 
L 811.42915 452.078396 
L 814.815574 452.274546 
L 120.360624 452.274546 
L 120.366468 452.274546 
L 120.372123 450.940729 
L 122.060672 450.940729 
L 122.063012 450.43074 
L 125.458869 450.940729 
L 128.491281 451.254568 
L 131.534213 450.58766 
L 134.921336 450.273821 
L 137.945457 450.783809 
L 140.961061 450.940729 
L 144.303989 450.940729 
L 150.65244 450.58766 
L 150.65244 450.58766 
" clip-path="url(#p647c5abf11)" style="fill: none; stroke: #1f77b4; stroke-opacity: 0.85; stroke-width: 1.4; stroke-linecap: square"/>
   </g>
   <g id="line2d_62">
    <path d="M 88.819789 450.783809 
L 91.786549 450.43074 
L 95.040412 450.58766 
L 98.292192 450.940729 
L 101.21068 450.58766 
L 104.456467 451.097649 
L 107.6967 450.58766 
L 110.941098 450.783809 
L 113.877885 450.43074 
L 117.11143 450.783809 
L 120.353619 450.783809 
L 123.60275 450.940729 
L 126.578785 450.940729 
L 129.914299 450.58766 
L 197.532332 450.58766 
L 200.809542 449.253843 
L 203.759075 447.292348 
L 207.03414 443.800887 
L 210.299676 440.819415 
L 213.22744 436.857195 
L 216.48042 432.188837 
L 219.761163 425.558984 
L 222.73663 418.262223 
L 226.075236 410.808542 
L 232.327282 393.900456 
L 235.311394 385.936786 
L 238.660474 377.345438 
L 241.655755 369.028699 
L 244.992909 360.751191 
L 247.988884 352.120613 
L 251.347555 343.529265 
L 254.36063 334.898687 
L 257.696586 326.425029 
L 260.683663 318.30444 
L 263.97709 310.183851 
L 266.948644 303.240158 
L 270.227621 296.610306 
L 273.167185 289.823533 
L 276.410825 284.331347 
L 282.63801 275.700769 
L 285.921214 274.406183 
L 289.208142 274.876941 
L 292.167266 274.876941 
L 295.417469 274.720022 
L 298.703134 274.210033 
L 301.63298 275.033861 
L 307.851016 274.406183 
L 311.148228 275.033861 
L 314.42935 274.210033 
L 317.398823 275.033861 
L 320.663981 274.563102 
L 323.943147 274.406183 
L 326.863843 274.876941 
L 330.127297 274.720022 
L 333.394853 274.406183 
L 336.384454 276.053838 
L 339.666712 279.19223 
L 345.81395 288.803556 
L 349.081758 294.099592 
L 352.330636 298.92487 
L 355.250891 305.044734 
L 361.757923 317.480612 
L 371.229631 336.232504 
L 374.250278 342.509288 
L 377.264867 349.649129 
L 380.618806 356.122063 
L 383.63472 363.889583 
L 387.012385 371.186344 
L 390.059217 377.502358 
L 393.081189 384.642199 
L 396.44718 391.742811 
L 399.449212 398.725733 
L 402.800817 404.845597 
L 405.804742 410.965462 
L 408.833528 417.595315 
L 412.216051 422.930581 
L 415.210827 428.540457 
L 418.553661 434.503401 
L 424.694146 443.643968 
L 428.028083 446.62544 
L 431.050812 448.783085 
L 434.117836 449.449993 
L 437.500928 449.920752 
L 440.569467 450.940729 
L 443.596739 451.254568 
L 446.913765 450.58766 
L 452.987364 451.607637 
L 456.358467 451.411488 
L 459.42038 451.921476 
L 462.488162 451.097649 
L 465.861726 450.783809 
L 468.84609 450.940729 
L 472.08626 450.940729 
L 475.072643 450.43074 
L 481.388294 450.43074 
L 481.389998 450.783809 
L 484.727909 450.940729 
L 487.722874 450.940729 
L 491.095049 450.783809 
L 494.134941 450.43074 
L 497.169974 450.940729 
L 500.529971 451.097649 
L 503.550428 450.940729 
L 512.95216 450.940729 
L 512.954179 450.43074 
L 516.316321 444.114727 
L 519.348956 437.171034 
L 522.411501 427.04972 
L 525.800271 414.809992 
L 528.751129 401.040297 
L 538.464889 358.750466 
L 541.373786 344.196173 
L 544.619887 329.406501 
L 550.810222 303.083239 
L 554.088378 290.9612 
L 560.281552 273.739274 
L 560.283698 273.739274 
L 563.589365 268.404008 
L 566.561993 267.109421 
L 569.869049 266.089444 
L 573.150865 265.932524 
L 576.077809 266.285593 
L 579.340758 266.285593 
L 582.338247 265.932524 
L 585.596148 265.932524 
L 588.899229 266.089444 
L 591.864032 265.422536 
L 595.168943 266.089444 
L 598.118981 265.618685 
L 601.413165 266.089444 
L 604.704635 265.265616 
L 607.675622 265.422536 
L 610.943051 265.265616 
L 613.895045 265.265616 
L 617.161024 265.618685 
L 620.410911 265.775605 
L 623.342587 264.951777 
L 636.172842 265.618685 
L 639.155565 265.422536 
L 642.447225 265.618685 
L 645.697744 265.422536 
L 648.616421 265.108696 
L 651.870347 265.618685 
L 655.119667 265.422536 
L 658.083271 265.422536 
L 661.384207 265.775605 
L 667.798229 265.422536 
L 670.83932 265.618685 
L 673.91215 265.618685 
L 680.223573 265.932524 
L 683.574483 265.422536 
L 686.572162 265.618685 
L 692.801555 266.599433 
L 696.045953 267.109421 
L 699.271989 266.756352 
L 702.518911 267.933249 
L 705.467876 267.423261 
L 711.991314 269.737825 
L 714.974416 271.228561 
L 718.232065 273.072366 
L 721.171565 277.034586 
L 724.43565 283.19368 
L 727.684402 291.785028 
L 733.901617 310.183851 
L 737.137434 320.619004 
L 743.296976 342.352368 
L 749.795237 365.576468 
L 752.7177 377.345438 
L 755.965316 386.603694 
L 759.218674 398.372664 
L 762.457267 409.003967 
L 765.382949 419.086051 
L 768.631448 429.560434 
L 771.632029 438.504851 
L 774.911889 445.448543 
L 778.162092 449.253843 
L 781.391157 451.411488 
L 784.308257 452.274546 
L 787.560732 452.588385 
L 790.825069 453.098373 
L 793.744125 453.098373 
L 796.973947 453.255293 
L 800.104766 453.255293 
L 803.49057 452.745304 
L 806.406976 453.412213 
L 812.8935 453.098373 
L 118.420244 453.569132 
L 118.422705 453.569132 
L 118.425355 452.431465 
L 118.426428 452.745304 
L 120.371603 452.431465 
L 123.585713 452.078396 
L 129.740838 452.078396 
L 132.981198 451.921476 
L 136.207297 452.078396 
L 139.157776 452.078396 
L 142.39517 452.902224 
L 145.649033 452.274546 
L 148.876836 452.588385 
L 148.876836 452.588385 
" clip-path="url(#p647c5abf11)" style="fill: none; stroke: #ff7f0e; stroke-opacity: 0.9; stroke-width: 1.6; stroke-linecap: square"/>
   </g>
   <g id="patch_9">
    <path d="M 52.52 463 
L 52.52 255.520909 
" style="fill: none; stroke: #000000; stroke-width: 0.8; stroke-linejoin: miter; stroke-linecap: square"/>
   </g>
   <g id="patch_10">
    <path d="M 851.115364 463 
L 851.115364 255.520909 
" style="fill: none; stroke: #000000; stroke-width: 0.8; stroke-linejoin: miter; stroke-linecap: square"/>
   </g>
   <g id="patch_11">
    <path d="M 52.52 463 
L 851.115364 463 
" style="fill: none; stroke: #000000; stroke-width: 0.8; stroke-linejoin: miter; stroke-linecap: square"/>
   </g>
   <g id="patch_12">
    <path d="M 52.52 255.520909 
L 851.115364 255.520909 
" style="fill: none; stroke: #000000; stroke-width: 0.8; stroke-linejoin: miter; stroke-linecap: square"/>
   </g>
   <g id="legend_2">
    <g id="patch_13">
     <path d="M 707.748176 292.877159 
L 844.115364 292.877159 
Q 846.115364 292.877159 846.115364 290.877159 
L 846.115364 262.520909 
Q 846.115364 260.520909 844.115364 260.520909 
L 707.748176 260.520909 
Q 705.748176 260.520909 705.748176 262.520909 
L 705.748176 290.877159 
Q 705.748176 292.877159 707.748176 292.877159 
z
" style="fill: #ffffff; opacity: 0.8; stroke: #cccccc; stroke-linejoin: miter"/>
    </g>
    <g id="line2d_63">
     <path d="M 709.748176 268.619347 
L 719.748176 268.619347 
L 729.748176 268.619347 
" style="fill: none; stroke: #1f77b4; stroke-opacity: 0.85; stroke-width: 1.4; stroke-linecap: square"/>
    </g>
    <g id="text_34">
     <!-- previous bus voltage -->
     <g transform="translate(737.748176 272.119347) scale(0.1 -0.1)">
      <use xlink:href="#DejaVuSans-70"/>
      <use xlink:href="#DejaVuSans-72" transform="translate(63.476562 0)"/>
      <use xlink:href="#DejaVuSans-65" transform="translate(102.339844 0)"/>
      <use xlink:href="#DejaVuSans-76" transform="translate(163.863281 0)"/>
      <use xlink:href="#DejaVuSans-69" transform="translate(223.042969 0)"/>
      <use xlink:href="#DejaVuSans-6f" transform="translate(250.826172 0)"/>
      <use xlink:href="#DejaVuSans-75" transform="translate(312.007812 0)"/>
      <use xlink:href="#DejaVuSans-73" transform="translate(375.386719 0)"/>
      <use xlink:href="#DejaVuSans-20" transform="translate(427.486328 0)"/>
      <use xlink:href="#DejaVuSans-62" transform="translate(459.273438 0)"/>
      <use xlink:href="#DejaVuSans-75" transform="translate(522.75 0)"/>
      <use xlink:href="#DejaVuSans-73" transform="translate(586.128906 0)"/>
      <use xlink:href="#DejaVuSans-20" transform="translate(638.228516 0)"/>
      <use xlink:href="#DejaVuSans-76" transform="translate(670.015625 0)"/>
      <use xlink:href="#DejaVuSans-6f" transform="translate(729.195312 0)"/>
      <use xlink:href="#DejaVuSans-6c" transform="translate(790.376953 0)"/>
      <use xlink:href="#DejaVuSans-74" transform="translate(818.160156 0)"/>
      <use xlink:href="#DejaVuSans-61" transform="translate(857.369141 0)"/>
      <use xlink:href="#DejaVuSans-67" transform="translate(918.648438 0)"/>
      <use xlink:href="#DejaVuSans-65" transform="translate(982.125 0)"/>
     </g>
    </g>
    <g id="line2d_64">
     <path d="M 709.748176 283.297472 
L 719.748176 283.297472 
L 729.748176 283.297472 
" style="fill: none; stroke: #ff7f0e; stroke-opacity: 0.9; stroke-width: 1.6; stroke-linecap: square"/>
    </g>
    <g id="text_35">
     <!-- higher bus voltage -->
     <g transform="translate(737.748176 286.797472) scale(0.1 -0.1)">
      <use xlink:href="#DejaVuSans-68"/>
      <use xlink:href="#DejaVuSans-69" transform="translate(63.378906 0)"/>
      <use xlink:href="#DejaVuSans-67" transform="translate(91.162109 0)"/>
      <use xlink:href="#DejaVuSans-68" transform="translate(154.638672 0)"/>
      <use xlink:href="#DejaVuSans-65" transform="translate(218.017578 0)"/>
      <use xlink:href="#DejaVuSans-72" transform="translate(279.541016 0)"/>
      <use xlink:href="#DejaVuSans-20" transform="translate(320.654297 0)"/>
      <use xlink:href="#DejaVuSans-62" transform="translate(352.441406 0)"/>
      <use xlink:href="#DejaVuSans-75" transform="translate(415.917969 0)"/>
      <use xlink:href="#DejaVuSans-73" transform="translate(479.296875 0)"/>
      <use xlink:href="#DejaVuSans-20" transform="translate(531.396484 0)"/>
      <use xlink:href="#DejaVuSans-76" transform="translate(563.183594 0)"/>
      <use xlink:href="#DejaVuSans-6f" transform="translate(622.363281 0)"/>
      <use xlink:href="#DejaVuSans-6c" transform="translate(683.544922 0)"/>
      <use xlink:href="#DejaVuSans-74" transform="translate(711.328125 0)"/>
      <use xlink:href="#DejaVuSans-61" transform="translate(750.537109 0)"/>
      <use xlink:href="#DejaVuSans-67" transform="translate(811.816406 0)"/>
      <use xlink:href="#DejaVuSans-65" transform="translate(875.292969 0)"/>
     </g>
    </g>
   </g>
  </g>
  <g id="text_36">
   <!-- D02 40V torque-limit firmware: bus voltage comparison -->
   <g transform="translate(264.710625 19.198125) scale(0.12 -0.12)">
    <defs>
     <path id="DejaVuSans-44" d="M 1259 4147 
L 1259 519 
L 2022 519 
Q 2988 519 3436 956 
Q 3884 1394 3884 2338 
Q 3884 3275 3436 3711 
Q 2988 4147 2022 4147 
L 1259 4147 
z
M 628 4666 
L 1925 4666 
Q 3281 4666 3915 4102 
Q 4550 3538 4550 2338 
Q 4550 1131 3912 565 
Q 3275 0 1925 0 
L 628 0 
L 628 4666 
z
" transform="scale(0.015625)"/>
     <path id="DejaVuSans-56" d="M 1831 0 
L 50 4666 
L 709 4666 
L 2188 738 
L 3669 4666 
L 4325 4666 
L 2547 0 
L 1831 0 
z
" transform="scale(0.015625)"/>
     <path id="DejaVuSans-71" d="M 947 1747 
Q 947 1113 1208 752 
Q 1469 391 1925 391 
Q 2381 391 2643 752 
Q 2906 1113 2906 1747 
Q 2906 2381 2643 2742 
Q 2381 3103 1925 3103 
Q 1469 3103 1208 2742 
Q 947 2381 947 1747 
z
M 2906 525 
Q 2725 213 2448 61 
Q 2172 -91 1784 -91 
Q 1150 -91 751 415 
Q 353 922 353 1747 
Q 353 2572 751 3078 
Q 1150 3584 1784 3584 
Q 2172 3584 2448 3432 
Q 2725 3281 2906 2969 
L 2906 3500 
L 3481 3500 
L 3481 -1331 
L 2906 -1331 
L 2906 525 
z
" transform="scale(0.015625)"/>
     <path id="DejaVuSans-66" d="M 2375 4863 
L 2375 4384 
L 1825 4384 
Q 1516 4384 1395 4259 
Q 1275 4134 1275 3809 
L 1275 3500 
L 2222 3500 
L 2222 3053 
L 1275 3053 
L 1275 0 
L 697 0 
L 697 3053 
L 147 3053 
L 147 3500 
L 697 3500 
L 697 3744 
Q 697 4328 969 4595 
Q 1241 4863 1831 4863 
L 2375 4863 
z
" transform="scale(0.015625)"/>
     <path id="DejaVuSans-77" d="M 269 3500 
L 844 3500 
L 1563 769 
L 2278 3500 
L 2956 3500 
L 3675 769 
L 4391 3500 
L 4966 3500 
L 4050 0 
L 3372 0 
L 2619 2869 
L 1863 0 
L 1184 0 
L 269 3500 
z
" transform="scale(0.015625)"/>
     <path id="DejaVuSans-3a" d="M 750 794 
L 1409 794 
L 1409 0 
L 750 0 
L 750 794 
z
M 750 3309 
L 1409 3309 
L 1409 2516 
L 750 2516 
L 750 3309 
z
" transform="scale(0.015625)"/>
    </defs>
    <use xlink:href="#DejaVuSans-44"/>
    <use xlink:href="#DejaVuSans-30" transform="translate(77.001953 0)"/>
    <use xlink:href="#DejaVuSans-32" transform="translate(140.625 0)"/>
    <use xlink:href="#DejaVuSans-20" transform="translate(204.248047 0)"/>
    <use xlink:href="#DejaVuSans-34" transform="translate(236.035156 0)"/>
    <use xlink:href="#DejaVuSans-30" transform="translate(299.658203 0)"/>
    <use xlink:href="#DejaVuSans-56" transform="translate(363.28125 0)"/>
    <use xlink:href="#DejaVuSans-20" transform="translate(431.689453 0)"/>
    <use xlink:href="#DejaVuSans-74" transform="translate(463.476562 0)"/>
    <use xlink:href="#DejaVuSans-6f" transform="translate(502.685547 0)"/>
    <use xlink:href="#DejaVuSans-72" transform="translate(563.867188 0)"/>
    <use xlink:href="#DejaVuSans-71" transform="translate(603.230469 0)"/>
    <use xlink:href="#DejaVuSans-75" transform="translate(666.707031 0)"/>
    <use xlink:href="#DejaVuSans-65" transform="translate(730.085938 0)"/>
    <use xlink:href="#DejaVuSans-2d" transform="translate(791.609375 0)"/>
    <use xlink:href="#DejaVuSans-6c" transform="translate(827.693359 0)"/>
    <use xlink:href="#DejaVuSans-69" transform="translate(855.476562 0)"/>
    <use xlink:href="#DejaVuSans-6d" transform="translate(883.259766 0)"/>
    <use xlink:href="#DejaVuSans-69" transform="translate(980.671875 0)"/>
    <use xlink:href="#DejaVuSans-74" transform="translate(1008.455078 0)"/>
    <use xlink:href="#DejaVuSans-20" transform="translate(1047.664062 0)"/>
    <use xlink:href="#DejaVuSans-66" transform="translate(1079.451172 0)"/>
    <use xlink:href="#DejaVuSans-69" transform="translate(1114.65625 0)"/>
    <use xlink:href="#DejaVuSans-72" transform="translate(1142.439453 0)"/>
    <use xlink:href="#DejaVuSans-6d" transform="translate(1181.802734 0)"/>
    <use xlink:href="#DejaVuSans-77" transform="translate(1279.214844 0)"/>
    <use xlink:href="#DejaVuSans-61" transform="translate(1361.001953 0)"/>
    <use xlink:href="#DejaVuSans-72" transform="translate(1422.28125 0)"/>
    <use xlink:href="#DejaVuSans-65" transform="translate(1461.144531 0)"/>
    <use xlink:href="#DejaVuSans-3a" transform="translate(1522.667969 0)"/>
    <use xlink:href="#DejaVuSans-20" transform="translate(1556.359375 0)"/>
    <use xlink:href="#DejaVuSans-62" transform="translate(1588.146484 0)"/>
    <use xlink:href="#DejaVuSans-75" transform="translate(1651.623047 0)"/>
    <use xlink:href="#DejaVuSans-73" transform="translate(1715.001953 0)"/>
    <use xlink:href="#DejaVuSans-20" transform="translate(1767.101562 0)"/>
    <use xlink:href="#DejaVuSans-76" transform="translate(1798.888672 0)"/>
    <use xlink:href="#DejaVuSans-6f" transform="translate(1858.068359 0)"/>
    <use xlink:href="#DejaVuSans-6c" transform="translate(1919.25 0)"/>
    <use xlink:href="#DejaVuSans-74" transform="translate(1947.033203 0)"/>
    <use xlink:href="#DejaVuSans-61" transform="translate(1986.242188 0)"/>
    <use xlink:href="#DejaVuSans-67" transform="translate(2047.521484 0)"/>
    <use xlink:href="#DejaVuSans-65" transform="translate(2110.998047 0)"/>
    <use xlink:href="#DejaVuSans-20" transform="translate(2172.521484 0)"/>
    <use xlink:href="#DejaVuSans-63" transform="translate(2204.308594 0)"/>
    <use xlink:href="#DejaVuSans-6f" transform="translate(2259.289062 0)"/>
    <use xlink:href="#DejaVuSans-6d" transform="translate(2320.470703 0)"/>
    <use xlink:href="#DejaVuSans-70" transform="translate(2417.882812 0)"/>
    <use xlink:href="#DejaVuSans-61" transform="translate(2481.359375 0)"/>
    <use xlink:href="#DejaVuSans-72" transform="translate(2542.638672 0)"/>
    <use xlink:href="#DejaVuSans-69" transform="translate(2583.751953 0)"/>
    <use xlink:href="#DejaVuSans-73" transform="translate(2611.535156 0)"/>
    <use xlink:href="#DejaVuSans-6f" transform="translate(2663.634766 0)"/>
    <use xlink:href="#DejaVuSans-6e" transform="translate(2724.816406 0)"/>
   </g>
  </g>
 </g>
 <defs>
  <clipPath id="pd06fda13d9">
   <rect x="52.52" y="33.741818" width="798.595364" height="207.479091"/>
  </clipPath>
  <clipPath id="p647c5abf11">
   <rect x="52.52" y="255.520909" width="798.595364" height="207.479091"/>
  </clipPath>
 </defs>
</svg>
