<?xml version="1.0" encoding="utf-8" standalone="no"?>
<!DOCTYPE svg PUBLIC "-//W3C//DTD SVG 1.1//EN"
  "http://www.w3.org/Graphics/SVG/1.1/DTD/svg11.dtd">
<svg xmlns:xlink="http://www.w3.org/1999/xlink" width="864pt" height="504pt" viewBox="0 0 864 504" xmlns="http://www.w3.org/2000/svg" version="1.1">
 <metadata>
  <rdf:RDF xmlns:dc="http://purl.org/dc/elements/1.1/" xmlns:cc="http://creativecommons.org/ns#" xmlns:rdf="http://www.w3.org/1999/02/22-rdf-syntax-ns#">
   <cc:Work>
    <dc:type rdf:resource="http://purl.org/dc/dcmitype/StillImage"/>
    <dc:date>2026-04-26T20:33:34.082557</dc:date>
    <dc:format>image/svg+xml</dc:format>
    <dc:creator>
     <cc:Agent>
      <dc:title>Matplotlib v3.10.8, https://matplotlib.org/</dc:title>
     </cc:Agent>
    </dc:creator>
   </cc:Work>
  </rdf:RDF>
 </metadata>
 <defs>
  <style type="text/css">*{stroke-linejoin: round; stroke-linecap: butt}</style>
 </defs>
 <g id="figure_1">
  <g id="patch_1">
   <path d="M 0 504 
L 864 504 
L 864 0 
L 0 0 
z
" style="fill: #ffffff"/>
  </g>
  <g id="axes_1">
   <g id="patch_2">
    <path d="M 52.52 239.473366 
L 851.06953 239.473366 
L 851.06953 33.12 
L 52.52 33.12 
z
" style="fill: #ffffff"/>
   </g>
   <g id="matplotlib.axis_1">
    <g id="xtick_1">
     <g id="line2d_1">
      <path d="M 86.862482 239.473366 
L 86.862482 33.12 
" clip-path="url(#pc22c405e25)" style="fill: none; stroke: #b0b0b0; stroke-opacity: 0.3; stroke-width: 0.8; stroke-linecap: square"/>
     </g>
     <g id="line2d_2">
      <defs>
       <path id="m0c45ee0c15" d="M 0 0 
L 0 3.5 
" style="stroke: #000000; stroke-width: 0.8"/>
      </defs>
      <g>
       <use xlink:href="#m0c45ee0c15" x="86.862482" y="239.473366" style="stroke: #000000; stroke-width: 0.8"/>
      </g>
     </g>
    </g>
    <g id="xtick_2">
     <g id="line2d_3">
      <path d="M 213.38965 239.473366 
L 213.38965 33.12 
" clip-path="url(#pc22c405e25)" style="fill: none; stroke: #b0b0b0; stroke-opacity: 0.3; stroke-width: 0.8; stroke-linecap: square"/>
     </g>
     <g id="line2d_4">
      <g>
       <use xlink:href="#m0c45ee0c15" x="213.38965" y="239.473366" style="stroke: #000000; stroke-width: 0.8"/>
      </g>
     </g>
    </g>
    <g id="xtick_3">
     <g id="line2d_5">
      <path d="M 339.916818 239.473366 
L 339.916818 33.12 
" clip-path="url(#pc22c405e25)" style="fill: none; stroke: #b0b0b0; stroke-opacity: 0.3; stroke-width: 0.8; stroke-linecap: square"/>
     </g>
     <g id="line2d_6">
      <g>
       <use xlink:href="#m0c45ee0c15" x="339.916818" y="239.473366" style="stroke: #000000; stroke-width: 0.8"/>
      </g>
     </g>
    </g>
    <g id="xtick_4">
     <g id="line2d_7">
      <path d="M 466.443986 239.473366 
L 466.443986 33.12 
" clip-path="url(#pc22c405e25)" style="fill: none; stroke: #b0b0b0; stroke-opacity: 0.3; stroke-width: 0.8; stroke-linecap: square"/>
     </g>
     <g id="line2d_8">
      <g>
       <use xlink:href="#m0c45ee0c15" x="466.443986" y="239.473366" style="stroke: #000000; stroke-width: 0.8"/>
      </g>
     </g>
    </g>
    <g id="xtick_5">
     <g id="line2d_9">
      <path d="M 592.971154 239.473366 
L 592.971154 33.12 
" clip-path="url(#pc22c405e25)" style="fill: none; stroke: #b0b0b0; stroke-opacity: 0.3; stroke-width: 0.8; stroke-linecap: square"/>
     </g>
     <g id="line2d_10">
      <g>
       <use xlink:href="#m0c45ee0c15" x="592.971154" y="239.473366" style="stroke: #000000; stroke-width: 0.8"/>
      </g>
     </g>
    </g>
    <g id="xtick_6">
     <g id="line2d_11">
      <path d="M 719.498322 239.473366 
L 719.498322 33.12 
" clip-path="url(#pc22c405e25)" style="fill: none; stroke: #b0b0b0; stroke-opacity: 0.3; stroke-width: 0.8; stroke-linecap: square"/>
     </g>
     <g id="line2d_12">
      <g>
       <use xlink:href="#m0c45ee0c15" x="719.498322" y="239.473366" style="stroke: #000000; stroke-width: 0.8"/>
      </g>
     </g>
    </g>
    <g id="xtick_7">
     <g id="line2d_13">
      <path d="M 846.02549 239.473366 
L 846.02549 33.12 
" clip-path="url(#pc22c405e25)" style="fill: none; stroke: #b0b0b0; stroke-opacity: 0.3; stroke-width: 0.8; stroke-linecap: square"/>
     </g>
     <g id="line2d_14">
      <g>
       <use xlink:href="#m0c45ee0c15" x="846.02549" y="239.473366" style="stroke: #000000; stroke-width: 0.8"/>
      </g>
     </g>
    </g>
   </g>
   <g id="matplotlib.axis_2">
    <g id="ytick_1">
     <g id="line2d_15">
      <path d="M 52.52 230.093667 
L 851.06953 230.093667 
" clip-path="url(#pc22c405e25)" style="fill: none; stroke: #b0b0b0; stroke-opacity: 0.3; stroke-width: 0.8; stroke-linecap: square"/>
     </g>
     <g id="line2d_16">
      <defs>
       <path id="m4f39232ed6" d="M 0 0 
L -3.5 0 
" style="stroke: #000000; stroke-width: 0.8"/>
      </defs>
      <g>
       <use xlink:href="#m4f39232ed6" x="52.52" y="230.093667" style="stroke: #000000; stroke-width: 0.8"/>
      </g>
     </g>
     <g id="text_1">
      <!-- −10 -->
      <g transform="translate(24.415313 233.892886) scale(0.1 -0.1)">
       <defs>
        <path id="DejaVuSans-2212" d="M 678 2272 
L 4684 2272 
L 4684 1741 
L 678 1741 
L 678 2272 
z
" transform="scale(0.015625)"/>
        <path id="DejaVuSans-31" d="M 794 531 
L 1825 531 
L 1825 4091 
L 703 3866 
L 703 4441 
L 1819 4666 
L 2450 4666 
L 2450 531 
L 3481 531 
L 3481 0 
L 794 0 
L 794 531 
z
" transform="scale(0.015625)"/>
        <path id="DejaVuSans-30" d="M 2034 4250 
Q 1547 4250 1301 3770 
Q 1056 3291 1056 2328 
Q 1056 1369 1301 889 
Q 1547 409 2034 409 
Q 2525 409 2770 889 
Q 3016 1369 3016 2328 
Q 3016 3291 2770 3770 
Q 2525 4250 2034 4250 
z
M 2034 4750 
Q 2819 4750 3233 4129 
Q 3647 3509 3647 2328 
Q 3647 1150 3233 529 
Q 2819 -91 2034 -91 
Q 1250 -91 836 529 
Q 422 1150 422 2328 
Q 422 3509 836 4129 
Q 1250 4750 2034 4750 
z
" transform="scale(0.015625)"/>
       </defs>
       <use xlink:href="#DejaVuSans-2212"/>
       <use xlink:href="#DejaVuSans-31" transform="translate(83.789062 0)"/>
       <use xlink:href="#DejaVuSans-30" transform="translate(147.412109 0)"/>
      </g>
     </g>
    </g>
    <g id="ytick_2">
     <g id="line2d_17">
      <path d="M 52.52 185.219021 
L 851.06953 185.219021 
" clip-path="url(#pc22c405e25)" style="fill: none; stroke: #b0b0b0; stroke-opacity: 0.3; stroke-width: 0.8; stroke-linecap: square"/>
     </g>
     <g id="line2d_18">
      <g>
       <use xlink:href="#m4f39232ed6" x="52.52" y="185.219021" style="stroke: #000000; stroke-width: 0.8"/>
      </g>
     </g>
     <g id="text_2">
      <!-- −5 -->
      <g transform="translate(30.777813 189.01824) scale(0.1 -0.1)">
       <defs>
        <path id="DejaVuSans-35" d="M 691 4666 
L 3169 4666 
L 3169 4134 
L 1269 4134 
L 1269 2991 
Q 1406 3038 1543 3061 
Q 1681 3084 1819 3084 
Q 2600 3084 3056 2656 
Q 3513 2228 3513 1497 
Q 3513 744 3044 326 
Q 2575 -91 1722 -91 
Q 1428 -91 1123 -41 
Q 819 9 494 109 
L 494 744 
Q 775 591 1075 516 
Q 1375 441 1709 441 
Q 2250 441 2565 725 
Q 2881 1009 2881 1497 
Q 2881 1984 2565 2268 
Q 2250 2553 1709 2553 
Q 1456 2553 1204 2497 
Q 953 2441 691 2322 
L 691 4666 
z
" transform="scale(0.015625)"/>
       </defs>
       <use xlink:href="#DejaVuSans-2212"/>
       <use xlink:href="#DejaVuSans-35" transform="translate(83.789062 0)"/>
      </g>
     </g>
    </g>
    <g id="ytick_3">
     <g id="line2d_19">
      <path d="M 52.52 140.344376 
L 851.06953 140.344376 
" clip-path="url(#pc22c405e25)" style="fill: none; stroke: #b0b0b0; stroke-opacity: 0.3; stroke-width: 0.8; stroke-linecap: square"/>
     </g>
     <g id="line2d_20">
      <g>
       <use xlink:href="#m4f39232ed6" x="52.52" y="140.344376" style="stroke: #000000; stroke-width: 0.8"/>
      </g>
     </g>
     <g id="text_3">
      <!-- 0 -->
      <g transform="translate(39.1575 144.143595) scale(0.1 -0.1)">
       <use xlink:href="#DejaVuSans-30"/>
      </g>
     </g>
    </g>
    <g id="ytick_4">
     <g id="line2d_21">
      <path d="M 52.52 95.46973 
L 851.06953 95.46973 
" clip-path="url(#pc22c405e25)" style="fill: none; stroke: #b0b0b0; stroke-opacity: 0.3; stroke-width: 0.8; stroke-linecap: square"/>
     </g>
     <g id="line2d_22">
      <g>
       <use xlink:href="#m4f39232ed6" x="52.52" y="95.46973" style="stroke: #000000; stroke-width: 0.8"/>
      </g>
     </g>
     <g id="text_4">
      <!-- 5 -->
      <g transform="translate(39.1575 99.268949) scale(0.1 -0.1)">
       <use xlink:href="#DejaVuSans-35"/>
      </g>
     </g>
    </g>
    <g id="ytick_5">
     <g id="line2d_23">
      <path d="M 52.52 50.595085 
L 851.06953 50.595085 
" clip-path="url(#pc22c405e25)" style="fill: none; stroke: #b0b0b0; stroke-opacity: 0.3; stroke-width: 0.8; stroke-linecap: square"/>
     </g>
     <g id="line2d_24">
      <g>
       <use xlink:href="#m4f39232ed6" x="52.52" y="50.595085" style="stroke: #000000; stroke-width: 0.8"/>
      </g>
     </g>
     <g id="text_5">
      <!-- 10 -->
      <g transform="translate(32.795 54.394303) scale(0.1 -0.1)">
       <use xlink:href="#DejaVuSans-31"/>
       <use xlink:href="#DejaVuSans-30" transform="translate(63.623047 0)"/>
      </g>
     </g>
    </g>
    <g id="text_6">
     <!-- output velocity (deg/s) -->
     <g transform="translate(18.335625 193.124027) rotate(-90) scale(0.1 -0.1)">
      <defs>
       <path id="DejaVuSans-6f" d="M 1959 3097 
Q 1497 3097 1228 2736 
Q 959 2375 959 1747 
Q 959 1119 1226 758 
Q 1494 397 1959 397 
Q 2419 397 2687 759 
Q 2956 1122 2956 1747 
Q 2956 2369 2687 2733 
Q 2419 3097 1959 3097 
z
M 1959 3584 
Q 2709 3584 3137 3096 
Q 3566 2609 3566 1747 
Q 3566 888 3137 398 
Q 2709 -91 1959 -91 
Q 1206 -91 779 398 
Q 353 888 353 1747 
Q 353 2609 779 3096 
Q 1206 3584 1959 3584 
z
" transform="scale(0.015625)"/>
       <path id="DejaVuSans-75" d="M 544 1381 
L 544 3500 
L 1119 3500 
L 1119 1403 
Q 1119 906 1312 657 
Q 1506 409 1894 409 
Q 2359 409 2629 706 
Q 2900 1003 2900 1516 
L 2900 3500 
L 3475 3500 
L 3475 0 
L 2900 0 
L 2900 538 
Q 2691 219 2414 64 
Q 2138 -91 1772 -91 
Q 1169 -91 856 284 
Q 544 659 544 1381 
z
M 1991 3584 
L 1991 3584 
z
" transform="scale(0.015625)"/>
       <path id="DejaVuSans-74" d="M 1172 4494 
L 1172 3500 
L 2356 3500 
L 2356 3053 
L 1172 3053 
L 1172 1153 
Q 1172 725 1289 603 
Q 1406 481 1766 481 
L 2356 481 
L 2356 0 
L 1766 0 
Q 1100 0 847 248 
Q 594 497 594 1153 
L 594 3053 
L 172 3053 
L 172 3500 
L 594 3500 
L 594 4494 
L 1172 4494 
z
" transform="scale(0.015625)"/>
       <path id="DejaVuSans-70" d="M 1159 525 
L 1159 -1331 
L 581 -1331 
L 581 3500 
L 1159 3500 
L 1159 2969 
Q 1341 3281 1617 3432 
Q 1894 3584 2278 3584 
Q 2916 3584 3314 3078 
Q 3713 2572 3713 1747 
Q 3713 922 3314 415 
Q 2916 -91 2278 -91 
Q 1894 -91 1617 61 
Q 1341 213 1159 525 
z
M 3116 1747 
Q 3116 2381 2855 2742 
Q 2594 3103 2138 3103 
Q 1681 3103 1420 2742 
Q 1159 2381 1159 1747 
Q 1159 1113 1420 752 
Q 1681 391 2138 391 
Q 2594 391 2855 752 
Q 3116 1113 3116 1747 
z
" transform="scale(0.015625)"/>
       <path id="DejaVuSans-20" transform="scale(0.015625)"/>
       <path id="DejaVuSans-76" d="M 191 3500 
L 800 3500 
L 1894 563 
L 2988 3500 
L 3597 3500 
L 2284 0 
L 1503 0 
L 191 3500 
z
" transform="scale(0.015625)"/>
       <path id="DejaVuSans-65" d="M 3597 1894 
L 3597 1613 
L 953 1613 
Q 991 1019 1311 708 
Q 1631 397 2203 397 
Q 2534 397 2845 478 
Q 3156 559 3463 722 
L 3463 178 
Q 3153 47 2828 -22 
Q 2503 -91 2169 -91 
Q 1331 -91 842 396 
Q 353 884 353 1716 
Q 353 2575 817 3079 
Q 1281 3584 2069 3584 
Q 2775 3584 3186 3129 
Q 3597 2675 3597 1894 
z
M 3022 2063 
Q 3016 2534 2758 2815 
Q 2500 3097 2075 3097 
Q 1594 3097 1305 2825 
Q 1016 2553 972 2059 
L 3022 2063 
z
" transform="scale(0.015625)"/>
       <path id="DejaVuSans-6c" d="M 603 4863 
L 1178 4863 
L 1178 0 
L 603 0 
L 603 4863 
z
" transform="scale(0.015625)"/>
       <path id="DejaVuSans-63" d="M 3122 3366 
L 3122 2828 
Q 2878 2963 2633 3030 
Q 2388 3097 2138 3097 
Q 1578 3097 1268 2742 
Q 959 2388 959 1747 
Q 959 1106 1268 751 
Q 1578 397 2138 397 
Q 2388 397 2633 464 
Q 2878 531 3122 666 
L 3122 134 
Q 2881 22 2623 -34 
Q 2366 -91 2075 -91 
Q 1284 -91 818 406 
Q 353 903 353 1747 
Q 353 2603 823 3093 
Q 1294 3584 2113 3584 
Q 2378 3584 2631 3529 
Q 2884 3475 3122 3366 
z
" transform="scale(0.015625)"/>
       <path id="DejaVuSans-69" d="M 603 3500 
L 1178 3500 
L 1178 0 
L 603 0 
L 603 3500 
z
M 603 4863 
L 1178 4863 
L 1178 4134 
L 603 4134 
L 603 4863 
z
" transform="scale(0.015625)"/>
       <path id="DejaVuSans-79" d="M 2059 -325 
Q 1816 -950 1584 -1140 
Q 1353 -1331 966 -1331 
L 506 -1331 
L 506 -850 
L 844 -850 
Q 1081 -850 1212 -737 
Q 1344 -625 1503 -206 
L 1606 56 
L 191 3500 
L 800 3500 
L 1894 763 
L 2988 3500 
L 3597 3500 
L 2059 -325 
z
" transform="scale(0.015625)"/>
       <path id="DejaVuSans-28" d="M 1984 4856 
Q 1566 4138 1362 3434 
Q 1159 2731 1159 2009 
Q 1159 1288 1364 580 
Q 1569 -128 1984 -844 
L 1484 -844 
Q 1016 -109 783 600 
Q 550 1309 550 2009 
Q 550 2706 781 3412 
Q 1013 4119 1484 4856 
L 1984 4856 
z
" transform="scale(0.015625)"/>
       <path id="DejaVuSans-64" d="M 2906 2969 
L 2906 4863 
L 3481 4863 
L 3481 0 
L 2906 0 
L 2906 525 
Q 2725 213 2448 61 
Q 2172 -91 1784 -91 
Q 1150 -91 751 415 
Q 353 922 353 1747 
Q 353 2572 751 3078 
Q 1150 3584 1784 3584 
Q 2172 3584 2448 3432 
Q 2725 3281 2906 2969 
z
M 947 1747 
Q 947 1113 1208 752 
Q 1469 391 1925 391 
Q 2381 391 2643 752 
Q 2906 1113 2906 1747 
Q 2906 2381 2643 2742 
Q 2381 3103 1925 3103 
Q 1469 3103 1208 2742 
Q 947 2381 947 1747 
z
" transform="scale(0.015625)"/>
       <path id="DejaVuSans-67" d="M 2906 1791 
Q 2906 2416 2648 2759 
Q 2391 3103 1925 3103 
Q 1463 3103 1205 2759 
Q 947 2416 947 1791 
Q 947 1169 1205 825 
Q 1463 481 1925 481 
Q 2391 481 2648 825 
Q 2906 1169 2906 1791 
z
M 3481 434 
Q 3481 -459 3084 -895 
Q 2688 -1331 1869 -1331 
Q 1566 -1331 1297 -1286 
Q 1028 -1241 775 -1147 
L 775 -588 
Q 1028 -725 1275 -790 
Q 1522 -856 1778 -856 
Q 2344 -856 2625 -561 
Q 2906 -266 2906 331 
L 2906 616 
Q 2728 306 2450 153 
Q 2172 0 1784 0 
Q 1141 0 747 490 
Q 353 981 353 1791 
Q 353 2603 747 3093 
Q 1141 3584 1784 3584 
Q 2172 3584 2450 3431 
Q 2728 3278 2906 2969 
L 2906 3500 
L 3481 3500 
L 3481 434 
z
" transform="scale(0.015625)"/>
       <path id="DejaVuSans-2f" d="M 1625 4666 
L 2156 4666 
L 531 -594 
L 0 -594 
L 1625 4666 
z
" transform="scale(0.015625)"/>
       <path id="DejaVuSans-73" d="M 2834 3397 
L 2834 2853 
Q 2591 2978 2328 3040 
Q 2066 3103 1784 3103 
Q 1356 3103 1142 2972 
Q 928 2841 928 2578 
Q 928 2378 1081 2264 
Q 1234 2150 1697 2047 
L 1894 2003 
Q 2506 1872 2764 1633 
Q 3022 1394 3022 966 
Q 3022 478 2636 193 
Q 2250 -91 1575 -91 
Q 1294 -91 989 -36 
Q 684 19 347 128 
L 347 722 
Q 666 556 975 473 
Q 1284 391 1588 391 
Q 1994 391 2212 530 
Q 2431 669 2431 922 
Q 2431 1156 2273 1281 
Q 2116 1406 1581 1522 
L 1381 1569 
Q 847 1681 609 1914 
Q 372 2147 372 2553 
Q 372 3047 722 3315 
Q 1072 3584 1716 3584 
Q 2034 3584 2315 3537 
Q 2597 3491 2834 3397 
z
" transform="scale(0.015625)"/>
       <path id="DejaVuSans-29" d="M 513 4856 
L 1013 4856 
Q 1481 4119 1714 3412 
Q 1947 2706 1947 2009 
Q 1947 1309 1714 600 
Q 1481 -109 1013 -844 
L 513 -844 
Q 928 -128 1133 580 
Q 1338 1288 1338 2009 
Q 1338 2731 1133 3434 
Q 928 4138 513 4856 
z
" transform="scale(0.015625)"/>
      </defs>
      <use xlink:href="#DejaVuSans-6f"/>
      <use xlink:href="#DejaVuSans-75" transform="translate(61.181641 0)"/>
      <use xlink:href="#DejaVuSans-74" transform="translate(124.560547 0)"/>
      <use xlink:href="#DejaVuSans-70" transform="translate(163.769531 0)"/>
      <use xlink:href="#DejaVuSans-75" transform="translate(227.246094 0)"/>
      <use xlink:href="#DejaVuSans-74" transform="translate(290.625 0)"/>
      <use xlink:href="#DejaVuSans-20" transform="translate(329.833984 0)"/>
      <use xlink:href="#DejaVuSans-76" transform="translate(361.621094 0)"/>
      <use xlink:href="#DejaVuSans-65" transform="translate(420.800781 0)"/>
      <use xlink:href="#DejaVuSans-6c" transform="translate(482.324219 0)"/>
      <use xlink:href="#DejaVuSans-6f" transform="translate(510.107422 0)"/>
      <use xlink:href="#DejaVuSans-63" transform="translate(571.289062 0)"/>
      <use xlink:href="#DejaVuSans-69" transform="translate(626.269531 0)"/>
      <use xlink:href="#DejaVuSans-74" transform="translate(654.052734 0)"/>
      <use xlink:href="#DejaVuSans-79" transform="translate(693.261719 0)"/>
      <use xlink:href="#DejaVuSans-20" transform="translate(752.441406 0)"/>
      <use xlink:href="#DejaVuSans-28" transform="translate(784.228516 0)"/>
      <use xlink:href="#DejaVuSans-64" transform="translate(823.242188 0)"/>
      <use xlink:href="#DejaVuSans-65" transform="translate(886.71875 0)"/>
      <use xlink:href="#DejaVuSans-67" transform="translate(948.242188 0)"/>
      <use xlink:href="#DejaVuSans-2f" transform="translate(1011.71875 0)"/>
      <use xlink:href="#DejaVuSans-73" transform="translate(1045.410156 0)"/>
      <use xlink:href="#DejaVuSans-29" transform="translate(1097.509766 0)"/>
     </g>
    </g>
   </g>
   <g id="line2d_25">
    <path d="M 88.817706 143.377902 
L 91.788564 143.377902 
L 91.79217 138.827613 
L 95.047081 138.827613 
L 95.054483 141.09827 
L 98.311735 141.09827 
L 98.314709 141.861139 
L 101.238625 141.861139 
L 101.240776 138.827613 
L 104.493157 138.827613 
L 104.494991 142.624008 
L 107.741995 142.624008 
L 107.74364 138.064744 
L 110.994755 138.064744 
L 110.996463 141.107245 
L 113.937461 141.107245 
L 113.940877 138.827613 
L 117.180542 138.827613 
L 117.18282 141.861139 
L 120.431278 141.861139 
L 120.433429 140.344376 
L 123.688846 140.344376 
L 123.690997 141.09827 
L 126.661792 141.09827 
L 126.674761 140.344376 
L 130.009321 140.344376 
L 130.018937 138.827613 
L 197.811751 138.827613 
L 197.812574 140.344376 
L 201.093486 140.344376 
L 201.098294 134.277324 
L 204.05283 134.277324 
L 204.055487 131.243798 
L 207.336274 131.243798 
L 207.339057 124.413877 
L 210.609342 124.413877 
L 210.613074 126.693509 
L 213.545025 126.693509 
L 213.548441 122.14322 
L 216.806832 122.14322 
L 216.809869 119.109693 
L 220.09483 119.109693 
L 220.099132 110.009115 
L 223.079227 110.009115 
L 223.082327 106.975589 
L 226.424858 106.975589 
L 226.429603 106.21272 
L 229.409318 106.21272 
L 229.415328 103.179194 
L 232.694343 103.179194 
L 232.697885 100.145668 
L 235.685951 100.145668 
L 235.689747 103.933088 
L 239.042147 103.933088 
L 239.047525 100.899562 
L 242.046029 100.899562 
L 242.050584 102.4253 
L 248.396111 102.416325 
L 248.40016 100.899562 
L 258.128771 100.899562 
L 258.133073 101.662431 
L 261.120379 101.662431 
L 261.127907 103.179194 
L 267.405553 103.179194 
L 267.409159 108.492352 
L 270.693804 108.492352 
L 270.696651 110.009115 
L 273.640622 110.009115 
L 273.643848 109.246246 
L 276.894458 109.246246 
L 276.895913 115.313298 
L 280.196121 115.313298 
L 280.199347 119.863588 
L 283.137625 119.863588 
L 283.139269 121.380351 
L 286.428343 121.380351 
L 286.431 134.277324 
L 289.722225 134.277324 
L 289.726464 142.624008 
L 292.685428 142.624008 
L 292.693273 140.344376 
L 295.949702 140.344376 
L 295.951917 139.590482 
L 299.241623 139.590482 
L 299.246115 138.064744 
L 302.181418 138.064744 
L 302.183569 144.140771 
L 305.451007 144.140771 
L 305.455372 138.827613 
L 311.719226 138.827613 
L 311.723528 143.377902 
L 315.010451 143.377902 
L 315.013171 136.547981 
L 317.98618 136.547981 
L 317.990355 144.140771 
L 321.260893 144.140771 
L 321.263993 138.064744 
L 324.544463 138.064744 
L 324.551675 139.590482 
L 327.476224 139.590482 
L 327.479956 142.624008 
L 330.747457 142.624008 
L 330.751886 139.590482 
L 334.024384 139.590482 
L 334.027927 138.827613 
L 337.020548 138.827613 
L 337.025292 147.928191 
L 340.312278 147.928191 
L 340.316074 154.758112 
L 343.232589 154.758112 
L 343.235625 160.825164 
L 346.475543 160.825164 
L 346.479276 163.85869 
L 349.751964 163.85869 
L 349.75557 164.612584 
L 353.009912 164.612584 
L 353.012886 162.341927 
L 355.93579 162.341927 
L 355.940724 168.408979 
L 362.458012 168.408979 
L 362.464655 169.162873 
L 365.497574 169.162873 
L 365.504217 167.64611 
L 371.952042 167.64611 
L 371.960962 171.442505 
L 374.982557 171.442505 
L 374.989453 169.162873 
L 378.005481 169.162873 
L 378.011871 172.959268 
L 381.368067 172.959268 
L 381.37452 169.925742 
L 384.390991 169.925742 
L 384.398266 175.992794 
L 387.775592 175.992794 
L 387.784702 173.713162 
L 390.833881 173.713162 
L 390.839448 169.162873 
L 393.862688 169.162873 
L 393.869267 172.959268 
L 400.247249 172.959268 
L 400.253828 172.196399 
L 403.608949 172.196399 
L 403.614137 168.408979 
L 409.656252 168.408979 
L 409.662515 170.679636 
L 413.048382 170.679636 
L 413.053823 164.612584 
L 416.050619 164.612584 
L 416.056376 166.129347 
L 419.397389 166.129347 
L 419.407891 167.64611 
L 422.492243 167.64611 
L 422.496862 161.579058 
L 425.557807 161.579058 
L 425.564323 160.825164 
L 428.902426 160.825164 
L 428.906918 153.995243 
L 431.933448 153.995243 
L 431.937496 150.207823 
L 435.001795 150.207823 
L 435.012486 143.377902 
L 438.397657 143.377902 
L 438.404363 142.624008 
L 441.476316 142.624008 
L 441.480871 144.894665 
L 444.509426 144.894665 
L 444.516005 141.861139 
L 447.836268 141.861139 
L 447.841645 137.31085 
L 450.848184 137.31085 
L 450.859128 142.624008 
L 457.305498 142.624008 
L 457.310875 139.590482 
L 460.373655 139.590482 
L 460.380741 142.624008 
L 463.450226 142.624008 
L 463.45649 136.547981 
L 466.832298 136.547981 
L 466.838814 138.827613 
L 469.826563 138.827613 
L 469.830928 141.09827 
L 473.077552 141.09827 
L 473.079513 140.344376 
L 476.067452 140.344376 
L 476.073652 138.064744 
L 479.390815 138.064744 
L 479.399545 140.344376 
L 482.406337 140.344376 
L 482.407412 141.861139 
L 485.742985 141.861139 
L 485.753993 141.09827 
L 488.750283 141.09827 
L 488.756736 140.344376 
L 492.127925 140.344376 
L 492.137668 139.590482 
L 495.179191 139.590482 
L 495.185454 138.827613 
L 498.222296 138.827613 
L 498.22837 142.624008 
L 501.590703 142.624008 
L 501.597092 141.107245 
L 504.61951 141.107245 
L 504.625393 139.581507 
L 508.002087 139.581507 
L 508.006579 140.344376 
L 514.0523 140.344376 
L 514.053565 138.064744 
L 517.418302 138.064744 
L 517.424439 111.525878 
L 520.458371 111.525878 
L 520.46495 108.492352 
L 523.529248 108.492352 
L 523.535448 94.078616 
L 526.924478 94.078616 
L 526.933019 84.215169 
L 529.887428 84.215169 
L 529.89154 77.394223 
L 533.138607 77.394223 
L 533.140252 75.87746 
L 542.545143 75.87746 
L 542.546977 73.597828 
L 545.797207 73.597828 
L 545.801509 72.843934 
L 549.072426 72.843934 
L 549.074767 76.631354 
L 552.005136 76.631354 
L 552.00792 83.461275 
L 555.292186 83.461275 
L 555.29459 84.978038 
L 558.583221 84.978038 
L 558.587206 97.866036 
L 561.503847 97.866036 
L 561.505998 103.942063 
L 564.814241 103.942063 
L 564.820251 116.076167 
L 567.796043 116.076167 
L 567.800598 134.277324 
L 571.113396 134.277324 
L 571.116243 135.794087 
L 574.403671 135.794087 
L 574.406582 139.590482 
L 577.336002 139.590482 
L 577.341126 141.861139 
L 580.610778 141.861139 
L 580.612549 140.344376 
L 583.611686 140.344376 
L 583.617823 138.827613 
L 586.881781 138.827613 
L 586.884185 140.344376 
L 590.191162 140.344376 
L 590.195844 141.09827 
L 593.164234 141.09827 
L 593.168346 137.31085 
L 596.479183 137.31085 
L 596.48184 143.377902 
L 599.43568 143.377902 
L 599.439539 138.073719 
L 602.739874 138.073719 
L 602.742278 142.615033 
L 606.037108 142.615033 
L 606.042296 136.547981 
L 609.013597 136.547981 
L 609.020999 141.107245 
L 612.29413 141.107245 
L 612.296913 139.581507 
L 615.253727 139.581507 
L 615.256574 140.344376 
L 618.528503 140.344376 
L 618.531034 141.861139 
L 621.786325 141.861139 
L 621.789361 141.09827 
L 624.725551 141.09827 
L 624.728651 136.547981 
L 627.986219 136.547981 
L 627.989003 141.107245 
L 640.579278 141.09827 
L 640.582695 139.590482 
L 643.878727 139.590482 
L 643.882903 141.09827 
L 647.139649 141.09827 
L 647.141863 139.590482 
L 650.064894 139.590482 
L 650.06812 138.827613 
L 653.326701 138.827613 
L 653.330496 142.624008 
L 656.585345 142.624008 
L 656.588255 139.590482 
L 659.555507 139.590482 
L 659.559556 140.344376 
L 662.86628 140.344376 
L 662.869063 141.861139 
L 665.893569 141.861139 
L 665.897744 139.590482 
L 672.340001 139.590482 
L 672.348732 141.09827 
L 675.424797 141.09827 
L 675.429542 140.344376 
L 679.021775 140.344376 
L 679.026709 141.09827 
L 685.11254 141.09827 
L 685.116968 138.073719 
L 688.116611 138.073719 
L 688.122431 141.09827 
L 691.437316 141.09827 
L 691.43991 142.615033 
L 700.853278 142.624008 
L 700.85524 138.827613 
L 704.107494 138.827613 
L 704.110594 145.648559 
L 707.065762 145.648559 
L 707.067217 138.064744 
L 710.321433 138.064744 
L 710.324153 145.657534 
L 716.593005 145.657534 
L 716.598446 147.174297 
L 719.861771 147.174297 
L 719.864555 148.69106 
L 722.808652 148.69106 
L 722.811689 158.545532 
L 726.080645 158.545532 
L 726.084251 168.408979 
L 729.338276 168.408979 
L 729.34144 179.789189 
L 732.281298 179.789189 
L 732.284209 180.543083 
L 735.567842 180.543083 
L 735.574801 184.339478 
L 738.816616 184.339478 
L 738.81902 188.126899 
L 742.075387 188.126899 
L 742.078044 191.923294 
L 744.992154 191.923294 
L 744.994558 188.126899 
L 748.250356 188.126899 
L 748.253076 193.440057 
L 754.437408 193.440057 
L 754.439748 194.193951 
L 757.692445 194.193951 
L 757.695798 182.822715 
L 760.951406 182.822715 
L 760.957606 194.193951 
L 764.201952 194.193951 
L 764.204609 188.889767 
L 767.130929 188.889767 
L 767.137888 186.610135 
L 770.391914 186.610135 
L 770.394824 188.126899 
L 773.400477 188.126899 
L 773.403197 181.305952 
L 776.688728 181.305952 
L 776.691575 172.196399 
L 779.948195 172.196399 
L 779.950219 157.791638 
L 783.185266 157.791638 
L 783.18767 150.207823 
L 786.109752 150.207823 
L 786.112345 144.140771 
L 789.37042 144.140771 
L 789.373267 141.861139 
L 792.644437 141.861139 
L 792.646082 142.624008 
L 795.570694 142.624008 
L 795.572718 140.344376 
L 798.807512 140.344376 
L 798.810928 141.09827 
L 801.948612 141.09827 
L 801.949877 140.344376 
L 805.341185 140.344376 
L 805.344475 138.064744 
L 808.266746 138.064744 
L 808.268454 143.377902 
L 811.496732 143.377902 
L 811.498567 139.581507 
L 814.771824 139.590482 
L 814.771824 139.590482 
" clip-path="url(#pc22c405e25)" style="fill: none; stroke: #1f77b4; stroke-opacity: 0.85; stroke-width: 1.4; stroke-linecap: square"/>
   </g>
   <g id="line2d_26">
    <path d="M 89.461729 143.377902 
L 92.689564 143.377902 
L 92.691588 139.581507 
L 95.927204 139.581507 
L 95.929292 141.107245 
L 99.17775 141.107245 
L 99.179206 139.581507 
L 102.112042 139.581507 
L 102.113497 138.827613 
L 105.374229 138.827613 
L 105.376 141.861139 
L 108.630089 141.861139 
L 108.631797 141.107245 
L 111.906763 141.107245 
L 111.908977 139.581507 
L 114.825112 139.581507 
L 114.828592 138.827613 
L 118.064334 138.827613 
L 118.066359 141.861139 
L 121.311085 141.861139 
L 121.31273 139.590482 
L 124.543917 139.590482 
L 124.546321 140.344376 
L 127.465493 140.344376 
L 127.46815 139.581507 
L 130.708511 139.581507 
L 130.710535 141.107245 
L 197.915693 141.107245 
L 197.916326 140.416175 
L 201.129104 140.416175 
L 201.130053 125.93064 
L 204.022084 125.93064 
L 204.023539 120.626457 
L 207.242201 120.626457 
L 207.24296 114.559404 
L 210.464468 114.559404 
L 210.466619 106.975589 
L 213.713369 106.975589 
L 213.715394 106.21272 
L 216.981566 106.21272 
L 216.986437 100.899562 
L 219.893652 100.899562 
L 219.896689 101.662431 
L 223.131989 101.662431 
L 223.133444 100.145668 
L 229.562289 100.145668 
L 229.566022 99.382799 
L 232.789048 99.382799 
L 232.790566 100.899562 
L 235.69873 100.899562 
L 235.702463 100.145668 
L 238.916759 100.145668 
L 238.917961 101.662431 
L 242.137192 101.662431 
L 242.139343 98.628905 
L 248.630819 98.628905 
L 248.635184 97.866036 
L 251.546131 97.866036 
L 251.550686 103.933088 
L 254.784721 103.933088 
L 254.788137 102.416325 
L 258.021412 102.416325 
L 258.026157 100.899562 
L 261.272591 100.899562 
L 261.282334 105.458826 
L 264.197267 105.458826 
L 264.202264 108.492352 
L 267.436236 108.492352 
L 267.439842 110.763009 
L 270.675141 110.763009 
L 270.67976 113.042641 
L 273.911833 113.042641 
L 273.916008 119.109693 
L 276.82917 119.109693 
L 276.832776 127.447403 
L 280.058523 127.447403 
L 280.062698 133.514455 
L 283.300402 133.514455 
L 283.304324 138.064744 
L 286.557527 138.064744 
L 286.561829 144.140771 
L 289.475623 144.140771 
L 289.481191 140.344376 
L 292.719464 140.344376 
L 292.727245 141.09827 
L 295.963873 141.09827 
L 295.968112 138.827613 
L 299.199616 138.827613 
L 299.202906 140.344376 
L 302.113979 140.344376 
L 302.118851 141.107245 
L 305.364019 141.107245 
L 305.369081 138.827613 
L 308.605582 138.827613 
L 308.612794 142.624008 
L 311.855369 142.624008 
L 311.860051 139.590482 
L 314.787004 139.590482 
L 314.791622 140.344376 
L 318.026099 140.344376 
L 318.029832 141.861139 
L 321.262917 141.861139 
L 321.26665 138.827613 
L 324.51397 138.827613 
L 324.515361 140.344376 
L 330.679512 140.344376 
L 330.683181 141.861139 
L 333.917912 141.861139 
L 333.921265 138.827613 
L 337.169597 138.827613 
L 337.173139 146.411428 
L 340.085795 146.411428 
L 340.091552 153.241349 
L 343.325207 153.241349 
L 343.32799 157.028769 
L 346.56019 157.028769 
L 346.564302 163.85869 
L 349.800298 163.85869 
L 349.805738 169.925742 
L 352.718141 169.925742 
L 352.722885 171.442505 
L 355.955528 171.442505 
L 355.964258 175.229925 
L 359.201393 175.229925 
L 359.204999 175.992794 
L 362.434352 175.992794 
L 362.437515 175.229925 
L 368.587178 175.229925 
L 368.590341 177.509557 
L 371.82311 177.509557 
L 371.826463 178.272426 
L 375.076061 178.272426 
L 375.083905 172.196399 
L 378.000863 172.196399 
L 378.004912 179.02632 
L 381.242362 179.02632 
L 381.245589 179.789189 
L 384.478358 179.789189 
L 384.482533 182.822715 
L 387.713974 182.822715 
L 387.721755 175.229925 
L 390.956422 175.229925 
L 390.960724 175.992794 
L 393.875847 175.992794 
L 393.880528 177.509557 
L 397.115575 177.509557 
L 397.121648 175.229925 
L 400.365299 175.229925 
L 400.369537 174.476031 
L 406.538496 174.476031 
L 406.542355 172.196399 
L 409.7731 172.196399 
L 409.777022 173.713162 
L 413.010487 173.713162 
L 413.013967 170.679636 
L 416.246862 170.679636 
L 416.250342 164.612584 
L 419.160403 164.612584 
L 419.168501 158.545532 
L 422.39874 158.545532 
L 422.40203 149.444954 
L 425.64239 149.444954 
L 425.648084 143.377902 
L 428.884333 143.377902 
L 428.888065 144.140771 
L 431.795786 144.140771 
L 431.798759 138.827613 
L 435.024063 138.827613 
L 435.029947 142.624008 
L 438.263286 142.624008 
L 438.266132 139.590482 
L 441.491373 139.590482 
L 441.495042 141.09827 
L 447.645212 141.107245 
L 447.648248 139.581507 
L 450.878803 139.581507 
L 450.888546 141.107245 
L 454.116191 141.107245 
L 454.121189 142.624008 
L 457.352756 142.624008 
L 457.355792 138.827613 
L 460.259085 138.827613 
L 460.261868 141.861139 
L 463.516843 141.861139 
L 463.520512 136.547981 
L 466.747588 136.547981 
L 466.752396 139.581507 
L 469.988897 139.581507 
L 469.991997 140.344376 
L 476.132171 140.344376 
L 476.136346 141.107245 
L 479.364371 141.107245 
L 479.369748 138.064744 
L 482.60005 138.064744 
L 482.611438 141.107245 
L 485.841866 141.107245 
L 485.845535 139.581507 
L 488.75838 139.581507 
L 488.76148 142.624008 
L 491.993111 142.624008 
L 491.996147 138.827613 
L 495.224931 138.827613 
L 495.227968 140.344376 
L 498.457257 140.344376 
L 498.460167 139.581507 
L 501.372127 139.581507 
L 501.375163 138.064744 
L 504.603567 138.064744 
L 504.606857 143.377902 
L 507.835767 143.377902 
L 507.839183 141.861139 
L 511.066575 141.861139 
L 511.070371 138.827613 
L 514.331356 138.827613 
L 514.332431 132.760561 
L 517.236356 132.760561 
L 517.239899 98.628905 
L 520.472099 98.628905 
L 520.476021 75.87746 
L 523.703982 75.87746 
L 523.707968 72.081065 
L 526.942635 72.081065 
L 526.945798 64.49725 
L 529.84947 64.49725 
L 529.853962 65.251144 
L 533.08439 65.251144 
L 533.089578 67.530776 
L 536.334493 67.530776 
L 536.339365 72.843934 
L 539.586368 72.843934 
L 539.59086 42.499698 
L 542.504717 42.499698 
L 542.510348 79.66488 
L 545.768106 79.66488 
L 545.769561 69.047539 
L 549.00524 69.047539 
L 549.011883 77.394223 
L 552.255976 77.394223 
L 552.260784 88.011564 
L 555.184891 88.011564 
L 555.187927 110.009115 
L 558.407411 110.009115 
L 558.408297 131.997692 
L 561.61652 131.997692 
L 561.617215 136.547981 
L 564.846695 136.547981 
L 564.848656 142.624008 
L 568.066242 142.624008 
L 568.068013 140.344376 
L 570.964726 140.344376 
L 570.967953 138.064744 
L 574.189398 138.064744 
L 574.190916 142.624008 
L 577.408565 142.624008 
L 577.413563 141.09827 
L 580.637285 141.09827 
L 580.640512 138.064744 
L 583.853796 138.064744 
L 583.854998 140.344376 
L 593.180999 140.344376 
L 593.182707 139.590482 
L 596.391373 139.590482 
L 596.392575 141.09827 
L 602.819522 141.09827 
L 602.820661 139.590482 
L 608.950649 139.590482 
L 608.95938 140.344376 
L 612.179749 140.344376 
L 612.181837 139.590482 
L 615.403725 139.590482 
L 615.406951 140.344376 
L 618.621627 140.344376 
L 618.622576 142.615033 
L 621.8537 142.615033 
L 621.855535 139.590482 
L 624.771353 139.590482 
L 624.775149 140.344376 
L 634.424744 140.344376 
L 634.425629 139.590482 
L 637.672064 139.590482 
L 637.675923 141.861139 
L 640.596739 141.861139 
L 640.602686 137.31085 
L 643.817804 137.31085 
L 643.818943 142.615033 
L 647.038933 142.615033 
L 647.041211 141.861139 
L 650.25266 141.861139 
L 650.254621 140.344376 
L 656.370818 140.344376 
L 656.372652 138.827613 
L 659.588404 138.827613 
L 659.59144 141.861139 
L 662.82054 141.861139 
L 662.822248 139.581507 
L 666.041985 139.581507 
L 666.043757 141.861139 
L 669.272983 141.861139 
L 669.274501 139.590482 
L 675.435172 139.581507 
L 675.436691 141.861139 
L 678.663387 141.861139 
L 678.665284 138.064744 
L 681.87724 138.064744 
L 681.878062 141.09827 
L 687.997549 141.107245 
L 687.998498 139.581507 
L 691.224561 139.581507 
L 691.225953 144.140771 
L 694.437402 144.140771 
L 694.438414 147.928191 
L 697.653153 147.928191 
L 697.655051 169.162873 
L 700.876306 169.162873 
L 700.877888 182.822715 
L 704.096549 182.822715 
L 704.100978 191.160425 
L 707.000221 191.160425 
L 707.002246 197.227477 
L 710.227929 197.227477 
L 710.230333 194.193951 
L 713.445072 194.193951 
L 713.445895 200.261003 
L 716.656142 200.261003 
L 716.657344 198.74424 
L 719.883407 198.74424 
L 719.884989 204.057398 
L 722.79543 204.057398 
L 722.796948 198.74424 
L 726.010106 198.74424 
L 726.011181 201.777766 
L 729.227122 201.777766 
L 729.228198 197.990346 
L 732.440406 197.990346 
L 732.441229 199.507109 
L 735.651666 199.507109 
L 735.655145 196.473583 
L 738.865646 196.473583 
L 738.866405 194.193951 
L 742.080132 194.193951 
L 742.080828 185.856241 
L 744.976971 185.856241 
L 744.977604 171.442505 
L 748.203983 171.442505 
L 748.205502 152.47848 
L 751.429667 152.47848 
L 751.431185 144.894665 
L 754.645924 144.894665 
L 754.646683 141.107245 
L 760.745799 141.09827 
L 760.746242 139.590482 
L 767.173885 139.581507 
L 767.176795 140.344376 
L 770.400012 140.344376 
L 770.402922 141.107245 
L 779.733288 141.107245 
L 779.734807 138.827613 
L 782.955113 138.827613 
L 782.956758 139.581507 
L 786.176368 139.581507 
L 786.178013 141.861139 
L 789.392372 141.861139 
L 789.393321 141.107245 
L 795.842727 141.09827 
L 795.844246 139.590482 
L 798.73634 139.590482 
L 798.739757 141.861139 
L 801.950826 141.861139 
L 801.952408 138.827613 
L 805.163225 138.827613 
L 805.164237 141.861139 
L 808.386884 141.861139 
L 808.388655 138.827613 
L 811.607886 138.827613 
L 811.609025 140.344376 
L 814.524147 140.344376 
L 814.526109 141.09827 
L 814.526109 141.09827 
" clip-path="url(#pc22c405e25)" style="fill: none; stroke: #ff7f0e; stroke-opacity: 0.9; stroke-width: 1.6; stroke-linecap: square"/>
   </g>
   <g id="LineCollection_1">
    <path d="M 156.452424 95.46973 
L 282.979592 95.46973 
" clip-path="url(#pc22c405e25)" style="fill: none; stroke-dasharray: 2.96,1.28; stroke-dashoffset: 0; stroke: #000000; stroke-opacity: 0.5; stroke-width: 0.8"/>
   </g>
   <g id="LineCollection_2">
    <path d="M 282.979592 140.344376 
L 333.590459 140.344376 
" clip-path="url(#pc22c405e25)" style="fill: none; stroke-dasharray: 2.96,1.28; stroke-dashoffset: 0; stroke: #000000; stroke-opacity: 0.5; stroke-width: 0.8"/>
   </g>
   <g id="LineCollection_3">
    <path d="M 333.590459 185.219021 
L 460.117627 185.219021 
" clip-path="url(#pc22c405e25)" style="fill: none; stroke-dasharray: 2.96,1.28; stroke-dashoffset: 0; stroke: #000000; stroke-opacity: 0.5; stroke-width: 0.8"/>
   </g>
   <g id="LineCollection_4">
    <path d="M 460.117627 140.344376 
L 510.728495 140.344376 
" clip-path="url(#pc22c405e25)" style="fill: none; stroke-dasharray: 2.96,1.28; stroke-dashoffset: 0; stroke: #000000; stroke-opacity: 0.5; stroke-width: 0.8"/>
   </g>
   <g id="LineCollection_5">
    <path d="M 510.728495 50.595085 
L 637.255663 50.595085 
" clip-path="url(#pc22c405e25)" style="fill: none; stroke-dasharray: 2.96,1.28; stroke-dashoffset: 0; stroke: #000000; stroke-opacity: 0.5; stroke-width: 0.8"/>
   </g>
   <g id="LineCollection_6">
    <path d="M 637.255663 140.344376 
L 687.86653 140.344376 
" clip-path="url(#pc22c405e25)" style="fill: none; stroke-dasharray: 2.96,1.28; stroke-dashoffset: 0; stroke: #000000; stroke-opacity: 0.5; stroke-width: 0.8"/>
   </g>
   <g id="LineCollection_7">
    <path d="M 687.86653 230.093667 
L 814.393698 230.093667 
" clip-path="url(#pc22c405e25)" style="fill: none; stroke-dasharray: 2.96,1.28; stroke-dashoffset: 0; stroke: #000000; stroke-opacity: 0.5; stroke-width: 0.8"/>
   </g>
   <g id="patch_3">
    <path d="M 52.52 239.473366 
L 52.52 33.12 
" style="fill: none; stroke: #000000; stroke-width: 0.8; stroke-linejoin: miter; stroke-linecap: square"/>
   </g>
   <g id="patch_4">
    <path d="M 851.06953 239.473366 
L 851.06953 33.12 
" style="fill: none; stroke: #000000; stroke-width: 0.8; stroke-linejoin: miter; stroke-linecap: square"/>
   </g>
   <g id="patch_5">
    <path d="M 52.52 239.473366 
L 851.06953 239.473366 
" style="fill: none; stroke: #000000; stroke-width: 0.8; stroke-linejoin: miter; stroke-linecap: square"/>
   </g>
   <g id="patch_6">
    <path d="M 52.52 33.12 
L 851.06953 33.12 
" style="fill: none; stroke: #000000; stroke-width: 0.8; stroke-linejoin: miter; stroke-linecap: square"/>
   </g>
   <g id="text_7">
    <!-- +5 -->
    <g transform="translate(213.819133 93.80598) scale(0.08 -0.08)">
     <defs>
      <path id="DejaVuSans-2b" d="M 2944 4013 
L 2944 2272 
L 4684 2272 
L 4684 1741 
L 2944 1741 
L 2944 0 
L 2419 0 
L 2419 1741 
L 678 1741 
L 678 2272 
L 2419 2272 
L 2419 4013 
L 2944 4013 
z
" transform="scale(0.015625)"/>
     </defs>
     <use xlink:href="#DejaVuSans-2b"/>
     <use xlink:href="#DejaVuSans-35" transform="translate(83.789062 0)"/>
    </g>
   </g>
   <g id="text_8">
    <!-- 0 -->
    <g transform="translate(305.740026 138.680626) scale(0.08 -0.08)">
     <use xlink:href="#DejaVuSans-30"/>
    </g>
   </g>
   <g id="text_9">
    <!-- -5 -->
    <g transform="translate(392.865918 191.297771) scale(0.08 -0.08)">
     <defs>
      <path id="DejaVuSans-2d" d="M 313 2009 
L 1997 2009 
L 1997 1497 
L 313 1497 
L 313 2009 
z
" transform="scale(0.015625)"/>
     </defs>
     <use xlink:href="#DejaVuSans-2d"/>
     <use xlink:href="#DejaVuSans-35" transform="translate(36.083984 0)"/>
    </g>
   </g>
   <g id="text_10">
    <!-- 0 -->
    <g transform="translate(482.878061 138.680626) scale(0.08 -0.08)">
     <use xlink:href="#DejaVuSans-30"/>
    </g>
   </g>
   <g id="text_11">
    <!-- +10 -->
    <g transform="translate(565.550204 48.931335) scale(0.08 -0.08)">
     <use xlink:href="#DejaVuSans-2b"/>
     <use xlink:href="#DejaVuSans-31" transform="translate(83.789062 0)"/>
     <use xlink:href="#DejaVuSans-30" transform="translate(147.412109 0)"/>
    </g>
   </g>
   <g id="text_12">
    <!-- 0 -->
    <g transform="translate(660.016096 138.680626) scale(0.08 -0.08)">
     <use xlink:href="#DejaVuSans-30"/>
    </g>
   </g>
   <g id="text_13">
    <!-- -10 -->
    <g transform="translate(744.596989 236.172417) scale(0.08 -0.08)">
     <use xlink:href="#DejaVuSans-2d"/>
     <use xlink:href="#DejaVuSans-31" transform="translate(36.083984 0)"/>
     <use xlink:href="#DejaVuSans-30" transform="translate(99.707031 0)"/>
    </g>
   </g>
   <g id="legend_1">
    <g id="patch_7">
     <path d="M 700.25078 70.47625 
L 844.06953 70.47625 
Q 846.06953 70.47625 846.06953 68.47625 
L 846.06953 40.12 
Q 846.06953 38.12 844.06953 38.12 
L 700.25078 38.12 
Q 698.25078 38.12 698.25078 40.12 
L 698.25078 68.47625 
Q 698.25078 70.47625 700.25078 70.47625 
z
" style="fill: #ffffff; opacity: 0.8; stroke: #cccccc; stroke-linejoin: miter"/>
    </g>
    <g id="line2d_27">
     <path d="M 702.25078 46.218437 
L 712.25078 46.218437 
L 722.25078 46.218437 
" style="fill: none; stroke: #1f77b4; stroke-opacity: 0.85; stroke-width: 1.4; stroke-linecap: square"/>
    </g>
    <g id="text_14">
     <!-- P=4.0 I=2.0, 40V limit -->
     <g transform="translate(730.25078 49.718437) scale(0.1 -0.1)">
      <defs>
       <path id="DejaVuSans-50" d="M 1259 4147 
L 1259 2394 
L 2053 2394 
Q 2494 2394 2734 2622 
Q 2975 2850 2975 3272 
Q 2975 3691 2734 3919 
Q 2494 4147 2053 4147 
L 1259 4147 
z
M 628 4666 
L 2053 4666 
Q 2838 4666 3239 4311 
Q 3641 3956 3641 3272 
Q 3641 2581 3239 2228 
Q 2838 1875 2053 1875 
L 1259 1875 
L 1259 0 
L 628 0 
L 628 4666 
z
" transform="scale(0.015625)"/>
       <path id="DejaVuSans-3d" d="M 678 2906 
L 4684 2906 
L 4684 2381 
L 678 2381 
L 678 2906 
z
M 678 1631 
L 4684 1631 
L 4684 1100 
L 678 1100 
L 678 1631 
z
" transform="scale(0.015625)"/>
       <path id="DejaVuSans-34" d="M 2419 4116 
L 825 1625 
L 2419 1625 
L 2419 4116 
z
M 2253 4666 
L 3047 4666 
L 3047 1625 
L 3713 1625 
L 3713 1100 
L 3047 1100 
L 3047 0 
L 2419 0 
L 2419 1100 
L 313 1100 
L 313 1709 
L 2253 4666 
z
" transform="scale(0.015625)"/>
       <path id="DejaVuSans-2e" d="M 684 794 
L 1344 794 
L 1344 0 
L 684 0 
L 684 794 
z
" transform="scale(0.015625)"/>
       <path id="DejaVuSans-49" d="M 628 4666 
L 1259 4666 
L 1259 0 
L 628 0 
L 628 4666 
z
" transform="scale(0.015625)"/>
       <path id="DejaVuSans-32" d="M 1228 531 
L 3431 531 
L 3431 0 
L 469 0 
L 469 531 
Q 828 903 1448 1529 
Q 2069 2156 2228 2338 
Q 2531 2678 2651 2914 
Q 2772 3150 2772 3378 
Q 2772 3750 2511 3984 
Q 2250 4219 1831 4219 
Q 1534 4219 1204 4116 
Q 875 4013 500 3803 
L 500 4441 
Q 881 4594 1212 4672 
Q 1544 4750 1819 4750 
Q 2544 4750 2975 4387 
Q 3406 4025 3406 3419 
Q 3406 3131 3298 2873 
Q 3191 2616 2906 2266 
Q 2828 2175 2409 1742 
Q 1991 1309 1228 531 
z
" transform="scale(0.015625)"/>
       <path id="DejaVuSans-2c" d="M 750 794 
L 1409 794 
L 1409 256 
L 897 -744 
L 494 -744 
L 750 256 
L 750 794 
z
" transform="scale(0.015625)"/>
       <path id="DejaVuSans-56" d="M 1831 0 
L 50 4666 
L 709 4666 
L 2188 738 
L 3669 4666 
L 4325 4666 
L 2547 0 
L 1831 0 
z
" transform="scale(0.015625)"/>
       <path id="DejaVuSans-6d" d="M 3328 2828 
Q 3544 3216 3844 3400 
Q 4144 3584 4550 3584 
Q 5097 3584 5394 3201 
Q 5691 2819 5691 2113 
L 5691 0 
L 5113 0 
L 5113 2094 
Q 5113 2597 4934 2840 
Q 4756 3084 4391 3084 
Q 3944 3084 3684 2787 
Q 3425 2491 3425 1978 
L 3425 0 
L 2847 0 
L 2847 2094 
Q 2847 2600 2669 2842 
Q 2491 3084 2119 3084 
Q 1678 3084 1418 2786 
Q 1159 2488 1159 1978 
L 1159 0 
L 581 0 
L 581 3500 
L 1159 3500 
L 1159 2956 
Q 1356 3278 1631 3431 
Q 1906 3584 2284 3584 
Q 2666 3584 2933 3390 
Q 3200 3197 3328 2828 
z
" transform="scale(0.015625)"/>
      </defs>
      <use xlink:href="#DejaVuSans-50"/>
      <use xlink:href="#DejaVuSans-3d" transform="translate(60.302734 0)"/>
      <use xlink:href="#DejaVuSans-34" transform="translate(144.091797 0)"/>
      <use xlink:href="#DejaVuSans-2e" transform="translate(207.714844 0)"/>
      <use xlink:href="#DejaVuSans-30" transform="translate(239.501953 0)"/>
      <use xlink:href="#DejaVuSans-20" transform="translate(303.125 0)"/>
      <use xlink:href="#DejaVuSans-49" transform="translate(334.912109 0)"/>
      <use xlink:href="#DejaVuSans-3d" transform="translate(364.404297 0)"/>
      <use xlink:href="#DejaVuSans-32" transform="translate(448.193359 0)"/>
      <use xlink:href="#DejaVuSans-2e" transform="translate(511.816406 0)"/>
      <use xlink:href="#DejaVuSans-30" transform="translate(543.603516 0)"/>
      <use xlink:href="#DejaVuSans-2c" transform="translate(607.226562 0)"/>
      <use xlink:href="#DejaVuSans-20" transform="translate(639.013672 0)"/>
      <use xlink:href="#DejaVuSans-34" transform="translate(670.800781 0)"/>
      <use xlink:href="#DejaVuSans-30" transform="translate(734.423828 0)"/>
      <use xlink:href="#DejaVuSans-56" transform="translate(798.046875 0)"/>
      <use xlink:href="#DejaVuSans-20" transform="translate(866.455078 0)"/>
      <use xlink:href="#DejaVuSans-6c" transform="translate(898.242188 0)"/>
      <use xlink:href="#DejaVuSans-69" transform="translate(926.025391 0)"/>
      <use xlink:href="#DejaVuSans-6d" transform="translate(953.808594 0)"/>
      <use xlink:href="#DejaVuSans-69" transform="translate(1051.220703 0)"/>
      <use xlink:href="#DejaVuSans-74" transform="translate(1079.003906 0)"/>
     </g>
    </g>
    <g id="line2d_28">
     <path d="M 702.25078 60.896562 
L 712.25078 60.896562 
L 722.25078 60.896562 
" style="fill: none; stroke: #ff7f0e; stroke-opacity: 0.9; stroke-width: 1.6; stroke-linecap: square"/>
    </g>
    <g id="text_15">
     <!-- P=8.0 I=2.0, 40V limit -->
     <g transform="translate(730.25078 64.396562) scale(0.1 -0.1)">
      <defs>
       <path id="DejaVuSans-38" d="M 2034 2216 
Q 1584 2216 1326 1975 
Q 1069 1734 1069 1313 
Q 1069 891 1326 650 
Q 1584 409 2034 409 
Q 2484 409 2743 651 
Q 3003 894 3003 1313 
Q 3003 1734 2745 1975 
Q 2488 2216 2034 2216 
z
M 1403 2484 
Q 997 2584 770 2862 
Q 544 3141 544 3541 
Q 544 4100 942 4425 
Q 1341 4750 2034 4750 
Q 2731 4750 3128 4425 
Q 3525 4100 3525 3541 
Q 3525 3141 3298 2862 
Q 3072 2584 2669 2484 
Q 3125 2378 3379 2068 
Q 3634 1759 3634 1313 
Q 3634 634 3220 271 
Q 2806 -91 2034 -91 
Q 1263 -91 848 271 
Q 434 634 434 1313 
Q 434 1759 690 2068 
Q 947 2378 1403 2484 
z
M 1172 3481 
Q 1172 3119 1398 2916 
Q 1625 2713 2034 2713 
Q 2441 2713 2670 2916 
Q 2900 3119 2900 3481 
Q 2900 3844 2670 4047 
Q 2441 4250 2034 4250 
Q 1625 4250 1398 4047 
Q 1172 3844 1172 3481 
z
" transform="scale(0.015625)"/>
      </defs>
      <use xlink:href="#DejaVuSans-50"/>
      <use xlink:href="#DejaVuSans-3d" transform="translate(60.302734 0)"/>
      <use xlink:href="#DejaVuSans-38" transform="translate(144.091797 0)"/>
      <use xlink:href="#DejaVuSans-2e" transform="translate(207.714844 0)"/>
      <use xlink:href="#DejaVuSans-30" transform="translate(239.501953 0)"/>
      <use xlink:href="#DejaVuSans-20" transform="translate(303.125 0)"/>
      <use xlink:href="#DejaVuSans-49" transform="translate(334.912109 0)"/>
      <use xlink:href="#DejaVuSans-3d" transform="translate(364.404297 0)"/>
      <use xlink:href="#DejaVuSans-32" transform="translate(448.193359 0)"/>
      <use xlink:href="#DejaVuSans-2e" transform="translate(511.816406 0)"/>
      <use xlink:href="#DejaVuSans-30" transform="translate(543.603516 0)"/>
      <use xlink:href="#DejaVuSans-2c" transform="translate(607.226562 0)"/>
      <use xlink:href="#DejaVuSans-20" transform="translate(639.013672 0)"/>
      <use xlink:href="#DejaVuSans-34" transform="translate(670.800781 0)"/>
      <use xlink:href="#DejaVuSans-30" transform="translate(734.423828 0)"/>
      <use xlink:href="#DejaVuSans-56" transform="translate(798.046875 0)"/>
      <use xlink:href="#DejaVuSans-20" transform="translate(866.455078 0)"/>
      <use xlink:href="#DejaVuSans-6c" transform="translate(898.242188 0)"/>
      <use xlink:href="#DejaVuSans-69" transform="translate(926.025391 0)"/>
      <use xlink:href="#DejaVuSans-6d" transform="translate(953.808594 0)"/>
      <use xlink:href="#DejaVuSans-69" transform="translate(1051.220703 0)"/>
      <use xlink:href="#DejaVuSans-74" transform="translate(1079.003906 0)"/>
     </g>
    </g>
   </g>
  </g>
  <g id="axes_2">
   <g id="patch_8">
    <path d="M 52.52 463 
L 851.06953 463 
L 851.06953 256.646634 
L 52.52 256.646634 
z
" style="fill: #ffffff"/>
   </g>
   <g id="matplotlib.axis_3">
    <g id="xtick_8">
     <g id="line2d_29">
      <path d="M 86.862482 463 
L 86.862482 256.646634 
" clip-path="url(#pd4673409fc)" style="fill: none; stroke: #b0b0b0; stroke-opacity: 0.3; stroke-width: 0.8; stroke-linecap: square"/>
     </g>
     <g id="line2d_30">
      <g>
       <use xlink:href="#m0c45ee0c15" x="86.862482" y="463" style="stroke: #000000; stroke-width: 0.8"/>
      </g>
     </g>
     <g id="text_16">
      <!-- 0 -->
      <g transform="translate(83.681232 477.598438) scale(0.1 -0.1)">
       <use xlink:href="#DejaVuSans-30"/>
      </g>
     </g>
    </g>
    <g id="xtick_9">
     <g id="line2d_31">
      <path d="M 213.38965 463 
L 213.38965 256.646634 
" clip-path="url(#pd4673409fc)" style="fill: none; stroke: #b0b0b0; stroke-opacity: 0.3; stroke-width: 0.8; stroke-linecap: square"/>
     </g>
     <g id="line2d_32">
      <g>
       <use xlink:href="#m0c45ee0c15" x="213.38965" y="463" style="stroke: #000000; stroke-width: 0.8"/>
      </g>
     </g>
     <g id="text_17">
      <!-- 2 -->
      <g transform="translate(210.2084 477.598438) scale(0.1 -0.1)">
       <use xlink:href="#DejaVuSans-32"/>
      </g>
     </g>
    </g>
    <g id="xtick_10">
     <g id="line2d_33">
      <path d="M 339.916818 463 
L 339.916818 256.646634 
" clip-path="url(#pd4673409fc)" style="fill: none; stroke: #b0b0b0; stroke-opacity: 0.3; stroke-width: 0.8; stroke-linecap: square"/>
     </g>
     <g id="line2d_34">
      <g>
       <use xlink:href="#m0c45ee0c15" x="339.916818" y="463" style="stroke: #000000; stroke-width: 0.8"/>
      </g>
     </g>
     <g id="text_18">
      <!-- 4 -->
      <g transform="translate(336.735568 477.598438) scale(0.1 -0.1)">
       <use xlink:href="#DejaVuSans-34"/>
      </g>
     </g>
    </g>
    <g id="xtick_11">
     <g id="line2d_35">
      <path d="M 466.443986 463 
L 466.443986 256.646634 
" clip-path="url(#pd4673409fc)" style="fill: none; stroke: #b0b0b0; stroke-opacity: 0.3; stroke-width: 0.8; stroke-linecap: square"/>
     </g>
     <g id="line2d_36">
      <g>
       <use xlink:href="#m0c45ee0c15" x="466.443986" y="463" style="stroke: #000000; stroke-width: 0.8"/>
      </g>
     </g>
     <g id="text_19">
      <!-- 6 -->
      <g transform="translate(463.262736 477.598438) scale(0.1 -0.1)">
       <defs>
        <path id="DejaVuSans-36" d="M 2113 2584 
Q 1688 2584 1439 2293 
Q 1191 2003 1191 1497 
Q 1191 994 1439 701 
Q 1688 409 2113 409 
Q 2538 409 2786 701 
Q 3034 994 3034 1497 
Q 3034 2003 2786 2293 
Q 2538 2584 2113 2584 
z
M 3366 4563 
L 3366 3988 
Q 3128 4100 2886 4159 
Q 2644 4219 2406 4219 
Q 1781 4219 1451 3797 
Q 1122 3375 1075 2522 
Q 1259 2794 1537 2939 
Q 1816 3084 2150 3084 
Q 2853 3084 3261 2657 
Q 3669 2231 3669 1497 
Q 3669 778 3244 343 
Q 2819 -91 2113 -91 
Q 1303 -91 875 529 
Q 447 1150 447 2328 
Q 447 3434 972 4092 
Q 1497 4750 2381 4750 
Q 2619 4750 2861 4703 
Q 3103 4656 3366 4563 
z
" transform="scale(0.015625)"/>
       </defs>
       <use xlink:href="#DejaVuSans-36"/>
      </g>
     </g>
    </g>
    <g id="xtick_12">
     <g id="line2d_37">
      <path d="M 592.971154 463 
L 592.971154 256.646634 
" clip-path="url(#pd4673409fc)" style="fill: none; stroke: #b0b0b0; stroke-opacity: 0.3; stroke-width: 0.8; stroke-linecap: square"/>
     </g>
     <g id="line2d_38">
      <g>
       <use xlink:href="#m0c45ee0c15" x="592.971154" y="463" style="stroke: #000000; stroke-width: 0.8"/>
      </g>
     </g>
     <g id="text_20">
      <!-- 8 -->
      <g transform="translate(589.789904 477.598438) scale(0.1 -0.1)">
       <use xlink:href="#DejaVuSans-38"/>
      </g>
     </g>
    </g>
    <g id="xtick_13">
     <g id="line2d_39">
      <path d="M 719.498322 463 
L 719.498322 256.646634 
" clip-path="url(#pd4673409fc)" style="fill: none; stroke: #b0b0b0; stroke-opacity: 0.3; stroke-width: 0.8; stroke-linecap: square"/>
     </g>
     <g id="line2d_40">
      <g>
       <use xlink:href="#m0c45ee0c15" x="719.498322" y="463" style="stroke: #000000; stroke-width: 0.8"/>
      </g>
     </g>
     <g id="text_21">
      <!-- 10 -->
      <g transform="translate(713.135822 477.598438) scale(0.1 -0.1)">
       <use xlink:href="#DejaVuSans-31"/>
       <use xlink:href="#DejaVuSans-30" transform="translate(63.623047 0)"/>
      </g>
     </g>
    </g>
    <g id="xtick_14">
     <g id="line2d_41">
      <path d="M 846.02549 463 
L 846.02549 256.646634 
" clip-path="url(#pd4673409fc)" style="fill: none; stroke: #b0b0b0; stroke-opacity: 0.3; stroke-width: 0.8; stroke-linecap: square"/>
     </g>
     <g id="line2d_42">
      <g>
       <use xlink:href="#m0c45ee0c15" x="846.02549" y="463" style="stroke: #000000; stroke-width: 0.8"/>
      </g>
     </g>
     <g id="text_22">
      <!-- 12 -->
      <g transform="translate(839.66299 477.598438) scale(0.1 -0.1)">
       <use xlink:href="#DejaVuSans-31"/>
       <use xlink:href="#DejaVuSans-32" transform="translate(63.623047 0)"/>
      </g>
     </g>
    </g>
    <g id="text_23">
     <!-- time (s) -->
     <g transform="translate(432.403359 491.276563) scale(0.1 -0.1)">
      <use xlink:href="#DejaVuSans-74"/>
      <use xlink:href="#DejaVuSans-69" transform="translate(39.208984 0)"/>
      <use xlink:href="#DejaVuSans-6d" transform="translate(66.992188 0)"/>
      <use xlink:href="#DejaVuSans-65" transform="translate(164.404297 0)"/>
      <use xlink:href="#DejaVuSans-20" transform="translate(225.927734 0)"/>
      <use xlink:href="#DejaVuSans-28" transform="translate(257.714844 0)"/>
      <use xlink:href="#DejaVuSans-73" transform="translate(296.728516 0)"/>
      <use xlink:href="#DejaVuSans-29" transform="translate(348.828125 0)"/>
     </g>
    </g>
   </g>
   <g id="matplotlib.axis_4">
    <g id="ytick_6">
     <g id="line2d_43">
      <path d="M 52.52 447.842331 
L 851.06953 447.842331 
" clip-path="url(#pd4673409fc)" style="fill: none; stroke: #b0b0b0; stroke-opacity: 0.3; stroke-width: 0.8; stroke-linecap: square"/>
     </g>
     <g id="line2d_44">
      <g>
       <use xlink:href="#m4f39232ed6" x="52.52" y="447.842331" style="stroke: #000000; stroke-width: 0.8"/>
      </g>
     </g>
     <g id="text_24">
      <!-- 0 -->
      <g transform="translate(39.1575 451.64155) scale(0.1 -0.1)">
       <use xlink:href="#DejaVuSans-30"/>
      </g>
     </g>
    </g>
    <g id="ytick_7">
     <g id="line2d_45">
      <path d="M 52.52 409.829369 
L 851.06953 409.829369 
" clip-path="url(#pd4673409fc)" style="fill: none; stroke: #b0b0b0; stroke-opacity: 0.3; stroke-width: 0.8; stroke-linecap: square"/>
     </g>
     <g id="line2d_46">
      <g>
       <use xlink:href="#m4f39232ed6" x="52.52" y="409.829369" style="stroke: #000000; stroke-width: 0.8"/>
      </g>
     </g>
     <g id="text_25">
      <!-- 1 -->
      <g transform="translate(39.1575 413.628588) scale(0.1 -0.1)">
       <use xlink:href="#DejaVuSans-31"/>
      </g>
     </g>
    </g>
    <g id="ytick_8">
     <g id="line2d_47">
      <path d="M 52.52 371.816407 
L 851.06953 371.816407 
" clip-path="url(#pd4673409fc)" style="fill: none; stroke: #b0b0b0; stroke-opacity: 0.3; stroke-width: 0.8; stroke-linecap: square"/>
     </g>
     <g id="line2d_48">
      <g>
       <use xlink:href="#m4f39232ed6" x="52.52" y="371.816407" style="stroke: #000000; stroke-width: 0.8"/>
      </g>
     </g>
     <g id="text_26">
      <!-- 2 -->
      <g transform="translate(39.1575 375.615626) scale(0.1 -0.1)">
       <use xlink:href="#DejaVuSans-32"/>
      </g>
     </g>
    </g>
    <g id="ytick_9">
     <g id="line2d_49">
      <path d="M 52.52 333.803445 
L 851.06953 333.803445 
" clip-path="url(#pd4673409fc)" style="fill: none; stroke: #b0b0b0; stroke-opacity: 0.3; stroke-width: 0.8; stroke-linecap: square"/>
     </g>
     <g id="line2d_50">
      <g>
       <use xlink:href="#m4f39232ed6" x="52.52" y="333.803445" style="stroke: #000000; stroke-width: 0.8"/>
      </g>
     </g>
     <g id="text_27">
      <!-- 3 -->
      <g transform="translate(39.1575 337.602663) scale(0.1 -0.1)">
       <defs>
        <path id="DejaVuSans-33" d="M 2597 2516 
Q 3050 2419 3304 2112 
Q 3559 1806 3559 1356 
Q 3559 666 3084 287 
Q 2609 -91 1734 -91 
Q 1441 -91 1130 -33 
Q 819 25 488 141 
L 488 750 
Q 750 597 1062 519 
Q 1375 441 1716 441 
Q 2309 441 2620 675 
Q 2931 909 2931 1356 
Q 2931 1769 2642 2001 
Q 2353 2234 1838 2234 
L 1294 2234 
L 1294 2753 
L 1863 2753 
Q 2328 2753 2575 2939 
Q 2822 3125 2822 3475 
Q 2822 3834 2567 4026 
Q 2313 4219 1838 4219 
Q 1578 4219 1281 4162 
Q 984 4106 628 3988 
L 628 4550 
Q 988 4650 1302 4700 
Q 1616 4750 1894 4750 
Q 2613 4750 3031 4423 
Q 3450 4097 3450 3541 
Q 3450 3153 3228 2886 
Q 3006 2619 2597 2516 
z
" transform="scale(0.015625)"/>
       </defs>
       <use xlink:href="#DejaVuSans-33"/>
      </g>
     </g>
    </g>
    <g id="ytick_10">
     <g id="line2d_51">
      <path d="M 52.52 295.790482 
L 851.06953 295.790482 
" clip-path="url(#pd4673409fc)" style="fill: none; stroke: #b0b0b0; stroke-opacity: 0.3; stroke-width: 0.8; stroke-linecap: square"/>
     </g>
     <g id="line2d_52">
      <g>
       <use xlink:href="#m4f39232ed6" x="52.52" y="295.790482" style="stroke: #000000; stroke-width: 0.8"/>
      </g>
     </g>
     <g id="text_28">
      <!-- 4 -->
      <g transform="translate(39.1575 299.589701) scale(0.1 -0.1)">
       <use xlink:href="#DejaVuSans-34"/>
      </g>
     </g>
    </g>
    <g id="ytick_11">
     <g id="line2d_53">
      <path d="M 52.52 257.77752 
L 851.06953 257.77752 
" clip-path="url(#pd4673409fc)" style="fill: none; stroke: #b0b0b0; stroke-opacity: 0.3; stroke-width: 0.8; stroke-linecap: square"/>
     </g>
     <g id="line2d_54">
      <g>
       <use xlink:href="#m4f39232ed6" x="52.52" y="257.77752" style="stroke: #000000; stroke-width: 0.8"/>
      </g>
     </g>
     <g id="text_29">
      <!-- 5 -->
      <g transform="translate(39.1575 261.576739) scale(0.1 -0.1)">
       <use xlink:href="#DejaVuSans-35"/>
      </g>
     </g>
    </g>
    <g id="text_30">
     <!-- output angle (deg) -->
     <g transform="translate(33.077813 406.692067) rotate(-90) scale(0.1 -0.1)">
      <defs>
       <path id="DejaVuSans-61" d="M 2194 1759 
Q 1497 1759 1228 1600 
Q 959 1441 959 1056 
Q 959 750 1161 570 
Q 1363 391 1709 391 
Q 2188 391 2477 730 
Q 2766 1069 2766 1631 
L 2766 1759 
L 2194 1759 
z
M 3341 1997 
L 3341 0 
L 2766 0 
L 2766 531 
Q 2569 213 2275 61 
Q 1981 -91 1556 -91 
Q 1019 -91 701 211 
Q 384 513 384 1019 
Q 384 1609 779 1909 
Q 1175 2209 1959 2209 
L 2766 2209 
L 2766 2266 
Q 2766 2663 2505 2880 
Q 2244 3097 1772 3097 
Q 1472 3097 1187 3025 
Q 903 2953 641 2809 
L 641 3341 
Q 956 3463 1253 3523 
Q 1550 3584 1831 3584 
Q 2591 3584 2966 3190 
Q 3341 2797 3341 1997 
z
" transform="scale(0.015625)"/>
       <path id="DejaVuSans-6e" d="M 3513 2113 
L 3513 0 
L 2938 0 
L 2938 2094 
Q 2938 2591 2744 2837 
Q 2550 3084 2163 3084 
Q 1697 3084 1428 2787 
Q 1159 2491 1159 1978 
L 1159 0 
L 581 0 
L 581 3500 
L 1159 3500 
L 1159 2956 
Q 1366 3272 1645 3428 
Q 1925 3584 2291 3584 
Q 2894 3584 3203 3211 
Q 3513 2838 3513 2113 
z
" transform="scale(0.015625)"/>
      </defs>
      <use xlink:href="#DejaVuSans-6f"/>
      <use xlink:href="#DejaVuSans-75" transform="translate(61.181641 0)"/>
      <use xlink:href="#DejaVuSans-74" transform="translate(124.560547 0)"/>
      <use xlink:href="#DejaVuSans-70" transform="translate(163.769531 0)"/>
      <use xlink:href="#DejaVuSans-75" transform="translate(227.246094 0)"/>
      <use xlink:href="#DejaVuSans-74" transform="translate(290.625 0)"/>
      <use xlink:href="#DejaVuSans-20" transform="translate(329.833984 0)"/>
      <use xlink:href="#DejaVuSans-61" transform="translate(361.621094 0)"/>
      <use xlink:href="#DejaVuSans-6e" transform="translate(422.900391 0)"/>
      <use xlink:href="#DejaVuSans-67" transform="translate(486.279297 0)"/>
      <use xlink:href="#DejaVuSans-6c" transform="translate(549.755859 0)"/>
      <use xlink:href="#DejaVuSans-65" transform="translate(577.539062 0)"/>
      <use xlink:href="#DejaVuSans-20" transform="translate(639.0625 0)"/>
      <use xlink:href="#DejaVuSans-28" transform="translate(670.849609 0)"/>
      <use xlink:href="#DejaVuSans-64" transform="translate(709.863281 0)"/>
      <use xlink:href="#DejaVuSans-65" transform="translate(773.339844 0)"/>
      <use xlink:href="#DejaVuSans-67" transform="translate(834.863281 0)"/>
      <use xlink:href="#DejaVuSans-29" transform="translate(898.339844 0)"/>
     </g>
    </g>
   </g>
   <g id="line2d_55">
    <path d="M 88.817706 451.073433 
L 91.79217 450.731316 
L 95.054483 450.883368 
L 98.314709 451.225485 
L 101.240776 450.883368 
L 104.494991 451.377537 
L 107.74364 450.883368 
L 110.996463 451.073433 
L 113.940877 450.731316 
L 117.18282 451.073433 
L 120.433429 451.073433 
L 123.690997 451.225485 
L 126.674761 451.225485 
L 130.018937 450.883368 
L 197.812574 450.883368 
L 201.098294 449.590928 
L 204.055487 447.690279 
L 207.339057 444.307126 
L 210.613074 441.418141 
L 213.548441 437.578831 
L 216.809869 433.055289 
L 220.099132 426.631098 
L 223.082327 419.560687 
L 226.429603 412.338225 
L 232.697885 395.954638 
L 235.689747 388.238006 
L 239.047525 379.913168 
L 242.050584 371.85442 
L 245.396405 363.833685 
L 248.40016 355.470833 
L 251.767554 347.145994 
L 254.788453 338.783143 
L 258.133073 330.572343 
L 261.127907 322.70366 
L 264.429887 314.834976 
L 267.409159 308.106682 
L 270.696651 301.682491 
L 273.643848 295.106249 
L 276.895913 289.784434 
L 283.139269 281.421583 
L 286.431 280.167155 
L 289.726464 280.62331 
L 292.693273 280.62331 
L 295.951917 280.471259 
L 299.246115 279.97709 
L 302.183569 280.775362 
L 308.417753 280.167155 
L 311.723528 280.775362 
L 315.013171 279.97709 
L 317.990355 280.775362 
L 321.263993 280.319207 
L 324.551675 280.167155 
L 327.479956 280.62331 
L 330.751886 280.471259 
L 334.027927 280.167155 
L 337.025292 281.763699 
L 340.316074 284.804736 
L 346.479276 294.117912 
L 349.75557 299.249662 
L 353.012886 303.925256 
L 355.940724 309.855278 
L 362.464655 321.905387 
L 371.960962 340.075583 
L 374.989453 346.157657 
L 378.011871 353.076016 
L 381.37452 359.348155 
L 384.398266 366.874722 
L 387.784702 373.945133 
L 390.839448 380.06522 
L 393.869267 386.983579 
L 397.244 393.863925 
L 400.253828 400.630232 
L 403.614137 406.560254 
L 406.625863 412.490276 
L 409.662515 418.914467 
L 413.053823 424.08423 
L 416.056376 429.520083 
L 419.407891 435.298054 
L 425.564323 444.155074 
L 428.906918 447.044059 
L 431.937496 449.134772 
L 435.012486 449.780992 
L 438.404363 450.237148 
L 441.480871 451.225485 
L 444.516005 451.529589 
L 447.841645 450.883368 
L 453.931018 451.871705 
L 457.310875 451.68164 
L 460.380741 452.175809 
L 463.45649 451.377537 
L 466.838814 451.073433 
L 469.830928 451.225485 
L 473.079513 451.225485 
L 476.073652 450.731316 
L 482.405704 450.731316 
L 482.407412 451.073433 
L 485.753993 451.225485 
L 488.756736 451.225485 
L 492.137668 451.073433 
L 495.185454 450.731316 
L 498.22837 451.225485 
L 501.597092 451.377537 
L 504.625393 451.225485 
L 514.051541 451.225485 
L 514.053565 450.731316 
L 517.424439 444.61123 
L 520.46495 437.882935 
L 523.535448 428.075591 
L 526.933019 416.215547 
L 529.89154 402.872997 
L 539.630526 361.895024 
L 542.546977 347.792215 
L 545.801509 333.461328 
L 552.00792 307.95463 
L 555.29459 296.208625 
L 561.503847 279.520934 
L 561.505998 279.520934 
L 564.820251 274.351172 
L 567.800598 273.096744 
L 571.116243 272.108407 
L 574.406582 271.956355 
L 577.341126 272.298472 
L 580.612549 272.298472 
L 583.617823 271.956355 
L 586.884185 271.956355 
L 590.195844 272.108407 
L 593.168346 271.462186 
L 596.48184 272.108407 
L 599.439539 271.652251 
L 602.742278 272.108407 
L 606.042296 271.310135 
L 609.020999 271.462186 
L 612.296913 271.310135 
L 615.256574 271.310135 
L 618.531034 271.652251 
L 621.789361 271.804303 
L 624.728651 271.006031 
L 637.592225 271.652251 
L 640.582695 271.462186 
L 643.882903 271.652251 
L 647.141863 271.462186 
L 650.06812 271.158083 
L 653.330496 271.652251 
L 656.588255 271.462186 
L 659.559556 271.462186 
L 662.869063 271.804303 
L 669.299743 271.462186 
L 672.348732 271.652251 
L 675.429542 271.652251 
L 681.757355 271.956355 
L 685.116968 271.462186 
L 688.122431 271.652251 
L 694.368002 272.602575 
L 697.620826 273.096744 
L 700.85524 272.754627 
L 704.110594 273.895016 
L 707.067217 273.400848 
L 713.607597 275.643612 
L 716.598446 277.088105 
L 719.864555 278.874714 
L 722.811689 282.714023 
L 726.084251 288.682058 
L 729.34144 297.006897 
L 735.574801 314.834976 
L 738.81902 324.946424 
L 744.994558 346.005605 
L 751.509695 368.509279 
L 754.439748 379.913168 
L 757.695798 388.884227 
L 760.957606 400.288116 
L 764.204609 410.589628 
L 767.137888 420.35896 
L 770.394824 430.508421 
L 773.403197 439.175376 
L 776.691575 445.90367 
L 779.950219 449.590928 
L 783.18767 451.68164 
L 786.112345 452.517926 
L 789.373267 452.822029 
L 792.646082 453.316198 
L 795.572718 453.316198 
L 798.810928 453.46825 
L 801.949877 453.46825 
L 805.344475 452.974081 
L 808.268454 453.620302 
L 814.771824 453.316198 
L 814.771824 453.316198 
" clip-path="url(#pd4673409fc)" style="fill: none; stroke: #1f77b4; stroke-opacity: 0.85; stroke-width: 1.4; stroke-linecap: square"/>
   </g>
   <g id="line2d_56">
    <path d="M 89.461729 447.994383 
L 92.691588 447.842331 
L 95.929292 447.994383 
L 99.179206 447.842331 
L 102.446833 447.538228 
L 105.376 447.842331 
L 108.631797 447.994383 
L 111.908977 447.842331 
L 114.828592 447.538228 
L 118.066359 447.842331 
L 121.31273 447.690279 
L 124.546321 447.690279 
L 127.46815 447.538228 
L 130.710535 447.690279 
L 197.91525 447.690279 
L 197.916326 447.994383 
L 201.130053 444.953346 
L 204.023539 440.77192 
L 207.24296 435.298054 
L 213.715394 421.00518 
L 216.986437 412.680341 
L 219.896689 404.469541 
L 232.790566 370.409927 
L 235.702463 361.895024 
L 238.917961 353.722237 
L 248.635184 327.037137 
L 251.550686 319.358519 
L 258.026157 302.974932 
L 264.202264 288.83411 
L 267.439842 282.561971 
L 270.67976 276.784001 
L 273.916008 272.298472 
L 276.832776 269.561538 
L 280.062698 268.117046 
L 283.304324 267.622877 
L 286.561829 268.421149 
L 289.481191 268.421149 
L 292.727245 268.573201 
L 295.968112 268.269098 
L 299.202906 268.269098 
L 302.118851 268.421149 
L 305.369081 268.117046 
L 308.612794 268.573201 
L 311.860051 268.421149 
L 314.791622 268.421149 
L 318.029832 268.763266 
L 321.26665 268.421149 
L 327.445161 268.421149 
L 330.683181 268.763266 
L 333.921265 268.421149 
L 337.173139 269.71359 
L 340.091552 272.450523 
L 343.32799 275.985729 
L 346.564302 280.965427 
L 349.805738 287.199553 
L 362.437515 316.127417 
L 368.590341 331.408628 
L 371.826463 339.429363 
L 375.083905 346.157657 
L 378.004912 354.368457 
L 381.245589 362.693296 
L 384.482533 371.702368 
L 390.960724 386.641462 
L 393.880528 394.510145 
L 400.369537 409.145136 
L 409.777022 430.166304 
L 413.013967 436.590494 
L 416.250342 441.722244 
L 419.168501 445.599567 
L 422.40203 447.538228 
L 425.648084 448.146435 
L 428.888065 448.98272 
L 431.798759 448.640604 
L 435.029947 449.134772 
L 438.266132 448.98272 
L 444.738124 449.286824 
L 447.648248 449.134772 
L 450.888546 449.286824 
L 454.121189 449.780992 
L 457.355792 449.438876 
L 460.261868 449.780992 
L 463.520512 448.98272 
L 466.752396 448.792655 
L 472.899465 448.792655 
L 476.136346 448.98272 
L 479.369748 448.488552 
L 482.611438 448.640604 
L 485.845535 448.488552 
L 488.76148 448.98272 
L 491.996147 448.640604 
L 495.227968 448.640604 
L 498.460167 448.488552 
L 501.375163 447.994383 
L 504.606857 448.640604 
L 507.839183 448.98272 
L 511.070371 448.640604 
L 514.330533 448.640604 
L 514.332431 447.044059 
L 517.239899 438.187039 
L 520.476021 424.540385 
L 523.707968 410.09546 
L 526.945798 394.015977 
L 529.853962 378.126559 
L 533.089578 362.693296 
L 536.339365 348.400422 
L 539.59086 327.683358 
L 542.510348 314.834976 
L 545.767031 314.834976 
L 545.769561 299.74383 
L 549.011883 286.401281 
L 552.260784 275.339509 
L 555.187927 268.915318 
L 558.408297 267.128709 
L 561.617215 266.330437 
L 564.848656 266.824605 
L 568.068013 266.824605 
L 570.967953 266.330437 
L 574.190916 266.824605 
L 577.413563 266.976657 
L 580.640512 266.482488 
L 589.96316 266.482488 
L 593.182707 266.330437 
L 599.606681 266.672553 
L 606.042169 266.330437 
L 608.95938 266.330437 
L 612.181837 266.178385 
L 615.406951 266.178385 
L 618.622576 266.672553 
L 621.855535 266.482488 
L 631.210195 266.482488 
L 634.425629 266.330437 
L 637.675923 266.672553 
L 640.602686 266.026333 
L 643.818943 266.482488 
L 647.041211 266.824605 
L 653.467399 266.824605 
L 656.372652 266.482488 
L 659.59144 266.824605 
L 662.822248 266.672553 
L 666.043757 266.976657 
L 669.274501 266.824605 
L 672.505183 266.824605 
L 672.50746 266.672553 
L 675.436691 266.976657 
L 678.665284 266.482488 
L 685.104568 266.824605 
L 687.998498 266.672553 
L 691.225953 267.470825 
L 694.438414 269.06737 
L 697.655051 275.187457 
L 700.877888 284.158516 
L 704.100978 294.916184 
L 707.002246 306.966293 
L 710.230333 318.370182 
L 719.884989 356.915326 
L 722.796948 369.307551 
L 726.011181 382.307984 
L 735.655145 418.914467 
L 738.866405 430.318356 
L 742.080828 439.973648 
L 744.977604 446.549891 
L 748.205502 449.134772 
L 751.431185 450.085096 
L 757.857374 450.427213 
L 763.960601 450.085096 
L 767.176795 450.085096 
L 776.83822 450.579265 
L 779.734807 450.237148 
L 782.956758 450.085096 
L 786.178013 450.427213 
L 792.613564 450.731316 
L 795.844246 450.579265 
L 798.739757 450.883368 
L 801.952408 450.579265 
L 805.164237 450.883368 
L 808.388655 450.579265 
L 811.609025 450.579265 
L 814.526109 450.731316 
L 814.526109 450.731316 
" clip-path="url(#pd4673409fc)" style="fill: none; stroke: #ff7f0e; stroke-opacity: 0.9; stroke-width: 1.6; stroke-linecap: square"/>
   </g>
   <g id="patch_9">
    <path d="M 52.52 463 
L 52.52 256.646634 
" style="fill: none; stroke: #000000; stroke-width: 0.8; stroke-linejoin: miter; stroke-linecap: square"/>
   </g>
   <g id="patch_10">
    <path d="M 851.06953 463 
L 851.06953 256.646634 
" style="fill: none; stroke: #000000; stroke-width: 0.8; stroke-linejoin: miter; stroke-linecap: square"/>
   </g>
   <g id="patch_11">
    <path d="M 52.52 463 
L 851.06953 463 
" style="fill: none; stroke: #000000; stroke-width: 0.8; stroke-linejoin: miter; stroke-linecap: square"/>
   </g>
   <g id="patch_12">
    <path d="M 52.52 256.646634 
L 851.06953 256.646634 
" style="fill: none; stroke: #000000; stroke-width: 0.8; stroke-linejoin: miter; stroke-linecap: square"/>
   </g>
   <g id="legend_2">
    <g id="patch_13">
     <path d="M 751.346093 294.002884 
L 844.06953 294.002884 
Q 846.06953 294.002884 846.06953 292.002884 
L 846.06953 263.646634 
Q 846.06953 261.646634 844.06953 261.646634 
L 751.346093 261.646634 
Q 749.346093 261.646634 749.346093 263.646634 
L 749.346093 292.002884 
Q 749.346093 294.002884 751.346093 294.002884 
z
" style="fill: #ffffff; opacity: 0.8; stroke: #cccccc; stroke-linejoin: miter"/>
    </g>
    <g id="line2d_57">
     <path d="M 753.346093 269.745072 
L 763.346093 269.745072 
L 773.346093 269.745072 
" style="fill: none; stroke: #1f77b4; stroke-opacity: 0.85; stroke-width: 1.4; stroke-linecap: square"/>
    </g>
    <g id="text_31">
     <!-- P=4.0 I=2.0 -->
     <g transform="translate(781.346093 273.245072) scale(0.1 -0.1)">
      <use xlink:href="#DejaVuSans-50"/>
      <use xlink:href="#DejaVuSans-3d" transform="translate(60.302734 0)"/>
      <use xlink:href="#DejaVuSans-34" transform="translate(144.091797 0)"/>
      <use xlink:href="#DejaVuSans-2e" transform="translate(207.714844 0)"/>
      <use xlink:href="#DejaVuSans-30" transform="translate(239.501953 0)"/>
      <use xlink:href="#DejaVuSans-20" transform="translate(303.125 0)"/>
      <use xlink:href="#DejaVuSans-49" transform="translate(334.912109 0)"/>
      <use xlink:href="#DejaVuSans-3d" transform="translate(364.404297 0)"/>
      <use xlink:href="#DejaVuSans-32" transform="translate(448.193359 0)"/>
      <use xlink:href="#DejaVuSans-2e" transform="translate(511.816406 0)"/>
      <use xlink:href="#DejaVuSans-30" transform="translate(543.603516 0)"/>
     </g>
    </g>
    <g id="line2d_58">
     <path d="M 753.346093 284.423197 
L 763.346093 284.423197 
L 773.346093 284.423197 
" style="fill: none; stroke: #ff7f0e; stroke-opacity: 0.9; stroke-width: 1.6; stroke-linecap: square"/>
    </g>
    <g id="text_32">
     <!-- P=8.0 I=2.0 -->
     <g transform="translate(781.346093 287.923197) scale(0.1 -0.1)">
      <use xlink:href="#DejaVuSans-50"/>
      <use xlink:href="#DejaVuSans-3d" transform="translate(60.302734 0)"/>
      <use xlink:href="#DejaVuSans-38" transform="translate(144.091797 0)"/>
      <use xlink:href="#DejaVuSans-2e" transform="translate(207.714844 0)"/>
      <use xlink:href="#DejaVuSans-30" transform="translate(239.501953 0)"/>
      <use xlink:href="#DejaVuSans-20" transform="translate(303.125 0)"/>
      <use xlink:href="#DejaVuSans-49" transform="translate(334.912109 0)"/>
      <use xlink:href="#DejaVuSans-3d" transform="translate(364.404297 0)"/>
      <use xlink:href="#DejaVuSans-32" transform="translate(448.193359 0)"/>
      <use xlink:href="#DejaVuSans-2e" transform="translate(511.816406 0)"/>
      <use xlink:href="#DejaVuSans-30" transform="translate(543.603516 0)"/>
     </g>
    </g>
   </g>
  </g>
  <g id="text_33">
   <!-- D02 40V torque-limit firmware: velocity P gain comparison -->
   <g transform="translate(255.936563 19.198125) scale(0.12 -0.12)">
    <defs>
     <path id="DejaVuSans-44" d="M 1259 4147 
L 1259 519 
L 2022 519 
Q 2988 519 3436 956 
Q 3884 1394 3884 2338 
Q 3884 3275 3436 3711 
Q 2988 4147 2022 4147 
L 1259 4147 
z
M 628 4666 
L 1925 4666 
Q 3281 4666 3915 4102 
Q 4550 3538 4550 2338 
Q 4550 1131 3912 565 
Q 3275 0 1925 0 
L 628 0 
L 628 4666 
z
" transform="scale(0.015625)"/>
     <path id="DejaVuSans-72" d="M 2631 2963 
Q 2534 3019 2420 3045 
Q 2306 3072 2169 3072 
Q 1681 3072 1420 2755 
Q 1159 2438 1159 1844 
L 1159 0 
L 581 0 
L 581 3500 
L 1159 3500 
L 1159 2956 
Q 1341 3275 1631 3429 
Q 1922 3584 2338 3584 
Q 2397 3584 2469 3576 
Q 2541 3569 2628 3553 
L 2631 2963 
z
" transform="scale(0.015625)"/>
     <path id="DejaVuSans-71" d="M 947 1747 
Q 947 1113 1208 752 
Q 1469 391 1925 391 
Q 2381 391 2643 752 
Q 2906 1113 2906 1747 
Q 2906 2381 2643 2742 
Q 2381 3103 1925 3103 
Q 1469 3103 1208 2742 
Q 947 2381 947 1747 
z
M 2906 525 
Q 2725 213 2448 61 
Q 2172 -91 1784 -91 
Q 1150 -91 751 415 
Q 353 922 353 1747 
Q 353 2572 751 3078 
Q 1150 3584 1784 3584 
Q 2172 3584 2448 3432 
Q 2725 3281 2906 2969 
L 2906 3500 
L 3481 3500 
L 3481 -1331 
L 2906 -1331 
L 2906 525 
z
" transform="scale(0.015625)"/>
     <path id="DejaVuSans-66" d="M 2375 4863 
L 2375 4384 
L 1825 4384 
Q 1516 4384 1395 4259 
Q 1275 4134 1275 3809 
L 1275 3500 
L 2222 3500 
L 2222 3053 
L 1275 3053 
L 1275 0 
L 697 0 
L 697 3053 
L 147 3053 
L 147 3500 
L 697 3500 
L 697 3744 
Q 697 4328 969 4595 
Q 1241 4863 1831 4863 
L 2375 4863 
z
" transform="scale(0.015625)"/>
     <path id="DejaVuSans-77" d="M 269 3500 
L 844 3500 
L 1563 769 
L 2278 3500 
L 2956 3500 
L 3675 769 
L 4391 3500 
L 4966 3500 
L 4050 0 
L 3372 0 
L 2619 2869 
L 1863 0 
L 1184 0 
L 269 3500 
z
" transform="scale(0.015625)"/>
     <path id="DejaVuSans-3a" d="M 750 794 
L 1409 794 
L 1409 0 
L 750 0 
L 750 794 
z
M 750 3309 
L 1409 3309 
L 1409 2516 
L 750 2516 
L 750 3309 
z
" transform="scale(0.015625)"/>
    </defs>
    <use xlink:href="#DejaVuSans-44"/>
    <use xlink:href="#DejaVuSans-30" transform="translate(77.001953 0)"/>
    <use xlink:href="#DejaVuSans-32" transform="translate(140.625 0)"/>
    <use xlink:href="#DejaVuSans-20" transform="translate(204.248047 0)"/>
    <use xlink:href="#DejaVuSans-34" transform="translate(236.035156 0)"/>
    <use xlink:href="#DejaVuSans-30" transform="translate(299.658203 0)"/>
    <use xlink:href="#DejaVuSans-56" transform="translate(363.28125 0)"/>
    <use xlink:href="#DejaVuSans-20" transform="translate(431.689453 0)"/>
    <use xlink:href="#DejaVuSans-74" transform="translate(463.476562 0)"/>
    <use xlink:href="#DejaVuSans-6f" transform="translate(502.685547 0)"/>
    <use xlink:href="#DejaVuSans-72" transform="translate(563.867188 0)"/>
    <use xlink:href="#DejaVuSans-71" transform="translate(603.230469 0)"/>
    <use xlink:href="#DejaVuSans-75" transform="translate(666.707031 0)"/>
    <use xlink:href="#DejaVuSans-65" transform="translate(730.085938 0)"/>
    <use xlink:href="#DejaVuSans-2d" transform="translate(791.609375 0)"/>
    <use xlink:href="#DejaVuSans-6c" transform="translate(827.693359 0)"/>
    <use xlink:href="#DejaVuSans-69" transform="translate(855.476562 0)"/>
    <use xlink:href="#DejaVuSans-6d" transform="translate(883.259766 0)"/>
    <use xlink:href="#DejaVuSans-69" transform="translate(980.671875 0)"/>
    <use xlink:href="#DejaVuSans-74" transform="translate(1008.455078 0)"/>
    <use xlink:href="#DejaVuSans-20" transform="translate(1047.664062 0)"/>
    <use xlink:href="#DejaVuSans-66" transform="translate(1079.451172 0)"/>
    <use xlink:href="#DejaVuSans-69" transform="translate(1114.65625 0)"/>
    <use xlink:href="#DejaVuSans-72" transform="translate(1142.439453 0)"/>
    <use xlink:href="#DejaVuSans-6d" transform="translate(1181.802734 0)"/>
    <use xlink:href="#DejaVuSans-77" transform="translate(1279.214844 0)"/>
    <use xlink:href="#DejaVuSans-61" transform="translate(1361.001953 0)"/>
    <use xlink:href="#DejaVuSans-72" transform="translate(1422.28125 0)"/>
    <use xlink:href="#DejaVuSans-65" transform="translate(1461.144531 0)"/>
    <use xlink:href="#DejaVuSans-3a" transform="translate(1522.667969 0)"/>
    <use xlink:href="#DejaVuSans-20" transform="translate(1556.359375 0)"/>
    <use xlink:href="#DejaVuSans-76" transform="translate(1588.146484 0)"/>
    <use xlink:href="#DejaVuSans-65" transform="translate(1647.326172 0)"/>
    <use xlink:href="#DejaVuSans-6c" transform="translate(1708.849609 0)"/>
    <use xlink:href="#DejaVuSans-6f" transform="translate(1736.632812 0)"/>
    <use xlink:href="#DejaVuSans-63" transform="translate(1797.814453 0)"/>
    <use xlink:href="#DejaVuSans-69" transform="translate(1852.794922 0)"/>
    <use xlink:href="#DejaVuSans-74" transform="translate(1880.578125 0)"/>
    <use xlink:href="#DejaVuSans-79" transform="translate(1919.787109 0)"/>
    <use xlink:href="#DejaVuSans-20" transform="translate(1978.966797 0)"/>
    <use xlink:href="#DejaVuSans-50" transform="translate(2010.753906 0)"/>
    <use xlink:href="#DejaVuSans-20" transform="translate(2071.056641 0)"/>
    <use xlink:href="#DejaVuSans-67" transform="translate(2102.84375 0)"/>
    <use xlink:href="#DejaVuSans-61" transform="translate(2166.320312 0)"/>
    <use xlink:href="#DejaVuSans-69" transform="translate(2227.599609 0)"/>
    <use xlink:href="#DejaVuSans-6e" transform="translate(2255.382812 0)"/>
    <use xlink:href="#DejaVuSans-20" transform="translate(2318.761719 0)"/>
    <use xlink:href="#DejaVuSans-63" transform="translate(2350.548828 0)"/>
    <use xlink:href="#DejaVuSans-6f" transform="translate(2405.529297 0)"/>
    <use xlink:href="#DejaVuSans-6d" transform="translate(2466.710938 0)"/>
    <use xlink:href="#DejaVuSans-70" transform="translate(2564.123047 0)"/>
    <use xlink:href="#DejaVuSans-61" transform="translate(2627.599609 0)"/>
    <use xlink:href="#DejaVuSans-72" transform="translate(2688.878906 0)"/>
    <use xlink:href="#DejaVuSans-69" transform="translate(2729.992188 0)"/>
    <use xlink:href="#DejaVuSans-73" transform="translate(2757.775391 0)"/>
    <use xlink:href="#DejaVuSans-6f" transform="translate(2809.875 0)"/>
    <use xlink:href="#DejaVuSans-6e" transform="translate(2871.056641 0)"/>
   </g>
  </g>
 </g>
 <defs>
  <clipPath id="pc22c405e25">
   <rect x="52.52" y="33.12" width="798.54953" height="206.353366"/>
  </clipPath>
  <clipPath id="pd4673409fc">
   <rect x="52.52" y="256.646634" width="798.54953" height="206.353366"/>
  </clipPath>
 </defs>
</svg>
