<svg xmlns="http://www.w3.org/2000/svg" width="1000" height="620" viewBox="0 0 1000 620">
<rect width="100%" height="100%" fill="white"/>
<text x="500.0" y="24" text-anchor="middle" font-size="18" font-family="Arial">D02 response with flashed 40V torque-limit firmware</text>
<line x1="70" y1="271.2" x2="975" y2="271.2" stroke="#ddd"/><text x="62" y="275.2" text-anchor="end" font-size="11" fill="#555">-10</text><line x1="70" y1="217.4" x2="975" y2="217.4" stroke="#ddd"/><text x="62" y="221.4" text-anchor="end" font-size="11" fill="#555">-5</text><line x1="70" y1="163.5" x2="975" y2="163.5" stroke="#ddd"/><text x="62" y="167.5" text-anchor="end" font-size="11" fill="#555">0</text><line x1="70" y1="109.6" x2="975" y2="109.6" stroke="#ddd"/><text x="62" y="113.6" text-anchor="end" font-size="11" fill="#555">5</text><line x1="70" y1="55.8" x2="975" y2="55.8" stroke="#ddd"/><text x="62" y="59.8" text-anchor="end" font-size="11" fill="#555">10</text><line x1="70.0" y1="45" x2="70.0" y2="574" stroke="#eee"/><text x="70.0" y="600" text-anchor="middle" font-size="11" fill="#555">0</text><line x1="227.3" y1="45" x2="227.3" y2="574" stroke="#eee"/><text x="227.3" y="600" text-anchor="middle" font-size="11" fill="#555">2</text><line x1="384.6" y1="45" x2="384.6" y2="574" stroke="#eee"/><text x="384.6" y="600" text-anchor="middle" font-size="11" fill="#555">4</text><line x1="541.9" y1="45" x2="541.9" y2="574" stroke="#eee"/><text x="541.9" y="600" text-anchor="middle" font-size="11" fill="#555">6</text><line x1="699.2" y1="45" x2="699.2" y2="574" stroke="#eee"/><text x="699.2" y="600" text-anchor="middle" font-size="11" fill="#555">8</text><line x1="856.6" y1="45" x2="856.6" y2="574" stroke="#eee"/><text x="856.6" y="600" text-anchor="middle" font-size="11" fill="#555">10</text>
<rect x="70" y="45" width="905" height="237" fill="none" stroke="#aaa"/>
<text x="20" y="163.5" transform="rotate(-90 20 163.5)" text-anchor="middle" font-size="13" font-family="Arial">velocity deg/s</text>
<line x1="156.5" y1="109.6" x2="313.8" y2="109.6" stroke="#d62728" stroke-width="2" stroke-dasharray="7 5"/><text x="235.2" y="103.6" text-anchor="middle" font-size="12" fill="#d62728">+5</text><line x1="313.8" y1="163.5" x2="376.8" y2="163.5" stroke="#d62728" stroke-width="2" stroke-dasharray="7 5"/><text x="345.3" y="157.5" text-anchor="middle" font-size="12" fill="#d62728">0</text><line x1="376.8" y1="217.4" x2="534.1" y2="217.4" stroke="#d62728" stroke-width="2" stroke-dasharray="7 5"/><text x="455.4" y="232.4" text-anchor="middle" font-size="12" fill="#d62728">-5</text><line x1="534.1" y1="163.5" x2="597.0" y2="163.5" stroke="#d62728" stroke-width="2" stroke-dasharray="7 5"/><text x="565.5" y="157.5" text-anchor="middle" font-size="12" fill="#d62728">0</text><line x1="597.0" y1="55.8" x2="754.3" y2="55.8" stroke="#d62728" stroke-width="2" stroke-dasharray="7 5"/><text x="675.7" y="49.8" text-anchor="middle" font-size="12" fill="#d62728">+10</text><line x1="754.3" y1="163.5" x2="817.2" y2="163.5" stroke="#d62728" stroke-width="2" stroke-dasharray="7 5"/><text x="785.8" y="157.5" text-anchor="middle" font-size="12" fill="#d62728">0</text><line x1="817.2" y1="271.2" x2="974.6" y2="271.2" stroke="#d62728" stroke-width="2" stroke-dasharray="7 5"/><text x="895.9" y="286.2" text-anchor="middle" font-size="12" fill="#d62728">-10</text>
<polyline points="70.0,162.6 74.2,162.6 74.2,165.3 78.0,165.3 78.0,162.6 82.2,162.6 82.2,161.7 85.9,161.7 85.9,165.3 89.7,165.3 89.7,166.2 93.9,166.2 93.9,166.2 93.9,166.2 93.9,166.2 93.9,159.9 97.7,159.9 97.7,164.4 101.8,164.4 101.8,163.5 105.6,163.5 105.6,160.8 109.3,160.8 109.4,165.3 113.5,165.3 113.5,162.6 117.3,162.6 117.3,165.3 121.5,165.3 121.5,161.7 125.2,161.7 125.2,166.2 208.1,166.2 208.1,166.2 208.1,166.2 208.1,166.2 208.1,163.4 211.9,163.4 211.9,159.9 215.7,159.9 215.7,149.8 219.9,149.8 219.9,155.3 223.7,155.3 223.7,152.6 227.5,152.6 227.6,147.1 231.8,147.1 231.8,149.8 235.6,149.8 235.6,142.6 239.4,142.6 239.4,134.4 243.2,134.4 243.2,127.1 247.4,127.1 247.4,125.3 247.4,125.3 247.4,125.3 247.4,125.3 251.2,125.3 251.2,126.2 255.0,126.2 255.0,119.8 259.2,119.8 259.2,121.6 263.0,121.6 263.0,119.8 266.8,119.8 266.8,121.6 271.0,121.6 271.0,120.7 274.8,120.7 274.8,125.3 279.0,125.3 279.0,118.9 282.7,118.9 282.8,116.2 286.5,116.2 286.5,118.9 286.5,118.9 286.5,118.9 286.6,118.9 290.8,118.9 290.8,119.8 294.6,119.8 294.6,118.9 298.4,118.9 298.4,126.2 302.2,126.2 302.2,128.0 306.4,128.0 306.4,126.2 310.2,126.2 310.2,133.5 314.0,133.5 314.0,135.3 318.3,135.3 318.3,162.6 322.1,162.6 322.1,164.4 325.9,164.4 325.9,161.7 325.9,161.7 325.9,161.7 325.9,161.7 330.1,161.7 330.1,164.4 333.9,164.4 333.9,163.5 337.8,163.5 337.8,162.6 341.6,162.6 341.6,163.5 345.8,163.5 345.8,164.4 349.6,164.4 349.6,164.4 353.5,164.4 353.5,162.6 357.3,162.6 357.3,165.3 361.5,165.3 361.5,162.6 365.3,162.6 365.3,161.7 365.3,161.7 365.3,161.7 365.3,161.7 369.1,161.7 369.1,162.6 373.4,162.6 373.4,167.1 377.2,167.1 377.2,164.4 381.0,164.4 381.0,175.3 384.8,175.3 384.8,187.2 389.1,187.2 389.1,184.4 392.9,184.4 392.9,188.1 396.7,188.1 396.7,189.0 400.5,189.0 400.5,189.9 404.8,189.9 404.8,192.6 404.8,192.6 404.8,192.6 404.8,192.6 408.5,192.6 408.5,190.8 412.7,190.8 412.7,189.0 416.5,189.0 416.5,193.5 420.3,193.5 420.3,190.8 424.1,190.8 424.1,196.3 428.3,196.3 428.3,194.5 432.1,194.5 432.1,196.3 436.0,196.3 436.0,199.0 440.2,199.0 440.2,197.2 444.0,197.2 444.0,199.0 444.0,199.0 444.0,199.0 444.0,199.0 447.8,199.0 447.8,199.0 451.6,199.0 451.7,195.4 455.9,195.4 455.9,196.3 459.7,196.3 459.7,197.2 463.5,197.2 463.5,189.9 467.7,189.9 467.7,190.8 471.5,190.8 471.5,190.8 475.3,190.8 475.3,194.5 479.5,194.5 479.5,185.3 483.3,185.3 483.3,185.3 483.3,185.3 483.3,185.3 483.3,185.3 487.1,185.3 487.1,188.1 491.0,188.1 491.0,186.3 495.2,186.3 495.2,186.3 499.0,186.3 499.0,179.0 502.8,179.0 502.8,177.2 507.0,177.2 507.1,172.6 510.8,172.6 510.8,168.1 514.6,168.1 514.7,166.2 518.9,166.2 518.9,167.1 522.6,167.1 522.6,161.7 522.6,161.7 522.6,161.7 522.7,161.7 526.4,161.7 526.4,167.1 530.6,167.1 530.7,162.6 534.5,162.6 534.5,167.1 538.3,167.1 538.3,158.9 542.1,158.9 542.1,163.5 546.4,163.5 546.4,164.4 550.2,164.4 550.2,162.6 554.0,162.6 554.0,165.3 558.2,165.3 558.2,160.8 562.0,160.8 562.0,162.6 562.0,162.6 562.0,162.6 562.0,162.6 565.8,162.6 565.8,165.3 569.7,165.3 569.7,162.6 573.9,162.6 573.9,164.4 577.7,164.4 577.7,164.4 581.5,164.4 581.5,160.8 585.7,160.8 585.7,166.2 589.5,166.2 589.5,162.6 593.3,162.6 593.3,161.7 597.5,161.7 597.5,165.3 601.3,165.3 601.4,159.9 601.4,159.9 601.4,159.9 601.4,159.9 605.2,159.9 605.2,138.0 609.0,138.0 609.0,135.3 613.2,135.3 613.2,123.4 617.0,123.4 617.0,114.3 620.8,114.3 620.8,100.7 625.0,100.7 625.0,91.6 628.8,91.6 628.8,94.3 632.6,94.3 632.6,87.0 636.8,87.0 636.8,95.2 640.6,95.2 640.6,89.8 640.6,89.8 640.6,89.8 640.6,89.8 644.4,89.8 644.4,87.9 648.5,87.9 648.5,90.7 652.3,90.7 652.3,97.9 656.5,97.9 656.5,103.4 660.3,103.4 660.3,114.3 664.1,114.3 664.1,122.5 668.3,122.5 668.3,133.5 672.1,133.5 672.1,142.6 675.9,142.6 675.9,154.4 680.1,154.4 680.1,158.9 680.1,158.9 680.1,158.9 680.1,158.9 683.9,158.9 683.9,162.6 687.7,162.6 687.7,161.7 691.6,161.7 691.6,164.4 695.8,164.4 695.8,162.6 699.6,162.6 699.6,161.7 703.4,161.7 703.4,160.8 707.6,160.8 707.6,164.4 711.4,164.4 711.4,162.6 715.2,162.6 715.2,165.3 719.4,165.3 719.4,162.6 719.4,162.6 719.4,162.6 719.4,162.6 723.2,162.6 723.2,166.2 727.0,166.2 727.0,160.8 731.2,160.8 731.2,165.3 735.1,165.3 735.1,161.7 738.9,161.7 738.9,164.4 742.7,164.4 742.7,162.6 746.9,162.6 746.9,165.3 750.7,165.3 750.8,160.8 754.5,160.8 754.6,163.5 758.4,163.5 758.4,161.7 758.4,161.7 758.4,161.7 758.4,161.7 762.6,161.7 762.6,165.3 766.5,165.3 766.5,163.5 770.3,163.5 770.3,165.3 774.5,165.3 774.5,160.8 778.3,160.8 778.3,167.1 782.1,167.1 782.1,160.8 786.3,160.8 786.3,165.3 790.1,165.3 790.1,161.7 793.9,161.7 793.9,165.3 797.7,165.3 797.7,163.5 797.7,163.5 797.7,163.5 797.7,163.5 802.0,163.5 802.0,162.6 805.8,162.6 805.8,162.6 809.6,162.6 809.6,166.2 813.8,166.2 813.8,159.9 817.6,159.9 817.6,165.3 821.4,165.3 821.4,166.2 825.6,166.2 825.6,165.3 829.4,165.3 829.4,165.3 833.2,165.3 833.2,164.4 837.0,164.4 837.0,164.4 837.0,164.4 837.0,164.4 837.1,165.3 841.3,165.3 841.3,165.3 845.1,165.3 845.1,163.5 848.8,163.5 848.8,163.5 853.0,163.5 853.0,166.2 856.8,166.2 856.8,163.5 860.6,163.5 860.6,168.1 864.8,168.1 864.8,163.5 868.6,163.5 868.6,170.8 872.8,170.8 872.8,168.1 876.6,168.1 876.6,172.6 876.6,172.6 876.6,172.6 876.6,172.6 880.3,172.6 880.3,179.9 884.5,179.9 884.5,191.7 888.3,191.7 888.3,207.2 892.1,207.2 892.1,209.9 896.3,209.9 896.3,218.1 900.1,218.1 900.1,228.1 903.9,228.1 903.9,222.7 908.1,222.7 908.1,225.4 911.9,225.4 911.9,230.0 915.7,230.0 915.7,230.0 915.8,230.0 915.8,230.0 915.8,230.0 920.0,230.0 920.0,235.4 923.8,235.4 923.8,228.1 927.6,228.1 927.6,229.1 931.8,229.1 931.8,219.9 935.6,219.9 935.6,219.0 939.4,219.0 939.4,211.8 943.2,211.8 943.2,209.9 947.5,209.9 947.5,193.5 951.3,193.5 951.3,179.9 955.1,179.9 955.1,174.4 955.1,174.4 955.1,174.4 955.1,174.4 959.3,174.4 959.4,165.3 963.2,165.3 963.2,165.3 967.0,165.3 967.0,165.3 970.8,165.3 970.8,165.3 975.0,165.3 975.0,164.4 109.3,164.4 109.3,163.5 109.3,163.5 109.3,158.0 109.3,158.0 109.3,162.6 109.3,162.6 109.3,162.6 111.4,162.6 111.4,162.6 111.4,162.6 111.4,162.6 111.4,160.8 115.7,160.8 115.7,166.2 119.4,166.2 119.5,165.3 123.2,165.3 123.2,159.9 127.5,159.9 127.5,161.7 131.2,161.7 131.2,166.2 135.0,166.2 135.0,164.4 139.2,164.4 139.2,163.5 142.9,163.5 142.9,162.6 147.1,162.6 147.1,162.6" fill="none" stroke="#1f77b4" stroke-width="2"/>
<rect x="70" y="337" width="905" height="237" fill="none" stroke="#aaa"/>
<text x="20" y="455.5" transform="rotate(-90 20 455.5)" text-anchor="middle" font-size="13" font-family="Arial">angle deg</text>
<polyline points="70.0,567.7 74.2,568.1 74.2,568.1 78.0,567.9 78.0,567.9 82.2,567.5 82.2,567.5 85.9,567.9 85.9,567.9 89.7,568.5 89.7,568.5 93.9,568.5 93.9,568.5 93.9,568.5 93.9,567.7 93.9,567.7 97.7,567.9 97.7,567.9 101.8,567.9 101.8,567.9 105.6,567.2 105.6,567.2 109.3,567.7 109.4,567.7 113.5,567.5 113.5,567.5 117.3,567.9 117.3,567.9 121.5,567.5 121.5,567.5 125.2,568.1 125.2,568.1 208.1,568.1 208.1,568.1 208.1,568.1 208.1,567.7 208.1,567.7 211.9,566.8 211.9,566.8 215.7,563.6 215.7,563.6 219.9,561.7 219.9,561.7 223.7,559.2 223.7,559.2 227.5,555.5 227.6,555.5 231.8,552.3 231.8,552.3 235.6,547.4 235.6,547.4 239.4,540.7 239.4,540.7 243.2,532.3 243.2,532.3 247.4,523.4 247.4,523.4 247.4,523.4 247.4,523.4 247.4,523.4 251.2,514.8 251.2,514.8 255.0,504.7 255.0,504.7 259.2,495.0 259.2,495.0 263.0,484.9 263.0,484.9 266.8,475.2 266.8,475.2 271.0,465.3 271.0,465.3 274.8,456.4 274.8,456.4 279.0,446.1 279.0,446.1 282.7,435.2 282.8,435.2 286.5,424.8 286.5,424.8 286.5,424.8 286.5,424.8 286.6,424.8 290.8,414.7 290.8,414.7 294.6,404.4 294.6,404.4 298.4,395.8 298.4,395.8 302.2,387.6 302.2,387.6 306.4,378.9 306.4,378.9 310.2,371.9 310.2,371.9 314.0,365.4 314.0,365.4 318.3,365.2 318.3,365.2 322.1,365.4 322.1,365.4 325.9,365.0 325.9,365.0 325.9,365.0 325.9,365.0 325.9,365.0 330.1,365.2 330.1,365.2 333.9,365.2 333.9,365.2 337.8,365.0 337.8,365.0 341.6,365.0 341.6,365.0 345.8,365.2 345.8,365.2 349.6,365.4 349.6,365.4 353.5,365.2 353.5,365.2 357.3,365.7 357.3,365.7 361.5,365.4 361.5,365.4 365.3,365.0 365.3,365.0 365.3,365.0 365.3,365.0 365.3,365.0 369.1,364.8 369.1,364.8 373.4,365.7 373.4,365.7 377.2,365.9 377.2,365.9 381.0,368.6 381.0,368.6 384.8,374.1 384.8,374.1 389.1,378.9 389.1,378.9 392.9,384.6 392.9,384.6 396.7,390.5 396.7,390.5 400.5,396.6 400.5,396.6 404.8,403.4 404.8,403.4 404.8,403.4 404.8,403.4 404.8,403.4 408.5,409.7 408.5,409.7 412.7,415.6 412.7,415.6 416.5,422.5 416.5,422.5 420.3,428.8 420.3,428.8 424.1,436.4 424.1,436.4 428.3,443.6 428.3,443.6 432.1,451.2 432.1,451.2 436.0,459.4 436.0,459.4 440.2,467.2 440.2,467.2 444.0,475.4 444.0,475.4 444.0,475.4 444.0,475.4 444.0,475.4 447.8,483.6 447.8,483.6 451.6,491.0 451.7,491.0 455.9,498.6 455.9,498.6 459.7,506.3 459.7,506.3 463.5,512.5 463.5,512.5 467.7,518.8 467.7,518.8 471.5,525.1 471.5,525.1 475.3,532.3 475.3,532.3 479.5,537.3 479.5,537.3 483.3,542.4 483.3,542.4 483.3,542.4 483.3,542.4 483.3,542.4 487.1,548.1 487.1,548.1 491.0,553.3 491.0,553.3 495.2,558.6 495.2,558.6 499.0,562.2 499.0,562.2 502.8,565.3 502.8,565.3 507.0,567.5 507.1,567.5 510.8,568.5 510.8,568.5 514.6,569.1 514.7,569.1 518.9,570.0 518.9,570.0 522.6,569.6 522.6,569.6 522.6,569.6 522.6,569.6 522.7,569.6 526.4,570.4 526.4,570.4 530.6,570.2 530.7,570.2 534.5,571.0 534.5,571.0 538.3,570.0 538.3,570.0 542.1,570.0 542.1,570.0 546.4,570.2 546.4,570.2 550.2,570.0 550.2,570.0 554.0,570.4 554.0,570.4 558.2,569.8 558.2,569.8 562.0,569.6 562.0,569.6 562.0,569.6 562.0,569.6 562.0,569.6 565.8,570.0 565.8,570.0 569.7,569.8 569.7,569.8 573.9,570.0 573.9,570.0 577.7,570.2 577.7,570.2 581.5,569.6 581.5,569.6 585.7,570.2 585.7,570.2 589.5,570.0 589.5,570.0 593.3,569.6 593.3,569.6 597.5,570.0 597.5,570.0 601.3,569.1 601.4,569.1 601.4,569.1 601.4,569.1 601.4,569.1 605.2,563.2 605.2,563.2 609.0,556.7 609.0,556.7 613.2,547.4 613.2,547.4 617.0,536.1 617.0,536.1 620.8,521.5 620.8,521.5 625.0,504.9 625.0,504.9 628.8,488.9 628.8,488.9 632.6,471.2 632.6,471.2 636.8,455.4 636.8,455.4 640.6,438.3 640.6,438.3 640.6,438.3 640.6,438.3 640.6,438.3 644.4,420.9 644.4,420.9 648.5,404.0 648.5,404.0 652.3,388.8 652.3,388.8 656.5,374.9 656.5,374.9 660.3,363.5 660.3,363.5 664.1,354.0 664.1,354.0 668.3,347.1 668.3,347.1 672.1,342.2 672.1,342.2 675.9,340.1 675.9,340.1 680.1,339.1 680.1,339.1 680.1,339.1 680.1,339.1 680.1,339.1 683.9,338.9 683.9,338.9 687.7,338.4 687.7,338.4 691.6,338.7 691.6,338.7 695.8,338.4 695.8,338.4 699.6,338.0 699.6,338.0 703.4,337.4 703.4,337.4 707.6,337.6 707.6,337.6 711.4,337.4 711.4,337.4 715.2,337.8 715.2,337.8 719.4,337.6 719.4,337.6 719.4,337.6 719.4,337.6 719.4,337.6 723.2,338.2 723.2,338.2 727.0,337.6 727.0,337.6 731.2,338.0 731.2,338.0 735.1,337.6 735.1,337.6 738.9,337.8 738.9,337.8 742.7,337.6 742.7,337.6 746.9,338.0 746.9,338.0 750.7,337.4 750.8,337.4 754.5,337.4 754.6,337.4 758.4,337.0 758.4,337.0 758.4,337.0 758.4,337.0 758.4,337.0 762.6,337.4 762.6,337.4 766.5,337.4 766.5,337.4 770.3,337.8 770.3,337.8 774.5,337.2 774.5,337.2 778.3,338.0 778.3,338.0 782.1,337.4 782.1,337.4 786.3,337.8 786.3,337.8 790.1,337.4 790.1,337.4 793.9,337.8 793.9,337.8 797.7,337.8 797.7,337.8 797.7,337.8 797.7,337.8 797.7,337.8 802.0,337.6 802.0,337.6 805.8,337.4 805.8,337.4 809.6,338.0 809.6,338.0 813.8,337.2 813.8,337.2 817.6,337.6 817.6,337.6 821.4,338.2 821.4,338.2 825.6,338.7 825.6,338.7 829.4,339.1 829.4,339.1 833.2,339.3 833.2,339.3 837.0,339.3 837.0,339.3 837.0,339.3 837.0,339.7 837.1,339.7 841.3,340.1 841.3,340.1 845.1,340.1 845.1,340.1 848.8,340.1 848.8,340.1 853.0,340.8 853.0,340.8 856.8,340.8 856.8,340.8 860.6,341.8 860.6,341.8 864.8,341.8 864.8,341.8 868.6,343.5 868.6,343.5 872.8,344.6 872.8,344.6 876.6,346.7 876.6,346.7 876.6,346.7 876.6,346.7 876.6,346.7 880.3,350.5 880.3,350.5 884.5,357.0 884.5,357.0 888.3,367.1 888.3,367.1 892.1,377.9 892.1,377.9 896.3,390.5 896.3,390.5 900.1,405.4 900.1,405.4 903.9,419.2 903.9,419.2 908.1,433.5 908.1,433.5 911.9,448.9 911.9,448.9 915.7,464.2 915.7,464.2 915.8,464.2 915.8,464.2 915.8,464.2 920.0,480.9 920.0,480.9 923.8,495.8 923.8,495.8 927.6,511.0 927.6,511.0 931.8,524.0 931.8,524.0 935.6,536.9 935.6,536.9 939.4,548.1 939.4,548.1 943.2,558.8 943.2,558.8 947.5,565.8 947.5,565.8 951.3,569.6 951.3,569.6 955.1,572.1 955.1,572.1 955.1,572.1 955.1,572.1 955.1,572.1 959.3,572.5 959.4,572.5 963.2,572.9 963.2,572.9 967.0,573.4 967.0,573.4 970.8,573.8 970.8,573.8 975.0,574.0 975.0,574.0 109.3,574.0 109.3,574.0 109.3,572.7 109.3,572.7 109.3,572.5 109.3,572.5 109.3,572.3 109.3,572.3 111.4,572.3 111.4,572.3 111.4,572.3 111.4,571.7 111.4,571.7 115.7,572.3 115.7,572.3 119.4,572.7 119.5,572.7 123.2,571.9 123.2,571.9 127.5,571.5 127.5,571.5 131.2,572.1 131.2,572.1 135.0,572.3 135.0,572.3 139.2,572.3 139.2,572.3 142.9,572.1 142.9,572.1 147.1,571.9 147.1,571.9" fill="none" stroke="#2ca02c" stroke-width="2"/>
<text x="500.0" y="616" text-anchor="middle" font-size="13" font-family="Arial">time s</text>
</svg>