<svg xmlns="http://www.w3.org/2000/svg" width="1100" height="760" viewBox="0 0 1100 760">
<style>
text { font-family: sans-serif; }
.title { font-size: 22px; font-weight: 700; }
.label { font-size: 13px; fill: #333; }
.small { font-size: 12px; fill: #555; }
</style>
<rect x="0" y="0" width="1100" height="760" fill="white"/>
<text x="550.0" y="30" text-anchor="middle" class="title">S01 Slow Sweep Velocity Log</text>
<text x="550.0" y="50" text-anchor="middle" class="small">target -90..+90 deg, 18 s half sweep, 20 Hz command stream, max |velocity| 18.9 deg/s, faults none</text>
<text x="80" y="42" class="label">Angle (deg)</text>
<rect x="80" y="60" width="990" height="280" fill="none" stroke="#999"/>
<line x1="80" y1="340.0" x2="1070" y2="340.0" stroke="#ddd"/>
<text x="70" y="344.0" text-anchor="end" font-size="12" fill="#555">-100</text>
<line x1="80" y1="270.0" x2="1070" y2="270.0" stroke="#ddd"/>
<text x="70" y="274.0" text-anchor="end" font-size="12" fill="#555">-50</text>
<line x1="80" y1="200.0" x2="1070" y2="200.0" stroke="#ddd"/>
<text x="70" y="204.0" text-anchor="end" font-size="12" fill="#555">0</text>
<line x1="80" y1="130.0" x2="1070" y2="130.0" stroke="#ddd"/>
<text x="70" y="134.0" text-anchor="end" font-size="12" fill="#555">50</text>
<line x1="80" y1="60.0" x2="1070" y2="60.0" stroke="#ddd"/>
<text x="70" y="64.0" text-anchor="end" font-size="12" fill="#555">100</text>
<path d="M80.0,74.0 L81.4,74.7 L82.8,75.4 L84.1,76.1 L85.5,76.8 L86.9,77.5 L88.3,78.2 L89.7,78.9 L91.0,79.6 L92.4,80.3 L93.8,81.0 L95.2,81.7 L96.6,82.4 L97.9,83.1 L99.3,83.8 L100.7,84.5 L102.1,85.2 L103.5,85.9 L104.8,86.6 L106.2,87.3 L107.6,88.0 L109.0,88.8 L110.3,89.5 L111.7,90.2 L113.1,90.9 L114.5,91.6 L115.9,92.3 L117.2,93.0 L118.6,93.7 L120.0,94.4 L121.4,95.1 L122.8,95.8 L124.1,96.5 L125.5,97.2 L126.9,97.9 L128.3,98.6 L129.7,99.3 L131.0,100.0 L132.4,100.7 L133.8,101.4 L135.2,102.1 L136.6,102.8 L137.9,103.5 L139.3,104.2 L140.7,104.9 L142.1,105.6 L143.4,106.3 L144.8,107.0 L146.2,107.7 L147.6,108.4 L149.0,109.1 L150.3,109.8 L151.7,110.5 L153.1,111.2 L154.5,111.9 L155.9,112.6 L157.2,113.3 L158.6,114.0 L160.0,114.7 L161.4,115.4 L162.8,116.1 L164.1,116.8 L165.5,117.5 L166.9,118.3 L168.3,119.0 L169.7,119.7 L171.0,120.4 L172.4,121.1 L173.8,121.8 L175.2,122.5 L176.6,123.2 L177.9,123.9 L179.3,124.6 L180.7,125.3 L182.1,126.0 L183.5,126.7 L184.8,127.4 L186.2,128.1 L187.6,128.8 L189.0,129.5 L190.4,130.2 L191.7,130.9 L193.1,131.6 L194.5,132.3 L195.9,133.0 L197.3,133.7 L198.6,134.4 L200.0,135.1 L201.4,135.8 L202.8,136.5 L204.2,137.2 L205.5,137.9 L206.9,138.6 L208.3,139.3 L209.7,140.0 L211.1,140.7 L212.4,141.4 L213.8,142.1 L215.2,142.8 L216.6,143.5 L217.9,144.2 L219.3,144.9 L220.7,145.6 L222.1,146.3 L223.5,147.1 L224.8,147.8 L226.2,148.5 L227.6,149.2 L229.0,149.9 L230.4,150.6 L231.7,151.3 L233.1,152.0 L234.5,152.7 L235.9,153.4 L237.3,154.1 L238.6,154.8 L240.0,155.5 L241.4,156.2 L242.8,156.9 L244.2,157.6 L245.5,158.3 L246.9,159.0 L248.3,159.7 L249.7,160.4 L251.1,161.1 L252.4,161.8 L253.8,162.5 L255.2,163.2 L256.6,163.9 L258.0,164.6 L259.3,165.3 L260.7,166.0 L262.1,166.7 L263.5,167.4 L264.9,168.1 L266.2,168.8 L267.6,169.5 L269.0,170.2 L270.4,170.9 L271.7,171.6 L273.1,172.3 L274.5,173.0 L275.9,173.7 L277.3,174.4 L278.6,175.2 L280.0,175.9 L281.4,176.6 L282.8,177.3 L284.2,178.0 L285.5,178.7 L286.9,179.4 L288.3,180.1 L289.7,180.8 L291.0,181.5 L292.4,182.2 L293.8,182.9 L295.2,183.6 L296.6,184.3 L297.9,185.0 L299.3,185.7 L300.7,186.4 L302.1,187.1 L303.4,187.8 L304.8,188.5 L306.2,189.2 L307.6,189.9 L309.0,190.6 L310.3,191.3 L311.7,192.0 L313.1,192.7 L314.5,193.4 L315.8,194.1 L317.2,194.8 L318.6,195.5 L320.0,196.2 L321.4,196.9 L322.7,197.6 L324.1,198.3 L325.5,199.0 L326.9,199.7 L328.2,200.4 L329.6,201.1 L331.0,201.8 L332.4,202.5 L333.8,203.2 L335.1,203.9 L336.5,204.6 L337.9,205.3 L339.3,206.0 L340.6,206.7 L342.0,207.4 L343.4,208.1 L344.8,208.8 L346.2,209.5 L347.5,210.2 L348.9,210.9 L350.3,211.6 L351.7,212.3 L353.0,213.0 L354.4,213.7 L355.8,214.4 L357.2,215.2 L358.6,215.9 L360.0,216.6 L361.3,217.3 L362.7,218.0 L364.1,218.7 L365.5,219.4 L366.9,220.1 L368.2,220.8 L369.6,221.5 L371.0,222.2 L372.4,222.9 L373.8,223.6 L375.1,224.3 L376.5,225.0 L377.9,225.7 L379.3,226.4 L380.7,227.1 L382.0,227.8 L383.4,228.5 L384.8,229.2 L386.2,229.9 L387.5,230.6 L388.9,231.3 L390.3,232.0 L391.7,232.7 L393.1,233.4 L394.4,234.1 L395.8,234.8 L397.2,235.5 L398.6,236.2 L400.0,236.9 L401.3,237.6 L402.7,238.3 L404.1,239.0 L405.5,239.7 L406.9,240.4 L408.2,241.1 L409.6,241.8 L411.0,242.6 L412.4,243.3 L413.8,244.0 L415.1,244.7 L416.5,245.4 L417.9,246.1 L419.3,246.8 L420.7,247.5 L422.0,248.2 L423.4,248.9 L424.8,249.6 L426.2,250.3 L427.6,251.0 L428.9,251.7 L430.3,252.4 L431.7,253.1 L433.1,253.8 L434.5,254.5 L435.8,255.2 L437.2,255.9 L438.6,256.6 L440.0,257.3 L441.4,258.0 L442.7,258.7 L444.1,259.4 L445.5,260.1 L446.9,260.8 L448.3,261.5 L449.6,262.2 L451.0,262.9 L452.4,263.6 L453.8,264.3 L455.2,265.0 L456.5,265.7 L457.9,266.4 L459.3,267.1 L460.7,267.8 L462.1,268.5 L463.4,269.3 L464.8,270.0 L466.2,270.7 L467.6,271.4 L469.0,272.1 L470.3,272.8 L471.7,273.5 L473.1,274.2 L474.5,274.9 L475.9,275.6 L477.2,276.3 L478.6,277.0 L480.0,277.7 L481.4,278.4 L482.8,279.1 L484.1,279.8 L485.5,280.5 L486.9,281.2 L488.3,281.9 L489.7,282.6 L491.0,283.3 L492.4,284.0 L493.8,284.7 L495.2,285.4 L496.6,286.1 L497.9,286.8 L499.3,287.5 L500.7,288.2 L502.1,288.9 L503.4,289.6 L504.8,290.3 L506.2,291.0 L507.6,291.7 L509.0,292.4 L510.3,293.1 L511.7,293.8 L513.1,294.5 L514.5,295.2 L515.8,295.9 L517.2,296.6 L518.6,297.3 L520.0,298.0 L521.4,298.7 L522.7,299.4 L524.1,300.1 L525.5,300.8 L526.9,301.6 L528.2,302.3 L529.6,303.0 L531.0,303.7 L532.4,304.4 L533.8,305.1 L535.1,305.8 L536.5,306.5 L537.9,307.2 L539.3,307.9 L540.6,308.6 L542.0,309.3 L543.4,310.0 L544.8,310.7 L546.2,311.4 L547.5,312.1 L548.9,312.8 L550.3,313.5 L551.7,314.2 L553.1,314.9 L554.4,315.6 L555.8,316.3 L557.2,317.0 L558.6,317.7 L559.9,318.4 L561.3,319.1 L562.7,319.8 L564.1,320.5 L565.5,321.2 L566.8,321.9 L568.2,322.6 L569.6,323.3 L571.0,324.0 L572.4,324.7 L573.7,325.4 L575.1,325.9 L576.5,325.2 L577.9,324.5 L579.2,323.8 L580.6,323.1 L582.0,322.4 L583.4,321.7 L584.8,321.0 L586.1,320.3 L587.5,319.6 L588.9,318.9 L590.3,318.2 L591.7,317.5 L593.0,316.8 L594.4,316.0 L595.8,315.3 L597.2,314.6 L598.6,313.9 L599.9,313.2 L601.3,312.5 L602.7,311.8 L604.1,311.1 L605.5,310.4 L606.8,309.7 L608.2,309.0 L609.6,308.3 L611.0,307.6 L612.4,306.9 L613.8,306.2 L615.1,305.5 L616.5,304.8 L617.9,304.1 L619.3,303.4 L620.7,302.7 L622.0,302.0 L623.4,301.3 L624.8,300.6 L626.2,299.9 L627.6,299.2 L628.9,298.5 L630.3,297.8 L631.7,297.1 L633.1,296.4 L634.4,295.7 L635.8,295.0 L637.2,294.3 L638.6,293.6 L639.9,292.9 L641.3,292.2 L642.7,291.5 L644.1,290.8 L645.5,290.1 L646.8,289.4 L648.2,288.7 L649.6,287.9 L651.0,287.2 L652.4,286.5 L653.7,285.8 L655.1,285.1 L656.5,284.4 L657.9,283.7 L659.3,283.0 L660.6,282.3 L662.0,281.6 L663.4,280.9 L664.8,280.2 L666.1,279.5 L667.5,278.8 L668.9,278.1 L670.3,277.4 L671.7,276.7 L673.0,276.0 L674.4,275.3 L675.8,274.6 L677.2,273.9 L678.5,273.2 L679.9,272.5 L681.3,271.8 L682.7,271.1 L684.1,270.4 L685.4,269.7 L686.8,269.0 L688.2,268.3 L689.6,267.6 L690.9,266.9 L692.3,266.2 L693.7,265.5 L695.1,264.8 L696.4,264.1 L697.8,263.4 L699.2,262.7 L700.6,262.0 L702.0,261.3 L703.3,260.6 L704.7,259.9 L706.1,259.2 L707.5,258.5 L708.9,257.8 L710.2,257.1 L711.6,256.4 L713.0,255.7 L714.4,255.0 L715.7,254.3 L717.1,253.6 L718.5,252.9 L719.9,252.2 L721.3,251.5 L722.6,250.8 L724.0,250.1 L725.4,249.4 L726.8,248.7 L728.1,248.0 L729.5,247.3 L730.9,246.6 L732.3,245.8 L733.7,245.1 L735.0,244.4 L736.4,243.7 L737.8,243.0 L739.2,242.3 L740.5,241.6 L741.9,240.9 L743.3,240.2 L744.7,239.5 L746.1,238.8 L747.4,238.1 L748.8,237.4 L750.2,236.7 L751.6,236.0 L752.9,235.3 L754.3,234.6 L755.7,233.9 L757.1,233.2 L758.5,232.5 L759.8,231.8 L761.2,231.1 L762.6,230.4 L764.0,229.7 L765.3,229.0 L766.7,228.3 L768.1,227.6 L769.5,226.9 L770.9,226.2 L772.2,225.5 L773.6,224.8 L775.0,224.1 L776.4,223.4 L777.7,222.7 L779.1,222.0 L780.5,221.3 L781.9,220.6 L783.3,219.9 L784.6,219.2 L786.0,218.5 L787.4,217.8 L788.8,217.1 L790.1,216.4 L791.5,215.7 L792.9,215.0 L794.3,214.3 L795.7,213.6 L797.0,212.9 L798.4,212.2 L799.8,211.5 L801.2,210.8 L802.5,210.1 L803.9,209.4 L805.3,208.7 L806.7,208.0 L808.1,207.3 L809.4,206.6 L810.8,205.9 L812.2,205.2 L813.6,204.5 L815.0,203.7 L816.3,203.0 L817.7,202.3 L819.1,201.6 L820.5,200.9 L821.8,200.2 L823.2,199.5 L824.6,198.8 L826.0,198.1 L827.4,197.4 L828.7,196.7 L830.1,196.0 L831.5,195.3 L832.9,194.6 L834.3,193.9 L835.6,193.2 L837.0,192.5 L838.4,191.8 L839.8,191.1 L841.1,190.4 L842.5,189.7 L843.9,189.0 L845.3,188.3 L846.7,187.6 L848.0,186.9 L849.4,186.2 L850.8,185.5 L852.2,184.8 L853.5,184.1 L854.9,183.4 L856.3,182.7 L857.7,182.0 L859.1,181.3 L860.4,180.6 L861.8,179.9 L863.2,179.2 L864.6,178.5 L865.9,177.8 L867.3,177.1 L868.7,176.4 L870.1,175.7 L871.5,175.0 L872.8,174.3 L874.2,173.6 L875.6,172.9 L877.0,172.2 L878.3,171.5 L879.7,170.8 L881.1,170.1 L882.5,169.4 L883.9,168.7 L885.2,168.0 L886.6,167.3 L888.0,166.6 L889.4,165.9 L890.8,165.1 L892.1,164.4 L893.5,163.7 L894.9,163.0 L896.3,162.3 L897.6,161.6 L899.0,160.9 L900.4,160.2 L901.8,159.5 L903.2,158.8 L904.5,158.1 L905.9,157.4 L907.3,156.7 L908.7,156.0 L910.1,155.3 L911.4,154.6 L912.8,153.9 L914.2,153.2 L915.6,152.5 L917.0,151.8 L918.3,151.1 L919.7,150.4 L921.1,149.7 L922.5,149.0 L923.9,148.3 L925.2,147.6 L926.6,146.9 L928.0,146.2 L929.4,145.5 L930.8,144.8 L932.1,144.1 L933.5,143.4 L934.9,142.7 L936.3,142.0 L937.7,141.3 L939.0,140.6 L940.4,139.9 L941.8,139.2 L943.2,138.5 L944.6,137.8 L945.9,137.0 L947.3,136.3 L948.7,135.6 L950.1,134.9 L951.5,134.2 L952.8,133.5 L954.2,132.8 L955.6,132.1 L957.0,131.4 L958.4,130.7 L959.7,130.0 L961.1,129.3 L962.5,128.6 L963.9,127.9 L965.3,127.2 L966.6,126.5 L968.0,125.8 L969.4,125.1 L970.8,124.4 L972.1,123.7 L973.5,123.0 L974.9,122.3 L976.3,121.6 L977.7,120.9 L979.0,120.2 L980.4,119.5 L981.8,118.8 L983.2,118.1 L984.5,117.4 L985.9,116.7 L987.3,116.0 L988.7,115.3 L990.0,114.6 L991.4,113.9 L992.8,113.2 L994.2,112.5 L995.6,111.8 L996.9,111.1 L998.3,110.4 L999.7,109.7 L1001.1,109.0 L1002.4,108.3 L1003.8,107.6 L1005.2,106.9 L1006.6,106.2 L1008.0,105.5 L1009.3,104.8 L1010.7,104.1 L1012.1,103.4 L1013.5,102.7 L1014.9,102.0 L1016.2,101.3 L1017.6,100.5 L1019.0,99.8 L1020.4,99.1 L1021.8,98.4 L1023.1,97.7 L1024.5,97.0 L1025.9,96.3 L1027.3,95.6 L1028.7,94.9 L1030.0,94.2 L1031.4,93.5 L1032.8,92.8 L1034.2,92.1 L1035.5,91.4 L1036.9,90.7 L1038.3,90.0 L1039.7,89.3 L1041.1,88.6 L1042.4,87.9 L1043.8,87.2 L1045.2,86.5 L1046.6,85.8 L1048.0,85.1 L1049.3,84.4 L1050.7,83.7 L1052.1,83.0 L1053.5,82.3 L1054.8,81.6 L1056.2,80.9 L1057.6,80.2 L1059.0,79.5 L1060.4,78.8 L1061.7,78.1 L1063.1,77.4 L1064.5,76.7 L1065.9,76.0 L1067.2,75.3 L1068.6,74.6 L1070.0,74.0" fill="none" stroke="#d62728" stroke-width="2"/>
<path d="M80.0,74.1 L81.4,74.1 L82.8,74.1 L84.1,74.2 L85.5,74.4 L86.9,74.6 L88.3,74.9 L89.7,75.3 L91.0,75.7 L92.4,76.1 L93.8,76.5 L95.2,77.0 L96.6,77.5 L97.9,78.1 L99.3,78.8 L100.7,79.4 L102.1,80.0 L103.5,80.6 L104.8,81.1 L106.2,81.6 L107.6,82.3 L109.0,83.3 L110.3,84.2 L111.7,85.1 L113.1,85.9 L114.5,86.7 L115.9,87.4 L117.2,88.1 L118.6,88.8 L120.0,89.5 L121.4,90.1 L122.8,90.6 L124.1,91.1 L125.5,91.6 L126.9,92.2 L128.3,93.1 L129.7,94.0 L131.0,94.9 L132.4,95.7 L133.8,96.5 L135.2,97.2 L136.6,97.9 L137.9,98.6 L139.3,99.3 L140.7,99.9 L142.1,100.5 L143.4,100.9 L144.8,101.4 L146.2,102.0 L147.6,102.8 L149.0,103.7 L150.3,104.6 L151.7,105.5 L153.1,106.2 L154.5,106.9 L155.9,107.6 L157.2,108.3 L158.6,109.0 L160.0,109.7 L161.4,110.3 L162.8,110.9 L164.1,111.3 L165.5,111.8 L166.9,112.5 L168.3,113.4 L169.7,114.4 L171.0,115.2 L172.4,116.0 L173.8,116.7 L175.2,117.4 L176.6,118.1 L177.9,118.8 L179.3,119.5 L180.7,120.2 L182.1,120.7 L183.5,121.2 L184.8,121.7 L186.2,122.2 L187.6,123.1 L189.0,124.0 L190.4,124.9 L191.7,125.8 L193.1,126.5 L194.5,127.3 L195.9,128.0 L197.3,128.7 L198.6,129.4 L200.0,130.0 L201.4,130.6 L202.8,131.1 L204.2,131.6 L205.5,132.1 L206.9,132.8 L208.3,133.8 L209.7,134.7 L211.1,135.5 L212.4,136.3 L213.8,137.0 L215.2,137.7 L216.6,138.4 L217.9,139.1 L219.3,139.8 L220.7,140.4 L222.1,141.0 L223.5,141.5 L224.8,142.0 L226.2,142.6 L227.6,143.5 L229.0,144.4 L230.4,145.3 L231.7,146.1 L233.1,146.8 L234.5,147.5 L235.9,148.2 L237.3,148.9 L238.6,149.6 L240.0,150.3 L241.4,150.8 L242.8,151.3 L244.2,151.8 L245.5,152.4 L246.9,153.2 L248.3,154.1 L249.7,155.0 L251.1,155.9 L252.4,156.6 L253.8,157.3 L255.2,158.0 L256.6,158.7 L258.0,159.4 L259.3,160.1 L260.7,160.7 L262.1,161.2 L263.5,161.7 L264.9,162.2 L266.2,162.9 L267.6,163.8 L269.0,164.8 L270.4,165.6 L271.7,166.4 L273.1,167.1 L274.5,167.8 L275.9,168.5 L277.3,169.2 L278.6,169.9 L280.0,170.6 L281.4,171.1 L282.8,171.6 L284.2,172.1 L285.5,172.7 L286.9,173.5 L288.3,174.5 L289.7,175.4 L291.0,176.2 L292.4,176.9 L293.8,177.6 L295.2,178.3 L296.6,179.0 L297.9,179.8 L299.3,180.4 L300.7,181.0 L302.1,181.5 L303.4,182.0 L304.8,182.5 L306.2,183.2 L307.6,184.2 L309.0,185.1 L310.3,185.9 L311.7,186.7 L313.1,187.4 L314.5,188.1 L315.8,188.8 L317.2,189.5 L318.6,190.2 L320.0,190.8 L321.4,191.4 L322.7,191.9 L324.1,192.3 L325.5,192.9 L326.9,193.8 L328.2,194.3 L329.6,195.0 L331.0,195.9 L332.4,196.7 L333.8,197.4 L335.1,198.1 L336.5,198.9 L337.9,199.7 L339.3,200.4 L340.6,201.1 L342.0,201.6 L343.4,202.1 L344.8,202.6 L346.2,203.4 L347.5,204.4 L348.9,205.3 L350.3,206.2 L351.7,206.9 L353.0,207.7 L354.4,208.4 L355.8,209.1 L357.2,209.8 L358.6,210.5 L360.0,211.1 L361.3,211.6 L362.7,212.1 L364.1,212.6 L365.5,213.2 L366.9,214.2 L368.2,215.2 L369.6,216.0 L371.0,216.8 L372.4,217.6 L373.8,218.2 L375.1,218.9 L376.5,219.6 L377.9,220.3 L379.3,221.0 L380.7,221.5 L382.0,222.0 L383.4,222.5 L384.8,223.1 L386.2,223.9 L387.5,224.9 L388.9,225.8 L390.3,226.6 L391.7,227.3 L393.1,228.0 L394.4,228.7 L395.8,229.4 L397.2,230.1 L398.6,230.8 L400.0,231.4 L401.3,231.9 L402.7,232.4 L404.1,232.9 L405.5,233.6 L406.9,234.6 L408.2,235.5 L409.6,236.3 L411.0,237.1 L412.4,237.8 L413.8,238.5 L415.1,239.2 L416.5,239.9 L417.9,240.6 L419.3,241.3 L420.7,241.8 L422.0,242.3 L423.4,242.7 L424.8,243.4 L426.2,244.3 L427.6,245.2 L428.9,246.1 L430.3,246.9 L431.7,247.6 L433.1,248.3 L434.5,249.0 L435.8,249.7 L437.2,250.4 L438.6,251.1 L440.0,251.7 L441.4,252.2 L442.7,252.6 L444.1,253.2 L445.5,254.0 L446.9,254.9 L448.3,255.8 L449.6,256.6 L451.0,257.4 L452.4,258.1 L453.8,258.8 L455.2,259.5 L456.5,260.2 L457.9,261.5 L459.3,261.5 L460.7,262.1 L462.1,262.5 L463.4,263.7 L464.8,264.6 L466.2,265.6 L467.6,266.4 L469.0,267.2 L470.3,267.9 L471.7,268.6 L473.1,269.3 L474.5,270.0 L475.9,270.7 L477.2,271.4 L478.6,271.9 L480.0,272.4 L481.4,272.9 L482.8,273.4 L484.1,274.3 L485.5,275.2 L486.9,276.1 L488.3,277.0 L489.7,277.7 L491.0,278.5 L492.4,279.1 L493.8,279.8 L495.2,280.5 L496.6,281.2 L497.9,281.8 L499.3,282.3 L500.7,282.7 L502.1,283.3 L503.4,284.0 L504.8,285.0 L506.2,285.9 L507.6,286.7 L509.0,287.5 L510.3,288.2 L511.7,288.9 L513.1,289.6 L514.5,290.3 L515.8,291.0 L517.2,291.7 L518.6,292.2 L520.0,292.7 L521.4,293.2 L522.7,293.8 L524.1,294.7 L525.5,295.6 L526.9,296.5 L528.2,297.3 L529.6,298.0 L531.0,298.7 L532.4,299.4 L533.8,300.1 L535.1,300.8 L536.5,301.5 L537.9,302.0 L539.3,302.5 L540.6,303.0 L542.0,303.6 L543.4,304.4 L544.8,305.3 L546.2,306.2 L547.5,307.1 L548.9,307.8 L550.3,308.5 L551.7,309.2 L553.1,309.9 L554.4,310.6 L555.8,311.3 L557.2,311.9 L558.6,312.4 L559.9,312.9 L561.3,313.4 L562.7,314.1 L564.1,315.0 L565.5,315.9 L566.8,316.8 L568.2,317.6 L569.6,318.4 L571.0,319.0 L572.4,319.7 L573.7,320.4 L575.1,321.1 L576.5,321.8 L577.9,322.2 L579.2,322.5 L580.6,322.7 L582.0,322.8 L583.4,322.9 L584.8,322.9 L586.1,322.9 L587.5,322.9 L588.9,322.9 L590.3,322.8 L591.7,322.6 L593.0,322.1 L594.4,321.4 L595.8,320.6 L597.2,319.8 L598.6,319.1 L599.9,318.5 L601.3,317.8 L602.7,317.2 L604.1,316.5 L605.5,315.9 L606.8,315.2 L608.2,314.7 L609.6,314.1 L611.0,313.7 L612.4,313.3 L613.8,312.8 L615.1,312.1 L616.5,310.8 L617.9,309.5 L619.3,308.5 L620.7,307.7 L622.0,306.9 L623.4,306.2 L624.8,305.5 L626.2,304.9 L627.6,304.4 L628.9,303.9 L630.3,303.5 L631.7,303.1 L633.1,302.7 L634.4,301.8 L635.8,300.6 L637.2,299.4 L638.6,298.5 L639.9,297.7 L641.3,296.9 L642.7,296.3 L644.1,295.6 L645.5,295.0 L646.8,294.5 L648.2,294.0 L649.6,293.6 L651.0,293.2 L652.4,292.8 L653.7,292.2 L655.1,291.1 L656.5,289.8 L657.9,288.8 L659.3,287.9 L660.6,287.2 L662.0,286.5 L663.4,285.8 L664.8,285.2 L666.1,284.6 L667.5,284.1 L668.9,283.7 L670.3,283.3 L671.7,282.9 L673.0,282.3 L674.4,281.4 L675.8,280.2 L677.2,279.1 L678.5,278.2 L679.9,277.4 L681.3,276.7 L682.7,276.0 L684.1,275.4 L685.4,274.7 L686.8,274.2 L688.2,273.8 L689.6,273.4 L690.9,273.0 L692.3,272.5 L693.7,271.9 L695.1,270.7 L696.4,269.4 L697.8,268.4 L699.2,267.6 L700.6,266.9 L702.0,266.2 L703.3,265.5 L704.7,264.9 L706.1,264.3 L707.5,263.9 L708.9,263.5 L710.2,263.1 L711.6,262.7 L713.0,262.2 L714.4,261.2 L715.7,259.9 L717.1,258.8 L718.5,257.8 L719.9,257.0 L721.3,256.3 L722.6,255.6 L724.0,255.0 L725.4,254.4 L726.8,253.9 L728.1,253.5 L729.5,253.1 L730.9,252.8 L732.3,252.3 L733.7,251.5 L735.0,250.2 L736.4,249.1 L737.8,248.1 L739.2,247.3 L740.5,246.5 L741.9,245.8 L743.3,245.2 L744.7,244.6 L746.1,244.0 L747.4,243.6 L748.8,243.2 L750.2,242.8 L751.6,242.4 L752.9,241.7 L754.3,240.6 L755.7,239.4 L757.1,238.4 L758.5,237.5 L759.8,236.8 L761.2,236.1 L762.6,235.4 L764.0,234.8 L765.3,234.2 L766.7,233.7 L768.1,233.3 L769.5,232.9 L770.9,232.5 L772.2,232.0 L773.6,231.1 L775.0,229.8 L776.4,228.7 L777.7,227.7 L779.1,227.0 L780.5,226.2 L781.9,225.5 L783.3,224.9 L784.6,224.3 L786.0,223.8 L787.4,223.4 L788.8,223.0 L790.1,222.6 L791.5,222.2 L792.9,221.4 L794.3,220.2 L795.7,219.0 L797.0,218.0 L798.4,217.2 L799.8,216.4 L801.2,215.7 L802.5,215.1 L803.9,214.4 L805.3,213.9 L806.7,213.4 L808.1,213.0 L809.4,212.7 L810.8,212.3 L812.2,211.7 L813.6,210.7 L815.0,209.5 L816.3,208.4 L817.7,207.4 L819.1,206.7 L820.5,205.9 L821.8,205.2 L823.2,204.6 L824.6,204.0 L826.0,203.5 L827.4,203.1 L828.7,202.7 L830.1,202.4 L831.5,201.9 L832.9,201.1 L834.3,199.8 L835.6,198.7 L837.0,197.7 L838.4,196.9 L839.8,196.1 L841.1,195.4 L842.5,194.8 L843.9,194.2 L845.3,193.6 L846.7,193.2 L848.0,192.8 L849.4,192.4 L850.8,192.0 L852.2,191.4 L853.5,190.3 L854.9,189.0 L856.3,188.0 L857.7,187.1 L859.1,186.3 L860.4,185.6 L861.8,185.0 L863.2,184.3 L864.6,183.8 L865.9,183.3 L867.3,182.9 L868.7,182.5 L870.1,182.2 L871.5,181.7 L872.8,180.8 L874.2,179.5 L875.6,178.3 L877.0,177.4 L878.3,176.5 L879.7,175.8 L881.1,175.1 L882.5,174.4 L883.9,173.9 L885.2,173.3 L886.6,172.9 L888.0,172.5 L889.4,172.2 L890.8,171.7 L892.1,171.0 L893.5,169.8 L894.9,168.6 L896.3,167.6 L897.6,166.8 L899.0,166.0 L900.4,165.3 L901.8,164.7 L903.2,164.1 L904.5,163.5 L905.9,163.0 L907.3,162.6 L908.7,162.2 L910.1,161.8 L911.4,161.3 L912.8,160.3 L914.2,159.0 L915.6,157.9 L917.0,157.1 L918.3,156.3 L919.7,155.6 L921.1,154.9 L922.5,154.3 L923.9,153.7 L925.2,153.1 L926.6,152.7 L928.0,152.3 L929.4,152.0 L930.8,151.5 L932.1,150.8 L933.5,149.5 L934.9,148.3 L936.3,147.3 L937.7,146.5 L939.0,145.7 L940.4,144.4 L941.8,143.8 L943.2,143.2 L944.6,142.8 L945.9,142.4 L947.3,142.0 L948.7,141.6 L950.1,141.0 L951.5,140.0 L952.8,138.7 L954.2,137.6 L955.6,136.7 L957.0,135.9 L958.4,135.2 L959.7,134.5 L961.1,133.9 L962.5,133.3 L963.9,132.8 L965.3,132.4 L966.6,132.0 L968.0,131.7 L969.4,131.2 L970.8,130.3 L972.1,129.0 L973.5,127.9 L974.9,127.0 L976.3,126.2 L977.7,125.4 L979.0,124.8 L980.4,124.1 L981.8,123.5 L983.2,123.0 L984.5,122.5 L985.9,122.1 L987.3,121.8 L988.7,121.3 L990.0,120.6 L991.4,119.5 L992.8,118.3 L994.2,117.3 L995.6,116.4 L996.9,115.7 L998.3,114.9 L999.7,114.3 L1001.1,113.7 L1002.4,113.1 L1003.8,112.6 L1005.2,112.2 L1006.6,111.9 L1008.0,111.5 L1009.3,110.9 L1010.7,109.9 L1012.1,108.6 L1013.5,107.5 L1014.9,106.6 L1016.2,105.9 L1017.6,105.1 L1019.0,104.5 L1020.4,103.8 L1021.8,103.3 L1023.1,102.7 L1024.5,102.3 L1025.9,101.9 L1027.3,101.5 L1028.7,101.1 L1030.0,100.3 L1031.4,99.1 L1032.8,97.9 L1034.2,96.9 L1035.5,96.1 L1036.9,95.3 L1038.3,94.6 L1039.7,94.0 L1041.1,93.4 L1042.4,92.8 L1043.8,92.4 L1045.2,92.0 L1046.6,91.7 L1048.0,91.5 L1049.3,91.1 L1050.7,90.5 L1052.1,89.3 L1053.5,88.0 L1054.8,86.9 L1056.2,86.0 L1057.6,85.2 L1059.0,84.5 L1060.4,83.8 L1061.7,83.1 L1063.1,82.6 L1064.5,82.1 L1065.9,81.7 L1067.2,81.3 L1068.6,80.8 L1070.0,79.9" fill="none" stroke="#1f77b4" stroke-width="2"/>
<text x="910" y="82" class="small" fill="#d62728">target</text>
<text x="910" y="102" class="small" fill="#1f77b4">measured</text>
<line x1="80" y1="340" x2="1070" y2="340" stroke="#555"/>
<line x1="80.0" y1="340" x2="80.0" y2="346" stroke="#555"/>
<text x="80.0" y="362" text-anchor="middle" font-size="12" fill="#555">0</text>
<line x1="245.0" y1="340" x2="245.0" y2="346" stroke="#555"/>
<text x="245.0" y="362" text-anchor="middle" font-size="12" fill="#555">6</text>
<line x1="409.9" y1="340" x2="409.9" y2="346" stroke="#555"/>
<text x="409.9" y="362" text-anchor="middle" font-size="12" fill="#555">12</text>
<line x1="574.9" y1="340" x2="574.9" y2="346" stroke="#555"/>
<text x="574.9" y="362" text-anchor="middle" font-size="12" fill="#555">18</text>
<line x1="739.8" y1="340" x2="739.8" y2="346" stroke="#555"/>
<text x="739.8" y="362" text-anchor="middle" font-size="12" fill="#555">24</text>
<line x1="904.8" y1="340" x2="904.8" y2="346" stroke="#555"/>
<text x="904.8" y="362" text-anchor="middle" font-size="12" fill="#555">30</text>
<line x1="1069.8" y1="340" x2="1069.8" y2="346" stroke="#555"/>
<text x="1069.8" y="362" text-anchor="middle" font-size="12" fill="#555">36</text>
<text x="550.0" y="388" text-anchor="middle" class="small">time (s)</text>

<text x="80" y="412" class="label">Velocity (deg/s)</text>
<rect x="80" y="430" width="990" height="220" fill="none" stroke="#999"/>
<line x1="80" y1="650.0" x2="1070" y2="650.0" stroke="#ddd"/>
<text x="70" y="654.0" text-anchor="end" font-size="12" fill="#555">-20</text>
<line x1="80" y1="595.0" x2="1070" y2="595.0" stroke="#ddd"/>
<text x="70" y="599.0" text-anchor="end" font-size="12" fill="#555">-10</text>
<line x1="80" y1="540.0" x2="1070" y2="540.0" stroke="#ddd"/>
<text x="70" y="544.0" text-anchor="end" font-size="12" fill="#555">0</text>
<line x1="80" y1="485.0" x2="1070" y2="485.0" stroke="#ddd"/>
<text x="70" y="489.0" text-anchor="end" font-size="12" fill="#555">10</text>
<line x1="80" y1="430.0" x2="1070" y2="430.0" stroke="#ddd"/>
<text x="70" y="434.0" text-anchor="end" font-size="12" fill="#555">20</text>
<path d="M80.0,540.0 L81.4,540.0 L82.8,540.5 L84.1,546.5 L85.5,552.1 L86.9,556.9 L88.3,564.0 L89.7,569.1 L91.0,570.4 L92.4,573.1 L93.8,575.6 L95.2,578.4 L96.6,581.0 L97.9,586.6 L99.3,590.8 L100.7,591.8 L102.1,586.7 L103.5,582.5 L104.8,576.8 L106.2,580.6 L107.6,595.4 L109.0,617.5 L110.3,615.3 L111.7,609.0 L113.1,603.6 L114.5,598.9 L115.9,596.2 L117.2,595.8 L118.6,596.9 L120.0,595.1 L121.4,587.1 L122.8,581.2 L124.1,575.7 L125.5,576.7 L126.9,588.8 L128.3,609.8 L129.7,615.4 L131.0,610.0 L132.4,604.0 L133.8,597.9 L135.2,595.5 L136.6,593.7 L137.9,595.8 L139.3,595.6 L140.7,590.8 L142.1,584.0 L143.4,576.9 L144.8,575.9 L146.2,584.0 L147.6,601.8 L149.0,615.6 L150.3,611.7 L151.7,606.0 L153.1,598.9 L154.5,595.4 L155.9,594.5 L157.2,595.3 L158.6,596.3 L160.0,593.9 L161.4,587.4 L162.8,581.5 L164.1,576.0 L165.5,580.0 L166.9,594.2 L168.3,612.1 L169.7,614.5 L171.0,607.4 L172.4,601.7 L173.8,597.3 L175.2,595.0 L176.6,593.2 L177.9,595.5 L179.3,595.0 L180.7,590.4 L182.1,584.3 L183.5,576.3 L184.8,575.7 L186.2,586.4 L187.6,605.0 L189.0,616.3 L190.4,611.1 L191.7,606.3 L193.1,599.4 L194.5,596.4 L195.9,594.1 L197.3,594.9 L198.6,595.3 L200.0,592.2 L201.4,586.6 L202.8,580.0 L204.2,576.1 L205.5,582.1 L206.9,597.6 L208.3,612.8 L209.7,612.4 L211.1,606.8 L212.4,600.1 L213.8,596.5 L215.2,594.6 L216.6,594.0 L217.9,595.9 L219.3,594.2 L220.7,589.2 L222.1,583.4 L223.5,577.9 L224.8,578.1 L226.2,590.7 L227.6,609.0 L229.0,614.6 L230.4,608.3 L231.7,602.9 L233.1,597.3 L234.5,596.0 L235.9,593.9 L237.3,595.3 L238.6,594.3 L240.0,590.4 L241.4,585.4 L242.8,579.5 L244.2,577.6 L245.5,583.9 L246.9,602.8 L248.3,615.6 L249.7,610.9 L251.1,605.3 L252.4,598.8 L253.8,595.5 L255.2,593.7 L256.6,594.8 L258.0,595.9 L259.3,592.9 L260.7,588.0 L262.1,581.3 L263.5,575.7 L264.9,579.1 L266.2,594.5 L267.6,613.1 L269.0,614.1 L270.4,607.2 L271.7,603.0 L273.1,596.9 L274.5,594.1 L275.9,594.7 L277.3,596.5 L278.6,595.1 L280.0,589.8 L281.4,583.7 L282.8,576.9 L284.2,576.3 L285.5,586.9 L286.9,606.2 L288.3,615.4 L289.7,610.3 L291.0,604.9 L292.4,598.1 L293.8,596.0 L295.2,593.4 L296.6,596.2 L297.9,596.6 L299.3,592.4 L300.7,586.3 L302.1,579.4 L303.4,576.5 L304.8,581.3 L306.2,598.4 L307.6,612.7 L309.0,612.5 L310.3,606.5 L311.7,600.5 L313.1,596.6 L314.5,594.9 L315.8,594.1 L317.2,595.5 L318.6,594.3 L320.0,588.8 L321.4,583.3 L322.7,576.5 L324.1,576.5 L325.5,588.3 L326.9,606.2 L328.2,580.4 L329.6,599.8 L331.0,604.3 L332.4,602.1 L333.8,599.6 L335.1,597.7 L336.5,599.0 L337.9,600.6 L339.3,596.8 L340.6,591.6 L342.0,584.0 L343.4,578.2 L344.8,581.9 L346.2,599.9 L347.5,615.5 L348.9,613.7 L350.3,607.6 L351.7,602.0 L353.0,598.1 L354.4,595.2 L355.8,595.6 L357.2,596.7 L358.6,593.5 L360.0,589.5 L361.3,580.9 L362.7,575.4 L364.1,576.7 L365.5,592.9 L366.9,614.0 L368.2,616.5 L369.6,607.9 L371.0,602.5 L372.4,598.1 L373.8,594.7 L375.1,593.7 L376.5,595.3 L377.9,594.7 L379.3,590.7 L380.7,583.9 L382.0,577.7 L383.4,575.4 L384.8,587.4 L386.2,607.9 L387.5,615.7 L388.9,609.2 L390.3,604.1 L391.7,598.8 L393.1,595.6 L394.4,593.4 L395.8,594.4 L397.2,595.7 L398.6,592.5 L400.0,587.3 L401.3,579.7 L402.7,575.3 L404.1,581.0 L405.5,598.2 L406.9,614.3 L408.2,612.6 L409.6,606.3 L411.0,602.1 L412.4,596.7 L413.8,593.8 L415.1,593.7 L416.5,596.6 L417.9,594.6 L419.3,589.6 L420.7,582.3 L422.0,575.9 L423.4,576.5 L424.8,590.7 L426.2,610.1 L427.6,614.3 L428.9,608.4 L430.3,603.8 L431.7,598.4 L433.1,596.5 L434.5,594.0 L435.8,594.7 L437.2,595.3 L438.6,591.8 L440.0,585.5 L441.4,579.1 L442.7,575.3 L444.1,583.0 L445.5,602.0 L446.9,615.1 L448.3,611.2 L449.6,605.3 L451.0,599.7 L452.4,597.0 L453.8,594.5 L455.2,594.2 L456.5,594.9 L457.9,589.0 L459.3,589.0 L460.7,582.2 L462.1,577.0 L463.4,594.0 L464.8,611.8 L466.2,612.6 L467.6,607.0 L469.0,602.8 L470.3,598.1 L471.7,593.9 L473.1,592.4 L474.5,595.1 L475.9,595.2 L477.2,591.0 L478.6,585.3 L480.0,577.1 L481.4,575.6 L482.8,586.5 L484.1,605.4 L485.5,616.1 L486.9,610.3 L488.3,606.3 L489.7,599.9 L491.0,595.6 L492.4,592.9 L493.8,594.6 L495.2,595.1 L496.6,592.4 L497.9,588.0 L499.3,579.6 L500.7,574.8 L502.1,580.7 L503.4,598.7 L504.8,614.3 L506.2,612.0 L507.6,606.4 L509.0,601.3 L510.3,597.2 L511.7,593.8 L513.1,595.1 L514.5,595.6 L515.8,594.5 L517.2,590.8 L518.6,583.3 L520.0,577.1 L521.4,578.0 L522.7,589.1 L524.1,608.8 L525.5,613.1 L526.9,607.4 L528.2,604.0 L529.6,597.8 L531.0,595.0 L532.4,593.5 L533.8,594.7 L535.1,596.0 L536.5,591.3 L537.9,586.0 L539.3,579.0 L540.6,576.7 L542.0,583.7 L543.4,602.4 L544.8,615.2 L546.2,611.0 L547.5,605.9 L548.9,600.5 L550.3,596.2 L551.7,593.4 L553.1,594.7 L554.4,595.7 L555.8,593.2 L557.2,588.7 L558.6,581.4 L559.9,575.5 L561.3,579.3 L562.7,592.8 L564.1,612.3 L565.5,613.7 L566.8,609.0 L568.2,603.5 L569.6,597.8 L571.0,594.5 L572.4,593.7 L573.7,595.8 L575.1,594.4 L576.5,588.8 L577.9,577.2 L579.2,564.1 L580.6,554.9 L582.0,548.1 L583.4,543.6 L584.8,540.3 L586.1,539.4 L587.5,539.9 L588.9,539.1 L590.3,534.5 L591.7,522.9 L593.0,504.4 L594.4,483.4 L595.8,475.3 L597.2,481.3 L598.6,485.3 L599.9,487.8 L601.3,490.1 L602.7,489.3 L604.1,488.6 L605.5,488.9 L606.8,490.0 L608.2,494.2 L609.6,499.5 L611.0,505.5 L612.4,507.8 L613.8,503.6 L615.1,479.0 L616.5,439.6 L617.9,443.4 L619.3,461.1 L620.7,472.7 L622.0,479.1 L623.4,483.3 L624.8,486.9 L626.2,491.7 L627.6,498.1 L628.9,504.7 L630.3,508.8 L631.7,510.3 L633.1,502.3 L634.4,475.1 L635.8,441.9 L637.2,449.5 L638.6,465.5 L639.9,476.2 L641.3,482.0 L642.7,486.0 L644.1,489.0 L645.5,491.6 L646.8,497.9 L648.2,503.3 L649.6,508.6 L651.0,510.4 L652.4,507.2 L653.7,491.5 L655.1,454.1 L656.5,441.7 L657.9,458.4 L659.3,472.1 L660.6,480.0 L662.0,484.3 L663.4,487.6 L664.8,490.5 L666.1,494.9 L667.5,500.1 L668.9,507.0 L670.3,509.7 L671.7,509.3 L673.0,498.3 L674.4,467.4 L675.8,441.9 L677.2,454.6 L678.5,469.2 L679.9,478.7 L681.3,482.5 L682.7,486.6 L684.1,489.6 L685.4,491.8 L686.8,498.0 L688.2,504.2 L689.6,508.5 L690.9,510.5 L692.3,506.1 L693.7,485.6 L695.1,447.1 L696.4,444.3 L697.8,460.4 L699.2,474.6 L700.6,481.7 L702.0,484.9 L703.3,488.9 L704.7,492.0 L706.1,496.6 L707.5,501.8 L708.9,508.8 L710.2,510.5 L711.6,509.6 L713.0,496.9 L714.4,462.2 L715.7,437.2 L717.1,453.5 L718.5,467.8 L719.9,477.5 L721.3,482.4 L722.6,486.9 L724.0,489.4 L725.4,494.5 L726.8,500.8 L728.1,507.7 L729.5,510.3 L730.9,511.3 L732.3,503.2 L733.7,477.8 L735.0,441.6 L736.4,446.7 L737.8,463.4 L739.2,476.1 L740.5,481.7 L741.9,485.1 L743.3,488.5 L744.7,491.9 L746.1,497.7 L747.4,503.4 L748.8,509.0 L750.2,511.1 L751.6,507.3 L752.9,490.4 L754.3,451.9 L755.7,442.9 L757.1,459.8 L758.5,473.4 L759.8,482.2 L761.2,485.4 L762.6,488.5 L764.0,490.5 L765.3,494.3 L766.7,499.5 L768.1,506.3 L769.5,509.9 L770.9,509.4 L772.2,499.3 L773.6,467.0 L775.0,438.6 L776.4,452.3 L777.7,468.4 L779.1,478.6 L780.5,482.7 L781.9,485.5 L783.3,489.0 L784.6,493.7 L786.0,500.0 L787.4,505.8 L788.8,509.8 L790.1,510.2 L791.5,505.3 L792.9,483.3 L794.3,446.1 L795.7,445.2 L797.0,461.1 L798.4,474.3 L799.8,480.8 L801.2,484.4 L802.5,487.4 L803.9,491.2 L805.3,496.6 L806.7,502.7 L808.1,509.5 L809.4,511.2 L810.8,509.9 L812.2,497.2 L813.6,462.0 L815.0,439.5 L816.3,453.7 L817.7,468.4 L819.1,477.7 L820.5,481.7 L821.8,486.9 L823.2,489.9 L824.6,495.0 L826.0,499.6 L827.4,507.1 L828.7,510.5 L830.1,511.5 L831.5,504.1 L832.9,477.5 L834.3,441.5 L835.6,448.2 L837.0,463.8 L838.4,475.4 L839.8,480.3 L841.1,485.1 L842.5,487.9 L843.9,492.0 L845.3,498.7 L846.7,504.2 L848.0,510.1 L849.4,511.4 L850.8,508.9 L852.2,491.5 L853.5,450.4 L854.9,439.8 L856.3,459.0 L857.7,472.4 L859.1,479.9 L860.4,484.1 L861.8,487.7 L863.2,490.2 L864.6,496.2 L865.9,502.2 L867.3,507.9 L868.7,511.7 L870.1,511.3 L871.5,502.0 L872.8,470.8 L874.2,435.8 L875.6,448.0 L877.0,465.4 L878.3,475.8 L879.7,480.5 L881.1,485.7 L882.5,489.1 L883.9,494.1 L885.2,500.2 L886.6,506.1 L888.0,510.3 L889.4,511.6 L890.8,506.0 L892.1,483.4 L893.5,445.4 L894.9,446.6 L896.3,462.0 L897.6,473.9 L899.0,480.3 L900.4,484.3 L901.8,488.5 L903.2,491.8 L904.5,496.6 L905.9,501.4 L907.3,507.9 L908.7,510.5 L910.1,509.1 L911.4,496.1 L912.8,459.8 L914.2,441.8 L915.6,455.7 L917.0,470.6 L918.3,480.5 L919.7,482.9 L921.1,487.3 L922.5,489.9 L923.9,493.8 L925.2,499.1 L926.6,506.3 L928.0,510.5 L929.4,511.4 L930.8,505.3 L932.1,478.9 L933.5,439.7 L934.9,446.1 L936.3,463.2 L937.7,475.0 L939.0,481.1 L940.4,488.1 L941.8,491.5 L943.2,497.2 L944.6,503.9 L945.9,509.9 L947.3,511.8 L948.7,509.3 L950.1,494.5 L951.5,454.8 L952.8,437.3 L954.2,456.6 L955.6,470.6 L957.0,478.6 L958.4,483.3 L959.7,487.5 L961.1,490.9 L962.5,495.3 L963.9,500.7 L965.3,506.9 L966.6,510.3 L968.0,510.4 L969.4,501.7 L970.8,468.9 L972.1,440.1 L973.5,452.6 L974.9,466.6 L976.3,478.3 L977.7,481.8 L979.0,486.1 L980.4,489.9 L981.8,493.8 L983.2,497.9 L984.5,504.3 L985.9,508.5 L987.3,511.0 L988.7,507.3 L990.0,485.0 L991.4,446.5 L992.8,445.6 L994.2,461.5 L995.6,473.9 L996.9,480.2 L998.3,484.1 L999.7,488.0 L1001.1,492.8 L1002.4,496.3 L1003.8,501.5 L1005.2,507.6 L1006.6,510.6 L1008.0,509.0 L1009.3,496.8 L1010.7,459.2 L1012.1,440.6 L1013.5,454.1 L1014.9,469.7 L1016.2,480.0 L1017.6,482.4 L1019.0,488.1 L1020.4,491.0 L1021.8,494.5 L1023.1,498.2 L1024.5,505.4 L1025.9,510.0 L1027.3,511.5 L1028.7,504.4 L1030.0,478.2 L1031.4,442.4 L1032.8,447.3 L1034.2,464.4 L1035.5,475.3 L1036.9,480.6 L1038.3,484.8 L1039.7,489.0 L1041.1,492.0 L1042.4,498.0 L1043.8,503.0 L1045.2,509.2 L1046.6,518.3 L1048.0,524.7 L1049.3,509.3 L1050.7,488.1 L1052.1,444.8 L1053.5,440.3 L1054.8,455.7 L1056.2,468.6 L1057.6,476.1 L1059.0,482.2 L1060.4,485.5 L1061.7,490.2 L1063.1,495.7 L1064.5,504.2 L1065.9,508.3 L1067.2,509.1 L1068.6,501.5 L1070.0,469.7" fill="none" stroke="#2ca02c" stroke-width="2"/>
<line x1="80" y1="540.0" x2="1070" y2="540.0" stroke="#888" stroke-dasharray="4 4"/>
<line x1="80" y1="650" x2="1070" y2="650" stroke="#555"/>
<line x1="80.0" y1="650" x2="80.0" y2="656" stroke="#555"/>
<text x="80.0" y="672" text-anchor="middle" font-size="12" fill="#555">0</text>
<line x1="245.0" y1="650" x2="245.0" y2="656" stroke="#555"/>
<text x="245.0" y="672" text-anchor="middle" font-size="12" fill="#555">6</text>
<line x1="409.9" y1="650" x2="409.9" y2="656" stroke="#555"/>
<text x="409.9" y="672" text-anchor="middle" font-size="12" fill="#555">12</text>
<line x1="574.9" y1="650" x2="574.9" y2="656" stroke="#555"/>
<text x="574.9" y="672" text-anchor="middle" font-size="12" fill="#555">18</text>
<line x1="739.8" y1="650" x2="739.8" y2="656" stroke="#555"/>
<text x="739.8" y="672" text-anchor="middle" font-size="12" fill="#555">24</text>
<line x1="904.8" y1="650" x2="904.8" y2="656" stroke="#555"/>
<text x="904.8" y="672" text-anchor="middle" font-size="12" fill="#555">30</text>
<line x1="1069.8" y1="650" x2="1069.8" y2="656" stroke="#555"/>
<text x="1069.8" y="672" text-anchor="middle" font-size="12" fill="#555">36</text>
<text x="550.0" y="698" text-anchor="middle" class="small">time (s)</text>
<text x="80" y="740" class="small">CSV: s01_sweep_velocity_log_20260426_012827.csv; last sweep sample 85.769 deg; post-hold final 89.987 deg, diag FB0101011F000001</text>
</svg>
