<svg xmlns="http://www.w3.org/2000/svg" width="1180" height="760" viewBox="0 0 1180 760">
<style>text{font-family:Arial,sans-serif;fill:#111827}.small{font-size:12px;fill:#4b5563}.axis{stroke:#374151;stroke-width:1}.grid{stroke:#d1d5db;stroke-width:1;opacity:.65}.line{fill:none;stroke-width:1.8}.target{fill:none;stroke:#111827;stroke-width:1.4;stroke-dasharray:7 5}</style>
<rect width="100%" height="100%" fill="#ffffff"/>
<text x="78" y="30" font-size="22" font-weight="700">S01-S04 simultaneous slow sweep</text>
<text x="78" y="50" class="small">target +90 -> -90 -> +90, half sweep 18s, command stream 20Hz</text>
<line class="axis" x1="78" y1="356" x2="1150" y2="356"/>
<line class="axis" x1="78" y1="56" x2="78" y2="356"/>
<text x="20" y="206.0" font-size="13" transform="rotate(-90 20 206.0)">Output angle [deg]</text>
<line class="axis" x1="78" y1="660" x2="1150" y2="660"/>
<line class="axis" x1="78" y1="430" x2="78" y2="660"/>
<text x="20" y="545.0" font-size="13" transform="rotate(-90 20 545.0)">Velocity [deg/s]</text>
<line class="grid" x1="78" y1="342.4" x2="1150" y2="342.4"/>
<text x="68" y="346.4" text-anchor="end" class="small">-100</text>
<line class="grid" x1="78" y1="274.2" x2="1150" y2="274.2"/>
<text x="68" y="278.2" text-anchor="end" class="small">-50</text>
<line class="grid" x1="78" y1="206.0" x2="1150" y2="206.0"/>
<text x="68" y="210.0" text-anchor="end" class="small">0</text>
<line class="grid" x1="78" y1="137.8" x2="1150" y2="137.8"/>
<text x="68" y="141.8" text-anchor="end" class="small">50</text>
<line class="grid" x1="78" y1="69.6" x2="1150" y2="69.6"/>
<text x="68" y="73.6" text-anchor="end" class="small">100</text>
<line class="grid" x1="78" y1="660.0" x2="1150" y2="660.0"/>
<text x="68" y="664.0" text-anchor="end" class="small">-30</text>
<line class="grid" x1="78" y1="602.5" x2="1150" y2="602.5"/>
<text x="68" y="606.5" text-anchor="end" class="small">-15</text>
<line class="grid" x1="78" y1="545.0" x2="1150" y2="545.0"/>
<text x="68" y="549.0" text-anchor="end" class="small">0</text>
<line class="grid" x1="78" y1="487.5" x2="1150" y2="487.5"/>
<text x="68" y="491.5" text-anchor="end" class="small">15</text>
<line class="grid" x1="78" y1="430.0" x2="1150" y2="430.0"/>
<text x="68" y="434.0" text-anchor="end" class="small">30</text>
<line class="grid" x1="72.5" y1="56" x2="72.5" y2="356"/>
<line class="grid" x1="72.5" y1="430" x2="72.5" y2="660"/>
<text x="72.5" y="680" text-anchor="middle" class="small">0</text>
<line class="grid" x1="203.9" y1="56" x2="203.9" y2="356"/>
<line class="grid" x1="203.9" y1="430" x2="203.9" y2="660"/>
<text x="203.9" y="680" text-anchor="middle" class="small">5</text>
<line class="grid" x1="335.3" y1="56" x2="335.3" y2="356"/>
<line class="grid" x1="335.3" y1="430" x2="335.3" y2="660"/>
<text x="335.3" y="680" text-anchor="middle" class="small">10</text>
<line class="grid" x1="466.7" y1="56" x2="466.7" y2="356"/>
<line class="grid" x1="466.7" y1="430" x2="466.7" y2="660"/>
<text x="466.7" y="680" text-anchor="middle" class="small">15</text>
<line class="grid" x1="598.1" y1="56" x2="598.1" y2="356"/>
<line class="grid" x1="598.1" y1="430" x2="598.1" y2="660"/>
<text x="598.1" y="680" text-anchor="middle" class="small">20</text>
<line class="grid" x1="729.6" y1="56" x2="729.6" y2="356"/>
<line class="grid" x1="729.6" y1="430" x2="729.6" y2="660"/>
<text x="729.6" y="680" text-anchor="middle" class="small">25</text>
<line class="grid" x1="861.0" y1="56" x2="861.0" y2="356"/>
<line class="grid" x1="861.0" y1="430" x2="861.0" y2="660"/>
<text x="861.0" y="680" text-anchor="middle" class="small">30</text>
<line class="grid" x1="992.4" y1="56" x2="992.4" y2="356"/>
<line class="grid" x1="992.4" y1="430" x2="992.4" y2="660"/>
<text x="992.4" y="680" text-anchor="middle" class="small">35</text>
<line class="grid" x1="1123.8" y1="56" x2="1123.8" y2="356"/>
<line class="grid" x1="1123.8" y1="430" x2="1123.8" y2="660"/>
<text x="1123.8" y="680" text-anchor="middle" class="small">40</text>
<path class="target" d="M78.0,83.3 L79.4,83.3 L80.9,83.3 L82.3,83.3 L83.7,83.3 L85.1,83.3 L86.6,83.3 L88.0,83.3 L89.4,83.3 L90.8,83.3 L92.3,83.3 L93.7,83.3 L95.2,83.3 L96.6,83.3 L98.1,83.3 L99.5,83.3 L101.0,83.3 L102.4,83.3 L103.9,83.3 L105.3,83.3 L106.8,83.3 L108.2,83.3 L109.7,83.3 L111.1,83.3 L112.5,83.3 L114.0,83.3 L115.4,83.3 L116.9,83.3 L118.4,83.3 L119.9,84.0 L121.3,84.8 L122.8,85.5 L124.3,86.3 L125.7,87.0 L127.1,87.8 L128.6,88.5 L130.0,89.3 L131.5,90.0 L133.0,90.8 L134.4,91.6 L135.9,92.3 L137.3,93.1 L138.8,93.8 L140.3,94.6 L141.7,95.4 L143.2,96.1 L144.7,96.9 L146.1,97.6 L147.6,98.4 L149.0,99.1 L150.4,99.9 L151.9,100.6 L153.3,101.4 L154.8,102.1 L156.3,102.9 L157.7,103.6 L159.2,104.4 L160.7,105.2 L162.1,105.9 L163.6,106.7 L165.0,107.4 L166.5,108.2 L167.9,108.9 L169.3,109.7 L170.8,110.4 L172.2,111.2 L173.7,111.9 L175.1,112.7 L176.6,113.4 L178.0,114.2 L179.5,115.0 L180.9,115.7 L182.3,116.4 L183.8,117.2 L185.3,117.9 L186.7,118.7 L188.2,119.4 L189.6,120.2 L191.0,120.9 L192.5,121.7 L193.9,122.4 L195.3,123.2 L196.8,123.9 L198.2,124.7 L199.7,125.4 L201.1,126.2 L202.6,126.9 L204.0,127.7 L205.4,128.4 L206.9,129.2 L208.4,129.9 L209.8,130.7 L211.3,131.4 L212.8,132.2 L214.2,133.0 L215.7,133.7 L217.2,134.5 L218.6,135.2 L220.0,136.0 L221.5,136.7 L222.9,137.5 L224.4,138.2 L225.8,139.0 L227.2,139.7 L228.7,140.5 L230.2,141.2 L231.6,142.0 L233.0,142.7 L234.5,143.5 L235.9,144.2 L237.3,145.0 L238.8,145.7 L240.2,146.5 L241.7,147.2 L243.1,148.0 L244.6,148.7 L246.0,149.5 L247.4,150.2 L248.9,150.9 L250.3,151.7 L251.8,152.5 L253.3,153.2 L254.7,154.0 L256.2,154.7 L257.6,155.5 L259.1,156.2 L260.5,157.0 L262.0,157.7 L263.4,158.5 L264.9,159.3 L266.4,160.0 L267.8,160.8 L269.3,161.5 L270.7,162.3 L272.2,163.0 L273.6,163.8 L275.0,164.5 L276.5,165.3 L278.0,166.0 L279.4,166.8 L280.9,167.5 L282.3,168.3 L283.8,169.1 L285.3,169.8 L286.7,170.6 L288.2,171.3 L289.7,172.1 L291.1,172.9 L292.5,173.6 L294.0,174.4 L295.5,175.1 L297.0,175.9 L298.4,176.6 L299.9,177.4 L301.4,178.2 L302.9,178.9 L304.4,179.7 L305.8,180.5 L307.3,181.3 L308.8,182.0 L310.3,182.8 L311.7,183.5 L313.2,184.3 L314.7,185.1 L316.1,185.8 L317.6,186.6 L319.1,187.4 L320.6,188.1 L322.1,188.9 L323.5,189.7 L325.0,190.4 L326.5,191.2 L327.9,192.0 L329.4,192.7 L330.8,193.5 L332.3,194.2 L333.7,195.0 L335.2,195.7 L336.6,196.5 L338.1,197.2 L339.5,198.0 L341.0,198.7 L342.4,199.5 L343.9,200.2 L345.3,201.0 L346.8,201.7 L348.3,202.5 L349.8,203.3 L351.3,204.1 L352.7,204.8 L354.2,205.6 L355.7,206.4 L357.2,207.1 L358.6,207.9 L360.2,208.7 L361.6,209.4 L363.1,210.2 L364.6,211.0 L366.1,211.7 L367.5,212.5 L368.9,213.2 L370.4,214.0 L371.8,214.7 L373.3,215.5 L374.7,216.2 L376.2,217.0 L377.7,217.8 L379.1,218.5 L380.6,219.3 L382.1,220.0 L383.5,220.8 L385.0,221.6 L386.4,222.3 L387.9,223.0 L389.3,223.8 L390.8,224.5 L392.3,225.3 L393.7,226.1 L395.2,226.8 L396.7,227.6 L398.1,228.4 L399.6,229.1 L401.1,229.9 L402.5,230.7 L404.0,231.4 L405.5,232.2 L407.0,232.9 L408.4,233.7 L409.9,234.5 L411.4,235.2 L412.8,236.0 L414.3,236.8 L415.7,237.5 L417.2,238.3 L418.7,239.0 L420.2,239.8 L421.6,240.6 L423.1,241.3 L424.5,242.1 L426.0,242.8 L427.4,243.6 L428.9,244.3 L430.4,245.1 L431.8,245.9 L433.3,246.6 L434.8,247.4 L436.2,248.1 L437.6,248.9 L439.1,249.6 L440.5,250.4 L442.0,251.1 L443.4,251.9 L444.9,252.6 L446.3,253.4 L447.8,254.1 L449.2,254.9 L450.6,255.6 L452.1,256.4 L453.5,257.1 L455.0,257.9 L456.5,258.6 L457.9,259.4 L459.4,260.2 L460.8,260.9 L462.3,261.7 L463.8,262.4 L465.2,263.2 L466.6,263.9 L468.1,264.7 L469.6,265.4 L471.0,266.2 L472.5,267.0 L474.0,267.7 L475.5,268.5 L476.9,269.3 L478.4,270.0 L479.8,270.8 L481.3,271.5 L482.8,272.3 L484.2,273.0 L485.7,273.8 L487.1,274.6 L488.6,275.3 L490.0,276.1 L491.5,276.8 L492.9,277.6 L494.3,278.3 L495.8,279.0 L497.3,279.8 L498.7,280.6 L500.2,281.3 L501.7,282.1 L503.2,282.8 L504.6,283.6 L506.1,284.4 L507.6,285.1 L509.0,285.9 L510.5,286.7 L512.0,287.4 L513.5,288.2 L515.0,289.0 L516.4,289.7 L517.9,290.5 L519.3,291.3 L520.8,292.0 L522.3,292.8 L523.7,293.5 L525.2,294.3 L526.7,295.1 L528.1,295.8 L529.6,296.6 L531.1,297.3 L532.6,298.1 L534.0,298.9 L535.5,299.6 L537.0,300.4 L538.4,301.2 L539.9,301.9 L541.4,302.7 L542.8,303.4 L544.3,304.2 L545.8,305.0 L547.2,305.7 L548.7,306.5 L550.2,307.3 L551.7,308.0 L553.2,308.8 L554.6,309.6 L556.1,310.3 L557.6,311.1 L559.0,311.8 L560.5,312.6 L562.0,313.4 L563.5,314.1 L564.9,314.9 L566.4,315.7 L567.8,316.4 L569.3,317.2 L570.7,317.9 L572.1,318.7 L573.6,319.4 L575.1,320.2 L576.6,320.9 L578.0,321.7 L579.5,322.5 L580.9,323.2 L582.4,324.0 L583.9,324.8 L585.4,325.5 L586.9,326.3 L588.3,327.1 L589.8,327.8 L591.3,328.6 L592.7,328.7 L594.3,328.0 L595.8,327.2 L597.3,326.4 L598.7,325.7 L600.2,324.9 L601.6,324.2 L603.1,323.4 L604.5,322.7 L606.0,321.9 L607.4,321.2 L608.8,320.4 L610.3,319.7 L611.7,318.9 L613.2,318.2 L614.6,317.4 L616.1,316.7 L617.5,315.9 L619.0,315.2 L620.4,314.4 L621.9,313.7 L623.4,312.9 L624.8,312.1 L626.3,311.4 L627.8,310.6 L629.2,309.9 L630.7,309.1 L632.1,308.4 L633.6,307.6 L635.1,306.8 L636.5,306.1 L638.0,305.3 L639.4,304.6 L640.9,303.8 L642.3,303.1 L643.8,302.3 L645.3,301.6 L646.7,300.8 L648.2,300.0 L649.7,299.2 L651.2,298.5 L652.7,297.7 L654.1,296.9 L655.6,296.2 L657.1,295.4 L658.6,294.7 L660.0,293.9 L661.4,293.1 L662.9,292.4 L664.3,291.6 L665.8,290.9 L667.2,290.2 L668.6,289.4 L670.1,288.7 L671.5,287.9 L673.0,287.2 L674.4,286.4 L675.9,285.6 L677.4,284.9 L678.9,284.1 L680.3,283.3 L681.8,282.6 L683.3,281.8 L684.8,281.1 L686.3,280.3 L687.7,279.5 L689.2,278.8 L690.6,278.0 L692.0,277.3 L693.5,276.5 L694.9,275.8 L696.4,275.0 L697.8,274.3 L699.2,273.5 L700.7,272.8 L702.1,272.0 L703.6,271.3 L705.0,270.5 L706.5,269.8 L707.9,269.0 L709.3,268.3 L710.8,267.5 L712.2,266.8 L713.7,266.0 L715.2,265.3 L716.6,264.5 L718.1,263.8 L719.6,263.0 L721.0,262.2 L722.4,261.5 L723.9,260.7 L725.3,260.0 L726.8,259.3 L728.2,258.5 L729.6,257.8 L731.1,257.0 L732.6,256.3 L734.0,255.5 L735.5,254.7 L736.9,254.0 L738.4,253.2 L739.8,252.5 L741.2,251.7 L742.7,251.0 L744.1,250.3 L745.6,249.5 L747.0,248.7 L748.5,248.0 L749.9,247.2 L751.4,246.5 L752.8,245.7 L754.2,245.0 L755.7,244.2 L757.1,243.5 L758.6,242.8 L760.0,242.0 L761.5,241.2 L762.9,240.5 L764.4,239.7 L765.8,239.0 L767.2,238.2 L768.7,237.5 L770.1,236.8 L771.6,236.0 L773.0,235.3 L774.5,234.5 L776.0,233.7 L777.4,233.0 L778.9,232.2 L780.3,231.5 L781.7,230.7 L783.2,230.0 L784.6,229.2 L786.1,228.5 L787.5,227.7 L789.0,227.0 L790.4,226.2 L791.9,225.5 L793.3,224.7 L794.8,224.0 L796.2,223.2 L797.7,222.5 L799.2,221.7 L800.7,220.9 L802.1,220.2 L803.6,219.4 L805.0,218.7 L806.5,217.9 L807.9,217.2 L809.3,216.4 L810.8,215.7 L812.2,214.9 L813.7,214.2 L815.2,213.4 L816.6,212.6 L818.1,211.9 L819.6,211.1 L821.0,210.4 L822.5,209.6 L824.0,208.8 L825.4,208.1 L826.9,207.3 L828.3,206.6 L829.8,205.8 L831.2,205.1 L832.7,204.3 L834.1,203.6 L835.5,202.8 L837.0,202.1 L838.4,201.3 L839.8,200.6 L841.3,199.8 L842.7,199.1 L844.2,198.3 L845.7,197.6 L847.2,196.8 L848.6,196.0 L850.1,195.3 L851.6,194.5 L853.0,193.7 L854.5,193.0 L855.9,192.2 L857.4,191.5 L858.8,190.7 L860.3,190.0 L861.8,189.2 L863.2,188.5 L864.7,187.7 L866.1,187.0 L867.6,186.2 L869.1,185.4 L870.5,184.7 L872.0,183.9 L873.4,183.2 L874.9,182.4 L876.4,181.6 L877.9,180.9 L879.4,180.1 L880.9,179.3 L882.3,178.6 L883.8,177.8 L885.3,177.0 L886.7,176.3 L888.1,175.5 L889.6,174.8 L891.0,174.0 L892.4,173.3 L893.9,172.6 L895.3,171.8 L896.8,171.0 L898.2,170.3 L899.7,169.5 L901.1,168.8 L902.6,168.0 L904.0,167.3 L905.5,166.5 L906.9,165.8 L908.4,165.0 L909.8,164.3 L911.3,163.5 L912.8,162.8 L914.2,162.0 L915.7,161.2 L917.1,160.5 L918.5,159.8 L920.0,159.0 L921.4,158.3 L922.8,157.5 L924.3,156.8 L925.7,156.0 L927.2,155.3 L928.6,154.5 L930.1,153.8 L931.5,153.0 L933.0,152.3 L934.5,151.5 L936.0,150.7 L937.4,150.0 L938.8,149.2 L940.3,148.5 L941.8,147.7 L943.2,147.0 L944.6,146.2 L946.1,145.5 L947.5,144.7 L949.0,144.0 L950.4,143.2 L951.8,142.5 L953.3,141.7 L954.8,141.0 L956.2,140.2 L957.7,139.5 L959.1,138.7 L960.6,138.0 L962.0,137.2 L963.5,136.5 L965.0,135.7 L966.4,134.9 L967.8,134.2 L969.3,133.4 L970.7,132.7 L972.2,131.9 L973.6,131.2 L975.0,130.4 L976.5,129.7 L978.0,128.9 L979.5,128.2 L980.9,127.4 L982.4,126.6 L983.8,125.9 L985.2,125.2 L986.7,124.4 L988.2,123.6 L989.7,122.9 L991.1,122.1 L992.6,121.4 L994.1,120.6 L995.6,119.8 L997.0,119.0 L998.5,118.3 L1000.0,117.5 L1001.5,116.7 L1002.9,116.0 L1004.4,115.2 L1005.8,114.5 L1007.2,113.7 L1008.7,113.0 L1010.1,112.3 L1011.6,111.5 L1013.0,110.7 L1014.5,110.0 L1016.0,109.2 L1017.5,108.4 L1018.9,107.7 L1020.4,106.9 L1021.8,106.2 L1023.3,105.4 L1024.8,104.7 L1026.2,103.9 L1027.7,103.1 L1029.2,102.4 L1030.7,101.6 L1032.1,100.8 L1033.6,100.1 L1035.0,99.3 L1036.5,98.6 L1038.0,97.8 L1039.4,97.0 L1040.9,96.3 L1042.3,95.5 L1043.8,94.8 L1045.2,94.0 L1046.7,93.3 L1048.1,92.5 L1049.5,91.8 L1051.0,91.1 L1052.4,90.3 L1053.8,89.6 L1055.3,88.8 L1056.7,88.1 L1058.2,87.3 L1059.7,86.6 L1061.1,85.8 L1062.5,85.1 L1063.9,84.3 L1065.4,83.6 L1066.8,83.3 L1068.4,83.3 L1069.8,83.3 L1071.2,83.3 L1072.7,83.3 L1074.2,83.3 L1075.6,83.3 L1077.0,83.3 L1078.5,83.3 L1079.9,83.3 L1081.3,83.3 L1082.8,83.3 L1084.2,83.3 L1085.7,83.3 L1087.1,83.3 L1088.6,83.3 L1090.0,83.3 L1091.4,83.3 L1092.9,83.3 L1094.3,83.3 L1095.7,83.3 L1097.1,83.3 L1098.6,83.3 L1100.1,83.3 L1101.5,83.3 L1103.0,83.3 L1104.4,83.3 L1105.9,83.3 L1107.3,83.3 L1108.8,83.3 L1110.2,83.3 L1111.7,83.3 L1113.1,83.3 L1114.5,83.3 L1116.0,83.3 L1117.4,83.3 L1118.9,83.3 L1120.3,83.3 L1125.7,83.3 L1127.6,83.3 L1128.9,83.3 L1130.3,83.3 L1131.6,83.3 L1132.9,83.3 L1134.2,83.3 L1135.5,83.3 L1136.9,83.3 L1138.2,83.3 L1139.5,83.3 L1142.1,83.3 L1143.4,83.3 L1144.7,83.3 L1146.1,83.3 L1147.4,83.3 L1148.7,83.3 L1150.0,83.3"/>
<path class="line" stroke="#0b84a5" d="M80.9,83.2 L82.3,83.2 L83.7,83.2 L85.1,83.3 L86.6,83.3 L88.0,83.3 L89.4,83.3 L90.8,83.3 L92.3,83.3 L93.7,83.2 L95.2,83.3 L96.6,83.3 L98.1,83.3 L99.5,83.3 L101.0,83.2 L102.4,83.3 L103.9,83.3 L105.3,83.2 L106.8,83.3 L108.2,83.3 L109.7,83.3 L111.1,83.2 L112.5,83.3 L114.0,83.2 L115.4,83.3 L116.9,83.3 L118.4,83.3 L119.9,83.3 L121.3,83.3 L122.8,83.3 L124.3,83.3 L125.7,83.3 L127.1,83.3 L128.6,83.3 L130.0,83.3 L131.5,83.3 L133.0,83.3 L134.4,83.3 L135.9,83.3 L137.3,83.3 L138.8,83.3 L140.3,83.3 L141.7,83.3 L143.2,83.3 L144.7,83.3 L146.1,83.3 L147.6,83.3 L149.0,83.5 L150.4,84.2 L151.9,85.3 L153.3,86.9 L154.8,88.7 L156.3,90.3 L157.7,91.7 L159.2,93.0 L160.7,95.4 L162.1,97.0 L163.6,98.5 L165.0,99.7 L166.5,100.7 L167.9,101.7 L169.3,102.5 L170.8,103.3 L172.2,104.0 L173.7,104.7 L175.1,106.7 L176.6,107.6 L178.0,108.4 L179.5,109.1 L180.9,109.8 L182.3,110.4 L183.8,111.0 L185.3,111.7 L186.7,112.3 L188.2,112.9 L189.6,114.1 L191.0,114.7 L192.5,115.5 L193.9,116.5 L195.3,118.0 L196.8,118.0 L198.2,118.8 L199.7,119.4 L201.1,120.7 L202.6,121.9 L204.0,121.9 L205.4,122.5 L206.9,123.1 L208.4,123.6 L209.8,124.2 L211.3,125.0 L212.8,125.8 L214.2,126.8 L215.7,127.5 L217.2,128.9 L218.6,129.6 L220.0,130.2 L221.5,130.9 L222.9,131.5 L224.4,132.1 L225.8,132.7 L227.2,133.3 L228.7,133.8 L230.2,134.5 L231.6,136.3 L233.0,137.1 L234.5,137.8 L235.9,138.5 L237.3,139.1 L238.8,139.8 L240.2,140.4 L241.7,141.0 L243.1,141.7 L244.6,142.3 L246.0,142.9 L247.4,144.0 L248.9,144.8 L250.3,145.7 L251.8,146.6 L253.3,147.3 L254.7,148.0 L256.2,148.7 L257.6,149.3 L259.1,150.0 L260.5,151.3 L262.0,151.9 L263.4,152.4 L264.9,153.0 L266.4,153.6 L267.8,154.3 L269.3,155.1 L270.7,156.0 L272.2,158.3 L273.6,158.9 L275.0,158.9 L276.5,159.6 L278.0,160.2 L279.4,160.8 L280.9,161.4 L282.3,162.0 L283.8,162.6 L285.3,163.1 L286.7,163.8 L288.2,165.5 L289.7,166.3 L291.1,167.1 L292.5,167.8 L294.0,168.5 L295.5,169.1 L297.0,169.8 L298.4,170.4 L299.9,171.0 L301.4,172.2 L302.9,172.8 L304.4,173.4 L305.8,174.1 L307.3,175.0 L308.8,175.8 L310.3,177.3 L311.7,177.3 L313.2,178.7 L314.7,179.3 L316.1,179.9 L317.6,180.5 L319.1,181.2 L320.6,181.8 L322.1,182.3 L323.5,182.9 L325.0,184.4 L326.5,185.3 L327.9,186.1 L329.4,186.9 L330.8,187.6 L332.3,188.2 L333.7,188.9 L335.2,189.5 L336.6,190.1 L338.1,191.4 L339.5,191.9 L341.0,192.5 L342.4,193.1 L343.9,193.9 L345.3,194.8 L346.8,195.7 L348.3,196.4 L349.8,197.1 L351.3,198.4 L352.7,199.1 L354.2,199.7 L355.7,200.3 L357.2,200.9 L358.6,201.5 L360.2,202.1 L361.6,202.7 L363.1,204.2 L364.6,205.1 L366.1,205.9 L367.5,206.6 L368.9,208.0 L370.4,208.0 L371.8,208.6 L373.3,209.3 L374.7,209.9 L376.2,211.1 L377.7,211.7 L379.1,212.2 L380.6,212.9 L382.1,213.7 L383.5,214.6 L385.0,215.4 L386.4,216.2 L387.9,216.9 L389.3,218.2 L390.8,218.8 L392.3,219.5 L393.7,220.1 L395.2,220.7 L396.7,221.2 L398.1,221.2 L399.6,222.4 L401.1,223.2 L402.5,224.9 L404.0,225.7 L405.5,226.5 L407.0,227.2 L408.4,227.8 L409.9,228.4 L411.4,229.0 L412.8,229.7 L414.3,230.9 L415.7,231.4 L417.2,232.0 L418.7,232.6 L420.2,233.5 L421.6,234.4 L423.1,235.2 L424.5,236.0 L426.0,236.7 L427.4,238.0 L428.9,238.6 L430.4,239.2 L431.8,239.9 L433.3,240.5 L434.8,241.0 L436.2,241.6 L437.6,242.2 L439.1,242.9 L440.5,243.8 L442.0,246.2 L443.4,246.9 L444.9,247.5 L446.3,248.2 L447.8,248.2 L449.2,248.8 L450.6,249.4 L452.1,250.0 L453.5,250.6 L455.0,251.8 L456.5,252.5 L457.9,253.3 L459.4,254.2 L460.8,255.0 L462.3,255.8 L463.8,256.5 L465.2,257.1 L466.6,258.3 L468.1,258.3 L469.6,259.6 L471.0,260.2 L472.5,260.8 L474.0,261.4 L475.5,262.0 L476.9,262.0 L478.4,263.7 L479.8,266.0 L481.3,266.0 L482.8,266.7 L484.2,267.3 L485.7,267.9 L487.1,268.5 L488.6,269.2 L490.0,269.8 L491.5,270.3 L492.9,270.9 L494.3,271.5 L495.8,273.1 L497.3,274.0 L498.7,274.8 L500.2,275.5 L501.7,276.9 L503.2,277.5 L504.6,278.1 L506.1,278.8 L507.6,278.8 L509.0,280.0 L510.5,280.5 L512.0,281.1 L513.5,281.8 L515.0,282.6 L516.4,283.5 L517.9,284.3 L519.3,285.1 L520.8,286.4 L522.3,287.1 L523.7,287.7 L525.2,288.3 L526.7,288.9 L528.1,289.5 L529.6,290.1 L531.1,290.7 L532.6,291.3 L534.0,293.0 L535.5,293.8 L537.0,294.6 L538.4,295.3 L539.9,296.0 L541.4,296.6 L542.8,297.2 L544.3,297.9 L545.8,299.1 L547.2,299.7 L548.7,300.3 L550.2,300.9 L551.7,301.6 L553.2,302.4 L554.6,303.3 L556.1,304.1 L557.6,305.5 L559.0,306.2 L560.5,306.8 L562.0,307.4 L563.5,308.1 L564.9,308.7 L566.4,309.3 L567.8,309.8 L569.3,310.4 L570.7,311.9 L572.1,312.8 L573.6,313.6 L575.1,314.4 L576.6,315.1 L578.0,315.8 L579.5,316.4 L580.9,317.0 L582.4,317.7 L583.9,318.9 L585.4,319.5 L586.9,320.0 L588.3,320.6 L589.8,321.4 L591.3,322.3 L592.7,323.1 L594.3,324.6 L595.8,325.3 L597.3,325.8 L598.7,326.1 L600.2,326.4 L601.6,326.5 L603.1,326.5 L604.5,326.5 L606.0,326.5 L607.4,326.3 L608.8,325.6 L610.3,325.1 L611.7,324.5 L613.2,323.3 L614.6,322.7 L616.1,322.7 L617.5,322.1 L619.0,321.5 L620.4,320.9 L621.9,320.4 L623.4,319.1 L624.8,318.4 L626.3,317.6 L627.8,316.9 L629.2,316.2 L630.7,315.5 L632.1,314.7 L633.6,314.1 L635.1,313.4 L636.5,311.8 L638.0,311.2 L639.4,310.6 L640.9,310.0 L642.3,309.4 L643.8,308.6 L645.3,307.9 L646.7,307.2 L648.2,306.5 L649.7,305.1 L651.2,304.4 L652.7,303.7 L654.1,303.0 L655.6,302.3 L657.1,301.6 L658.6,300.4 L660.0,300.4 L661.4,299.1 L662.9,298.4 L664.3,297.6 L665.8,296.9 L667.2,296.2 L668.6,295.5 L670.1,294.8 L671.5,294.2 L673.0,293.5 L674.4,292.7 L675.9,291.4 L677.4,290.8 L678.9,290.2 L680.3,289.6 L681.8,288.8 L683.3,288.1 L684.8,287.4 L686.3,286.7 L687.7,285.3 L689.2,284.6 L690.6,284.0 L692.0,283.2 L693.5,282.5 L694.9,281.8 L696.4,281.2 L697.8,280.7 L699.2,280.0 L700.7,279.3 L702.1,277.8 L703.6,277.1 L705.0,276.4 L706.5,275.7 L707.9,275.0 L709.3,274.4 L710.8,273.7 L712.2,272.9 L713.7,272.3 L715.2,271.7 L716.6,270.5 L718.1,269.8 L719.6,269.1 L721.0,268.3 L722.4,267.6 L723.9,266.9 L725.3,266.2 L726.8,265.5 L728.2,264.9 L729.6,264.2 L731.1,262.7 L732.6,262.1 L734.0,261.5 L735.5,260.9 L736.9,260.2 L738.4,259.5 L739.8,258.8 L741.2,258.0 L742.7,257.3 L744.1,256.6 L745.6,255.3 L747.0,254.6 L748.5,253.9 L749.9,253.2 L751.4,252.5 L752.8,252.5 L754.2,251.3 L755.7,250.7 L757.1,250.0 L758.6,249.3 L760.0,247.8 L761.5,247.1 L762.9,246.4 L764.4,245.7 L765.8,245.1 L767.2,244.4 L768.7,243.6 L770.1,242.9 L771.6,242.3 L773.0,241.7 L774.5,240.5 L776.0,239.7 L777.4,239.0 L778.9,238.3 L780.3,237.6 L781.7,236.9 L783.2,236.2 L784.6,235.5 L786.1,234.8 L787.5,233.4 L789.0,232.7 L790.4,232.2 L791.9,231.6 L793.3,230.9 L794.8,230.2 L796.2,229.5 L797.7,228.7 L799.2,228.0 L800.7,227.3 L802.1,225.9 L803.6,225.3 L805.0,224.6 L806.5,223.8 L807.9,223.2 L809.3,222.6 L810.8,222.0 L812.2,221.4 L813.7,220.7 L815.2,219.2 L816.6,218.5 L818.1,217.8 L819.6,217.1 L821.0,216.4 L822.5,215.7 L824.0,215.1 L825.4,214.3 L826.9,213.6 L828.3,212.4 L829.8,211.8 L831.2,211.2 L832.7,210.4 L834.1,209.7 L835.5,209.0 L837.0,208.3 L838.4,207.6 L839.8,206.9 L841.3,206.2 L842.7,204.8 L844.2,204.1 L845.7,203.4 L847.2,202.8 L848.6,202.2 L850.1,201.6 L851.6,200.9 L853.0,200.2 L854.5,199.5 L855.9,198.0 L857.4,197.3 L858.8,196.7 L860.3,196.0 L861.8,195.3 L863.2,194.5 L864.7,193.8 L866.1,193.2 L867.6,192.6 L869.1,191.3 L870.5,191.3 L872.0,189.9 L873.4,189.2 L874.9,188.5 L876.4,187.8 L877.9,187.1 L879.4,186.5 L880.9,185.8 L882.3,184.3 L883.8,183.7 L885.3,183.1 L886.7,182.5 L888.1,181.8 L889.6,181.1 L891.0,180.4 L892.4,179.7 L893.9,178.9 L895.3,177.5 L896.8,176.9 L898.2,176.2 L899.7,175.5 L901.1,174.8 L902.6,174.1 L904.0,173.5 L905.5,172.9 L906.9,172.3 L908.4,171.6 L909.8,170.1 L911.3,169.4 L912.8,168.7 L914.2,168.0 L915.7,167.3 L917.1,165.9 L918.5,165.2 L920.0,165.2 L921.4,163.9 L922.8,163.9 L924.3,162.7 L925.7,162.0 L927.2,161.3 L928.6,160.6 L930.1,159.9 L931.5,159.2 L933.0,158.5 L934.5,157.8 L936.0,157.1 L937.4,155.7 L938.8,155.0 L940.3,154.3 L941.8,153.7 L943.2,153.1 L944.6,152.5 L946.1,151.8 L947.5,151.1 L949.0,150.3 L950.4,149.6 L951.8,148.2 L953.3,147.5 L954.8,146.9 L956.2,146.2 L957.7,144.8 L959.1,144.1 L960.6,143.6 L962.0,143.6 L963.5,143.0 L965.0,142.3 L966.4,140.8 L967.8,140.1 L969.3,139.4 L970.7,138.7 L972.2,137.3 L973.6,137.3 L975.0,136.6 L976.5,135.9 L978.0,135.2 L979.5,133.9 L980.9,133.4 L982.4,132.7 L983.8,132.0 L985.2,131.3 L986.7,130.6 L988.2,129.9 L989.7,129.2 L991.1,128.5 L992.6,127.1 L994.1,126.4 L995.6,125.6 L997.0,125.0 L998.5,124.4 L1000.0,123.8 L1001.5,123.2 L1002.9,121.8 L1004.4,121.0 L1005.8,120.3 L1007.2,119.6 L1008.7,118.9 L1010.1,118.2 L1011.6,117.6 L1013.0,116.9 L1014.5,116.1 L1016.0,115.4 L1017.5,114.8 L1018.9,113.6 L1020.4,113.0 L1021.8,112.2 L1023.3,111.5 L1024.8,110.8 L1026.2,110.1 L1027.7,109.4 L1029.2,108.7 L1030.7,108.0 L1032.1,106.6 L1033.6,105.9 L1035.0,105.2 L1036.5,104.6 L1038.0,104.0 L1039.4,103.4 L1040.9,102.7 L1042.3,102.0 L1043.8,101.2 L1045.2,99.8 L1046.7,99.1 L1048.1,98.4 L1049.5,97.8 L1051.0,97.0 L1052.4,96.3 L1053.8,95.6 L1055.3,95.0 L1056.7,94.4 L1058.2,92.5 L1059.7,91.7 L1061.1,91.0 L1062.5,90.3 L1063.9,90.3 L1065.4,89.6 L1066.8,88.9 L1068.4,88.2 L1069.8,86.8 L1071.2,86.8 L1072.7,86.2 L1074.2,85.4 L1075.6,85.0 L1077.0,84.8 L1078.5,84.6 L1079.9,84.3 L1081.3,84.2 L1082.8,84.0 L1084.2,83.9 L1085.7,83.8 L1087.1,83.6 L1088.6,83.5 L1090.0,83.4 L1091.4,83.4 L1092.9,83.3 L1094.3,83.3 L1095.7,83.3 L1097.1,83.3 L1098.6,83.3 L1100.1,83.3 L1101.5,83.3 L1103.0,83.2 L1104.4,83.2 L1105.9,83.2 L1107.3,83.2 L1108.8,83.2 L1110.2,83.2 L1111.7,83.2 L1113.1,83.2 L1114.5,83.2 L1116.0,83.2 L1117.4,83.2 L1118.9,83.2 L1120.3,83.2 L1125.7,83.2 L1127.6,83.3 L1128.9,83.3 L1130.3,83.3 L1131.6,83.3 L1132.9,83.3 L1134.2,83.3 L1135.5,83.3 L1136.9,83.3 L1138.2,83.3 L1139.5,83.3 L1142.1,83.3 L1143.4,83.3 L1144.7,83.3 L1146.1,83.3 L1147.4,83.3 L1148.7,83.3 L1150.0,83.3"/>
<path class="line" stroke="#0b84a5" d="M80.9,544.9 L82.3,545.0 L83.7,545.0 L85.1,545.1 L86.6,544.9 L88.0,545.1 L89.4,545.1 L90.8,545.0 L92.3,545.0 L93.7,544.8 L95.2,545.1 L96.6,545.0 L98.1,545.0 L99.5,545.0 L101.0,544.9 L102.4,545.1 L103.9,545.0 L105.3,544.9 L106.8,545.1 L108.2,545.0 L109.7,545.0 L111.1,544.9 L112.5,545.1 L114.0,544.9 L115.4,545.1 L116.9,545.0 L118.4,544.9 L119.9,545.1 L121.3,545.1 L122.8,545.1 L124.3,545.1 L125.7,545.1 L127.1,545.1 L128.6,545.1 L130.0,545.1 L131.5,545.1 L133.0,545.1 L134.4,545.1 L135.9,545.1 L137.3,545.1 L138.8,545.1 L140.3,545.1 L141.7,545.1 L143.2,545.1 L144.7,545.1 L146.1,545.1 L147.6,545.1 L149.0,556.7 L150.4,585.7 L151.9,605.9 L153.3,636.9 L154.8,646.1 L156.3,634.3 L157.7,624.5 L159.2,620.4 L160.7,611.1 L162.1,637.0 L163.6,628.3 L165.0,613.0 L166.5,602.4 L167.9,599.1 L169.3,593.6 L170.8,588.3 L172.2,583.9 L173.7,584.8 L175.1,595.4 L176.6,597.3 L178.0,590.4 L179.5,586.3 L180.9,582.5 L182.3,582.5 L183.8,580.6 L185.3,581.8 L186.7,580.5 L188.2,579.5 L189.6,576.3 L191.0,581.0 L192.5,581.0 L193.9,597.0 L195.3,591.6 L196.8,587.2 L198.2,585.2 L199.7,582.0 L201.1,580.3 L202.6,581.3 L204.0,579.7 L205.4,579.7 L206.9,578.6 L208.4,575.8 L209.8,577.4 L211.3,586.5 L212.8,595.1 L214.2,596.0 L215.7,588.2 L217.2,584.2 L218.6,581.9 L220.0,580.8 L221.5,580.8 L222.9,580.9 L224.4,578.7 L225.8,578.1 L227.2,576.6 L228.7,577.0 L230.2,582.4 L231.6,596.3 L233.0,590.7 L234.5,586.6 L235.9,586.6 L237.3,581.1 L238.8,580.6 L240.2,580.3 L241.7,581.1 L243.1,580.4 L244.6,580.4 L246.0,578.7 L247.4,579.7 L248.9,588.6 L250.3,595.4 L251.8,593.0 L253.3,587.9 L254.7,585.1 L256.2,581.9 L257.6,580.6 L259.1,580.4 L260.5,581.2 L262.0,579.4 L263.4,577.5 L264.9,575.6 L266.4,577.2 L267.8,584.1 L269.3,593.4 L270.7,595.6 L272.2,586.7 L273.6,584.6 L275.0,581.9 L276.5,581.9 L278.0,580.7 L279.4,581.3 L280.9,579.3 L282.3,578.3 L283.8,576.5 L285.3,576.3 L286.7,580.7 L288.2,596.2 L289.7,593.3 L291.1,587.3 L292.5,585.4 L294.0,585.4 L295.5,581.3 L297.0,580.4 L298.4,580.3 L299.9,580.1 L301.4,577.4 L302.9,576.4 L304.4,579.6 L305.8,586.2 L307.3,593.5 L308.8,593.9 L310.3,586.1 L311.7,586.1 L313.2,581.1 L314.7,579.9 L316.1,579.6 L317.6,581.1 L319.1,580.2 L320.6,579.2 L322.1,577.2 L323.5,578.1 L325.0,591.5 L326.5,594.8 L327.9,590.7 L329.4,586.5 L330.8,584.3 L332.3,584.3 L333.7,580.3 L335.2,580.1 L336.6,580.1 L338.1,579.1 L339.5,577.1 L341.0,576.4 L342.4,580.1 L343.9,588.2 L345.3,595.8 L346.8,593.7 L348.3,588.0 L349.8,585.7 L351.3,580.5 L352.7,580.4 L354.2,580.6 L355.7,580.4 L357.2,579.0 L358.6,577.5 L360.2,576.7 L361.6,577.8 L363.1,592.8 L364.6,596.1 L366.1,588.7 L367.5,586.2 L368.9,584.8 L370.4,582.3 L371.8,582.3 L373.3,580.3 L374.7,580.9 L376.2,579.1 L377.7,576.2 L379.1,576.0 L380.6,581.8 L382.1,590.0 L383.5,596.0 L385.0,592.2 L386.4,586.9 L387.9,586.9 L389.3,580.6 L390.8,579.6 L392.3,580.2 L393.7,579.7 L395.2,579.1 L396.7,577.2 L398.1,577.2 L399.6,578.9 L401.1,587.0 L402.5,595.1 L404.0,589.4 L405.5,586.5 L407.0,583.8 L408.4,581.0 L409.9,579.7 L411.4,579.7 L412.8,580.2 L414.3,578.7 L415.7,575.8 L417.2,576.8 L418.7,583.1 L420.2,591.5 L421.6,597.0 L423.1,591.0 L424.5,591.0 L426.0,585.4 L427.4,580.4 L428.9,579.3 L430.4,580.3 L431.8,580.1 L433.3,579.1 L434.8,576.3 L436.2,576.2 L437.6,579.9 L439.1,587.2 L440.5,595.3 L442.0,587.8 L443.4,586.2 L444.9,583.4 L446.3,580.7 L447.8,580.6 L449.2,580.5 L450.6,581.0 L452.1,579.7 L453.5,577.9 L455.0,578.8 L456.5,584.7 L457.9,592.9 L459.4,594.8 L460.8,589.5 L462.3,589.5 L463.8,584.3 L465.2,581.3 L466.6,579.8 L468.1,579.8 L469.6,580.0 L471.0,579.3 L472.5,577.3 L474.0,577.1 L475.5,581.6 L476.9,581.6 L478.4,595.4 L479.8,586.9 L481.3,585.0 L482.8,585.0 L484.2,580.8 L485.7,580.1 L487.1,579.8 L488.6,579.8 L490.0,579.1 L491.5,579.1 L492.9,576.1 L494.3,578.9 L495.8,594.9 L497.3,595.7 L498.7,589.0 L500.2,586.9 L501.7,584.5 L503.2,581.2 L504.6,580.2 L506.1,580.3 L507.6,580.2 L509.0,578.1 L510.5,576.2 L512.0,577.3 L513.5,583.2 L515.0,592.1 L516.4,595.8 L517.9,590.3 L519.3,586.4 L520.8,582.0 L522.3,580.3 L523.7,579.7 L525.2,580.1 L526.7,580.1 L528.1,579.3 L529.6,576.6 L531.1,576.3 L532.6,580.2 L534.0,595.4 L535.5,593.6 L537.0,588.0 L538.4,586.4 L539.9,583.5 L541.4,580.4 L542.8,579.7 L544.3,579.6 L545.8,579.5 L547.2,578.1 L548.7,576.6 L550.2,578.3 L551.7,584.5 L553.2,594.1 L554.6,595.5 L556.1,588.7 L557.6,584.1 L559.0,582.1 L560.5,580.0 L562.0,579.8 L563.5,581.2 L564.9,580.2 L566.4,578.0 L567.8,576.6 L569.3,576.6 L570.7,589.7 L572.1,596.4 L573.6,593.0 L575.1,588.1 L576.6,586.1 L578.0,582.5 L579.5,580.5 L580.9,579.5 L582.4,580.3 L583.9,579.4 L585.4,576.5 L586.9,576.5 L588.3,579.1 L589.8,586.7 L591.3,595.1 L592.7,594.2 L594.3,586.1 L595.8,581.3 L597.3,572.8 L598.7,565.3 L600.2,558.3 L601.6,551.4 L603.1,546.5 L604.5,544.5 L606.0,543.9 L607.4,536.4 L608.8,520.7 L610.3,515.7 L611.7,512.2 L613.2,512.3 L614.6,512.5 L616.1,510.1 L617.5,508.4 L619.0,511.5 L620.4,514.2 L621.9,515.1 L623.4,507.4 L624.8,503.3 L626.3,502.2 L627.8,503.9 L629.2,503.8 L630.7,503.8 L632.1,505.1 L633.6,506.3 L635.1,505.7 L636.5,503.1 L638.0,508.6 L639.4,511.7 L640.9,512.0 L642.3,507.8 L643.8,504.3 L645.3,503.8 L646.7,504.8 L648.2,505.2 L649.7,506.3 L651.2,507.4 L652.7,508.1 L654.1,503.8 L655.6,503.1 L657.1,507.1 L658.6,511.9 L660.0,511.9 L661.4,505.7 L662.9,505.7 L664.3,503.8 L665.8,505.2 L667.2,504.9 L668.6,505.2 L670.1,507.2 L671.5,508.1 L673.0,506.0 L674.4,503.1 L675.9,509.9 L677.4,512.3 L678.9,511.2 L680.3,507.6 L681.8,504.5 L683.3,504.0 L684.8,504.9 L686.3,505.4 L687.7,506.5 L689.2,507.4 L690.6,506.8 L692.0,506.8 L693.5,503.8 L694.9,508.8 L696.4,508.8 L697.8,513.1 L699.2,509.3 L700.7,504.8 L702.1,502.9 L703.6,504.2 L705.0,505.0 L706.5,506.4 L707.9,508.1 L709.3,508.1 L710.8,504.7 L712.2,504.7 L713.7,507.4 L715.2,511.2 L716.6,510.7 L718.1,505.9 L719.6,505.1 L721.0,504.1 L722.4,505.0 L723.9,504.4 L725.3,505.0 L726.8,506.9 L728.2,508.7 L729.6,507.3 L731.1,504.2 L732.6,509.2 L734.0,512.4 L735.5,511.6 L736.9,507.3 L738.4,503.8 L739.8,503.8 L741.2,503.6 L742.7,505.1 L744.1,505.4 L745.6,508.0 L747.0,508.0 L748.5,503.6 L749.9,503.5 L751.4,507.9 L752.8,507.9 L754.2,512.5 L755.7,509.5 L757.1,505.8 L758.6,503.9 L760.0,504.9 L761.5,504.6 L762.9,504.6 L764.4,506.8 L765.8,508.2 L767.2,505.5 L768.7,505.5 L770.1,506.3 L771.6,511.0 L773.0,512.8 L774.5,506.7 L776.0,504.4 L777.4,503.9 L778.9,504.9 L780.3,504.9 L781.7,506.0 L783.2,506.4 L784.6,507.5 L786.1,506.6 L787.5,504.4 L789.0,509.1 L790.4,512.2 L791.9,512.4 L793.3,508.9 L794.8,504.6 L796.2,503.7 L797.7,504.1 L799.2,505.1 L800.7,504.7 L802.1,507.2 L803.6,507.6 L805.0,505.1 L806.5,503.4 L807.9,507.1 L809.3,507.1 L810.8,512.5 L812.2,511.4 L813.7,511.4 L815.2,502.8 L816.6,503.8 L818.1,504.0 L819.6,505.6 L821.0,506.8 L822.5,508.1 L824.0,506.7 L825.4,503.6 L826.9,505.5 L828.3,511.8 L829.8,512.3 L831.2,512.3 L832.7,504.6 L834.1,504.4 L835.5,504.1 L837.0,505.2 L838.4,504.9 L839.8,506.5 L841.3,507.7 L842.7,503.2 L844.2,502.9 L845.7,507.6 L847.2,511.1 L848.6,513.1 L850.1,513.1 L851.6,505.8 L853.0,504.0 L854.5,504.7 L855.9,504.9 L857.4,505.9 L858.8,507.8 L860.3,508.1 L861.8,505.2 L863.2,502.1 L864.7,505.4 L866.1,509.7 L867.6,512.3 L869.1,506.8 L870.5,506.8 L872.0,504.0 L873.4,505.0 L874.9,505.5 L876.4,506.1 L877.9,507.1 L879.4,508.5 L880.9,507.2 L882.3,504.1 L883.8,508.1 L885.3,511.9 L886.7,512.6 L888.1,508.1 L889.6,505.0 L891.0,505.0 L892.4,502.9 L893.9,504.0 L895.3,505.9 L896.8,507.4 L898.2,508.2 L899.7,504.9 L901.1,504.9 L902.6,506.4 L904.0,511.0 L905.5,513.1 L906.9,511.2 L908.4,511.2 L909.8,502.8 L911.3,504.6 L912.8,505.1 L914.2,504.8 L915.7,506.2 L917.1,507.6 L918.5,506.5 L920.0,503.0 L921.4,509.3 L922.8,509.3 L924.3,512.1 L925.7,508.5 L927.2,504.2 L928.6,503.8 L930.1,504.4 L931.5,505.6 L933.0,505.5 L934.5,506.1 L936.0,508.1 L937.4,504.3 L938.8,503.0 L940.3,506.9 L941.8,511.2 L943.2,512.6 L944.6,509.5 L946.1,505.6 L947.5,505.6 L949.0,503.7 L950.4,505.5 L951.8,505.8 L953.3,506.2 L954.8,508.6 L956.2,506.3 L957.7,502.8 L959.1,506.4 L960.6,510.3 L962.0,513.3 L963.5,511.7 L965.0,511.7 L966.4,502.9 L967.8,504.3 L969.3,504.8 L970.7,505.5 L972.2,505.9 L973.6,507.0 L975.0,507.2 L976.5,503.7 L978.0,504.9 L979.5,511.8 L980.9,512.6 L982.4,509.5 L983.8,504.9 L985.2,503.5 L986.7,504.1 L988.2,505.4 L989.7,506.1 L991.1,506.4 L992.6,506.5 L994.1,504.5 L995.6,502.6 L997.0,502.6 L998.5,511.7 L1000.0,512.6 L1001.5,510.4 L1002.9,503.9 L1004.4,503.9 L1005.8,505.3 L1007.2,504.9 L1008.7,505.1 L1010.1,506.6 L1011.6,507.8 L1013.0,506.3 L1014.5,502.8 L1016.0,505.5 L1017.5,510.3 L1018.9,511.6 L1020.4,507.9 L1021.8,503.4 L1023.3,504.0 L1024.8,504.0 L1026.2,505.5 L1027.7,505.8 L1029.2,506.3 L1030.7,507.5 L1032.1,506.6 L1033.6,503.5 L1035.0,508.4 L1036.5,510.9 L1038.0,512.0 L1039.4,510.7 L1040.9,506.2 L1042.3,503.9 L1043.8,503.1 L1045.2,505.3 L1046.7,505.3 L1048.1,506.3 L1049.5,507.4 L1051.0,507.4 L1052.4,501.8 L1053.8,506.7 L1055.3,511.8 L1056.7,511.8 L1058.2,507.7 L1059.7,503.6 L1061.1,503.2 L1062.5,504.7 L1063.9,505.3 L1065.4,505.4 L1066.8,505.4 L1068.4,507.5 L1069.8,507.2 L1071.2,505.5 L1072.7,505.5 L1074.2,523.8 L1075.6,527.3 L1077.0,529.8 L1078.5,532.2 L1079.9,533.5 L1081.3,534.8 L1082.8,536.4 L1084.2,537.1 L1085.7,538.2 L1087.1,539.1 L1088.6,540.8 L1090.0,541.7 L1091.4,542.3 L1092.9,542.3 L1094.3,543.6 L1095.7,544.1 L1097.1,544.2 L1098.6,544.2 L1100.1,544.3 L1101.5,544.7 L1103.0,544.9 L1104.4,545.0 L1105.9,545.0 L1107.3,544.9 L1108.8,544.9 L1110.2,545.1 L1111.7,545.0 L1113.1,545.0 L1114.5,545.1 L1116.0,545.0 L1117.4,545.0 L1118.9,545.0 L1120.3,544.9 L1125.7,545.1 L1127.6,545.1 L1128.9,545.0 L1130.3,544.9 L1131.6,545.0 L1132.9,545.0 L1134.2,545.0 L1135.5,545.0 L1136.9,545.0 L1138.2,545.1 L1139.5,545.0 L1142.1,545.0 L1143.4,544.9 L1144.7,545.1 L1146.1,545.1 L1147.4,545.0 L1148.7,544.9 L1150.0,545.0"/>
<path class="line" stroke="#e45756" d="M80.9,83.3 L82.3,83.3 L83.7,83.3 L85.1,83.3 L86.6,83.3 L88.0,83.3 L89.4,83.3 L90.8,83.3 L92.3,83.3 L93.7,83.3 L95.2,83.3 L96.6,83.3 L98.1,83.3 L99.5,83.3 L101.0,83.3 L102.4,83.3 L103.9,83.3 L105.3,83.3 L106.8,83.3 L108.2,83.3 L109.7,83.3 L111.1,83.3 L112.5,83.3 L114.0,83.3 L115.4,83.3 L116.9,83.3 L118.4,83.3 L119.9,83.3 L121.3,83.3 L122.8,83.3 L124.3,83.3 L125.7,83.3 L127.1,83.3 L128.6,83.3 L130.0,83.3 L131.5,83.3 L133.0,83.3 L134.4,83.3 L135.9,83.3 L137.3,83.3 L138.8,83.3 L140.3,83.3 L141.7,83.3 L143.2,83.3 L144.7,83.3 L146.1,83.3 L147.6,83.3 L149.0,83.3 L150.4,83.5 L151.9,84.5 L153.3,86.0 L154.8,87.5 L156.3,89.0 L157.7,90.6 L159.2,92.1 L160.7,94.9 L162.1,96.2 L163.6,97.4 L165.0,98.6 L166.5,99.6 L167.9,100.6 L169.3,101.6 L170.8,102.5 L172.2,103.3 L173.7,104.1 L175.1,105.7 L176.6,106.5 L178.0,107.3 L179.5,108.1 L180.9,108.8 L182.3,109.5 L183.8,110.2 L185.3,110.9 L186.7,111.6 L188.2,112.3 L189.6,113.7 L191.0,114.3 L192.5,115.0 L193.9,115.7 L195.3,117.1 L196.8,117.1 L198.2,117.8 L199.7,118.5 L201.1,119.8 L202.6,121.2 L204.0,121.9 L205.4,121.9 L206.9,122.6 L208.4,123.2 L209.8,123.9 L211.3,124.6 L212.8,125.3 L214.2,126.0 L215.7,126.7 L217.2,128.0 L218.6,128.7 L220.0,129.4 L221.5,130.1 L222.9,130.8 L224.4,131.4 L225.8,132.1 L227.2,132.8 L228.7,133.5 L230.2,134.1 L231.6,135.5 L233.0,136.2 L234.5,136.9 L235.9,137.6 L237.3,138.3 L238.8,139.0 L240.2,139.6 L241.7,140.3 L243.1,141.0 L244.6,141.7 L246.0,143.0 L247.4,143.7 L248.9,144.4 L250.3,145.1 L251.8,145.7 L253.3,146.5 L254.7,147.1 L256.2,147.8 L257.6,148.5 L259.1,149.2 L260.5,150.5 L262.0,151.2 L263.4,151.9 L264.9,152.5 L266.4,153.2 L267.8,153.9 L269.3,154.6 L270.7,155.3 L272.2,157.4 L273.6,158.1 L275.0,158.1 L276.5,158.7 L278.0,159.4 L279.4,160.1 L280.9,160.8 L282.3,161.4 L283.8,162.1 L285.3,162.8 L286.7,163.4 L288.2,164.8 L289.7,165.5 L291.1,166.2 L292.5,166.9 L294.0,167.6 L295.5,168.3 L297.0,169.0 L298.4,169.6 L299.9,170.3 L301.4,171.7 L302.9,172.3 L304.4,173.0 L305.8,173.7 L307.3,174.4 L308.8,175.1 L310.3,176.4 L311.7,177.1 L313.2,177.8 L314.7,178.5 L316.1,179.1 L317.6,179.8 L319.1,180.5 L320.6,181.2 L322.1,181.8 L323.5,182.5 L325.0,183.9 L326.5,184.6 L327.9,185.3 L329.4,186.0 L330.8,186.7 L332.3,187.4 L333.7,188.0 L335.2,188.7 L336.6,189.4 L338.1,190.7 L339.5,191.4 L341.0,192.1 L342.4,192.8 L343.9,193.5 L345.3,194.1 L346.8,194.8 L348.3,195.6 L349.8,196.2 L351.3,197.6 L352.7,198.3 L354.2,198.9 L355.7,199.6 L357.2,200.3 L358.6,200.9 L360.2,201.6 L361.6,202.3 L363.1,203.7 L364.6,204.4 L366.1,205.1 L367.5,205.8 L368.9,207.1 L370.4,207.1 L371.8,207.8 L373.3,208.5 L374.7,209.1 L376.2,210.5 L377.7,211.2 L379.1,211.9 L380.6,212.6 L382.1,213.2 L383.5,213.9 L385.0,214.6 L386.4,215.3 L387.9,216.0 L389.3,217.4 L390.8,218.0 L392.3,218.7 L393.7,219.4 L395.2,220.1 L396.7,220.8 L398.1,221.4 L399.6,222.1 L401.1,222.8 L402.5,224.2 L404.0,224.9 L405.5,225.6 L407.0,226.2 L408.4,226.9 L409.9,227.6 L411.4,228.2 L412.8,228.9 L414.3,230.2 L415.7,230.9 L417.2,231.6 L418.7,232.3 L420.2,233.0 L421.6,233.7 L423.1,234.4 L424.5,235.1 L426.0,235.8 L427.4,237.1 L428.9,237.8 L430.4,238.5 L431.8,239.2 L433.3,239.8 L434.8,240.5 L436.2,241.2 L437.6,241.9 L439.1,242.6 L440.5,243.9 L442.0,245.3 L443.4,246.0 L444.9,246.7 L446.3,247.4 L447.8,247.4 L449.2,248.0 L450.6,248.7 L452.1,249.4 L453.5,250.1 L455.0,251.4 L456.5,252.1 L457.9,252.8 L459.4,253.5 L460.8,254.2 L462.3,254.9 L463.8,255.5 L465.2,256.2 L466.6,258.2 L468.1,258.2 L469.6,258.9 L471.0,259.6 L472.5,260.3 L474.0,261.0 L475.5,261.7 L476.9,262.3 L478.4,263.0 L479.8,265.1 L481.3,265.1 L482.8,265.8 L484.2,266.4 L485.7,267.1 L487.1,267.8 L488.6,268.5 L490.0,269.1 L491.5,269.8 L492.9,270.5 L494.3,271.2 L495.8,272.6 L497.3,273.2 L498.7,273.9 L500.2,274.7 L501.7,276.0 L503.2,276.7 L504.6,277.3 L506.1,278.0 L507.6,278.7 L509.0,279.4 L510.5,280.0 L512.0,280.7 L513.5,281.4 L515.0,282.1 L516.4,282.8 L517.9,283.5 L519.3,284.2 L520.8,285.5 L522.3,286.2 L523.7,286.9 L525.2,287.6 L526.7,288.3 L528.1,288.9 L529.6,289.6 L531.1,290.3 L532.6,291.0 L534.0,292.3 L535.5,293.0 L537.0,293.7 L538.4,294.4 L539.9,295.1 L541.4,295.8 L542.8,296.5 L544.3,297.1 L545.8,298.5 L547.2,299.1 L548.7,299.8 L550.2,300.5 L551.7,301.2 L553.2,301.9 L554.6,302.5 L556.1,303.2 L557.6,304.6 L559.0,305.3 L560.5,306.0 L562.0,306.7 L563.5,307.3 L564.9,308.0 L566.4,308.7 L567.8,309.4 L569.3,310.1 L570.7,311.4 L572.1,312.1 L573.6,312.8 L575.1,313.5 L576.6,314.2 L578.0,314.9 L579.5,315.6 L580.9,316.2 L582.4,316.9 L583.9,318.3 L585.4,318.9 L586.9,319.6 L588.3,320.3 L589.8,320.9 L591.3,321.6 L592.7,322.3 L594.3,324.4 L595.8,324.4 L597.3,325.0 L598.7,325.6 L600.2,325.9 L601.6,326.2 L603.1,326.3 L604.5,326.3 L606.0,326.3 L607.4,326.1 L608.8,325.7 L610.3,325.3 L611.7,324.9 L613.2,323.8 L614.6,323.2 L616.1,323.2 L617.5,322.7 L619.0,322.1 L620.4,321.5 L621.9,320.9 L623.4,319.5 L624.8,318.9 L626.3,318.2 L627.8,317.5 L629.2,316.8 L630.7,316.2 L632.1,315.5 L633.6,314.7 L635.1,314.0 L636.5,312.7 L638.0,312.0 L639.4,311.3 L640.9,310.6 L642.3,309.9 L643.8,309.2 L645.3,308.5 L646.7,307.9 L648.2,307.2 L649.7,305.8 L651.2,305.1 L652.7,304.4 L654.1,303.7 L655.6,303.0 L657.1,302.4 L658.6,301.0 L660.0,300.3 L661.4,299.6 L662.9,299.0 L664.3,298.3 L665.8,297.6 L667.2,296.9 L668.6,296.2 L670.1,295.5 L671.5,294.8 L673.0,294.2 L674.4,293.5 L675.9,292.1 L677.4,291.4 L678.9,290.7 L680.3,290.1 L681.8,289.4 L683.3,288.7 L684.8,288.1 L686.3,287.4 L687.7,286.0 L689.2,285.3 L690.6,284.6 L692.0,284.0 L693.5,283.3 L694.9,282.6 L696.4,281.9 L697.8,281.2 L699.2,280.5 L700.7,279.9 L702.1,278.5 L703.6,277.8 L705.0,277.2 L706.5,276.5 L707.9,275.8 L709.3,275.1 L710.8,274.4 L712.2,273.7 L713.7,273.1 L715.2,272.4 L716.6,271.0 L718.1,270.3 L719.6,269.6 L721.0,268.9 L722.4,268.3 L723.9,267.6 L725.3,266.9 L726.8,266.2 L728.2,265.5 L729.6,264.2 L731.1,263.5 L732.6,262.8 L734.0,262.2 L735.5,261.5 L736.9,260.7 L738.4,260.1 L739.8,259.4 L741.2,258.7 L742.7,258.1 L744.1,256.7 L745.6,256.0 L747.0,255.3 L748.5,254.6 L749.9,253.9 L751.4,253.3 L752.8,252.6 L754.2,251.9 L755.7,251.2 L757.1,250.5 L758.6,249.2 L760.0,248.5 L761.5,247.8 L762.9,247.1 L764.4,246.4 L765.8,245.7 L767.2,245.1 L768.7,244.4 L770.1,243.7 L771.6,243.1 L773.0,241.7 L774.5,241.0 L776.0,240.3 L777.4,239.6 L778.9,238.9 L780.3,238.3 L781.7,237.6 L783.2,236.9 L784.6,236.2 L786.1,235.6 L787.5,234.2 L789.0,233.5 L790.4,232.8 L791.9,232.1 L793.3,231.4 L794.8,230.8 L796.2,230.1 L797.7,229.4 L799.2,228.7 L800.7,228.1 L802.1,226.7 L803.6,226.0 L805.0,225.3 L806.5,224.6 L807.9,224.0 L809.3,223.3 L810.8,222.6 L812.2,221.9 L813.7,221.2 L815.2,219.9 L816.6,219.2 L818.1,218.5 L819.6,217.8 L821.0,217.1 L822.5,216.4 L824.0,215.8 L825.4,215.1 L826.9,214.4 L828.3,213.0 L829.8,212.3 L831.2,211.7 L832.7,211.0 L834.1,210.3 L835.5,209.6 L837.0,209.1 L838.4,208.8 L839.8,208.2 L841.3,207.6 L842.7,206.1 L844.2,205.4 L845.7,204.6 L847.2,203.9 L848.6,203.2 L850.1,202.4 L851.6,201.7 L853.0,200.9 L854.5,200.3 L855.9,198.9 L857.4,198.2 L858.8,197.4 L860.3,196.7 L861.8,196.1 L863.2,195.4 L864.7,194.7 L866.1,194.0 L867.6,193.3 L869.1,191.9 L870.5,191.2 L872.0,190.6 L873.4,189.9 L874.9,189.2 L876.4,188.5 L877.9,187.8 L879.4,187.1 L880.9,185.8 L882.3,185.1 L883.8,184.4 L885.3,183.7 L886.7,183.0 L888.1,182.3 L889.6,181.7 L891.0,181.0 L892.4,180.3 L893.9,179.7 L895.3,178.3 L896.8,177.6 L898.2,176.9 L899.7,176.2 L901.1,175.6 L902.6,174.9 L904.0,174.2 L905.5,173.5 L906.9,172.8 L908.4,171.4 L909.8,170.8 L911.3,170.1 L912.8,169.4 L914.2,168.7 L915.7,168.0 L917.1,166.7 L918.5,166.0 L920.0,166.0 L921.4,164.0 L922.8,164.0 L924.3,163.3 L925.7,162.6 L927.2,161.9 L928.6,161.2 L930.1,160.5 L931.5,159.9 L933.0,159.2 L934.5,158.5 L936.0,157.8 L937.4,156.5 L938.8,155.8 L940.3,155.1 L941.8,154.4 L943.2,153.7 L944.6,153.0 L946.1,152.3 L947.5,151.7 L949.0,151.0 L950.4,150.3 L951.8,149.0 L953.3,148.3 L954.8,147.6 L956.2,146.9 L957.7,145.5 L959.1,144.9 L960.6,144.2 L962.0,144.2 L963.5,143.5 L965.0,142.1 L966.4,141.5 L967.8,140.8 L969.3,140.1 L970.7,139.4 L972.2,138.0 L973.6,138.0 L975.0,137.3 L976.5,136.7 L978.0,136.0 L979.5,134.6 L980.9,133.9 L982.4,133.2 L983.8,132.6 L985.2,131.9 L986.7,131.2 L988.2,130.6 L989.7,129.9 L991.1,129.2 L992.6,127.8 L994.1,127.1 L995.6,126.5 L997.0,125.8 L998.5,125.1 L1000.0,124.4 L1001.5,123.7 L1002.9,121.7 L1004.4,121.7 L1005.8,121.0 L1007.2,120.3 L1008.7,119.6 L1010.1,119.0 L1011.6,118.3 L1013.0,117.6 L1014.5,116.9 L1016.0,116.2 L1017.5,115.6 L1018.9,114.2 L1020.4,113.5 L1021.8,112.8 L1023.3,112.1 L1024.8,111.4 L1026.2,110.8 L1027.7,110.1 L1029.2,109.4 L1030.7,108.0 L1032.1,107.4 L1033.6,106.7 L1035.0,106.0 L1036.5,105.3 L1038.0,104.6 L1039.4,103.9 L1040.9,103.2 L1042.3,102.6 L1043.8,101.2 L1045.2,100.5 L1046.7,99.9 L1048.1,99.2 L1049.5,98.5 L1051.0,97.8 L1052.4,97.1 L1053.8,96.5 L1055.3,95.8 L1056.7,95.1 L1058.2,93.0 L1059.7,92.3 L1061.1,91.7 L1062.5,91.0 L1063.9,91.0 L1065.4,90.3 L1066.8,89.6 L1068.4,88.3 L1069.8,87.6 L1071.2,87.6 L1072.7,86.4 L1074.2,85.9 L1075.6,85.5 L1077.0,85.1 L1078.5,84.7 L1079.9,84.4 L1081.3,84.2 L1082.8,84.0 L1084.2,83.9 L1085.7,83.8 L1087.1,83.6 L1088.6,83.6 L1090.0,83.5 L1091.4,83.4 L1092.9,83.4 L1094.3,83.4 L1095.7,83.3 L1097.1,83.3 L1098.6,83.3 L1100.1,83.3 L1101.5,83.3 L1103.0,83.3 L1104.4,83.3 L1105.9,83.3 L1107.3,83.3 L1108.8,83.3 L1110.2,83.3 L1111.7,83.3 L1113.1,83.3 L1114.5,83.3 L1116.0,83.3 L1117.4,83.3 L1118.9,83.3 L1120.3,83.3 L1125.7,83.3 L1127.6,83.3 L1128.9,83.3 L1130.3,83.3 L1131.6,83.3 L1132.9,83.3 L1134.2,83.3 L1135.5,83.3 L1136.9,83.3 L1138.2,83.3 L1139.5,83.3 L1142.1,83.3 L1143.4,83.3 L1144.7,83.3 L1146.1,83.3 L1147.4,83.3 L1148.7,83.3 L1150.0,83.3"/>
<path class="line" stroke="#e45756" d="M80.9,545.0 L82.3,545.0 L83.7,544.9 L85.1,545.0 L86.6,545.1 L88.0,545.1 L89.4,544.8 L90.8,545.1 L92.3,545.1 L93.7,544.9 L95.2,545.0 L96.6,545.0 L98.1,545.0 L99.5,545.1 L101.0,545.0 L102.4,545.1 L103.9,544.9 L105.3,545.1 L106.8,545.0 L108.2,545.0 L109.7,545.0 L111.1,544.9 L112.5,545.1 L114.0,545.0 L115.4,544.9 L116.9,545.1 L118.4,545.1 L119.9,544.8 L121.3,545.1 L122.8,545.1 L124.3,545.1 L125.7,545.1 L127.1,545.1 L128.6,545.1 L130.0,545.1 L131.5,545.1 L133.0,545.1 L134.4,545.1 L135.9,545.1 L137.3,545.1 L138.8,545.1 L140.3,545.1 L141.7,545.1 L143.2,545.1 L144.7,545.1 L146.1,545.1 L147.6,545.1 L149.0,545.0 L150.4,558.2 L151.9,599.5 L153.3,628.3 L154.8,631.3 L156.3,632.7 L157.7,631.7 L159.2,629.2 L160.7,621.0 L162.1,617.6 L163.6,615.6 L165.0,609.9 L166.5,605.2 L167.9,600.7 L169.3,597.8 L170.8,595.6 L172.2,592.6 L173.7,590.4 L175.1,589.6 L176.6,589.7 L178.0,589.9 L179.5,588.0 L180.9,586.2 L182.3,585.8 L183.8,584.5 L185.3,584.1 L186.7,583.5 L188.2,583.2 L189.6,583.3 L191.0,582.6 L192.5,583.7 L193.9,583.8 L195.3,586.0 L196.8,586.0 L198.2,584.6 L199.7,583.7 L201.1,581.9 L202.6,583.3 L204.0,583.2 L205.4,583.2 L206.9,582.7 L208.4,583.0 L209.8,582.7 L211.3,583.7 L212.8,583.2 L214.2,583.4 L215.7,584.1 L217.2,583.4 L218.6,584.3 L220.0,583.3 L221.5,582.7 L222.9,583.4 L224.4,583.0 L225.8,583.0 L227.2,583.4 L228.7,583.1 L230.2,582.9 L231.6,583.2 L233.0,583.2 L234.5,585.2 L235.9,583.5 L237.3,583.7 L238.8,583.3 L240.2,583.2 L241.7,582.7 L243.1,582.6 L244.6,582.6 L246.0,583.5 L247.4,583.0 L248.9,584.4 L250.3,583.5 L251.8,583.4 L253.3,584.6 L254.7,584.0 L256.2,583.1 L257.6,583.1 L259.1,582.9 L260.5,583.1 L262.0,583.0 L263.4,582.8 L264.9,583.0 L266.4,583.2 L267.8,582.7 L269.3,583.8 L270.7,583.6 L272.2,583.6 L273.6,584.0 L275.0,584.0 L276.5,583.2 L278.0,582.9 L279.4,582.7 L280.9,583.0 L282.3,582.9 L283.8,582.4 L285.3,583.4 L286.7,582.7 L288.2,583.7 L289.7,583.7 L291.1,585.0 L292.5,583.9 L294.0,583.6 L295.5,583.5 L297.0,583.2 L298.4,582.9 L299.9,582.8 L301.4,582.7 L302.9,582.8 L304.4,583.2 L305.8,583.5 L307.3,583.5 L308.8,583.3 L310.3,583.9 L311.7,582.9 L313.2,583.9 L314.7,583.0 L316.1,582.4 L317.6,582.6 L319.1,582.8 L320.6,583.3 L322.1,583.3 L323.5,583.5 L325.0,584.1 L326.5,584.1 L327.9,583.8 L329.4,584.9 L330.8,583.2 L332.3,583.3 L333.7,582.6 L335.2,582.6 L336.6,583.1 L338.1,582.8 L339.5,583.0 L341.0,584.1 L342.4,583.2 L343.9,583.4 L345.3,583.1 L346.8,584.0 L348.3,585.3 L349.8,584.1 L351.3,583.0 L352.7,582.4 L354.2,582.1 L355.7,583.0 L357.2,583.2 L358.6,582.8 L360.2,582.9 L361.6,583.4 L363.1,583.9 L364.6,584.1 L366.1,584.5 L367.5,585.0 L368.9,583.6 L370.4,583.6 L371.8,583.3 L373.3,582.0 L374.7,582.4 L376.2,583.4 L377.7,583.3 L379.1,584.3 L380.6,583.5 L382.1,583.0 L383.5,583.2 L385.0,583.8 L386.4,584.9 L387.9,583.5 L389.3,583.0 L390.8,582.9 L392.3,583.3 L393.7,583.1 L395.2,583.3 L396.7,583.1 L398.1,582.7 L399.6,582.9 L401.1,582.5 L402.5,584.2 L404.0,584.6 L405.5,584.0 L407.0,582.4 L408.4,583.7 L409.9,582.7 L411.4,582.2 L412.8,582.9 L414.3,583.0 L415.7,583.5 L417.2,583.7 L418.7,583.7 L420.2,583.8 L421.6,583.3 L423.1,583.6 L424.5,585.5 L426.0,583.8 L427.4,583.6 L428.9,582.6 L430.4,582.5 L431.8,582.7 L433.3,582.7 L434.8,582.8 L436.2,583.2 L437.6,583.1 L439.1,584.1 L440.5,584.4 L442.0,584.0 L443.4,582.7 L444.9,583.2 L446.3,583.0 L447.8,583.0 L449.2,583.1 L450.6,583.0 L452.1,582.6 L453.5,582.7 L455.0,583.7 L456.5,583.1 L457.9,583.0 L459.4,583.3 L460.8,583.7 L462.3,584.7 L463.8,583.2 L465.2,583.5 L466.6,582.0 L468.1,583.4 L469.6,583.7 L471.0,583.6 L472.5,583.1 L474.0,583.2 L475.5,583.5 L476.9,583.4 L478.4,583.8 L479.8,583.9 L481.3,583.9 L482.8,583.1 L484.2,582.6 L485.7,582.8 L487.1,582.8 L488.6,582.9 L490.0,583.3 L491.5,583.2 L492.9,583.1 L494.3,583.0 L495.8,583.9 L497.3,583.6 L498.7,584.7 L500.2,584.7 L501.7,583.5 L503.2,582.6 L504.6,582.7 L506.1,583.0 L507.6,583.0 L509.0,583.3 L510.5,582.8 L512.0,582.5 L513.5,583.4 L515.0,583.8 L516.4,584.3 L517.9,584.8 L519.3,584.6 L520.8,582.7 L522.3,583.5 L523.7,583.1 L525.2,583.1 L526.7,583.3 L528.1,583.2 L529.6,582.8 L531.1,583.2 L532.6,582.8 L534.0,583.4 L535.5,583.8 L537.0,585.0 L538.4,584.5 L539.9,582.9 L541.4,583.4 L542.8,582.8 L544.3,582.5 L545.8,582.8 L547.2,582.6 L548.7,583.2 L550.2,583.6 L551.7,583.4 L553.2,583.8 L554.6,583.0 L556.1,583.8 L557.6,583.5 L559.0,583.6 L560.5,582.9 L562.0,582.7 L563.5,582.8 L564.9,582.9 L566.4,583.0 L567.8,583.2 L569.3,583.5 L570.7,582.9 L572.1,583.4 L573.6,583.9 L575.1,585.0 L576.6,584.0 L578.0,583.1 L579.5,583.2 L580.9,583.5 L582.4,582.6 L583.9,583.3 L585.4,582.8 L586.9,582.7 L588.3,583.2 L589.8,582.9 L591.3,583.5 L592.7,583.8 L594.3,582.9 L595.8,582.9 L597.3,581.4 L598.7,574.1 L600.2,566.2 L601.6,558.4 L603.1,551.9 L604.5,546.9 L606.0,544.5 L607.4,533.3 L608.8,527.0 L610.3,522.1 L611.7,518.4 L613.2,515.4 L614.6,514.0 L616.1,514.0 L617.5,513.0 L619.0,511.7 L620.4,510.9 L621.9,510.1 L623.4,507.0 L624.8,507.9 L626.3,507.0 L627.8,507.2 L629.2,506.8 L630.7,506.8 L632.1,505.9 L633.6,503.5 L635.1,506.3 L636.5,505.8 L638.0,505.5 L639.4,505.6 L640.9,505.2 L642.3,506.5 L643.8,507.5 L645.3,507.4 L646.7,507.8 L648.2,507.3 L649.7,505.3 L651.2,504.1 L652.7,505.5 L654.1,508.0 L655.6,507.0 L657.1,506.7 L658.6,506.3 L660.0,506.3 L661.4,507.8 L662.9,507.4 L664.3,507.2 L665.8,507.6 L667.2,505.8 L668.6,506.2 L670.1,505.2 L671.5,504.9 L673.0,507.6 L674.4,507.4 L675.9,507.0 L677.4,506.4 L678.9,505.5 L680.3,507.2 L681.8,507.5 L683.3,507.8 L684.8,507.4 L686.3,507.2 L687.7,506.1 L689.2,504.5 L690.6,506.3 L692.0,507.5 L693.5,507.1 L694.9,506.4 L696.4,506.6 L697.8,505.4 L699.2,505.3 L700.7,507.7 L702.1,507.0 L703.6,507.1 L705.0,507.0 L706.5,506.8 L707.9,506.2 L709.3,505.0 L710.8,507.5 L712.2,507.5 L713.7,506.5 L715.2,506.9 L716.6,504.9 L718.1,506.1 L719.6,506.9 L721.0,507.4 L722.4,507.3 L723.9,507.1 L725.3,506.9 L726.8,506.2 L728.2,505.3 L729.6,508.0 L731.1,507.0 L732.6,506.6 L734.0,506.5 L735.5,505.6 L736.9,505.2 L738.4,506.4 L739.8,507.5 L741.2,507.5 L742.7,507.4 L744.1,506.0 L745.6,505.7 L747.0,506.3 L748.5,506.8 L749.9,506.9 L751.4,506.7 L752.8,506.8 L754.2,506.1 L755.7,505.6 L757.1,506.6 L758.6,507.3 L760.0,506.8 L761.5,507.3 L762.9,506.8 L764.4,505.4 L765.8,506.1 L767.2,508.1 L768.7,506.8 L770.1,506.5 L771.6,507.5 L773.0,506.3 L774.5,505.7 L776.0,505.7 L777.4,506.9 L778.9,506.8 L780.3,507.1 L781.7,507.0 L783.2,507.3 L784.6,506.3 L786.1,507.7 L787.5,506.7 L789.0,506.3 L790.4,506.3 L791.9,505.5 L793.3,505.7 L794.8,506.7 L796.2,507.2 L797.7,507.4 L799.2,506.9 L800.7,506.5 L802.1,506.3 L803.6,506.1 L805.0,507.1 L806.5,507.1 L807.9,506.8 L809.3,506.7 L810.8,507.0 L812.2,506.1 L813.7,506.3 L815.2,506.5 L816.6,507.1 L818.1,507.2 L819.6,506.5 L821.0,505.8 L822.5,505.2 L824.0,507.3 L825.4,507.5 L826.9,506.8 L828.3,506.2 L829.8,505.5 L831.2,506.2 L832.7,506.4 L834.1,508.2 L835.5,507.4 L837.0,511.8 L838.4,530.8 L839.8,513.3 L841.3,507.7 L842.7,504.3 L844.2,504.0 L845.7,503.1 L847.2,502.9 L848.6,503.6 L850.1,502.8 L851.6,503.0 L853.0,504.8 L854.5,505.8 L855.9,505.6 L857.4,505.8 L858.8,505.2 L860.3,504.9 L861.8,506.9 L863.2,506.5 L864.7,507.3 L866.1,506.8 L867.6,505.6 L869.1,505.6 L870.5,506.1 L872.0,507.2 L873.4,507.1 L874.9,507.1 L876.4,507.3 L877.9,506.1 L879.4,504.6 L880.9,507.7 L882.3,506.6 L883.8,507.0 L885.3,507.1 L886.7,505.8 L888.1,505.8 L889.6,506.4 L891.0,507.3 L892.4,507.2 L893.9,507.4 L895.3,506.7 L896.8,505.5 L898.2,506.4 L899.7,507.5 L901.1,506.6 L902.6,506.4 L904.0,506.6 L905.5,506.2 L906.9,505.5 L908.4,507.5 L909.8,507.6 L911.3,507.3 L912.8,507.2 L914.2,506.5 L915.7,506.4 L917.1,507.3 L918.5,507.3 L920.0,507.3 L921.4,506.6 L922.8,506.6 L924.3,504.9 L925.7,505.2 L927.2,506.6 L928.6,507.4 L930.1,507.4 L931.5,507.1 L933.0,506.6 L934.5,506.7 L936.0,506.1 L937.4,508.2 L938.8,506.7 L940.3,506.6 L941.8,506.9 L943.2,505.6 L944.6,505.3 L946.1,506.4 L947.5,507.4 L949.0,507.4 L950.4,507.3 L951.8,506.5 L953.3,505.4 L954.8,505.5 L956.2,507.8 L957.7,507.2 L959.1,506.9 L960.6,506.5 L962.0,506.5 L963.5,506.0 L965.0,506.5 L966.4,507.3 L967.8,506.9 L969.3,507.7 L970.7,506.6 L972.2,505.1 L973.6,505.1 L975.0,506.3 L976.5,507.6 L978.0,506.9 L979.5,507.1 L980.9,505.9 L982.4,505.1 L983.8,506.6 L985.2,507.4 L986.7,507.7 L988.2,507.9 L989.7,506.2 L991.1,506.6 L992.6,506.2 L994.1,507.6 L995.6,506.7 L997.0,506.6 L998.5,506.7 L1000.0,506.4 L1001.5,505.3 L1002.9,507.1 L1004.4,507.1 L1005.8,507.6 L1007.2,507.2 L1008.7,506.4 L1010.1,506.4 L1011.6,505.9 L1013.0,506.7 L1014.5,507.3 L1016.0,507.1 L1017.5,506.8 L1018.9,506.9 L1020.4,505.3 L1021.8,506.4 L1023.3,507.0 L1024.8,507.5 L1026.2,507.4 L1027.7,507.1 L1029.2,506.7 L1030.7,506.1 L1032.1,507.2 L1033.6,506.5 L1035.0,507.0 L1036.5,507.4 L1038.0,505.9 L1039.4,505.5 L1040.9,506.4 L1042.3,507.7 L1043.8,507.7 L1045.2,505.7 L1046.7,506.9 L1048.1,506.1 L1049.5,505.0 L1051.0,507.5 L1052.4,507.4 L1053.8,507.0 L1055.3,506.8 L1056.7,506.2 L1058.2,506.9 L1059.7,506.8 L1061.1,507.4 L1062.5,507.5 L1063.9,507.5 L1065.4,507.6 L1066.8,506.3 L1068.4,506.7 L1069.8,508.0 L1071.2,508.0 L1072.7,509.8 L1074.2,516.3 L1075.6,520.2 L1077.0,523.2 L1078.5,525.9 L1079.9,529.3 L1081.3,532.2 L1082.8,534.4 L1084.2,536.5 L1085.7,537.6 L1087.1,541.8 L1088.6,541.8 L1090.0,541.0 L1091.4,542.1 L1092.9,542.2 L1094.3,543.5 L1095.7,544.2 L1097.1,544.5 L1098.6,544.6 L1100.1,544.7 L1101.5,544.8 L1103.0,544.4 L1104.4,544.5 L1105.9,544.6 L1107.3,544.8 L1108.8,544.7 L1110.2,544.8 L1111.7,545.1 L1113.1,544.9 L1114.5,545.0 L1116.0,544.9 L1117.4,544.9 L1118.9,545.1 L1120.3,544.9 L1125.7,545.0 L1127.6,545.0 L1128.9,545.0 L1130.3,544.9 L1131.6,545.1 L1132.9,544.9 L1134.2,545.0 L1135.5,545.0 L1136.9,544.9 L1138.2,545.0 L1139.5,545.0 L1142.1,544.9 L1143.4,545.1 L1144.7,544.9 L1146.1,545.1 L1147.4,544.9 L1148.7,545.1 L1150.0,545.1"/>
<path class="line" stroke="#54a24b" d="M80.9,83.3 L82.3,83.3 L83.7,83.3 L85.1,83.3 L86.6,83.3 L88.0,83.3 L89.4,83.3 L90.8,83.3 L92.3,83.3 L93.7,83.3 L95.2,83.3 L96.6,83.3 L98.1,83.3 L99.5,83.3 L101.0,83.3 L102.4,83.3 L103.9,83.3 L105.3,83.3 L106.8,83.3 L108.2,83.3 L109.7,83.3 L111.1,83.3 L112.5,83.3 L114.0,83.3 L115.4,83.3 L116.9,83.3 L118.4,83.3 L119.9,83.3 L121.3,83.3 L122.8,83.3 L124.3,83.3 L125.7,83.3 L127.1,83.3 L128.6,83.3 L130.0,83.3 L131.5,83.3 L133.0,83.3 L134.4,83.3 L135.9,83.3 L137.3,83.3 L138.8,83.3 L140.3,83.3 L141.7,83.3 L143.2,83.3 L144.7,83.3 L146.1,83.3 L147.6,83.3 L149.0,83.3 L150.4,83.6 L151.9,84.5 L153.3,86.0 L154.8,87.5 L156.3,89.1 L157.7,90.6 L159.2,92.2 L160.7,95.1 L162.1,95.1 L163.6,97.6 L165.0,98.7 L166.5,99.7 L167.9,100.7 L169.3,101.6 L170.8,102.6 L172.2,103.4 L173.7,104.3 L175.1,105.8 L176.6,106.6 L178.0,107.3 L179.5,108.1 L180.9,108.7 L182.3,109.5 L183.8,110.2 L185.3,110.9 L186.7,111.6 L188.2,112.3 L189.6,113.7 L191.0,114.4 L192.5,115.1 L193.9,115.7 L195.3,117.1 L196.8,117.1 L198.2,117.8 L199.7,118.4 L201.1,119.8 L202.6,121.2 L204.0,121.9 L205.4,121.9 L206.9,122.6 L208.4,123.3 L209.8,124.0 L211.3,124.6 L212.8,125.3 L214.2,126.0 L215.7,126.6 L217.2,128.0 L218.6,128.6 L220.0,129.3 L221.5,130.0 L222.9,130.7 L224.4,131.4 L225.8,132.1 L227.2,132.8 L228.7,133.5 L230.2,134.2 L231.6,135.5 L233.0,136.2 L234.5,136.9 L235.9,137.5 L237.3,138.2 L238.8,138.9 L240.2,139.5 L241.7,140.2 L243.1,141.0 L244.6,141.7 L246.0,142.4 L247.4,143.7 L248.9,144.4 L250.3,145.1 L251.8,145.8 L253.3,146.4 L254.7,146.4 L256.2,147.8 L257.6,148.4 L259.1,149.1 L260.5,150.5 L262.0,151.2 L263.4,151.9 L264.9,152.6 L266.4,153.3 L267.8,154.0 L269.3,154.6 L270.7,155.3 L272.2,157.3 L273.6,158.0 L275.0,158.0 L276.5,158.7 L278.0,159.3 L279.4,160.0 L280.9,160.8 L282.3,161.5 L283.8,162.2 L285.3,162.9 L286.7,163.5 L288.2,164.8 L289.7,165.5 L291.1,166.2 L292.5,166.8 L294.0,167.5 L295.5,168.2 L297.0,168.9 L298.4,169.6 L299.9,170.3 L301.4,171.7 L302.9,172.4 L304.4,173.1 L305.8,173.7 L307.3,174.4 L308.8,175.1 L310.3,176.4 L311.7,176.4 L313.2,177.7 L314.7,178.4 L316.1,179.1 L317.6,179.8 L319.1,180.5 L320.6,181.2 L322.1,181.9 L323.5,182.6 L325.0,183.9 L326.5,184.6 L327.9,185.3 L329.4,186.0 L330.8,186.6 L332.3,187.3 L333.7,187.3 L335.2,188.7 L336.6,189.4 L338.1,190.8 L339.5,191.5 L341.0,192.1 L342.4,192.8 L343.9,193.5 L345.3,194.2 L346.8,194.8 L348.3,195.5 L349.8,196.2 L351.3,197.5 L352.7,198.2 L354.2,198.9 L355.7,199.6 L357.2,200.3 L358.6,201.0 L360.2,201.7 L361.6,202.3 L363.1,203.7 L364.6,204.3 L366.1,205.0 L367.5,205.7 L368.9,207.0 L370.4,207.0 L371.8,207.7 L373.3,208.4 L374.7,209.1 L376.2,210.5 L377.7,211.2 L379.1,211.9 L380.6,212.6 L382.1,213.2 L383.5,213.9 L385.0,214.6 L386.4,215.2 L387.9,215.9 L389.3,217.2 L390.8,217.9 L392.3,218.6 L393.7,219.3 L395.2,220.1 L396.7,220.8 L398.1,221.5 L399.6,222.2 L401.1,222.8 L402.5,224.2 L404.0,224.8 L405.5,225.5 L407.0,226.2 L408.4,226.8 L409.9,227.5 L411.4,228.2 L412.8,228.9 L414.3,230.3 L415.7,231.0 L417.2,231.7 L418.7,232.4 L420.2,233.0 L421.6,233.7 L423.1,234.4 L424.5,235.0 L426.0,235.0 L427.4,236.4 L428.9,237.7 L430.4,238.4 L431.8,239.1 L433.3,239.9 L434.8,240.6 L436.2,241.3 L437.6,241.9 L439.1,242.6 L440.5,243.9 L442.0,245.3 L443.4,245.9 L444.9,246.6 L446.3,247.3 L447.8,247.3 L449.2,247.9 L450.6,248.7 L452.1,249.4 L453.5,250.1 L455.0,251.5 L456.5,252.2 L457.9,252.8 L459.4,253.5 L460.8,254.2 L462.3,254.8 L463.8,255.5 L465.2,256.2 L466.6,257.5 L468.1,257.5 L469.6,258.9 L471.0,259.6 L472.5,260.3 L474.0,261.0 L475.5,261.7 L476.9,262.4 L478.4,263.0 L479.8,265.0 L481.3,265.0 L482.8,265.7 L484.2,266.4 L485.7,267.1 L487.1,267.8 L488.6,268.5 L490.0,269.2 L491.5,269.9 L492.9,270.6 L494.3,271.2 L495.8,272.6 L497.3,273.3 L498.7,273.9 L500.2,274.6 L501.7,275.9 L503.2,276.6 L504.6,277.2 L506.1,277.9 L507.6,277.9 L509.0,279.4 L510.5,280.1 L512.0,280.8 L513.5,281.4 L515.0,282.1 L516.4,282.8 L517.9,283.4 L519.3,284.1 L520.8,285.4 L522.3,286.1 L523.7,286.8 L525.2,287.5 L526.7,288.2 L528.1,289.0 L529.6,289.7 L531.1,290.4 L532.6,291.1 L534.0,292.4 L535.5,293.0 L537.0,293.7 L538.4,294.4 L539.9,295.0 L541.4,295.7 L542.8,296.4 L544.3,297.1 L545.8,298.5 L547.2,299.2 L548.7,299.9 L550.2,300.6 L551.7,301.2 L553.2,301.9 L554.6,302.6 L556.1,303.2 L557.6,304.6 L559.0,305.2 L560.5,305.9 L562.0,306.6 L563.5,307.3 L564.9,308.0 L566.4,308.8 L567.8,309.5 L569.3,310.2 L570.7,311.5 L572.1,312.2 L573.6,312.8 L575.1,313.5 L576.6,314.2 L578.0,314.8 L579.5,315.5 L580.9,316.2 L582.4,316.9 L583.9,318.3 L585.4,319.0 L586.9,319.7 L588.3,320.4 L589.8,321.0 L591.3,321.7 L592.7,322.3 L594.3,324.3 L595.8,324.3 L597.3,324.9 L598.7,325.4 L600.2,325.8 L601.6,326.1 L603.1,326.3 L604.5,326.3 L606.0,326.3 L607.4,326.2 L608.8,325.6 L610.3,325.3 L611.7,324.8 L613.2,323.8 L614.6,323.2 L616.1,323.2 L617.5,322.6 L619.0,322.0 L620.4,321.4 L621.9,320.8 L623.4,319.4 L624.8,318.8 L626.3,318.1 L627.8,317.4 L629.2,316.7 L630.7,316.0 L632.1,315.3 L633.6,314.6 L635.1,313.9 L636.5,312.6 L638.0,311.9 L639.4,311.2 L640.9,310.6 L642.3,309.9 L643.8,309.2 L645.3,308.5 L646.7,307.8 L648.2,307.2 L649.7,305.8 L651.2,305.1 L652.7,304.4 L654.1,303.7 L655.6,303.0 L657.1,302.4 L658.6,301.1 L660.0,301.1 L661.4,299.7 L662.9,299.0 L664.3,298.3 L665.8,297.6 L667.2,296.9 L668.6,296.2 L670.1,295.5 L671.5,294.8 L673.0,294.2 L674.4,293.5 L675.9,292.2 L677.4,291.5 L678.9,290.8 L680.3,290.1 L681.8,289.5 L683.3,288.8 L684.8,288.1 L686.3,287.4 L687.7,286.7 L689.2,285.3 L690.6,284.6 L692.0,284.0 L693.5,283.3 L694.9,282.6 L696.4,281.9 L697.8,281.3 L699.2,280.6 L700.7,279.9 L702.1,278.6 L703.6,277.9 L705.0,277.2 L706.5,276.4 L707.9,275.7 L709.3,275.0 L710.8,274.3 L712.2,273.7 L713.7,273.0 L715.2,272.4 L716.6,271.0 L718.1,270.3 L719.6,269.7 L721.0,269.0 L722.4,268.3 L723.9,267.6 L725.3,266.9 L726.8,266.2 L728.2,265.5 L729.6,264.9 L731.1,263.5 L732.6,262.9 L734.0,262.2 L735.5,261.5 L736.9,260.8 L738.4,260.1 L739.8,259.4 L741.2,258.8 L742.7,258.1 L744.1,257.4 L745.6,256.0 L747.0,255.3 L748.5,254.6 L749.9,253.9 L751.4,253.3 L752.8,252.6 L754.2,251.9 L755.7,251.3 L757.1,250.6 L758.6,249.9 L760.0,248.5 L761.5,247.8 L762.9,247.1 L764.4,246.4 L765.8,245.7 L767.2,245.0 L768.7,244.3 L770.1,243.7 L771.6,243.0 L773.0,242.4 L774.5,241.0 L776.0,240.3 L777.4,239.6 L778.9,239.0 L780.3,238.3 L781.7,237.6 L783.2,236.9 L784.6,236.2 L786.1,235.5 L787.5,234.2 L789.0,233.5 L790.4,232.8 L791.9,232.2 L793.3,231.5 L794.8,230.8 L796.2,230.1 L797.7,229.4 L799.2,228.7 L800.7,228.1 L802.1,226.7 L803.6,226.0 L805.0,225.3 L806.5,224.6 L807.9,224.0 L809.3,223.3 L810.8,222.6 L812.2,221.9 L813.7,221.2 L815.2,219.9 L816.6,219.2 L818.1,218.5 L819.6,217.8 L821.0,217.1 L822.5,216.4 L824.0,215.7 L825.4,215.1 L826.9,214.4 L828.3,213.1 L829.8,212.4 L831.2,211.7 L832.7,211.0 L834.1,210.4 L835.5,209.7 L837.0,209.0 L838.4,208.3 L839.8,207.6 L841.3,206.9 L842.7,205.5 L844.2,204.8 L845.7,204.2 L847.2,203.5 L848.6,202.8 L850.1,202.1 L851.6,201.5 L853.0,200.8 L854.5,200.1 L855.9,198.7 L857.4,198.1 L858.8,198.1 L860.3,196.7 L861.8,196.0 L863.2,195.3 L864.7,194.6 L866.1,194.0 L867.6,193.3 L869.1,191.9 L870.5,191.2 L872.0,190.6 L873.4,189.9 L874.9,189.2 L876.4,188.5 L877.9,187.8 L879.4,187.1 L880.9,186.4 L882.3,185.1 L883.8,184.4 L885.3,183.8 L886.7,183.1 L888.1,182.4 L889.6,181.7 L891.0,181.0 L892.4,180.3 L893.9,179.7 L895.3,178.3 L896.8,177.6 L898.2,177.6 L899.7,176.2 L901.1,175.5 L902.6,174.9 L904.0,174.2 L905.5,173.5 L906.9,172.8 L908.4,172.2 L909.8,170.8 L911.3,170.1 L912.8,169.4 L914.2,168.7 L915.7,168.0 L917.1,166.7 L918.5,166.0 L920.0,166.0 L921.4,164.7 L922.8,164.0 L924.3,163.3 L925.7,162.6 L927.2,161.9 L928.6,161.3 L930.1,160.6 L931.5,159.9 L933.0,159.2 L934.5,158.5 L936.0,157.8 L937.4,156.4 L938.8,155.8 L940.3,155.1 L941.8,154.4 L943.2,153.7 L944.6,153.1 L946.1,152.4 L947.5,151.7 L949.0,151.0 L950.4,150.3 L951.8,149.0 L953.3,148.3 L954.8,147.6 L956.2,146.9 L957.7,145.5 L959.1,144.9 L960.6,144.2 L962.0,144.2 L963.5,143.5 L965.0,143.5 L966.4,141.5 L967.8,140.8 L969.3,140.1 L970.7,139.4 L972.2,138.0 L973.6,138.0 L975.0,137.3 L976.5,136.6 L978.0,136.0 L979.5,134.6 L980.9,134.0 L982.4,133.3 L983.8,132.6 L985.2,131.9 L986.7,131.2 L988.2,130.6 L989.7,129.9 L991.1,129.9 L992.6,128.5 L994.1,127.1 L995.6,126.5 L997.0,125.8 L998.5,125.1 L1000.0,124.5 L1001.5,123.8 L1002.9,121.7 L1004.4,121.7 L1005.8,121.1 L1007.2,120.4 L1008.7,119.7 L1010.1,118.9 L1011.6,118.2 L1013.0,117.6 L1014.5,116.9 L1016.0,116.2 L1017.5,115.5 L1018.9,114.2 L1020.4,113.5 L1021.8,112.8 L1023.3,112.2 L1024.8,111.5 L1026.2,110.8 L1027.7,110.1 L1029.2,109.4 L1030.7,108.7 L1032.1,107.3 L1033.6,106.7 L1035.0,106.0 L1036.5,105.3 L1038.0,104.7 L1039.4,104.0 L1040.9,103.3 L1042.3,102.6 L1043.8,101.3 L1045.2,100.6 L1046.7,99.9 L1048.1,99.2 L1049.5,98.5 L1051.0,97.8 L1052.4,97.1 L1053.8,96.4 L1055.3,95.8 L1056.7,95.1 L1058.2,93.1 L1059.7,92.4 L1061.1,91.7 L1062.5,91.0 L1063.9,91.0 L1065.4,90.3 L1066.8,89.6 L1068.4,88.2 L1069.8,87.5 L1071.2,87.5 L1072.7,86.9 L1074.2,85.9 L1075.6,85.5 L1077.0,85.1 L1078.5,84.8 L1079.9,84.5 L1081.3,84.3 L1082.8,84.1 L1084.2,84.0 L1085.7,83.8 L1087.1,83.7 L1088.6,83.6 L1090.0,83.5 L1091.4,83.5 L1092.9,83.4 L1094.3,83.4 L1095.7,83.4 L1097.1,83.3 L1098.6,83.3 L1100.1,83.3 L1101.5,83.3 L1103.0,83.3 L1104.4,83.3 L1105.9,83.3 L1107.3,83.3 L1108.8,83.3 L1110.2,83.3 L1111.7,83.3 L1113.1,83.3 L1114.5,83.3 L1116.0,83.3 L1117.4,83.3 L1118.9,83.3 L1120.3,83.3 L1125.7,83.3 L1127.6,83.3 L1128.9,83.3 L1130.3,83.3 L1131.6,83.3 L1132.9,83.3 L1134.2,83.3 L1135.5,83.3 L1136.9,83.3 L1138.2,83.3 L1139.5,83.3 L1142.1,83.3 L1143.4,83.3 L1144.7,83.3 L1146.1,83.3 L1147.4,83.3 L1148.7,83.3 L1150.0,83.3"/>
<path class="line" stroke="#54a24b" d="M80.9,545.1 L82.3,545.0 L83.7,545.0 L85.1,544.9 L86.6,545.0 L88.0,545.0 L89.4,545.0 L90.8,544.9 L92.3,545.0 L93.7,545.0 L95.2,545.0 L96.6,544.9 L98.1,545.1 L99.5,545.0 L101.0,545.0 L102.4,545.1 L103.9,544.9 L105.3,545.0 L106.8,545.0 L108.2,545.0 L109.7,545.0 L111.1,545.0 L112.5,545.0 L114.0,545.0 L115.4,545.1 L116.9,545.0 L118.4,545.0 L119.9,544.9 L121.3,545.1 L122.8,545.1 L124.3,545.1 L125.7,545.1 L127.1,545.1 L128.6,545.1 L130.0,545.1 L131.5,545.1 L133.0,545.1 L134.4,545.1 L135.9,545.1 L137.3,545.1 L138.8,545.1 L140.3,545.1 L141.7,545.1 L143.2,545.1 L144.7,545.1 L146.1,545.1 L147.6,545.1 L149.0,545.0 L150.4,561.5 L151.9,599.2 L153.3,627.2 L154.8,627.2 L156.3,631.7 L157.7,631.4 L159.2,634.1 L160.7,624.9 L162.1,624.9 L163.6,612.0 L165.0,606.2 L166.5,601.5 L167.9,600.0 L169.3,598.7 L170.8,597.5 L172.2,594.4 L173.7,592.2 L175.1,589.1 L176.6,587.4 L178.0,586.6 L179.5,585.6 L180.9,584.3 L182.3,584.6 L183.8,584.4 L185.3,584.8 L186.7,585.3 L188.2,585.3 L189.6,584.1 L191.0,583.1 L192.5,583.0 L193.9,583.5 L195.3,583.5 L196.8,583.5 L198.2,582.7 L199.7,582.6 L201.1,583.4 L202.6,584.6 L204.0,585.3 L205.4,585.3 L206.9,584.5 L208.4,584.1 L209.8,582.6 L211.3,582.2 L212.8,582.2 L214.2,582.4 L215.7,582.7 L217.2,582.8 L218.6,582.7 L220.0,583.0 L221.5,583.6 L222.9,584.7 L224.4,585.4 L225.8,584.8 L227.2,584.5 L228.7,583.1 L230.2,582.8 L231.6,582.9 L233.0,583.1 L234.5,583.1 L235.9,582.5 L237.3,582.0 L238.8,582.7 L240.2,582.9 L241.7,584.1 L243.1,584.9 L244.6,584.9 L246.0,584.4 L247.4,583.3 L248.9,582.6 L250.3,582.9 L251.8,582.8 L253.3,583.4 L254.7,583.4 L256.2,582.4 L257.6,582.4 L259.1,582.8 L260.5,584.3 L262.0,585.3 L263.4,584.6 L264.9,584.0 L266.4,583.2 L267.8,582.7 L269.3,582.4 L270.7,582.7 L272.2,582.7 L273.6,582.6 L275.0,582.6 L276.5,583.0 L278.0,583.9 L279.4,584.6 L280.9,585.3 L282.3,585.0 L283.8,584.2 L285.3,583.1 L286.7,582.2 L288.2,582.5 L289.7,582.8 L291.1,582.9 L292.5,582.4 L294.0,582.7 L295.5,583.0 L297.0,583.3 L298.4,583.9 L299.9,584.8 L301.4,584.7 L302.9,584.2 L304.4,583.4 L305.8,581.9 L307.3,582.8 L308.8,582.6 L310.3,582.6 L311.7,582.6 L313.2,582.5 L314.7,582.7 L316.1,583.6 L317.6,584.6 L319.1,585.0 L320.6,585.0 L322.1,583.9 L323.5,583.5 L325.0,582.6 L326.5,582.5 L327.9,583.3 L329.4,583.2 L330.8,582.4 L332.3,582.6 L333.7,582.6 L335.2,583.2 L336.6,584.2 L338.1,584.8 L339.5,584.4 L341.0,583.7 L342.4,583.0 L343.9,582.5 L345.3,582.7 L346.8,583.0 L348.3,582.5 L349.8,582.6 L351.3,582.4 L352.7,583.1 L354.2,583.7 L355.7,584.2 L357.2,585.2 L358.6,584.7 L360.2,584.2 L361.6,582.8 L363.1,582.1 L364.6,582.6 L366.1,583.1 L367.5,583.4 L368.9,582.6 L370.4,582.6 L371.8,583.0 L373.3,583.5 L374.7,584.5 L376.2,585.2 L377.7,584.3 L379.1,583.6 L380.6,582.7 L382.1,582.1 L383.5,582.3 L385.0,582.5 L386.4,582.8 L387.9,582.7 L389.3,582.7 L390.8,584.1 L392.3,584.2 L393.7,584.8 L395.2,585.9 L396.7,584.7 L398.1,584.0 L399.6,583.6 L401.1,581.9 L402.5,582.7 L404.0,583.2 L405.5,582.9 L407.0,582.7 L408.4,582.7 L409.9,583.1 L411.4,583.7 L412.8,584.0 L414.3,584.8 L415.7,584.4 L417.2,583.7 L418.7,582.2 L420.2,581.7 L421.6,582.3 L423.1,582.9 L424.5,583.0 L426.0,583.0 L427.4,582.9 L428.9,583.4 L430.4,584.3 L431.8,584.9 L433.3,586.0 L434.8,584.1 L436.2,583.7 L437.6,582.8 L439.1,582.0 L440.5,582.6 L442.0,582.5 L443.4,582.5 L444.9,582.2 L446.3,582.8 L447.8,582.8 L449.2,583.8 L450.6,585.6 L452.1,586.2 L453.5,585.1 L455.0,583.3 L456.5,582.1 L457.9,582.6 L459.4,582.6 L460.8,582.3 L462.3,582.5 L463.8,582.6 L465.2,582.3 L466.6,582.6 L468.1,582.6 L469.6,585.3 L471.0,586.4 L472.5,584.8 L474.0,584.4 L475.5,583.6 L476.9,582.0 L478.4,582.0 L479.8,583.8 L481.3,583.8 L482.8,583.7 L484.2,582.4 L485.7,582.3 L487.1,584.1 L488.6,585.9 L490.0,585.4 L491.5,583.5 L492.9,582.7 L494.3,583.4 L495.8,583.1 L497.3,583.2 L498.7,582.8 L500.2,582.8 L501.7,581.5 L503.2,582.1 L504.6,583.0 L506.1,584.1 L507.6,584.1 L509.0,585.8 L510.5,583.4 L512.0,584.0 L513.5,583.0 L515.0,582.4 L516.4,582.8 L517.9,582.6 L519.3,582.8 L520.8,582.7 L522.3,582.8 L523.7,583.6 L525.2,584.4 L526.7,585.9 L528.1,587.2 L529.6,585.0 L531.1,583.7 L532.6,583.0 L534.0,582.4 L535.5,582.2 L537.0,582.5 L538.4,582.5 L539.9,582.4 L541.4,582.9 L542.8,582.8 L544.3,583.2 L545.8,585.6 L547.2,586.0 L548.7,583.9 L550.2,582.8 L551.7,581.6 L553.2,582.3 L554.6,582.9 L556.1,583.2 L557.6,582.5 L559.0,582.1 L560.5,582.6 L562.0,584.1 L563.5,584.7 L564.9,585.7 L566.4,586.2 L567.8,583.4 L569.3,585.1 L570.7,582.4 L572.1,582.4 L573.6,582.4 L575.1,582.6 L576.6,582.5 L578.0,582.2 L579.5,582.3 L580.9,583.1 L582.4,583.6 L583.9,585.4 L585.4,584.4 L586.9,583.7 L588.3,582.8 L589.8,581.6 L591.3,581.8 L592.7,582.3 L594.3,582.2 L595.8,582.2 L597.3,579.2 L598.7,574.2 L600.2,567.9 L601.6,560.8 L603.1,553.8 L604.5,547.3 L606.0,544.5 L607.4,539.5 L608.8,526.3 L610.3,523.6 L611.7,519.8 L613.2,514.5 L614.6,513.0 L616.1,513.0 L617.5,512.7 L619.0,511.6 L620.4,511.0 L621.9,509.7 L623.4,506.3 L624.8,506.6 L626.3,506.0 L627.8,506.5 L629.2,506.2 L630.7,505.5 L632.1,506.0 L633.6,506.2 L635.1,506.9 L636.5,507.7 L638.0,507.4 L639.4,507.5 L640.9,507.1 L642.3,506.2 L643.8,506.6 L645.3,506.7 L646.7,506.7 L648.2,506.9 L649.7,506.0 L651.2,505.5 L652.7,506.4 L654.1,507.0 L655.6,507.6 L657.1,507.6 L658.6,507.5 L660.0,507.5 L661.4,505.9 L662.9,506.7 L664.3,506.5 L665.8,506.0 L667.2,506.3 L668.6,505.8 L670.1,505.5 L671.5,506.4 L673.0,507.1 L674.4,507.8 L675.9,507.5 L677.4,507.4 L678.9,506.8 L680.3,506.0 L681.8,507.0 L683.3,506.5 L684.8,506.7 L686.3,506.3 L687.7,505.7 L689.2,505.5 L690.6,506.2 L692.0,507.4 L693.5,507.6 L694.9,507.5 L696.4,507.1 L697.8,507.3 L699.2,506.5 L700.7,506.8 L702.1,507.0 L703.6,505.4 L705.0,505.2 L706.5,504.7 L707.9,504.6 L709.3,505.5 L710.8,506.6 L712.2,508.1 L713.7,507.9 L715.2,507.8 L716.6,506.8 L718.1,506.4 L719.6,507.5 L721.0,506.3 L722.4,507.3 L723.9,507.3 L725.3,506.6 L726.8,505.7 L728.2,505.3 L729.6,506.9 L731.1,507.7 L732.6,507.5 L734.0,507.2 L735.5,507.3 L736.9,505.3 L738.4,506.6 L739.8,506.7 L741.2,506.3 L742.7,506.5 L744.1,505.8 L745.6,506.4 L747.0,505.8 L748.5,506.8 L749.9,507.0 L751.4,507.8 L752.8,508.0 L754.2,508.0 L755.7,506.8 L757.1,506.5 L758.6,507.2 L760.0,505.4 L761.5,505.9 L762.9,505.6 L764.4,505.5 L765.8,505.6 L767.2,506.2 L768.7,507.3 L770.1,508.0 L771.6,507.8 L773.0,507.5 L774.5,506.2 L776.0,506.9 L777.4,507.2 L778.9,507.1 L780.3,506.5 L781.7,506.2 L783.2,505.7 L784.6,505.9 L786.1,506.3 L787.5,507.3 L789.0,507.6 L790.4,507.2 L791.9,506.9 L793.3,506.3 L794.8,506.6 L796.2,507.0 L797.7,506.4 L799.2,506.6 L800.7,506.6 L802.1,505.9 L803.6,506.2 L805.0,506.2 L806.5,507.4 L807.9,507.6 L809.3,507.7 L810.8,507.2 L812.2,506.6 L813.7,506.6 L815.2,506.5 L816.6,506.1 L818.1,506.0 L819.6,505.9 L821.0,505.9 L822.5,506.3 L824.0,507.0 L825.4,508.0 L826.9,508.0 L828.3,507.5 L829.8,506.8 L831.2,506.2 L832.7,506.4 L834.1,506.4 L835.5,506.2 L837.0,506.0 L838.4,505.6 L839.8,505.4 L841.3,506.1 L842.7,506.3 L844.2,507.1 L845.7,507.3 L847.2,507.5 L848.6,507.4 L850.1,506.4 L851.6,507.2 L853.0,507.4 L854.5,506.9 L855.9,506.0 L857.4,506.2 L858.8,506.2 L860.3,505.9 L861.8,506.4 L863.2,507.3 L864.7,507.6 L866.1,507.3 L867.6,507.4 L869.1,507.0 L870.5,506.9 L872.0,506.7 L873.4,506.5 L874.9,506.1 L876.4,506.6 L877.9,506.2 L879.4,506.1 L880.9,506.7 L882.3,507.4 L883.8,507.5 L885.3,507.5 L886.7,507.0 L888.1,506.2 L889.6,506.5 L891.0,506.7 L892.4,506.4 L893.9,506.1 L895.3,505.8 L896.8,505.6 L898.2,505.6 L899.7,506.3 L901.1,507.3 L902.6,507.9 L904.0,507.8 L905.5,507.3 L906.9,506.9 L908.4,506.5 L909.8,506.3 L911.3,506.1 L912.8,506.3 L914.2,506.1 L915.7,505.8 L917.1,506.4 L918.5,507.1 L920.0,507.1 L921.4,507.9 L922.8,507.9 L924.3,506.9 L925.7,506.2 L927.2,507.0 L928.6,507.0 L930.1,506.3 L931.5,506.2 L933.0,506.0 L934.5,505.8 L936.0,506.2 L937.4,506.6 L938.8,507.1 L940.3,507.5 L941.8,507.8 L943.2,506.9 L944.6,506.3 L946.1,506.8 L947.5,506.7 L949.0,507.2 L950.4,506.6 L951.8,506.5 L953.3,505.8 L954.8,506.3 L956.2,506.4 L957.7,507.5 L959.1,507.5 L960.6,507.1 L962.0,507.1 L963.5,506.8 L965.0,506.8 L966.4,506.7 L967.8,506.1 L969.3,505.9 L970.7,505.7 L972.2,505.9 L973.6,505.9 L975.0,506.5 L976.5,507.0 L978.0,507.8 L979.5,507.7 L980.9,507.0 L982.4,506.5 L983.8,506.4 L985.2,506.8 L986.7,506.6 L988.2,506.5 L989.7,506.5 L991.1,506.5 L992.6,506.2 L994.1,506.5 L995.6,507.4 L997.0,507.3 L998.5,507.6 L1000.0,507.7 L1001.5,506.4 L1002.9,506.9 L1004.4,506.9 L1005.8,506.7 L1007.2,506.4 L1008.7,505.5 L1010.1,504.9 L1011.6,505.5 L1013.0,505.9 L1014.5,506.7 L1016.0,507.5 L1017.5,507.8 L1018.9,507.1 L1020.4,506.3 L1021.8,506.7 L1023.3,507.1 L1024.8,506.8 L1026.2,506.5 L1027.7,505.7 L1029.2,506.4 L1030.7,506.4 L1032.1,506.5 L1033.6,507.1 L1035.0,507.8 L1036.5,507.8 L1038.0,507.2 L1039.4,506.0 L1040.9,506.3 L1042.3,507.3 L1043.8,506.3 L1045.2,506.1 L1046.7,505.5 L1048.1,505.7 L1049.5,505.9 L1051.0,506.6 L1052.4,506.7 L1053.8,507.8 L1055.3,507.7 L1056.7,508.0 L1058.2,506.8 L1059.7,506.6 L1061.1,506.6 L1062.5,506.2 L1063.9,506.2 L1065.4,506.1 L1066.8,506.2 L1068.4,505.6 L1069.8,506.9 L1071.2,506.9 L1072.7,511.0 L1074.2,517.3 L1075.6,520.0 L1077.0,523.9 L1078.5,527.3 L1079.9,530.5 L1081.3,532.7 L1082.8,532.7 L1084.2,536.4 L1085.7,538.6 L1087.1,539.2 L1088.6,540.8 L1090.0,541.7 L1091.4,542.6 L1092.9,542.6 L1094.3,542.9 L1095.7,543.7 L1097.1,543.9 L1098.6,543.8 L1100.1,544.3 L1101.5,544.7 L1103.0,544.7 L1104.4,544.7 L1105.9,544.8 L1107.3,544.7 L1108.8,544.9 L1110.2,544.9 L1111.7,544.9 L1113.1,544.9 L1114.5,544.9 L1116.0,545.1 L1117.4,545.0 L1118.9,544.9 L1120.3,545.0 L1125.7,544.9 L1127.6,545.1 L1128.9,545.0 L1130.3,545.0 L1131.6,545.0 L1132.9,544.9 L1134.2,545.2 L1135.5,544.8 L1136.9,544.8 L1138.2,545.1 L1139.5,545.1 L1142.1,545.0 L1143.4,545.1 L1144.7,545.1 L1146.1,544.9 L1147.4,545.0 L1148.7,545.0 L1150.0,545.0"/>
<path class="line" stroke="#f58518" d="M78.0,83.3 L79.4,83.3 L80.9,83.2 L82.3,83.2 L83.7,83.2 L85.1,83.2 L86.6,83.2 L88.0,83.2 L89.4,83.2 L90.8,83.2 L92.3,83.2 L93.7,83.2 L95.2,83.2 L96.6,83.2 L98.1,83.2 L99.5,83.2 L101.0,83.2 L102.4,83.2 L103.9,83.2 L105.3,83.2 L106.8,83.2 L108.2,83.2 L109.7,83.2 L111.1,83.2 L112.5,83.2 L114.0,83.2 L115.4,83.2 L116.9,83.2 L118.4,83.2 L119.9,83.2 L121.3,83.2 L122.8,83.2 L124.3,83.2 L125.7,83.2 L127.1,83.2 L128.6,83.2 L130.0,83.2 L131.5,83.2 L133.0,83.2 L134.4,83.2 L135.9,83.2 L137.3,83.2 L138.8,83.2 L140.3,83.2 L141.7,83.2 L143.2,83.2 L144.7,83.2 L146.1,83.2 L147.6,83.2 L149.0,83.2 L150.4,83.5 L151.9,84.4 L153.3,85.8 L154.8,87.4 L156.3,89.0 L157.7,90.5 L159.2,92.0 L160.7,94.9 L162.1,96.2 L163.6,97.4 L165.0,98.6 L166.5,99.6 L167.9,100.6 L169.3,101.5 L170.8,102.5 L172.2,103.3 L173.7,104.2 L175.1,105.8 L176.6,106.6 L178.0,107.3 L179.5,108.1 L180.9,108.8 L182.3,109.5 L183.8,110.1 L185.3,110.8 L186.7,111.5 L188.2,112.3 L189.6,113.7 L191.0,114.4 L192.5,115.0 L193.9,115.7 L195.3,117.1 L196.8,117.1 L198.2,117.8 L199.7,118.5 L201.1,119.8 L202.6,121.2 L204.0,121.9 L205.4,121.9 L206.9,122.6 L208.4,123.3 L209.8,123.9 L211.3,124.6 L212.8,125.3 L214.2,126.0 L215.7,126.6 L217.2,128.0 L218.6,128.7 L220.0,129.3 L221.5,130.0 L222.9,130.7 L224.4,131.4 L225.8,132.1 L227.2,132.8 L228.7,133.5 L230.2,134.2 L231.6,135.5 L233.0,136.2 L234.5,136.9 L235.9,137.6 L237.3,138.2 L238.8,138.9 L240.2,139.6 L241.7,140.2 L243.1,140.9 L244.6,141.7 L246.0,142.3 L247.4,143.7 L248.9,144.4 L250.3,145.1 L251.8,145.8 L253.3,146.5 L254.7,147.1 L256.2,147.8 L257.6,148.5 L259.1,149.1 L260.5,150.5 L262.0,151.2 L263.4,151.9 L264.9,152.6 L266.4,153.3 L267.8,153.9 L269.3,154.6 L270.7,155.3 L272.2,157.3 L273.6,158.0 L275.0,158.0 L276.5,158.7 L278.0,159.4 L279.4,160.0 L280.9,160.7 L282.3,161.5 L283.8,162.1 L285.3,162.8 L286.7,163.5 L288.2,164.8 L289.7,165.5 L291.1,166.2 L292.5,166.9 L294.0,167.5 L295.5,168.2 L297.0,168.9 L298.4,169.6 L299.9,170.2 L301.4,171.7 L302.9,172.3 L304.4,173.0 L305.8,173.7 L307.3,174.4 L308.8,175.1 L310.3,176.4 L311.7,176.4 L313.2,177.8 L314.7,178.4 L316.1,179.1 L317.6,179.8 L319.1,180.5 L320.6,181.2 L322.1,181.9 L323.5,182.5 L325.0,183.9 L326.5,184.6 L327.9,185.3 L329.4,186.0 L330.8,186.7 L332.3,187.3 L333.7,188.0 L335.2,188.7 L336.6,189.3 L338.1,190.7 L339.5,191.4 L341.0,192.1 L342.4,192.8 L343.9,193.5 L345.3,194.2 L346.8,194.2 L348.3,195.5 L349.8,196.2 L351.3,196.9 L352.7,198.2 L354.2,198.9 L355.7,199.6 L357.2,200.3 L358.6,201.0 L360.2,201.7 L361.6,202.3 L363.1,203.7 L364.6,204.4 L366.1,205.1 L367.5,205.7 L368.9,207.1 L370.4,207.1 L371.8,207.8 L373.3,208.4 L374.7,209.1 L376.2,210.5 L377.7,211.2 L379.1,211.9 L380.6,212.6 L382.1,213.3 L383.5,213.9 L385.0,214.6 L386.4,215.3 L387.9,216.0 L389.3,217.3 L390.8,218.0 L392.3,218.7 L393.7,219.3 L395.2,220.1 L396.7,220.8 L398.1,221.4 L399.6,222.1 L401.1,222.8 L402.5,224.1 L404.0,224.8 L405.5,225.5 L407.0,226.2 L408.4,226.8 L409.9,227.5 L411.4,228.2 L412.8,228.9 L414.3,230.3 L415.7,231.0 L417.2,231.7 L418.7,232.3 L420.2,233.0 L421.6,233.7 L423.1,234.4 L424.5,235.1 L426.0,235.7 L427.4,237.1 L428.9,237.8 L430.4,238.4 L431.8,239.1 L433.3,239.9 L434.8,240.6 L436.2,241.2 L437.6,241.9 L439.1,242.6 L440.5,243.9 L442.0,245.3 L443.4,246.0 L444.9,246.7 L446.3,247.3 L447.8,247.3 L449.2,248.0 L450.6,248.7 L452.1,249.4 L453.5,250.1 L455.0,251.4 L456.5,252.1 L457.9,252.8 L459.4,253.5 L460.8,254.2 L462.3,254.8 L463.8,255.5 L465.2,256.2 L466.6,257.5 L468.1,257.5 L469.6,258.9 L471.0,259.6 L472.5,260.3 L474.0,261.0 L475.5,261.7 L476.9,262.3 L478.4,263.0 L479.8,265.0 L481.3,265.0 L482.8,265.7 L484.2,266.4 L485.7,267.1 L487.1,267.7 L488.6,268.4 L490.0,269.2 L491.5,269.9 L492.9,270.5 L494.3,271.2 L495.8,272.6 L497.3,273.3 L498.7,273.9 L500.2,274.6 L501.7,276.0 L503.2,276.6 L504.6,277.3 L506.1,278.0 L507.6,278.0 L509.0,279.4 L510.5,280.1 L512.0,280.8 L513.5,281.4 L515.0,282.1 L516.4,282.8 L517.9,282.8 L519.3,284.1 L520.8,285.5 L522.3,286.2 L523.7,286.8 L525.2,287.5 L526.7,288.2 L528.1,288.9 L529.6,289.6 L531.1,290.3 L532.6,291.0 L534.0,292.3 L535.5,293.0 L537.0,293.7 L538.4,294.4 L539.9,295.1 L541.4,295.7 L542.8,296.4 L544.3,297.1 L545.8,298.4 L547.2,299.2 L548.7,299.8 L550.2,300.5 L551.7,301.2 L553.2,301.9 L554.6,302.6 L556.1,303.2 L557.6,304.6 L559.0,305.3 L560.5,306.0 L562.0,306.6 L563.5,307.3 L564.9,308.0 L566.4,308.7 L567.8,309.4 L569.3,310.1 L570.7,311.4 L572.1,312.1 L573.6,312.8 L575.1,313.5 L576.6,314.2 L578.0,314.8 L579.5,315.5 L580.9,316.2 L582.4,316.9 L583.9,318.3 L585.4,319.0 L586.9,319.6 L588.3,320.3 L589.8,321.0 L591.3,321.7 L592.7,322.4 L594.3,324.4 L595.8,324.4 L597.3,325.0 L598.7,325.5 L600.2,325.9 L601.6,326.2 L603.1,326.3 L604.5,326.3 L606.0,326.3 L607.4,326.3 L608.8,326.1 L610.3,325.4 L611.7,324.9 L613.2,323.8 L614.6,323.3 L616.1,323.3 L617.5,322.7 L619.0,322.0 L620.4,321.4 L621.9,320.8 L623.4,319.5 L624.8,318.9 L626.3,318.2 L627.8,317.5 L629.2,316.9 L630.7,316.2 L632.1,315.5 L633.6,314.8 L635.1,314.2 L636.5,312.7 L638.0,312.0 L639.4,311.3 L640.9,310.6 L642.3,309.9 L643.8,309.2 L645.3,308.5 L646.7,307.8 L648.2,307.1 L649.7,305.8 L651.2,305.2 L652.7,304.5 L654.1,303.9 L655.6,303.2 L657.1,302.4 L658.6,301.0 L660.0,301.0 L661.4,299.6 L662.9,298.9 L664.3,298.2 L665.8,297.5 L667.2,296.9 L668.6,296.2 L670.1,295.6 L671.5,294.9 L673.0,294.3 L674.4,293.6 L675.9,292.2 L677.4,291.5 L678.9,290.8 L680.3,290.1 L681.8,289.4 L683.3,288.7 L684.8,288.0 L686.3,287.3 L687.7,286.0 L689.2,285.4 L690.6,284.7 L692.0,284.1 L693.5,283.3 L694.9,282.6 L696.4,281.9 L697.8,281.2 L699.2,280.5 L700.7,279.8 L702.1,278.4 L703.6,277.8 L705.0,277.1 L706.5,276.5 L707.9,275.8 L709.3,275.1 L710.8,274.5 L712.2,273.8 L713.7,273.1 L715.2,272.4 L716.6,271.0 L718.1,270.3 L719.6,269.6 L721.0,268.9 L722.4,268.2 L723.9,267.6 L725.3,266.9 L726.8,266.3 L728.2,265.6 L729.6,265.0 L731.1,263.6 L732.6,262.9 L734.0,262.2 L735.5,261.5 L736.9,260.8 L738.4,260.0 L739.8,259.4 L741.2,258.7 L742.7,258.0 L744.1,257.4 L745.6,256.0 L747.0,255.4 L748.5,254.7 L749.9,254.0 L751.4,253.3 L752.8,252.6 L754.2,251.9 L755.7,251.3 L757.1,250.5 L758.6,249.8 L760.0,248.4 L761.5,247.8 L762.9,247.1 L764.4,246.5 L765.8,245.8 L767.2,245.2 L768.7,244.5 L770.1,243.8 L771.6,243.0 L773.0,242.4 L774.5,241.0 L776.0,240.3 L777.4,239.6 L778.9,238.9 L780.3,238.2 L781.7,237.6 L783.2,236.9 L784.6,236.2 L786.1,235.6 L787.5,234.2 L789.0,233.5 L790.4,232.8 L791.9,232.1 L793.3,231.4 L794.8,230.7 L796.2,230.0 L797.7,229.3 L799.2,228.7 L800.7,228.0 L802.1,226.7 L803.6,226.1 L805.0,225.4 L806.5,224.7 L807.9,224.0 L809.3,223.3 L810.8,222.6 L812.2,221.9 L813.7,221.2 L815.2,219.8 L816.6,219.1 L818.1,218.4 L819.6,217.8 L821.0,217.1 L822.5,216.5 L824.0,215.8 L825.4,215.2 L826.9,214.5 L828.3,213.1 L829.8,212.4 L831.2,211.7 L832.7,211.0 L834.1,210.3 L835.5,209.6 L837.0,208.9 L838.4,208.3 L839.8,207.7 L841.3,207.0 L842.7,205.7 L844.2,205.0 L845.7,204.2 L847.2,203.5 L848.6,202.8 L850.1,202.2 L851.6,201.4 L853.0,200.8 L854.5,200.1 L855.9,198.7 L857.4,198.1 L858.8,197.4 L860.3,196.8 L861.8,196.1 L863.2,195.4 L864.7,194.7 L866.1,194.0 L867.6,193.3 L869.1,191.9 L870.5,191.2 L872.0,190.5 L873.4,189.8 L874.9,189.1 L876.4,188.5 L877.9,187.8 L879.4,187.2 L880.9,186.5 L882.3,185.2 L883.8,184.4 L885.3,184.4 L886.7,183.1 L888.1,182.4 L889.6,181.6 L891.0,181.0 L892.4,180.3 L893.9,179.6 L895.3,178.8 L896.8,178.2 L898.2,177.5 L899.7,176.8 L901.1,176.1 L902.6,175.4 L904.0,174.6 L905.5,173.8 L906.9,173.1 L908.4,172.4 L909.8,170.9 L911.3,170.2 L912.8,169.5 L914.2,168.8 L915.7,168.1 L917.1,166.8 L918.5,166.1 L920.0,166.1 L921.4,164.7 L922.8,164.7 L924.3,164.0 L925.7,162.6 L927.2,161.9 L928.6,161.2 L930.1,160.5 L931.5,159.8 L933.0,159.2 L934.5,158.5 L936.0,157.9 L937.4,157.2 L938.8,155.9 L940.3,155.1 L941.8,154.4 L943.2,153.7 L944.6,153.0 L946.1,152.3 L947.5,151.6 L949.0,150.9 L950.4,150.2 L951.8,148.9 L953.3,148.3 L954.8,147.6 L956.2,147.0 L957.7,145.6 L959.1,144.9 L960.6,144.2 L962.0,144.2 L963.5,143.5 L965.0,142.8 L966.4,141.4 L967.8,140.7 L969.3,140.0 L970.7,139.4 L972.2,138.0 L973.6,138.0 L975.0,137.4 L976.5,136.7 L978.0,136.1 L979.5,134.7 L980.9,134.0 L982.4,133.3 L983.8,132.6 L985.2,131.9 L986.7,131.2 L988.2,130.5 L989.7,129.8 L991.1,129.2 L992.6,127.9 L994.1,127.2 L995.6,126.5 L997.0,125.8 L998.5,125.1 L1000.0,124.4 L1001.5,123.7 L1002.9,121.6 L1004.4,121.6 L1005.8,120.9 L1007.2,120.3 L1008.7,119.6 L1010.1,119.0 L1011.6,118.3 L1013.0,117.7 L1014.5,117.0 L1016.0,116.3 L1017.5,115.6 L1018.9,114.2 L1020.4,113.5 L1021.8,112.8 L1023.3,112.1 L1024.8,111.4 L1026.2,110.7 L1027.7,110.0 L1029.2,109.4 L1030.7,108.7 L1032.1,107.5 L1033.6,106.8 L1035.0,106.1 L1036.5,105.4 L1038.0,104.7 L1039.4,104.0 L1040.9,103.2 L1042.3,102.6 L1043.8,101.2 L1045.2,100.5 L1046.7,99.8 L1048.1,99.2 L1049.5,98.5 L1051.0,97.9 L1052.4,97.2 L1053.8,96.5 L1055.3,95.8 L1056.7,95.1 L1058.2,93.0 L1059.7,92.3 L1061.1,91.6 L1062.5,90.9 L1063.9,90.9 L1065.4,90.3 L1066.8,89.6 L1068.4,88.3 L1069.8,87.7 L1071.2,87.7 L1072.7,87.0 L1074.2,85.9 L1075.6,85.5 L1077.0,85.1 L1078.5,84.8 L1079.9,84.5 L1081.3,84.2 L1082.8,84.0 L1084.2,83.9 L1085.7,83.7 L1087.1,83.6 L1088.6,83.5 L1090.0,83.4 L1091.4,83.4 L1092.9,83.4 L1094.3,83.4 L1095.7,83.4 L1097.1,83.3 L1098.6,83.3 L1100.1,83.3 L1101.5,83.3 L1103.0,83.3 L1104.4,83.3 L1105.9,83.3 L1107.3,83.3 L1108.8,83.3 L1110.2,83.3 L1111.7,83.3 L1113.1,83.3 L1114.5,83.3 L1116.0,83.3 L1117.4,83.3 L1118.9,83.3 L1120.3,83.3 L1125.7,83.3 L1127.6,83.3 L1128.9,83.3 L1130.3,83.3 L1131.6,83.3 L1132.9,83.3 L1134.2,83.3 L1135.5,83.3 L1136.9,83.3 L1138.2,83.3 L1139.5,83.3 L1142.1,83.3 L1143.4,83.3 L1144.7,83.3 L1146.1,83.3 L1147.4,83.3 L1148.7,83.3 L1150.0,83.3"/>
<path class="line" stroke="#f58518" d="M79.4,545.2 L80.9,544.9 L82.3,545.1 L83.7,545.1 L85.1,544.9 L86.6,545.1 L88.0,545.1 L89.4,544.9 L90.8,545.0 L92.3,544.9 L93.7,545.1 L95.2,544.9 L96.6,545.0 L98.1,545.1 L99.5,545.0 L101.0,545.1 L102.4,544.9 L103.9,544.9 L105.3,545.1 L106.8,544.9 L108.2,545.0 L109.7,545.0 L111.1,545.0 L112.5,544.9 L114.0,545.1 L115.4,545.1 L116.9,545.0 L118.4,545.0 L119.9,544.9 L121.3,545.0 L122.8,545.0 L124.3,545.0 L125.7,545.0 L127.1,545.0 L128.6,545.0 L130.0,545.0 L131.5,545.0 L133.0,545.0 L134.4,545.0 L135.9,545.0 L137.3,545.0 L138.8,545.0 L140.3,545.0 L141.7,545.0 L143.2,545.0 L144.7,545.0 L146.1,545.0 L147.6,545.0 L149.0,545.0 L150.4,559.8 L151.9,597.3 L153.3,623.3 L154.8,632.1 L156.3,634.7 L157.7,632.2 L159.2,628.6 L160.7,624.2 L162.1,618.0 L163.6,614.2 L165.0,608.3 L166.5,603.2 L167.9,599.5 L169.3,597.7 L170.8,598.9 L172.2,594.5 L173.7,591.9 L175.1,589.9 L176.6,589.1 L178.0,587.8 L179.5,585.8 L180.9,584.7 L182.3,584.5 L183.8,583.6 L185.3,583.4 L186.7,584.8 L188.2,586.4 L189.6,583.9 L191.0,583.9 L192.5,583.8 L193.9,583.7 L195.3,584.0 L196.8,584.0 L198.2,582.7 L199.7,583.0 L201.1,583.1 L202.6,583.2 L204.0,585.1 L205.4,585.1 L206.9,583.7 L208.4,583.1 L209.8,583.2 L211.3,582.8 L212.8,583.3 L214.2,583.3 L215.7,583.2 L217.2,582.1 L218.6,583.1 L220.0,583.3 L221.5,583.0 L222.9,583.1 L224.4,585.3 L225.8,585.8 L227.2,583.6 L228.7,583.9 L230.2,583.2 L231.6,583.1 L233.0,583.1 L234.5,582.9 L235.9,582.1 L237.3,581.9 L238.8,582.6 L240.2,583.1 L241.7,582.6 L243.1,583.8 L244.6,586.5 L246.0,583.6 L247.4,583.9 L248.9,583.3 L250.3,583.2 L251.8,583.4 L253.3,584.0 L254.7,582.9 L256.2,582.5 L257.6,582.3 L259.1,582.0 L260.5,583.2 L262.0,585.3 L263.4,585.1 L264.9,583.3 L266.4,583.0 L267.8,583.0 L269.3,583.3 L270.7,583.4 L272.2,582.8 L273.6,583.2 L275.0,583.2 L276.5,583.2 L278.0,582.7 L279.4,583.1 L280.9,584.7 L282.3,585.2 L283.8,583.3 L285.3,582.9 L286.7,582.7 L288.2,583.4 L289.7,583.3 L291.1,583.9 L292.5,582.8 L294.0,582.9 L295.5,583.3 L297.0,582.4 L298.4,582.5 L299.9,583.1 L301.4,584.4 L302.9,583.8 L304.4,583.5 L305.8,583.1 L307.3,583.2 L308.8,583.3 L310.3,582.6 L311.7,582.6 L313.2,582.9 L314.7,583.0 L316.1,582.7 L317.6,582.9 L319.1,584.4 L320.6,584.4 L322.1,583.2 L323.5,582.8 L325.0,583.4 L326.5,584.2 L327.9,583.6 L329.4,583.8 L330.8,582.9 L332.3,582.8 L333.7,582.5 L335.2,582.7 L336.6,582.5 L338.1,585.7 L339.5,583.3 L341.0,583.7 L342.4,583.7 L343.9,583.2 L345.3,583.1 L346.8,583.1 L348.3,583.1 L349.8,583.5 L351.3,582.9 L352.7,583.2 L354.2,582.6 L355.7,583.3 L357.2,585.5 L358.6,584.3 L360.2,582.6 L361.6,583.0 L363.1,583.3 L364.6,583.6 L366.1,583.8 L367.5,583.6 L368.9,583.0 L370.4,583.0 L371.8,582.7 L373.3,582.9 L374.7,582.3 L376.2,585.9 L377.7,583.7 L379.1,583.4 L380.6,583.6 L382.1,583.2 L383.5,583.5 L385.0,582.7 L386.4,583.1 L387.9,582.6 L389.3,583.3 L390.8,582.9 L392.3,582.9 L393.7,583.4 L395.2,585.8 L396.7,583.7 L398.1,582.6 L399.6,583.1 L401.1,582.6 L402.5,583.4 L404.0,583.4 L405.5,583.6 L407.0,582.4 L408.4,582.9 L409.9,582.8 L411.4,582.8 L412.8,582.8 L414.3,585.1 L415.7,583.1 L417.2,583.7 L418.7,583.2 L420.2,583.2 L421.6,583.8 L423.1,583.8 L424.5,583.4 L426.0,582.5 L427.4,583.0 L428.9,583.0 L430.4,582.7 L431.8,584.6 L433.3,586.1 L434.8,583.1 L436.2,582.7 L437.6,582.6 L439.1,582.6 L440.5,583.7 L442.0,583.5 L443.4,582.6 L444.9,583.1 L446.3,582.5 L447.8,582.5 L449.2,582.7 L450.6,583.0 L452.1,583.0 L453.5,584.0 L455.0,582.8 L456.5,583.4 L457.9,583.7 L459.4,583.5 L460.8,582.8 L462.3,583.0 L463.8,582.7 L465.2,583.1 L466.6,582.2 L468.1,582.2 L469.6,584.9 L471.0,585.6 L472.5,583.7 L474.0,583.3 L475.5,582.8 L476.9,582.8 L478.4,583.6 L479.8,582.4 L481.3,582.4 L482.8,583.3 L484.2,583.3 L485.7,582.8 L487.1,582.5 L488.6,583.4 L490.0,586.1 L491.5,583.8 L492.9,582.7 L494.3,583.1 L495.8,584.1 L497.3,583.7 L498.7,583.2 L500.2,583.2 L501.7,582.4 L503.2,582.9 L504.6,582.6 L506.1,582.1 L507.6,582.1 L509.0,585.4 L510.5,583.2 L512.0,583.3 L513.5,583.0 L515.0,583.0 L516.4,582.9 L517.9,582.9 L519.3,582.9 L520.8,583.2 L522.3,583.3 L523.7,582.6 L525.2,582.3 L526.7,583.7 L528.1,586.1 L529.6,583.9 L531.1,583.3 L532.6,583.1 L534.0,583.7 L535.5,583.5 L537.0,583.6 L538.4,583.1 L539.9,582.6 L541.4,582.8 L542.8,582.2 L544.3,581.9 L545.8,585.5 L547.2,584.9 L548.7,583.2 L550.2,583.5 L551.7,583.3 L553.2,583.3 L554.6,583.0 L556.1,583.3 L557.6,583.2 L559.0,583.4 L560.5,583.1 L562.0,583.0 L563.5,582.6 L564.9,583.9 L566.4,585.2 L567.8,583.1 L569.3,583.0 L570.7,583.5 L572.1,583.6 L573.6,583.5 L575.1,583.3 L576.6,582.7 L578.0,582.4 L579.5,583.1 L580.9,583.5 L582.4,582.8 L583.9,585.7 L585.4,584.8 L586.9,583.3 L588.3,583.5 L589.8,583.0 L591.3,583.0 L592.7,582.8 L594.3,582.9 L595.8,582.9 L597.3,580.3 L598.7,574.5 L600.2,566.8 L601.6,559.9 L603.1,552.3 L604.5,546.7 L606.0,544.3 L607.4,542.0 L608.8,528.5 L610.3,522.7 L611.7,518.5 L613.2,514.1 L614.6,512.4 L616.1,512.4 L617.5,511.4 L619.0,510.5 L620.4,510.6 L621.9,510.9 L623.4,507.9 L624.8,507.9 L626.3,507.4 L627.8,506.4 L629.2,507.5 L630.7,507.3 L632.1,507.6 L633.6,506.3 L635.1,507.5 L636.5,503.4 L638.0,503.8 L639.4,505.4 L640.9,506.0 L642.3,505.2 L643.8,503.8 L645.3,506.2 L646.7,505.8 L648.2,507.6 L649.7,508.3 L651.2,507.9 L652.7,508.9 L654.1,508.4 L655.6,505.2 L657.1,504.3 L658.6,506.3 L660.0,506.3 L661.4,503.6 L662.9,506.4 L664.3,505.1 L665.8,507.1 L667.2,508.0 L668.6,508.8 L670.1,508.1 L671.5,508.1 L673.0,508.7 L674.4,506.6 L675.9,504.8 L677.4,506.3 L678.9,506.3 L680.3,505.2 L681.8,505.2 L683.3,506.2 L684.8,506.0 L686.3,508.2 L687.7,508.3 L689.2,507.9 L690.6,508.1 L692.0,507.1 L693.5,504.6 L694.9,504.6 L696.4,506.0 L697.8,506.3 L699.2,506.1 L700.7,504.4 L702.1,505.3 L703.6,507.3 L705.0,508.0 L706.5,508.7 L707.9,507.8 L709.3,507.8 L710.8,508.0 L712.2,506.1 L713.7,505.5 L715.2,506.2 L716.6,506.8 L718.1,504.9 L719.6,505.6 L721.0,505.4 L722.4,506.6 L723.9,507.8 L725.3,509.4 L726.8,508.6 L728.2,508.0 L729.6,508.8 L731.1,504.3 L732.6,504.4 L734.0,505.3 L735.5,505.8 L736.9,505.2 L738.4,503.8 L739.8,507.6 L741.2,506.2 L742.7,507.9 L744.1,508.0 L745.6,507.2 L747.0,507.9 L748.5,508.2 L749.9,506.1 L751.4,505.4 L752.8,505.9 L754.2,506.8 L755.7,506.6 L757.1,504.1 L758.6,506.6 L760.0,506.4 L761.5,507.5 L762.9,508.2 L764.4,508.3 L765.8,508.3 L767.2,508.1 L768.7,506.1 L770.1,505.1 L771.6,504.8 L773.0,506.6 L774.5,505.1 L776.0,505.2 L777.4,506.9 L778.9,506.6 L780.3,508.0 L781.7,507.5 L783.2,507.7 L784.6,507.1 L786.1,508.6 L787.5,505.2 L789.0,505.1 L790.4,506.5 L791.9,506.3 L793.3,506.2 L794.8,503.9 L796.2,506.5 L797.7,505.9 L799.2,507.7 L800.7,507.9 L802.1,508.2 L803.6,508.8 L805.0,508.8 L806.5,506.2 L807.9,504.9 L809.3,505.3 L810.8,506.3 L812.2,506.3 L813.7,504.2 L815.2,506.0 L816.6,506.9 L818.1,507.3 L819.6,508.8 L821.0,508.0 L822.5,507.6 L824.0,509.0 L825.4,507.1 L826.9,505.5 L828.3,506.8 L829.8,507.0 L831.2,506.2 L832.7,504.4 L834.1,506.3 L835.5,505.8 L837.0,507.7 L838.4,508.2 L839.8,509.2 L841.3,507.4 L842.7,507.5 L844.2,504.6 L845.7,504.2 L847.2,505.5 L848.6,506.6 L850.1,506.3 L851.6,503.9 L853.0,507.3 L854.5,506.0 L855.9,507.9 L857.4,508.6 L858.8,508.5 L860.3,507.5 L861.8,508.0 L863.2,505.6 L864.7,503.6 L866.1,504.4 L867.6,506.6 L869.1,503.9 L870.5,505.3 L872.0,506.1 L873.4,506.5 L874.9,507.7 L876.4,508.3 L877.9,508.5 L879.4,508.2 L880.9,508.9 L882.3,505.2 L883.8,505.0 L885.3,505.0 L886.7,507.0 L888.1,506.0 L889.6,503.1 L891.0,506.8 L892.4,505.5 L893.9,507.2 L895.3,527.8 L896.8,509.6 L898.2,506.9 L899.7,506.4 L901.1,505.3 L902.6,502.2 L904.0,501.2 L905.5,502.7 L906.9,503.9 L908.4,503.2 L909.8,503.5 L911.3,504.2 L912.8,506.3 L914.2,507.1 L915.7,506.9 L917.1,508.3 L918.5,506.7 L920.0,506.7 L921.4,505.0 L922.8,505.0 L924.3,506.1 L925.7,505.1 L927.2,503.3 L928.6,506.0 L930.1,505.8 L931.5,507.8 L933.0,508.9 L934.5,508.9 L936.0,507.6 L937.4,509.1 L938.8,505.4 L940.3,504.6 L941.8,505.4 L943.2,506.1 L944.6,505.5 L946.1,503.2 L947.5,506.1 L949.0,505.9 L950.4,507.1 L951.8,508.1 L953.3,507.7 L954.8,508.0 L956.2,509.2 L957.7,505.3 L959.1,505.6 L960.6,506.9 L962.0,506.9 L963.5,506.5 L965.0,504.5 L966.4,506.0 L967.8,506.2 L969.3,507.0 L970.7,508.1 L972.2,507.5 L973.6,507.5 L975.0,508.6 L976.5,507.9 L978.0,506.1 L979.5,506.2 L980.9,506.4 L982.4,506.6 L983.8,504.7 L985.2,507.3 L986.7,505.4 L988.2,506.0 L989.7,507.1 L991.1,508.5 L992.6,508.7 L994.1,508.9 L995.6,506.0 L997.0,504.6 L998.5,505.3 L1000.0,506.9 L1001.5,506.1 L1002.9,506.0 L1004.4,505.3 L1005.8,506.4 L1007.2,507.6 L1008.7,508.6 L1010.1,508.4 L1011.6,508.0 L1013.0,508.4 L1014.5,507.3 L1016.0,505.1 L1017.5,505.2 L1018.9,506.4 L1020.4,505.3 L1021.8,504.3 L1023.3,506.4 L1024.8,506.0 L1026.2,506.7 L1027.7,507.8 L1029.2,508.2 L1030.7,508.6 L1032.1,508.6 L1033.6,506.2 L1035.0,505.2 L1036.5,505.8 L1038.0,506.3 L1039.4,505.8 L1040.9,503.4 L1042.3,506.8 L1043.8,506.0 L1045.2,506.9 L1046.7,508.2 L1048.1,507.8 L1049.5,508.4 L1051.0,508.3 L1052.4,506.5 L1053.8,505.4 L1055.3,505.1 L1056.7,505.9 L1058.2,505.9 L1059.7,506.3 L1061.1,506.4 L1062.5,506.5 L1063.9,506.5 L1065.4,507.2 L1066.8,507.8 L1068.4,509.2 L1069.8,508.2 L1071.2,508.2 L1072.7,508.3 L1074.2,515.7 L1075.6,520.5 L1077.0,524.0 L1078.5,526.6 L1079.9,529.1 L1081.3,531.7 L1082.8,533.4 L1084.2,535.9 L1085.7,537.6 L1087.1,538.8 L1088.6,541.5 L1090.0,542.8 L1091.4,543.3 L1092.9,543.9 L1094.3,543.8 L1095.7,544.1 L1097.1,544.4 L1098.6,544.6 L1100.1,544.8 L1101.5,544.6 L1103.0,544.6 L1104.4,544.7 L1105.9,544.5 L1107.3,544.8 L1108.8,544.7 L1110.2,544.9 L1111.7,544.8 L1113.1,544.9 L1114.5,544.8 L1116.0,545.0 L1117.4,544.8 L1118.9,545.1 L1120.3,544.8 L1125.7,544.9 L1127.6,545.1 L1128.9,545.0 L1130.3,545.0 L1131.6,545.0 L1132.9,544.9 L1134.2,545.1 L1135.5,545.0 L1136.9,545.0 L1138.2,545.0 L1139.5,545.0 L1142.1,545.0 L1143.4,545.0 L1144.7,545.0 L1146.1,544.9 L1147.4,545.0 L1148.7,545.1 L1150.0,544.9"/>
<line x1="830" y1="24" x2="858" y2="24" class="target"/><text x="866" y="28" class="small">target</text>
<line x1="830" y1="46" x2="858" y2="46" class="line" stroke="#0b84a5"/><text x="866" y="50" class="small">S01</text>
<line x1="830" y1="68" x2="858" y2="68" class="line" stroke="#e45756"/><text x="866" y="72" class="small">S02</text>
<line x1="830" y1="90" x2="858" y2="90" class="line" stroke="#54a24b"/><text x="866" y="94" class="small">S03</text>
<line x1="830" y1="112" x2="858" y2="112" class="line" stroke="#f58518"/><text x="866" y="116" class="small">S04</text>
<text x="78" y="720" class="small">S01: -88.4..90.0 deg, max |v| 26.4 deg/s, faults 0 | S02: -88.2..90.0 deg, max |v| 22.9 deg/s, faults 0 | S03: -88.2..90.0 deg, max |v| 23.2 deg/s, faults 0 | S04: -88.2..90.0 deg, max |v| 23.4 deg/s, faults 0</text>
<text x="78" y="740" class="small">CSV: s01_s04_sweep_log_20260426_032207.csv; raw: s01_s04_sweep_candump_20260426_032207.log</text>
</svg>
