<svg xmlns="http://www.w3.org/2000/svg" width="980" height="760" viewBox="0 0 980 760">
<rect x="0" y="0" width="980" height="760" fill="white"/><line x1="90" y1="370.0" x2="940" y2="370.0" stroke="#ddd" stroke-width="1"/><line x1="90" y1="295.0" x2="940" y2="295.0" stroke="#ddd" stroke-width="1"/><line x1="90" y1="220.0" x2="940" y2="220.0" stroke="#ddd" stroke-width="1"/><line x1="90" y1="145.0" x2="940" y2="145.0" stroke="#ddd" stroke-width="1"/><line x1="90" y1="70.0" x2="940" y2="70.0" stroke="#ddd" stroke-width="1"/><line x1="90" y1="355.0" x2="940" y2="355.0" stroke="#d62728" stroke-width="2" stroke-dasharray="7,5"/><line x1="90" y1="85.0" x2="940" y2="85.0" stroke="#d62728" stroke-width="2" stroke-dasharray="7,5"/><line x1="196.25" y1="89.5" x2="196.25" y2="350.7" stroke="#4c78a8" stroke-width="20" stroke-linecap="butt"/><circle cx="196.25" cy="89.5" r="4" fill="#123"/><circle cx="196.25" cy="350.7" r="4" fill="#123"/><line x1="408.75" y1="142.4" x2="408.75" y2="254.6" stroke="#e45756" stroke-width="20" stroke-linecap="butt"/><circle cx="408.75" cy="142.4" r="4" fill="#123"/><circle cx="408.75" cy="254.6" r="4" fill="#123"/><line x1="621.25" y1="89.5" x2="621.25" y2="350.5" stroke="#4c78a8" stroke-width="20" stroke-linecap="butt"/><circle cx="621.25" cy="89.5" r="4" fill="#123"/><circle cx="621.25" cy="350.5" r="4" fill="#123"/><line x1="833.75" y1="89.5" x2="833.75" y2="350.6" stroke="#4c78a8" stroke-width="20" stroke-linecap="butt"/><circle cx="833.75" cy="89.5" r="4" fill="#123"/><circle cx="833.75" cy="350.6" r="4" fill="#123"/><line x1="90" y1="660.0" x2="940" y2="660.0" stroke="#ddd" stroke-width="1"/><line x1="90" y1="610.0" x2="940" y2="610.0" stroke="#ddd" stroke-width="1"/><line x1="90" y1="560.0" x2="940" y2="560.0" stroke="#ddd" stroke-width="1"/><line x1="90" y1="510.0" x2="940" y2="510.0" stroke="#ddd" stroke-width="1"/><line x1="90" y1="470.0" x2="940" y2="470.0" stroke="#ddd" stroke-width="1"/><rect x="168.2" y="534.1" width="56" height="125.9" fill="#4c78a8" opacity="0.9"/><rect x="380.8" y="490.0" width="56" height="170.0" fill="#e45756" opacity="0.9"/><rect x="593.2" y="547.2" width="56" height="112.8" fill="#4c78a8" opacity="0.9"/><rect x="805.8" y="546.0" width="56" height="114.0" fill="#4c78a8" opacity="0.9"/><rect x="323.8" y="62" width="170" height="360" fill="none" stroke="#e45756" stroke-width="2" stroke-dasharray="6,4"/>
<text x="490.0" y="32" text-anchor="middle" font-size="22" font-family="sans-serif" font-weight="700">S02 Sweep Incident Summary (2026-04-25)</text><text x="490.0" y="56" text-anchor="middle" font-size="13" font-family="sans-serif" fill="#444">4-axis simultaneous sweep, commanded range -90..+90 deg, 12 s half sweep, 2 cycles</text><text x="80" y="374.0" text-anchor="end" font-size="12" font-family="sans-serif" fill="#555">-100</text><text x="80" y="299.0" text-anchor="end" font-size="12" font-family="sans-serif" fill="#555">-50</text><text x="80" y="224.0" text-anchor="end" font-size="12" font-family="sans-serif" fill="#555">0</text><text x="80" y="149.0" text-anchor="end" font-size="12" font-family="sans-serif" fill="#555">50</text><text x="80" y="74.0" text-anchor="end" font-size="12" font-family="sans-serif" fill="#555">100</text><text x="936" y="77.0" text-anchor="end" font-size="12" font-family="sans-serif" fill="#d62728">command +90</text><text x="936" y="371.0" text-anchor="end" font-size="12" font-family="sans-serif" fill="#d62728">command -90</text><text x="490.0" y="52" text-anchor="middle" font-size="16" font-family="sans-serif" font-weight="600">Measured angle range during simultaneous sweep</text><text x="196.25" y="394" text-anchor="middle" font-size="13" font-family="sans-serif">S01</text><text x="196.25" y="412" text-anchor="middle" font-size="12" font-family="sans-serif" fill="#555">(node 1)</text><text x="214.25" y="83.5" text-anchor="start" font-size="11" font-family="sans-serif" fill="#333">87.0</text><text x="214.25" y="364.7" text-anchor="start" font-size="11" font-family="sans-serif" fill="#333">-87.2</text><text x="408.75" y="394" text-anchor="middle" font-size="13" font-family="sans-serif">S02</text><text x="408.75" y="412" text-anchor="middle" font-size="12" font-family="sans-serif" fill="#555">(node 2)</text><text x="426.75" y="136.4" text-anchor="start" font-size="11" font-family="sans-serif" fill="#333">51.7</text><text x="426.75" y="268.6" text-anchor="start" font-size="11" font-family="sans-serif" fill="#333">-23.1</text><text x="621.25" y="394" text-anchor="middle" font-size="13" font-family="sans-serif">S03</text><text x="621.25" y="412" text-anchor="middle" font-size="12" font-family="sans-serif" fill="#555">(node 3)</text><text x="639.25" y="83.5" text-anchor="start" font-size="11" font-family="sans-serif" fill="#333">87.0</text><text x="639.25" y="364.5" text-anchor="start" font-size="11" font-family="sans-serif" fill="#333">-87.0</text><text x="833.75" y="394" text-anchor="middle" font-size="13" font-family="sans-serif">S04</text><text x="833.75" y="412" text-anchor="middle" font-size="12" font-family="sans-serif" fill="#555">(node 4)</text><text x="851.75" y="83.5" text-anchor="start" font-size="11" font-family="sans-serif" fill="#333">87.0</text><text x="851.75" y="364.6" text-anchor="start" font-size="11" font-family="sans-serif" fill="#333">-87.0</text><text x="80" y="664.0" text-anchor="end" font-size="12" font-family="sans-serif" fill="#555">0</text><text x="80" y="614.0" text-anchor="end" font-size="12" font-family="sans-serif" fill="#555">50</text><text x="80" y="564.0" text-anchor="end" font-size="12" font-family="sans-serif" fill="#555">100</text><text x="80" y="514.0" text-anchor="end" font-size="12" font-family="sans-serif" fill="#555">150</text><text x="80" y="474.0" text-anchor="end" font-size="12" font-family="sans-serif" fill="#555">190</text><text x="490.0" y="452" text-anchor="middle" font-size="16" font-family="sans-serif" font-weight="600">Max absolute velocity during the same sweep</text><text x="196.25" y="526.1" text-anchor="middle" font-size="11" font-family="sans-serif" fill="#333">125.9</text><text x="196.25" y="684" text-anchor="middle" font-size="13" font-family="sans-serif">S01</text><text x="196.25" y="702" text-anchor="middle" font-size="12" font-family="sans-serif" fill="#555">(node 1)</text><text x="408.75" y="482.0" text-anchor="middle" font-size="11" font-family="sans-serif" fill="#333">170.0</text><text x="408.75" y="684" text-anchor="middle" font-size="13" font-family="sans-serif">S02</text><text x="408.75" y="702" text-anchor="middle" font-size="12" font-family="sans-serif" fill="#555">(node 2)</text><text x="621.25" y="539.2" text-anchor="middle" font-size="11" font-family="sans-serif" fill="#333">112.8</text><text x="621.25" y="684" text-anchor="middle" font-size="13" font-family="sans-serif">S03</text><text x="621.25" y="702" text-anchor="middle" font-size="12" font-family="sans-serif" fill="#555">(node 3)</text><text x="833.75" y="538.0" text-anchor="middle" font-size="11" font-family="sans-serif" fill="#333">114.0</text><text x="833.75" y="684" text-anchor="middle" font-size="13" font-family="sans-serif">S04</text><text x="833.75" y="702" text-anchor="middle" font-size="12" font-family="sans-serif" fill="#555">(node 4)</text><text x="408.75" y="430" text-anchor="middle" font-size="12" font-family="sans-serif" fill="#e45756">S02 tracked much less angle than the other three</text>
</svg>