<svg xmlns="http://www.w3.org/2000/svg" width="1000" height="620" viewBox="0 0 1000 620">
  <rect width="100%" height="100%" fill="#ffffff"/>
  <text x="80" y="32" font-size="22" font-family="Arial, sans-serif" fill="#111827">S03 slow sweep velocity log</text>
  <text x="80" y="52" font-size="12" font-family="Arial, sans-serif" fill="#4b5563">20260426_014211 KST, node 3, target -90..+90 deg</text>
  <g font-family="Arial, sans-serif">
    <line x1="80" y1="525.2" x2="920" y2="525.2" stroke="#e5e7eb"/><text x="68" y="529.2" text-anchor="end" font-size="12" fill="#374151">-90</text><line x1="80" y1="413.9" x2="920" y2="413.9" stroke="#e5e7eb"/><text x="68" y="417.9" text-anchor="end" font-size="12" fill="#374151">-45</text><line x1="80" y1="302.5" x2="920" y2="302.5" stroke="#e5e7eb"/><text x="68" y="306.5" text-anchor="end" font-size="12" fill="#374151">0</text><line x1="80" y1="191.1" x2="920" y2="191.1" stroke="#e5e7eb"/><text x="68" y="195.1" text-anchor="end" font-size="12" fill="#374151">45</text><line x1="80" y1="79.8" x2="920" y2="79.8" stroke="#e5e7eb"/><text x="68" y="83.8" text-anchor="end" font-size="12" fill="#374151">90</text><line x1="80.0" y1="55" x2="80.0" y2="550" stroke="#f3f4f6"/><text x="80.0" y="574" text-anchor="middle" font-size="12" fill="#374151">0</text><line x1="212.6" y1="55" x2="212.6" y2="550" stroke="#f3f4f6"/><text x="212.6" y="574" text-anchor="middle" font-size="12" fill="#374151">6</text><line x1="345.2" y1="55" x2="345.2" y2="550" stroke="#f3f4f6"/><text x="345.2" y="574" text-anchor="middle" font-size="12" fill="#374151">12</text><line x1="477.8" y1="55" x2="477.8" y2="550" stroke="#f3f4f6"/><text x="477.8" y="574" text-anchor="middle" font-size="12" fill="#374151">18</text><line x1="610.3" y1="55" x2="610.3" y2="550" stroke="#f3f4f6"/><text x="610.3" y="574" text-anchor="middle" font-size="12" fill="#374151">24</text><line x1="742.9" y1="55" x2="742.9" y2="550" stroke="#f3f4f6"/><text x="742.9" y="574" text-anchor="middle" font-size="12" fill="#374151">30</text><line x1="875.5" y1="55" x2="875.5" y2="550" stroke="#f3f4f6"/><text x="875.5" y="574" text-anchor="middle" font-size="12" fill="#374151">36</text><text x="932" y="554.0" font-size="12" fill="#7c2d12">-20</text><text x="932" y="306.5" font-size="12" fill="#7c2d12">0</text><text x="932" y="59.0" font-size="12" fill="#7c2d12">20</text>
    <line x1="80" y1="550" x2="920" y2="550" stroke="#111827"/>
    <line x1="80" y1="55" x2="80" y2="550" stroke="#111827"/>
    <line x1="920" y1="55" x2="920" y2="550" stroke="#9ca3af"/>
    <polyline fill="none" stroke="#6b7280" stroke-width="1.5" stroke-dasharray="6 5" points="80.0,79.8 81.1,81.0 82.2,82.2 83.3,83.5 84.4,84.7 85.5,86.0 86.7,87.2 87.8,88.4 88.9,89.7 90.0,90.9 91.1,92.2 92.2,93.4 93.3,94.7 94.4,95.9 95.5,97.1 96.6,98.4 97.7,99.6 98.9,100.9 100.0,102.1 101.1,103.4 102.2,104.6 103.3,105.8 104.4,107.1 105.5,108.3 106.6,109.6 107.7,110.8 108.8,112.0 109.9,113.3 111.0,114.5 112.2,115.8 113.3,117.0 114.4,118.3 115.5,119.5 116.6,120.7 117.7,122.0 118.8,123.2 119.9,124.5 121.0,125.7 122.1,126.9 123.2,128.2 124.4,129.4 125.5,130.7 126.6,131.9 127.7,133.2 128.8,134.4 129.9,135.6 131.0,136.9 132.1,138.1 133.2,139.4 134.3,140.6 135.4,141.8 136.5,143.1 137.6,144.3 138.8,145.6 139.9,146.8 141.0,148.0 142.1,149.3 143.2,150.5 144.3,151.8 145.4,153.0 146.5,154.2 147.6,155.5 148.7,156.7 149.8,158.0 150.9,159.2 152.0,160.4 153.2,161.7 154.3,162.9 155.4,164.2 156.5,165.4 157.6,166.6 158.7,167.9 159.8,169.1 160.9,170.4 162.0,171.6 163.1,172.8 164.2,174.1 165.3,175.3 166.4,176.6 167.5,177.8 168.7,179.0 169.8,180.3 170.9,181.5 172.0,182.8 173.1,184.0 174.2,185.3 175.3,186.5 176.4,187.7 177.5,189.0 178.6,190.2 179.7,191.5 180.8,192.7 182.0,193.9 183.1,195.2 184.2,196.4 185.3,197.7 186.4,198.9 187.5,200.1 188.6,201.4 189.7,202.6 190.8,203.9 191.9,205.1 193.0,206.3 194.1,207.6 195.2,208.8 196.4,210.1 197.5,211.3 198.6,212.6 199.7,213.8 200.8,215.0 201.9,216.3 203.0,217.5 204.1,218.8 205.2,220.0 206.3,221.2 207.4,222.5 208.5,223.7 209.6,225.0 210.8,226.2 211.9,227.4 213.0,228.7 214.1,229.9 215.2,231.2 216.3,232.4 217.4,233.6 218.5,234.9 219.6,236.1 220.7,237.4 221.8,238.6 222.9,239.8 224.0,241.1 225.2,242.3 226.3,243.6 227.4,244.8 228.5,246.0 229.6,247.3 230.7,248.5 231.8,249.8 232.9,251.0 234.0,252.3 235.1,253.5 236.2,254.7 237.3,256.0 238.4,257.2 239.6,258.5 240.7,259.7 241.8,260.9 242.9,262.2 244.0,263.4 245.1,264.7 246.2,265.9 247.3,267.1 248.4,268.4 249.5,269.6 250.6,270.9 251.7,272.1 252.8,273.3 254.0,274.6 255.1,275.8 256.2,277.1 257.3,278.3 258.4,279.6 259.5,280.8 260.6,282.0 261.7,283.3 262.8,284.5 263.9,285.8 265.0,287.0 266.1,288.2 267.3,289.5 268.4,290.7 269.5,292.0 270.6,293.2 271.7,294.4 272.8,295.7 273.9,296.9 275.0,298.2 276.1,299.4 277.2,300.6 278.3,301.9 279.4,303.1 280.6,304.4 281.7,305.6 282.8,306.9 283.9,308.1 285.0,309.3 286.1,310.6 287.2,311.8 288.3,313.1 289.4,314.3 290.5,315.5 291.6,316.8 292.7,318.0 293.8,319.3 294.9,320.5 296.1,321.7 297.2,323.0 298.3,324.2 299.4,325.5 300.5,326.7 301.6,327.9 302.7,329.2 303.8,330.4 304.9,331.7 306.0,332.9 307.1,334.2 308.3,335.4 309.4,336.6 310.5,337.9 311.6,339.1 312.7,340.4 313.8,341.6 314.9,342.8 316.0,344.1 317.1,345.3 318.2,346.6 319.3,347.8 320.4,349.0 321.5,350.3 322.7,351.5 323.8,352.8 324.9,354.0 326.0,355.2 327.1,356.5 328.2,357.7 329.3,359.0 330.4,360.2 331.5,361.5 332.6,362.7 333.7,363.9 334.8,365.2 335.9,366.4 337.1,367.7 338.2,368.9 339.3,370.1 340.4,371.4 341.5,372.6 342.6,373.9 343.7,375.1 344.8,376.3 345.9,377.6 347.0,378.8 348.1,380.1 349.2,381.3 350.4,382.5 351.5,383.8 352.6,385.0 353.7,386.3 354.8,387.5 355.9,388.8 357.0,390.0 358.1,391.2 359.2,392.5 360.3,393.7 361.4,395.0 362.6,396.2 363.7,397.5 364.8,398.7 365.9,399.9 367.0,401.2 368.1,402.4 369.2,403.7 370.3,404.9 371.4,406.2 372.5,407.4 373.6,408.6 374.8,409.9 375.9,411.1 377.0,412.4 378.1,413.6 379.2,414.8 380.3,416.1 381.4,417.3 382.5,418.6 383.6,419.8 384.7,421.1 385.8,422.3 386.9,423.5 388.1,424.8 389.2,426.0 390.3,427.3 391.4,428.5 392.5,429.7 393.6,431.0 394.7,432.2 395.8,433.5 396.9,434.7 398.0,436.0 399.1,437.2 400.3,438.4 401.4,439.7 402.5,440.9 403.6,442.2 404.7,443.4 405.8,444.7 406.9,445.9 408.0,447.1 409.1,448.4 410.2,449.6 411.3,450.9 412.5,452.1 413.6,453.3 414.7,454.6 415.8,455.8 416.9,457.1 418.0,458.3 419.1,459.5 420.2,460.8 421.3,462.0 422.4,463.3 423.5,464.5 424.6,465.8 425.7,467.0 426.9,468.2 428.0,469.5 429.1,470.7 430.2,472.0 431.3,473.2 432.4,474.5 433.5,475.7 434.7,477.0 435.8,478.2 436.9,479.5 438.0,480.7 439.1,481.9 440.2,483.2 441.3,484.4 442.4,485.7 443.5,486.9 444.6,488.1 445.7,489.4 446.8,490.6 448.0,491.9 449.1,493.1 450.2,494.4 451.3,495.6 452.4,496.8 453.5,498.1 454.6,499.3 455.7,500.6 456.8,501.8 457.9,503.0 459.0,504.3 460.1,505.5 461.3,506.8 462.4,508.0 463.5,509.2 464.6,510.5 465.7,511.7 466.8,513.0 467.9,514.2 469.0,515.5 470.1,516.7 471.2,517.9 472.3,519.2 473.5,520.4 474.6,521.7 475.7,522.9 476.8,524.2 477.9,525.1 479.0,523.9 480.1,522.6 481.2,521.4 482.3,520.1 483.4,518.9 484.5,517.7 485.6,516.4 486.8,515.2 487.9,513.9 489.0,512.7 490.1,511.5 491.2,510.2 492.3,509.0 493.4,507.7 494.5,506.5 495.6,505.3 496.7,504.0 497.8,502.8 498.9,501.5 500.0,500.3 501.2,499.0 502.3,497.8 503.4,496.6 504.5,495.3 505.6,494.1 506.7,492.8 507.8,491.6 508.9,490.4 510.0,489.1 511.1,487.9 512.2,486.6 513.3,485.4 514.4,484.2 515.6,482.9 516.7,481.7 517.8,480.4 518.9,479.2 520.0,478.0 521.1,476.7 522.2,475.5 523.3,474.2 524.4,473.0 525.5,471.7 526.6,470.5 527.7,469.3 528.9,468.0 530.0,466.8 531.1,465.5 532.2,464.3 533.3,463.1 534.4,461.8 535.5,460.6 536.6,459.3 537.7,458.1 538.8,456.9 539.9,455.6 541.0,454.4 542.1,453.1 543.3,451.9 544.4,450.7 545.5,449.4 546.6,448.2 547.7,446.9 548.8,445.7 549.9,444.4 551.0,443.2 552.1,442.0 553.2,440.7 554.3,439.5 555.4,438.3 556.5,437.0 557.7,435.8 558.8,434.5 559.9,433.3 561.0,432.0 562.1,430.8 563.2,429.6 564.3,428.3 565.4,427.1 566.5,425.8 567.6,424.6 568.7,423.4 569.8,422.1 570.9,420.9 572.0,419.6 573.2,418.4 574.3,417.2 575.4,415.9 576.5,414.7 577.6,413.4 578.7,412.2 579.8,411.0 580.9,409.7 582.0,408.5 583.1,407.2 584.2,406.0 585.3,404.8 586.5,403.5 587.6,402.3 588.7,401.0 589.8,399.8 590.9,398.6 592.0,397.3 593.1,396.1 594.2,394.8 595.3,393.6 596.4,392.3 597.5,391.1 598.6,389.9 599.7,388.6 600.9,387.4 602.0,386.1 603.1,384.9 604.2,383.7 605.3,382.4 606.4,381.2 607.5,379.9 608.6,378.7 609.7,377.5 610.8,376.2 611.9,375.0 613.0,373.7 614.1,372.5 615.2,371.3 616.3,370.0 617.5,368.8 618.6,367.5 619.7,366.3 620.8,365.1 621.9,363.8 623.0,362.6 624.1,361.3 625.2,360.1 626.3,358.9 627.4,357.6 628.5,356.4 629.6,355.1 630.7,353.9 631.9,352.7 633.0,351.4 634.1,350.2 635.2,348.9 636.3,347.7 637.4,346.5 638.5,345.2 639.6,344.0 640.7,342.7 641.8,341.5 642.9,340.3 644.0,339.0 645.1,337.8 646.3,336.5 647.4,335.3 648.5,334.1 649.6,332.8 650.7,331.6 651.8,330.3 652.9,329.1 654.0,327.8 655.1,326.6 656.2,325.4 657.3,324.1 658.4,322.9 659.5,321.6 660.7,320.4 661.8,319.2 662.9,317.9 664.0,316.7 665.1,315.4 666.2,314.2 667.3,312.9 668.4,311.7 669.5,310.5 670.6,309.2 671.7,308.0 672.9,306.7 674.0,305.5 675.1,304.3 676.2,303.0 677.3,301.8 678.4,300.5 679.5,299.3 680.6,298.1 681.7,296.8 682.8,295.6 683.9,294.3 685.0,293.1 686.1,291.9 687.3,290.6 688.4,289.4 689.5,288.1 690.6,286.9 691.7,285.6 692.8,284.4 693.9,283.2 695.0,281.9 696.1,280.7 697.2,279.4 698.3,278.2 699.4,277.0 700.6,275.7 701.7,274.5 702.8,273.2 703.9,272.0 705.0,270.7 706.1,269.5 707.2,268.3 708.3,267.0 709.4,265.8 710.5,264.5 711.6,263.3 712.8,262.0 713.9,260.8 715.0,259.6 716.1,258.3 717.2,257.1 718.3,255.8 719.4,254.6 720.5,253.4 721.6,252.1 722.7,250.9 723.8,249.6 725.0,248.4 726.1,247.1 727.2,245.9 728.3,244.7 729.4,243.4 730.5,242.2 731.6,240.9 732.7,239.7 733.8,238.4 734.9,237.2 736.0,236.0 737.2,234.7 738.3,233.5 739.4,232.2 740.5,231.0 741.6,229.8 742.7,228.5 743.8,227.3 744.9,226.0 746.0,224.8 747.1,223.5 748.2,222.3 749.3,221.1 750.5,219.8 751.6,218.6 752.7,217.3 753.8,216.1 754.9,214.9 756.0,213.6 757.1,212.4 758.2,211.1 759.3,209.9 760.4,208.6 761.5,207.4 762.7,206.2 763.8,204.9 764.9,203.7 766.0,202.4 767.1,201.2 768.2,200.0 769.3,198.7 770.4,197.5 771.5,196.2 772.6,195.0 773.7,193.7 774.9,192.5 776.0,191.3 777.1,190.0 778.2,188.8 779.3,187.5 780.4,186.3 781.5,185.1 782.6,183.8 783.7,182.6 784.8,181.3 785.9,180.1 787.0,178.8 788.1,177.6 789.3,176.4 790.4,175.1 791.5,173.9 792.6,172.6 793.7,171.4 794.8,170.2 795.9,168.9 797.0,167.7 798.1,166.4 799.2,165.2 800.3,164.0 801.4,162.7 802.5,161.5 803.7,160.2 804.8,159.0 805.9,157.8 807.0,156.5 808.1,155.3 809.2,154.0 810.3,152.8 811.4,151.6 812.5,150.3 813.6,149.1 814.7,147.8 815.8,146.6 816.9,145.4 818.1,144.1 819.2,142.9 820.3,141.6 821.4,140.4 822.5,139.1 823.6,137.9 824.7,136.7 825.8,135.4 826.9,134.2 828.0,132.9 829.1,131.7 830.2,130.5 831.4,129.2 832.5,128.0 833.6,126.7 834.7,125.5 835.8,124.3 836.9,123.0 838.0,121.8 839.1,120.5 840.2,119.3 841.3,118.1 842.4,116.8 843.5,115.6 844.6,114.3 845.8,113.1 846.9,111.8 848.0,110.6 849.1,109.4 850.2,108.1 851.3,106.9 852.4,105.6 853.5,104.4 854.6,103.2 855.7,101.9 856.8,100.7 857.9,99.4 859.1,98.2 860.2,97.0 861.3,95.7 862.4,94.5 863.5,93.2 864.6,92.0 865.7,90.8 866.8,89.5 867.9,88.3 869.0,87.0 870.1,85.8 871.2,84.5 872.3,83.3 873.5,82.1 874.6,80.8 875.7,79.8 876.9,79.8 878.0,79.8 879.2,79.8 880.4,79.8 881.5,79.8 882.7,79.8 883.9,79.8 885.1,79.8 886.2,79.8 887.4,79.8 888.6,79.8 889.7,79.8 890.9,79.8 892.1,79.8 893.2,79.8 894.4,79.8 895.6,79.8 896.7,79.8 920.0,79.8"/>
    <polyline fill="none" stroke="#2563eb" stroke-width="2.2" points="80.0,80.1 81.1,80.1 82.2,80.1 83.3,80.2 84.4,80.4 85.5,80.6 86.7,81.0 87.8,81.6 88.9,82.2 90.0,82.9 91.1,83.7 92.2,84.6 93.3,85.6 94.4,86.6 95.5,87.6 96.6,88.7 97.7,89.8 98.9,90.9 100.0,92.0 101.1,93.1 102.2,94.4 103.3,95.6 104.4,96.9 105.5,98.2 106.6,99.4 107.7,100.6 108.8,101.8 109.9,103.0 111.0,104.2 112.2,105.5 113.3,106.7 114.4,107.9 115.5,109.1 116.6,110.3 117.7,111.5 118.8,112.7 119.9,114.0 121.0,115.3 122.1,116.6 123.2,117.8 124.4,119.1 125.5,120.3 126.6,121.5 127.7,122.7 128.8,123.9 129.9,126.4 131.0,126.4 132.1,127.6 133.2,128.8 134.3,130.1 135.4,131.3 136.5,132.6 137.6,133.9 138.8,135.2 139.9,136.4 141.0,137.6 142.1,140.0 143.2,140.0 144.3,141.3 145.4,142.5 146.5,143.7 147.6,144.9 148.7,146.1 149.8,147.4 150.9,148.7 152.0,150.0 153.2,151.2 154.3,152.5 155.4,153.7 156.5,154.9 157.6,156.1 158.7,157.4 159.8,157.4 160.9,159.8 162.0,161.0 163.1,162.2 164.2,163.5 165.3,164.7 166.4,166.0 167.5,167.2 168.7,168.5 169.8,169.8 170.9,171.0 172.0,172.3 173.1,173.5 174.2,174.7 175.3,175.9 176.4,177.1 177.5,178.3 178.6,179.5 179.7,180.8 180.8,182.0 182.0,182.0 183.1,184.6 184.2,185.8 185.3,187.1 186.4,188.4 187.5,189.6 188.6,190.8 189.7,192.0 190.8,193.2 191.9,194.4 193.0,195.7 194.1,196.9 195.2,198.1 196.4,199.3 197.5,200.6 198.6,201.9 199.7,203.2 200.8,204.5 201.9,205.7 203.0,207.0 204.1,207.0 205.2,209.3 206.3,210.6 207.4,211.8 208.5,213.0 209.6,214.2 210.8,215.5 211.9,216.7 213.0,217.9 214.1,219.2 215.2,220.5 216.3,221.8 217.4,223.0 218.5,225.5 219.6,225.5 220.7,226.7 221.8,227.9 222.9,229.1 224.0,230.3 225.2,231.5 226.3,232.7 227.4,234.0 228.5,235.2 229.6,236.4 230.7,239.0 231.8,239.0 232.9,240.3 234.0,241.6 235.1,244.0 236.2,244.0 237.3,245.2 238.4,247.6 239.6,247.6 240.7,250.1 241.8,250.1 242.9,252.5 244.0,253.8 245.1,255.0 246.2,256.4 247.3,257.6 248.4,258.9 249.5,260.1 250.6,261.4 251.7,262.6 252.8,263.8 254.0,263.8 255.1,265.0 256.2,266.2 257.3,267.4 258.4,268.6 259.5,271.1 260.6,272.4 261.7,273.7 262.8,275.0 263.9,276.2 265.0,277.5 266.1,278.7 267.3,278.7 268.4,281.1 269.5,282.3 270.6,283.5 271.7,284.7 272.8,285.9 273.9,287.2 275.0,288.4 276.1,289.7 277.2,291.0 278.3,292.3 279.4,293.6 280.6,294.8 281.7,296.1 282.8,297.3 283.9,298.5 285.0,299.7 286.1,300.9 287.2,302.1 288.3,303.3 289.4,304.6 290.5,305.8 291.6,307.0 292.7,308.3 293.8,309.6 294.9,310.9 296.1,312.1 297.2,313.3 298.3,314.6 299.4,315.8 300.5,317.0 301.6,318.2 302.7,319.5 303.8,320.7 304.9,321.9 306.0,323.1 307.1,324.4 308.3,325.6 309.4,326.9 310.5,328.2 311.6,329.4 312.7,330.7 313.8,331.9 314.9,333.1 316.0,334.3 317.1,335.5 318.2,336.8 319.3,338.0 320.4,339.2 321.5,340.4 322.7,341.7 323.8,342.9 324.9,344.2 326.0,345.5 327.1,346.7 328.2,348.0 329.3,349.2 330.4,350.4 331.5,351.7 332.6,352.9 333.7,354.1 334.8,355.3 335.9,356.6 337.1,357.8 338.2,359.0 339.3,359.0 340.4,361.5 341.5,362.8 342.6,364.1 343.7,365.3 344.8,366.6 345.9,367.8 347.0,369.0 348.1,370.2 349.2,371.4 350.4,372.7 351.5,373.9 352.6,375.1 353.7,376.3 354.8,377.6 355.9,378.8 357.0,380.1 358.1,381.4 359.2,382.6 360.3,383.9 361.4,385.1 362.6,386.3 363.7,387.5 364.8,388.8 365.9,390.0 367.0,391.2 368.1,392.4 369.2,393.6 370.3,394.9 371.4,396.1 372.5,397.4 373.6,398.7 374.8,399.9 375.9,401.2 377.0,402.4 378.1,403.7 379.2,404.9 380.3,406.1 381.4,407.3 382.5,408.5 383.6,409.7 384.7,411.0 385.8,412.2 386.9,413.4 388.1,414.7 389.2,416.0 390.3,416.0 391.4,418.5 392.5,419.8 393.6,421.0 394.7,422.2 395.8,423.4 396.9,424.6 398.0,425.9 399.1,427.1 400.3,428.3 401.4,429.5 402.5,429.5 403.6,432.0 404.7,433.2 405.8,434.5 406.9,435.8 408.0,437.1 409.1,438.3 410.2,439.5 411.3,440.7 412.5,441.9 413.6,443.2 414.7,444.4 415.8,445.6 416.9,446.8 418.0,448.0 419.1,449.3 420.2,450.6 421.3,451.8 422.4,453.1 423.5,454.4 424.6,455.6 425.7,456.9 426.9,458.1 428.0,459.3 429.1,460.5 430.2,461.8 431.3,463.0 432.4,464.2 433.5,465.4 434.7,466.6 435.8,467.8 436.9,469.0 438.0,470.3 439.1,471.6 440.2,472.8 441.3,474.1 442.4,475.3 443.5,476.5 444.6,477.7 445.7,479.0 446.8,480.2 448.0,481.4 449.1,482.6 450.2,483.8 451.3,485.1 452.4,486.4 453.5,487.7 454.6,489.0 455.7,490.3 456.8,491.5 457.9,492.7 459.0,493.9 460.1,495.1 461.3,496.3 462.4,497.6 463.5,498.7 464.6,500.0 465.7,501.2 466.8,502.5 467.9,503.8 469.0,505.1 470.1,506.4 471.2,507.7 472.3,508.9 473.5,510.2 474.6,511.3 475.7,512.6 476.8,513.8 477.9,515.0 479.0,516.2 480.1,517.4 481.2,518.5 482.3,519.3 483.4,519.8 484.5,520.2 485.6,520.3 486.8,520.3 487.9,520.2 489.0,519.9 490.1,519.3 491.2,519.3 492.3,517.9 493.4,517.0 494.5,516.1 495.6,515.1 496.7,514.1 497.8,513.0 498.9,511.9 500.0,510.8 501.2,509.6 502.3,508.3 503.4,507.1 504.5,505.9 505.6,504.6 506.7,503.4 507.8,502.1 508.9,500.9 510.0,499.6 511.1,498.3 512.2,497.1 513.3,495.9 514.4,494.7 515.6,493.5 516.7,492.3 517.8,491.1 518.9,489.8 520.0,488.5 521.1,487.2 522.2,486.0 523.3,484.8 524.4,483.5 525.5,482.2 526.6,481.0 527.7,479.7 528.9,478.5 530.0,477.3 531.1,476.1 532.2,474.9 533.3,473.7 534.4,472.4 535.5,471.2 536.6,469.9 537.7,468.7 538.8,467.4 539.9,466.1 541.0,464.8 542.1,463.6 543.3,462.3 544.4,461.1 545.5,459.9 546.6,458.7 547.7,457.5 548.8,456.3 549.9,455.1 551.0,453.9 552.1,452.6 553.2,451.4 554.3,448.9 555.4,448.9 556.5,447.6 557.7,447.6 558.8,445.1 559.9,443.9 561.0,442.7 562.1,441.5 563.2,440.3 564.3,439.0 565.4,437.8 566.5,436.5 567.6,435.3 568.7,434.0 569.8,432.8 570.9,431.5 572.0,429.0 573.2,429.0 574.3,427.8 575.4,426.5 576.5,425.3 577.6,424.1 578.7,422.9 579.8,421.7 580.9,419.2 582.0,419.2 583.1,418.0 584.2,416.8 585.3,415.5 586.5,414.3 587.6,413.0 588.7,411.7 589.8,410.5 590.9,409.2 592.0,408.0 593.1,406.8 594.2,405.6 595.3,403.1 596.4,403.1 597.5,401.9 598.6,400.7 599.7,398.2 600.9,398.2 602.0,395.7 603.1,395.7 604.2,393.2 605.3,393.2 606.4,390.7 607.5,389.5 608.6,388.3 609.7,387.1 610.8,385.8 611.9,384.6 613.0,383.4 614.1,382.1 615.2,380.9 616.3,379.6 617.5,378.4 618.6,377.1 619.7,375.9 620.8,374.6 621.9,373.4 623.0,372.2 624.1,371.0 625.2,369.8 626.3,368.5 627.4,367.3 628.5,366.0 629.6,364.8 630.7,363.6 631.9,362.3 633.0,361.1 634.1,359.8 635.2,358.5 636.3,357.3 637.4,356.0 638.5,354.8 639.6,353.6 640.7,352.4 641.8,351.2 642.9,350.0 644.0,348.7 645.1,347.5 646.3,347.5 647.4,345.0 648.5,343.8 649.6,342.5 650.7,341.3 651.8,340.8 652.9,339.7 654.0,339.7 655.1,337.2 656.2,335.9 657.3,334.7 658.4,333.3 659.5,332.0 660.7,330.7 661.8,329.4 662.9,328.1 664.0,326.7 665.1,325.4 666.2,324.1 667.3,322.8 668.4,321.5 669.5,320.3 670.6,319.0 671.7,317.8 672.9,316.6 674.0,315.4 675.1,314.1 676.2,312.9 677.3,311.6 678.4,310.4 679.5,309.1 680.6,307.9 681.7,306.6 682.8,305.4 683.9,304.1 685.0,302.8 686.1,301.6 687.3,300.4 688.4,299.2 689.5,299.2 690.6,296.8 691.7,295.6 692.8,294.3 693.9,293.1 695.0,291.9 696.1,290.6 697.2,289.3 698.3,288.1 699.4,286.8 700.6,285.5 701.7,284.2 702.8,283.1 703.9,281.9 705.0,280.7 706.1,279.4 707.2,278.2 708.3,276.9 709.4,275.7 710.5,274.4 711.6,273.2 712.8,271.9 713.9,270.7 715.0,269.4 716.1,268.1 717.2,266.9 718.3,265.7 719.4,264.5 720.5,263.3 721.6,262.1 722.7,262.1 723.8,259.6 725.0,258.3 726.1,257.1 727.2,255.8 728.3,254.6 729.4,253.3 730.5,252.1 731.6,250.8 732.7,249.6 733.8,248.3 734.9,247.1 736.0,245.9 737.2,244.8 738.3,243.6 739.4,242.3 740.5,241.1 741.6,239.9 742.7,238.6 743.8,237.4 744.9,236.1 746.0,234.9 747.1,233.6 748.2,232.3 749.3,231.0 750.5,229.8 751.6,228.6 752.7,227.4 753.8,226.2 754.9,224.9 756.0,223.7 757.1,222.4 758.2,221.2 759.3,220.0 760.4,218.7 761.5,217.4 762.7,216.2 763.8,214.9 764.9,213.7 766.0,212.4 767.1,211.2 768.2,210.1 769.3,208.9 770.4,207.7 771.5,206.4 772.6,205.2 773.7,203.9 774.9,202.7 776.0,201.4 777.1,200.2 778.2,198.9 779.3,197.6 780.4,196.4 781.5,195.2 782.6,193.9 783.7,192.7 784.8,191.5 785.9,190.3 787.0,189.1 788.1,187.8 789.3,186.6 790.4,185.4 791.5,184.1 792.6,182.9 793.7,181.6 794.8,180.3 795.9,179.1 797.0,177.8 798.1,176.6 799.2,175.4 800.3,174.2 801.4,173.0 802.5,171.8 803.7,170.5 804.8,169.3 805.9,168.0 807.0,166.8 808.1,165.5 809.2,164.3 810.3,163.0 811.4,161.7 812.5,160.5 813.6,159.3 814.7,158.1 815.8,156.9 816.9,155.7 818.1,154.4 819.2,153.2 820.3,152.0 821.4,150.7 822.5,149.5 823.6,148.2 824.7,147.0 825.8,145.7 826.9,144.4 828.0,143.2 829.1,141.9 830.2,140.7 831.4,139.5 832.5,138.3 833.6,137.1 834.7,135.9 835.8,134.6 836.9,133.4 838.0,132.1 839.1,130.9 840.2,129.7 841.3,128.4 842.4,127.1 843.5,125.9 844.6,125.9 845.8,123.4 846.9,122.2 848.0,121.0 849.1,119.7 850.2,118.5 851.3,117.3 852.4,114.8 853.5,114.8 854.6,112.3 855.7,112.3 856.8,111.1 857.9,109.8 859.1,108.5 860.2,107.3 861.3,106.1 862.4,104.8 863.5,103.6 864.6,102.8 865.7,102.1 866.8,101.0 867.9,99.8 869.0,98.5 870.1,97.1 871.2,95.8 872.3,94.5 873.5,93.1 874.6,91.8 875.7,90.4 876.9,89.1 878.0,87.8 879.2,86.7 880.4,85.6 881.5,84.7 882.7,83.9 883.9,82.6 885.1,82.1 886.2,81.6 887.4,81.3 888.6,81.3 889.7,80.8 890.9,80.6 892.1,80.4 893.2,80.3 894.4,80.2 895.6,80.2 896.7,80.1 920.0,80.1"/>
    <polyline fill="none" stroke="#ea580c" stroke-width="1.8" points="80.0,302.4 81.1,302.4 82.2,302.4 83.3,307.1 84.4,320.0 85.5,331.1 86.7,343.4 87.8,354.9 88.9,364.6 90.0,374.9 91.1,383.1 92.2,391.0 93.3,397.3 94.4,402.9 95.5,406.9 96.6,410.1 97.7,410.7 98.9,412.1 100.0,414.9 101.1,418.6 102.2,425.3 103.3,428.5 104.4,431.9 105.5,428.5 106.6,425.5 107.7,424.2 108.8,422.7 109.9,421.7 111.0,424.4 112.2,423.1 113.3,422.4 114.4,422.7 115.5,423.2 116.6,422.1 117.7,426.0 118.8,427.0 119.9,431.9 121.0,433.1 122.1,429.0 123.2,425.6 124.4,424.6 125.5,423.7 126.6,423.6 127.7,425.3 128.8,425.3 129.9,422.6 131.0,422.6 132.1,423.4 133.2,426.5 134.3,429.3 135.4,429.8 136.5,432.7 137.6,430.2 138.8,426.6 139.9,425.0 141.0,424.0 142.1,424.6 143.2,424.6 144.3,425.4 145.4,424.1 146.5,424.3 147.6,424.2 148.7,424.3 149.8,428.7 150.9,430.0 152.0,431.5 153.2,429.4 154.3,428.6 155.4,425.1 156.5,423.8 157.6,423.1 158.7,424.4 159.8,424.4 160.9,425.8 162.0,424.0 163.1,422.8 164.2,425.5 165.3,426.8 166.4,429.6 167.5,429.5 168.7,430.3 169.8,428.7 170.9,426.8 172.0,425.6 173.1,424.6 174.2,422.6 175.3,424.4 176.4,424.9 177.5,423.3 178.6,423.4 179.7,425.6 180.8,426.9 182.0,426.9 183.1,430.2 184.2,431.5 185.3,428.8 186.4,427.6 187.5,424.0 188.6,422.8 189.7,423.0 190.8,423.6 191.9,426.0 193.0,425.0 194.1,423.6 195.2,425.0 196.4,425.5 197.5,427.8 198.6,431.4 199.7,433.8 200.8,430.4 201.9,428.7 203.0,426.5 204.1,426.5 205.2,421.2 206.3,423.1 207.4,425.0 208.5,426.2 209.6,423.3 210.8,425.5 211.9,425.2 213.0,427.5 214.1,430.2 215.2,431.6 216.3,430.5 217.4,428.5 218.5,424.5 219.6,424.5 220.7,421.6 221.8,423.1 222.9,423.8 224.0,425.0 225.2,423.7 226.3,423.6 227.4,424.0 228.5,425.6 229.6,427.1 230.7,433.9 231.8,433.9 232.9,430.2 234.0,427.7 235.1,426.2 236.2,422.3 237.3,423.1 238.4,424.9 239.6,422.7 240.7,426.9 241.8,421.9 242.9,424.3 244.0,425.7 245.1,426.1 246.2,430.0 247.3,434.2 248.4,430.5 249.5,428.7 250.6,426.7 251.7,425.2 252.8,421.9 254.0,424.8 255.1,424.4 256.2,426.2 257.3,423.1 258.4,422.6 259.5,423.7 260.6,428.9 261.7,430.5 262.8,431.7 263.9,430.6 265.0,427.8 266.1,428.7 267.3,425.6 268.4,423.3 269.5,423.3 270.6,423.2 271.7,421.6 272.8,423.9 273.9,419.6 275.0,430.8 276.1,427.3 277.2,428.6 278.3,431.7 279.4,433.8 280.6,430.1 281.7,427.1 282.8,426.8 283.9,423.0 285.0,421.5 286.1,423.0 287.2,425.6 288.3,425.1 289.4,424.3 290.5,424.6 291.6,423.7 292.7,427.1 293.8,430.0 294.9,430.3 296.1,430.2 297.2,427.9 298.3,426.3 299.4,424.8 300.5,424.3 301.6,423.4 302.7,425.6 303.8,425.6 304.9,423.3 306.0,423.3 307.1,424.6 308.3,427.3 309.4,428.2 310.5,429.9 311.6,431.6 312.7,429.3 313.8,427.7 314.9,425.4 316.0,422.3 317.1,423.0 318.2,424.6 319.3,425.1 320.4,425.2 321.5,423.9 322.7,423.9 323.8,425.8 324.9,427.7 326.0,428.5 327.1,430.4 328.2,430.2 329.3,426.6 330.4,426.4 331.5,424.0 332.6,424.0 333.7,425.2 334.8,426.0 335.9,425.4 337.1,423.7 338.2,423.8 339.3,425.5 340.4,426.5 341.5,430.1 342.6,430.1 343.7,431.9 344.8,427.7 345.9,426.7 347.0,424.8 348.1,423.3 349.2,423.6 350.4,424.3 351.5,425.7 352.6,424.6 353.7,424.1 354.8,424.4 355.9,426.4 357.0,427.5 358.1,430.7 359.2,430.3 360.3,428.9 361.4,427.9 362.6,425.6 363.7,423.6 364.8,422.4 365.9,425.5 367.0,425.0 368.1,425.0 369.2,423.9 370.3,424.1 371.4,424.4 372.5,427.1 373.6,429.8 374.8,430.8 375.9,431.1 377.0,427.5 378.1,426.7 379.2,424.9 380.3,422.7 381.4,423.7 382.5,425.1 383.6,425.5 384.7,423.9 385.8,424.0 386.9,425.0 388.1,426.5 389.2,428.8 390.3,430.4 391.4,431.3 392.5,428.7 393.6,427.8 394.7,425.8 395.8,422.0 396.9,424.0 398.0,424.6 399.1,425.1 400.3,425.6 401.4,423.7 402.5,424.0 403.6,424.0 404.7,426.7 405.8,429.6 406.9,431.3 408.0,430.7 409.1,428.2 410.2,425.5 411.3,424.5 412.5,422.3 413.6,424.3 414.7,424.6 415.8,424.0 416.9,423.4 418.0,424.3 419.1,424.3 420.2,431.2 421.3,431.2 422.4,431.5 423.5,427.8 424.6,425.8 425.7,426.1 426.9,422.8 428.0,424.9 429.1,425.7 430.2,426.2 431.3,423.7 432.4,421.9 433.5,422.7 434.7,422.8 435.8,425.6 436.9,428.0 438.0,431.0 439.1,430.2 440.2,424.6 441.3,428.9 442.4,425.1 443.5,422.9 444.6,422.9 445.7,424.8 446.8,425.8 448.0,425.1 449.1,422.8 450.2,425.7 451.3,425.5 452.4,430.3 453.5,432.5 454.6,436.9 455.7,429.5 456.8,427.8 457.9,420.0 459.0,422.1 460.1,424.3 461.3,425.2 462.4,426.4 463.5,419.6 464.6,426.3 465.7,427.0 466.8,429.7 467.9,428.8 469.0,433.9 470.1,435.8 471.2,432.1 472.3,425.8 473.5,425.0 474.6,420.1 475.7,423.6 476.8,424.3 477.9,424.5 479.0,424.6 480.1,422.8 481.2,406.8 482.3,381.6 483.4,360.1 484.5,338.7 485.6,315.2 486.8,302.4 487.9,291.5 489.0,270.5 490.1,245.9 491.2,245.9 492.3,228.0 493.4,216.9 494.5,210.8 495.6,204.1 496.7,201.2 497.8,195.6 498.9,188.9 500.0,186.2 501.2,182.4 502.3,181.3 503.4,181.6 504.5,179.2 505.6,176.8 506.7,177.9 507.8,177.6 508.9,174.0 510.0,174.0 511.1,176.8 512.2,183.4 513.3,184.1 514.4,182.2 515.6,178.3 516.7,184.5 517.8,179.7 518.9,176.5 520.0,172.0 521.1,175.0 522.2,181.7 523.3,176.4 524.4,174.2 525.5,174.5 526.6,176.0 527.7,180.7 528.9,182.9 530.0,182.3 531.1,181.4 532.2,181.1 533.3,177.4 534.4,178.4 535.5,178.1 536.6,176.7 537.7,176.4 538.8,176.2 539.9,174.6 541.0,173.8 542.1,175.0 543.3,178.2 544.4,181.2 545.5,182.7 546.6,182.5 547.7,182.1 548.8,181.2 549.9,181.2 551.0,182.5 552.1,178.7 553.2,178.5 554.3,176.2 555.4,176.2 556.5,174.0 557.7,174.0 558.8,178.0 559.9,182.2 561.0,183.2 562.1,181.1 563.2,180.6 564.3,178.8 565.4,177.2 566.5,178.3 567.6,178.3 568.7,177.4 569.8,178.3 570.9,176.2 572.0,175.7 573.2,175.7 574.3,177.5 575.4,180.1 576.5,182.4 577.6,182.0 578.7,182.2 579.8,180.5 580.9,178.8 582.0,178.8 583.1,179.3 584.2,179.0 585.3,176.5 586.5,176.9 587.6,176.4 588.7,175.2 589.8,176.3 590.9,178.4 592.0,180.4 593.1,182.6 594.2,181.4 595.3,179.7 596.4,179.7 597.5,178.2 598.6,179.0 599.7,179.4 600.9,177.6 602.0,177.6 603.1,177.3 604.2,175.9 605.3,176.8 606.4,176.9 607.5,180.4 608.6,182.3 609.7,181.2 610.8,181.8 611.9,179.9 613.0,178.4 614.1,178.7 615.2,179.2 616.3,178.0 617.5,177.6 618.6,177.3 619.7,177.3 620.8,176.2 621.9,177.5 623.0,178.0 624.1,181.8 625.2,182.5 626.3,181.4 627.4,181.0 628.5,178.6 629.6,176.8 630.7,180.1 631.9,177.7 633.0,176.4 634.1,176.4 635.2,176.2 636.3,175.9 637.4,176.5 638.5,177.9 639.6,181.2 640.7,182.2 641.8,182.1 642.9,181.6 644.0,180.2 645.1,178.2 646.3,178.7 647.4,178.0 648.5,177.5 649.6,178.7 650.7,177.0 651.8,187.5 652.9,249.3 654.0,193.5 655.1,178.5 656.2,175.7 657.3,174.4 658.4,173.9 659.5,172.1 660.7,170.6 661.8,168.2 662.9,171.8 664.0,170.8 665.1,171.0 666.2,171.4 667.3,173.0 668.4,171.5 669.5,173.5 670.6,175.1 671.7,179.2 672.9,181.1 674.0,180.0 675.1,179.4 676.2,180.2 677.3,174.6 678.4,177.1 679.5,177.1 680.6,177.1 681.7,177.3 682.8,177.3 683.9,177.7 685.0,176.9 686.1,180.5 687.3,180.5 688.4,183.1 689.5,182.6 690.6,182.0 691.7,177.3 692.8,177.3 693.9,178.6 695.0,179.2 696.1,178.5 697.2,176.4 698.3,175.6 699.4,175.2 700.6,174.4 701.7,174.9 702.8,177.6 703.9,183.3 705.0,188.3 706.1,182.7 707.2,175.7 708.3,177.3 709.4,174.0 710.5,179.6 711.6,177.5 712.8,178.0 713.9,177.0 715.0,176.9 716.1,174.7 717.2,177.0 718.3,178.5 719.4,178.3 720.5,183.7 721.6,183.0 722.7,181.9 723.8,181.9 725.0,177.1 726.1,178.5 727.2,178.6 728.3,177.2 729.4,178.4 730.5,176.5 731.6,176.7 732.7,177.1 733.8,176.8 734.9,179.4 736.0,182.4 737.2,183.1 738.3,182.9 739.4,183.6 740.5,178.4 741.6,177.6 742.7,181.3 743.8,178.7 744.9,178.9 746.0,178.6 747.1,175.9 748.2,173.4 749.3,171.9 750.5,175.6 751.6,178.8 752.7,182.0 753.8,182.6 754.9,180.9 756.0,179.6 757.1,176.8 758.2,179.4 759.3,178.7 760.4,177.7 761.5,176.5 762.7,176.2 763.8,176.1 764.9,175.9 766.0,178.8 767.1,180.4 768.2,182.6 769.3,183.3 770.4,183.1 771.5,181.3 772.6,178.1 773.7,178.2 774.9,178.2 776.0,178.3 777.1,176.9 778.2,176.5 779.3,176.3 780.4,176.8 781.5,176.8 782.6,180.5 783.7,181.0 784.8,182.1 785.9,181.1 787.0,178.4 788.1,177.7 789.3,179.6 790.4,179.7 791.5,178.9 792.6,176.3 793.7,176.0 794.8,175.0 795.9,176.9 797.0,178.7 798.1,179.5 799.2,182.4 800.3,182.7 801.4,181.3 802.5,180.5 803.7,177.2 804.8,177.7 805.9,178.9 807.0,177.3 808.1,178.1 809.2,175.6 810.3,176.3 811.4,177.1 812.5,177.7 813.6,180.0 814.7,181.4 815.8,181.8 816.9,182.6 818.1,181.3 819.2,178.0 820.3,178.0 821.4,178.4 822.5,178.8 823.6,177.0 824.7,177.6 825.8,175.6 826.9,175.9 828.0,176.5 829.1,178.8 830.2,180.9 831.4,181.7 832.5,181.7 833.6,181.8 834.7,180.1 835.8,177.1 836.9,178.4 838.0,178.5 839.1,178.4 840.2,177.7 841.3,175.6 842.4,177.2 843.5,175.4 844.6,175.4 845.8,180.6 846.9,181.3 848.0,181.1 849.1,181.1 850.2,181.6 851.3,177.4 852.4,179.5 853.5,179.5 854.6,177.3 855.7,177.3 856.8,178.1 857.9,175.3 859.1,176.0 860.2,176.8 861.3,179.7 862.4,181.4 863.5,182.7 864.6,216.9 865.7,238.1 866.8,188.4 867.9,177.6 869.0,172.7 870.1,171.1 871.2,168.6 872.3,167.7 873.5,168.8 874.6,168.3 875.7,168.8 876.9,170.3 878.0,174.9 879.2,185.6 880.4,196.9 881.5,210.3 882.7,222.0 883.9,233.1 885.1,241.8 886.2,250.9 887.4,259.1 888.6,267.9 889.7,267.9 890.9,280.9 892.1,284.3 893.2,290.3 894.4,293.0 895.6,295.3 896.7,295.8 920.0,302.2"/>
    
    <text x="500.0" y="598" text-anchor="middle" font-size="13" fill="#111827">time (s)</text>
    <text x="24" y="310.0" transform="rotate(-90 24 310.0)" text-anchor="middle" font-size="13" fill="#111827">angle (deg)</text>
    <text x="976" y="310.0" transform="rotate(90 976 310.0)" text-anchor="middle" font-size="13" fill="#7c2d12">velocity (deg/s)</text>
    <rect x="80" y="586" width="12" height="3" fill="#2563eb"/><text x="98" y="592" font-size="12" fill="#111827">measured angle</text>
    <rect x="225" y="586" width="12" height="3" fill="#6b7280"/><text x="243" y="592" font-size="12" fill="#111827">target angle</text>
    <rect x="360" y="586" width="12" height="3" fill="#ea580c"/><text x="378" y="592" font-size="12" fill="#111827">measured velocity</text>
  </g>
</svg>
